<svg width="10" height="22" viewBox="0 0 10 22" fill="none" xmlns="http://www.w3.org/2000/svg">
<path d="M5.00003 0.770996C6.58867 0.771102 8.08854 1.31104 8.99967 2.27137C9.92026 3.23172 10.1782 4.53432 9.88508 5.89228C9.8342 6.13123 9.7833 6.3705 9.73242 6.60946C8.81651 10.9112 7.90049 15.213 6.98458 19.5147C6.9337 19.7536 6.8828 19.9929 6.83192 20.2319C6.74384 20.6399 6.47352 21.0315 6.13161 21.3201C5.78672 21.6087 5.3976 21.7711 5.00003 21.7712C4.60241 21.7712 4.2134 21.6086 3.86845 21.3201C3.52644 21.0315 3.25627 20.64 3.16814 20.2319C3.11726 19.9929 3.06636 19.7536 3.01548 19.5147C2.09956 15.213 1.18355 10.9112 0.267636 6.60946C0.216757 6.3705 0.165856 6.13124 0.114978 5.89228C-0.178207 4.53416 0.0795842 3.23177 1.00039 2.27137C1.91163 1.3111 3.41136 0.770996 5.00003 0.770996Z" fill="#F8B500"/>
</svg>
