<svg width="10" height="21" viewBox="0 0 10 21" fill="none" xmlns="http://www.w3.org/2000/svg">
<path d="M5.00003 0.0200195C6.58867 0.0201208 8.08854 0.53434 8.99967 1.44893C9.92026 2.36354 10.1782 3.60409 9.88508 4.89737C9.8342 5.12495 9.7833 5.35281 9.73242 5.58039C8.81651 9.67721 7.90049 13.7741 6.98458 17.8709C6.9337 18.0985 6.8828 18.3264 6.83192 18.554C6.74384 18.9426 6.47352 19.3155 6.13161 19.5904C5.78672 19.8652 5.3976 20.0199 5.00003 20.02C4.60241 20.02 4.2134 19.8651 3.86845 19.5904C3.52644 19.3155 3.25627 18.9426 3.16814 18.554C3.11726 18.3264 3.06636 18.0985 3.01548 17.8709C2.09956 13.7741 1.18355 9.67721 0.267636 5.58039C0.216757 5.35281 0.165856 5.12495 0.114978 4.89737C-0.178207 3.60395 0.0795842 2.36359 1.00039 1.44893C1.91163 0.534397 3.41136 0.0200195 5.00003 0.0200195Z" fill="#C50D47"/>
</svg>
