<svg width="7" height="13" viewBox="0 0 7 13" fill="none" xmlns="http://www.w3.org/2000/svg">
<path d="M3.83006 0.52002C4.78997 0.52002 5.69517 0.839269 6.24057 1.40694C6.79212 1.97468 6.93897 2.74446 6.75465 3.54737C6.72419 3.6819 6.69372 3.81687 6.66326 3.95141C6.11496 6.37302 5.56648 8.79464 5.01818 11.2163C4.98772 11.3508 4.95725 11.4858 4.92678 11.6203C4.87199 11.8589 4.70877 12.0882 4.50409 12.2569C4.29753 12.4256 4.06609 12.52 3.83006 12.52C3.59406 12.52 3.36257 12.4256 3.15604 12.2569C2.9514 12.0881 2.78811 11.8589 2.73334 11.6203C2.70288 11.4858 2.67241 11.3508 2.64195 11.2163C2.09365 8.79464 1.54517 6.37302 0.996866 3.95141C0.966405 3.81687 0.935933 3.6819 0.905473 3.54737C0.721184 2.74453 0.868109 1.97465 1.41956 1.40694C1.9649 0.839242 2.87018 0.520067 3.83006 0.52002Z" fill="#C50D47"/>
</svg>
