<svg width="24" height="24" viewBox="0 0 24 24" fill="none" xmlns="http://www.w3.org/2000/svg">
<rect width="24" height="24" rx="12" fill="white"/>
<g clip-path="url(#clip0_3925_14729)">
<rect width="16" height="16" transform="translate(4 3)" fill="white"/>
<path fill-rule="evenodd" clip-rule="evenodd" d="M14.8037 6.83639C16.2128 6.90772 17.3337 8.073 17.3337 9.4998V13.6665L17.3298 13.8038C17.2605 15.1673 16.1672 16.2609 14.8037 16.3299L14.667 16.3331H9.33366L9.19629 16.3299C7.78744 16.2584 6.66711 15.093 6.66699 13.6665V9.4998C6.66699 8.07311 7.78736 6.90787 9.19629 6.83639L9.33366 6.83313H14.667L14.8037 6.83639ZM7.7334 13.6665C7.73352 14.55 8.45008 15.2667 9.33366 15.2667H14.667C15.5504 15.2665 16.2665 14.5499 16.2666 13.6665V10.1528L12.9339 12.0773C12.3565 12.4107 11.6442 12.4106 11.0667 12.0773L7.7334 10.1521V13.6665ZM9.33366 7.89954C8.6348 7.89954 8.04128 8.34786 7.82324 8.97245L11.6006 11.1534C11.8479 11.296 12.1528 11.2961 12.4001 11.1534L16.1755 8.9731C15.9576 8.34849 15.3658 7.89968 14.667 7.89954H9.33366Z" fill="#169E4A"/>
</g>
<defs>
<clipPath id="clip0_3925_14729">
<rect width="16" height="16" fill="white" transform="translate(4 3)"/>
</clipPath>
</defs>
</svg>
