<svg width="24" height="24" viewBox="0 0 24 24" fill="none" xmlns="http://www.w3.org/2000/svg">
<rect width="24" height="24" rx="12" fill="white"/>
<g clip-path="url(#clip0_3925_14719)">
<rect width="16" height="16" transform="translate(4 4)" fill="white"/>
<path fill-rule="evenodd" clip-rule="evenodd" d="M8.15457 7.47262C8.53193 7.52917 8.87372 7.72396 9.11616 8.01754C9.45181 8.39075 9.80134 8.71479 10.1865 9.10022C10.4194 9.31345 10.5646 9.60569 10.5921 9.92118L10.5953 9.95504L10.594 9.98824C10.583 10.2715 10.4738 10.5427 10.2854 10.7545L10.2848 10.7539C10.1448 10.9263 9.97342 11.0945 9.85965 11.2135L9.85249 11.2213L9.84467 11.2291C9.81812 11.2547 9.79731 11.2861 9.78478 11.3209C9.77742 11.3414 9.77401 11.3631 9.77241 11.3847C9.83721 11.5587 9.93607 11.7183 10.0667 11.8509L10.0947 11.8789L10.1175 11.9108C10.3529 12.2331 10.5893 12.5315 10.8577 12.8502L11.0335 13.0455C11.3937 13.4284 11.8003 13.7649 12.2438 14.0468L12.4684 14.1829L12.4964 14.1992L12.5224 14.2194C12.5381 14.2312 12.557 14.2385 12.5764 14.2408L12.6057 14.2402C12.6091 14.2397 12.6122 14.2378 12.6155 14.2369C12.7645 14.1487 12.8981 14.0368 13.0087 13.9036C13.2348 13.6293 13.5586 13.4529 13.9117 13.4114L13.956 13.4062L14.0009 13.4088C14.312 13.4247 14.6052 13.5531 14.829 13.7675L14.9742 13.9003C15.1183 14.0398 15.2545 14.1916 15.3434 14.2806C15.4707 14.4079 15.6175 14.5457 15.7542 14.692C15.9293 14.8471 16.095 15.0129 16.2496 15.1888L16.2613 15.2018L16.2711 15.2148C16.4633 15.4636 16.5556 15.7763 16.5289 16.0898L16.525 16.136L16.5133 16.1816C16.4301 16.4942 16.2524 16.7724 16.0068 16.9817C15.7135 17.2811 15.3605 17.5156 14.9697 17.6673C14.57 17.8223 14.1411 17.8886 13.7132 17.8606C12.939 17.8165 12.1809 17.6203 11.482 17.2838C11.3296 17.2139 11.1592 17.1358 10.9866 17.0423L10.982 17.0403L10.9781 17.0377C10.1781 16.5856 9.44321 16.0266 8.79389 15.3763C7.95502 14.5833 7.26487 13.6456 6.75808 12.608C6.47996 12.0372 6.29144 11.4262 6.19819 10.7981L6.15782 10.5371C6.08609 9.92648 6.17545 9.30607 6.41889 8.73824L6.43387 8.70243L6.4547 8.66858C6.62421 8.39302 6.82861 8.14047 7.06277 7.91728C7.18629 7.78685 7.33225 7.67942 7.49506 7.60282C7.67085 7.52014 7.8621 7.47389 8.05626 7.46676L8.10574 7.46545L8.15457 7.47262ZM8.0465 8.53967C8.01312 8.54534 7.9803 8.55384 7.94949 8.56832C7.90382 8.5898 7.86275 8.62041 7.82905 8.65816L7.81473 8.67444L7.7991 8.68941C7.64078 8.84029 7.50164 9.01007 7.38439 9.19462C7.2261 9.58064 7.16855 9.99986 7.21707 10.4127L7.24767 10.6074L7.24962 10.6204C7.32572 11.1481 7.48362 11.6607 7.71707 12.1399L7.89415 12.483C8.26411 13.1609 8.72441 13.7855 9.26199 14.3398L9.53673 14.6113L9.54324 14.6165L9.5491 14.6224C10.129 15.2031 10.7848 15.7027 11.499 16.1067C11.5659 16.1429 11.6335 16.1767 11.7034 16.2102L11.9267 16.3144L11.9319 16.3164L11.9371 16.319C12.4412 16.5628 12.9831 16.7171 13.5387 16.776L13.7783 16.7955L13.7828 16.7962C14.0554 16.814 14.3288 16.7719 14.5836 16.6731C14.8385 16.5742 15.0693 16.4205 15.2587 16.2233L15.2815 16.1998L15.3063 16.179C15.3782 16.1204 15.4319 16.0433 15.4645 15.957C15.4604 15.9282 15.4499 15.9006 15.4332 15.8763C15.31 15.7376 15.1787 15.6059 15.0393 15.483L15.0172 15.4642L14.9977 15.4427C14.9348 15.3738 14.8792 15.318 14.816 15.2565L14.5888 15.0345C14.3852 14.8306 14.2919 14.7115 14.137 14.5794L14.1168 14.5625L14.0986 14.5436C14.0686 14.5125 14.0308 14.4907 13.9899 14.4804C13.9283 14.4974 13.8728 14.5325 13.8317 14.5826L13.8297 14.5852C13.6276 14.8286 13.3822 15.033 13.1064 15.1875L13.0823 15.2005L13.0576 15.2115C12.8662 15.2944 12.6562 15.3248 12.4495 15.3001C12.2548 15.2766 12.0689 15.2042 11.9091 15.0911C11.2095 14.6824 10.5815 14.1617 10.0511 13.5488L10.0465 13.5429C9.76956 13.2142 9.5224 12.9023 9.27566 12.5657C9.02928 12.3058 8.84333 11.9938 8.734 11.6523L8.71837 11.6022L8.71251 11.5501C8.68986 11.3507 8.71294 11.1485 8.78087 10.9596C8.84633 10.7777 8.95196 10.6129 9.08881 10.4765L9.30236 10.2565C9.36393 10.1923 9.41751 10.1332 9.46837 10.069L9.47814 10.0566L9.48855 10.0455C9.50634 10.0255 9.51595 10.0005 9.52176 9.97457C9.5111 9.93884 9.49044 9.90669 9.46186 9.88212L9.44689 9.86845L9.43256 9.85413C9.08303 9.50432 8.68423 9.13115 8.32384 8.73043L8.31212 8.71806L8.30105 8.70439C8.23629 8.62235 8.1465 8.56592 8.0465 8.53967Z" fill="#169E4A"/>
<path d="M12.3336 8.46676C13.1823 8.46677 13.9965 8.8035 14.5966 9.4036C15.1967 10.0037 15.5335 10.818 15.5335 11.6666C15.5334 11.9611 15.2947 12.1998 15.0003 12.1998C14.7058 12.1998 14.4672 11.9611 14.4671 11.6666C14.4671 11.1009 14.2421 10.5582 13.8421 10.1582C13.442 9.75811 12.8994 9.53318 12.3336 9.53316C12.0391 9.53316 11.8005 9.29444 11.8004 8.99996C11.8004 8.70541 12.0391 8.46676 12.3336 8.46676Z" fill="#169E4A"/>
<path d="M12.6669 6.13342C14.046 6.13344 15.3688 6.68103 16.344 7.65621C17.3191 8.63139 17.8668 9.95423 17.8668 11.3333C17.8667 11.6278 17.6281 11.8665 17.3336 11.8665C17.0391 11.8665 16.8005 11.6278 16.8004 11.3333C16.8004 10.2371 16.3646 9.18591 15.5895 8.41077C14.8143 7.63563 13.7631 7.19984 12.6669 7.19983C12.3724 7.19983 12.1338 6.9611 12.1337 6.66663C12.1337 6.37207 12.3724 6.13342 12.6669 6.13342Z" fill="#169E4A"/>
</g>
<defs>
<clipPath id="clip0_3925_14719">
<rect width="16" height="16" fill="white" transform="translate(4 4)"/>
</clipPath>
</defs>
</svg>
