<svg width="24" height="24" viewBox="0 0 24 24" fill="none" xmlns="http://www.w3.org/2000/svg">
<rect width="24" height="24" rx="12" fill="#E5E5E5"/>
<g clip-path="url(#clip0_3931_12938)">
<path fill-rule="evenodd" clip-rule="evenodd" d="M8.15436 7.47268C8.53172 7.52923 8.87351 7.72402 9.11594 8.0176C9.4516 8.39081 9.80112 8.71486 10.1863 9.10028C10.4192 9.31351 10.5644 9.60575 10.5919 9.92124L10.5951 9.9551L10.5938 9.9883C10.5828 10.2716 10.4736 10.5427 10.2852 10.7546L10.2846 10.7539C10.1446 10.9264 9.9732 11.0945 9.85943 11.2136L9.85227 11.2214L9.84446 11.2292C9.8179 11.2548 9.7971 11.2861 9.78456 11.321C9.77721 11.3415 9.7738 11.3631 9.77219 11.3848C9.837 11.5588 9.93585 11.7183 10.0665 11.8509L10.0945 11.8789L10.1172 11.9108C10.3527 12.2332 10.5891 12.5315 10.8575 12.8503L11.0333 13.0456C11.3935 13.4284 11.8001 13.7649 12.2435 14.0469L12.4682 14.183L12.4962 14.1992L12.5222 14.2194C12.5379 14.2313 12.5568 14.2385 12.5762 14.2409L12.6055 14.2403C12.6089 14.2397 12.612 14.2378 12.6153 14.237C12.7643 14.1488 12.8979 14.0369 13.0085 13.9037C13.2346 13.6294 13.5584 13.453 13.9115 13.4115L13.9558 13.4063L14.0007 13.4089C14.3118 13.4248 14.605 13.5532 14.8288 13.7676L14.974 13.9004C15.1181 14.0399 15.2543 14.1916 15.3432 14.2806C15.4704 14.4079 15.6173 14.5457 15.754 14.6921C15.9291 14.8472 16.0948 15.013 16.2494 15.1888L16.2611 15.2018L16.2709 15.2149C16.4631 15.4637 16.5554 15.7763 16.5287 16.0899L16.5248 16.1361L16.5131 16.1817C16.4299 16.4942 16.2521 16.7724 16.0066 16.9818C15.7133 17.2812 15.3603 17.5157 14.9695 17.6673C14.5698 17.8224 14.1409 17.8887 13.7129 17.8607C12.9388 17.8165 12.1806 17.6203 11.4818 17.2839C11.3294 17.214 11.159 17.1358 10.9864 17.0423L10.9818 17.0404L10.9779 17.0378C10.1779 16.5857 9.443 16.0267 8.79368 15.3763C7.9548 14.5834 7.26466 13.6456 6.75787 12.6081C6.47975 12.0373 6.29122 11.4263 6.19797 10.7982L6.15761 10.5371C6.08588 9.92654 6.17523 9.30613 6.41868 8.7383L6.43365 8.70249L6.45449 8.66864C6.624 8.39309 6.8284 8.14053 7.06256 7.91734C7.18607 7.78691 7.33204 7.67948 7.49485 7.60288C7.67063 7.5202 7.86188 7.47395 8.05605 7.46682L8.10553 7.46552L8.15436 7.47268ZM8.04628 8.53973C8.0129 8.5454 7.98009 8.5539 7.94928 8.56838C7.9036 8.58986 7.86253 8.62047 7.82883 8.65822L7.81451 8.6745L7.79889 8.68947C7.64057 8.84036 7.50143 9.01013 7.38417 9.19468C7.22589 9.5807 7.16834 9.99992 7.21686 10.4128L7.24745 10.6074L7.24941 10.6205C7.32551 11.1481 7.4834 11.6608 7.71686 12.14L7.89394 12.4831C8.2639 13.161 8.7242 13.7856 9.26178 14.3399L9.53652 14.6113L9.54303 14.6166L9.54889 14.6224C10.1287 15.2032 10.7846 15.7028 11.4988 16.1068C11.5657 16.1429 11.6333 16.1768 11.7032 16.2103L11.9265 16.3145L11.9317 16.3164L11.9369 16.319C12.441 16.5628 12.9829 16.7172 13.5385 16.7761L13.7781 16.7956L13.7826 16.7962C14.0552 16.8141 14.3286 16.772 14.5834 16.6732C14.8383 16.5743 15.0691 16.4206 15.2585 16.2233L15.2813 16.1999L15.306 16.1791C15.378 16.1205 15.4316 16.0433 15.4643 15.9571C15.4602 15.9282 15.4496 15.9006 15.433 15.8763C15.3098 15.7377 15.1785 15.606 15.0391 15.4831L15.017 15.4642L14.9975 15.4427C14.9346 15.3739 14.879 15.3181 14.8158 15.2565L14.5886 15.0345C14.385 14.8307 14.2917 14.7116 14.1368 14.5794L14.1166 14.5625L14.0984 14.5436C14.0684 14.5125 14.0306 14.4907 13.9896 14.4805C13.9281 14.4974 13.8726 14.5326 13.8314 14.5827L13.8295 14.5853C13.6273 14.8287 13.382 15.0331 13.1062 15.1875L13.0821 15.2005L13.0574 15.2116C12.866 15.2945 12.656 15.3249 12.4493 15.3001C12.2546 15.2767 12.0686 15.2043 11.9089 15.0912C11.2093 14.6825 10.5813 14.1617 10.0508 13.5488L10.0463 13.543C9.76935 13.2143 9.52219 12.9023 9.27545 12.5658C9.02907 12.3058 8.84312 11.9939 8.73378 11.6524L8.71816 11.6022L8.7123 11.5502C8.68965 11.3508 8.71273 11.1485 8.78066 10.9597C8.84612 10.7777 8.95175 10.613 9.0886 10.4766L9.30214 10.2565C9.36372 10.1923 9.4173 10.1333 9.46816 10.069L9.47792 10.0567L9.48834 10.0456C9.50612 10.0256 9.51573 10.0005 9.52154 9.97463C9.51089 9.9389 9.49022 9.90675 9.46165 9.88218L9.44667 9.86851L9.43235 9.85419C9.08281 9.50438 8.68401 9.13121 8.32363 8.73049L8.31191 8.71812L8.30084 8.70445C8.23608 8.62241 8.14629 8.56598 8.04628 8.53973Z" fill="#111111"/>
<path d="M12.3334 8.46682C13.1821 8.46683 13.9963 8.80356 14.5964 9.40367C15.1965 10.0038 15.5333 10.8181 15.5333 11.6667C15.5332 11.9611 15.2945 12.1999 15.0001 12.1999C14.7056 12.1999 14.4669 11.9612 14.4669 11.6667C14.4669 11.1009 14.2419 10.5583 13.8419 10.1582C13.4418 9.75818 12.8992 9.53324 12.3334 9.53322C12.0389 9.53322 11.8003 9.2945 11.8002 9.00002C11.8002 8.70547 12.0388 8.46682 12.3334 8.46682Z" fill="#111111"/>
<path d="M12.6667 6.13348C14.0458 6.1335 15.3686 6.68109 16.3438 7.65627C17.3189 8.63145 17.8666 9.95429 17.8666 11.3334C17.8665 11.6278 17.6279 11.8665 17.3334 11.8666C17.0389 11.8666 16.8003 11.6278 16.8002 11.3334C16.8002 10.2372 16.3643 9.18597 15.5893 8.41083C14.8141 7.63569 13.7629 7.1999 12.6667 7.19989C12.3722 7.19989 12.1336 6.96116 12.1335 6.66669C12.1335 6.37214 12.3722 6.13348 12.6667 6.13348Z" fill="#111111"/>
</g>
<defs>
<clipPath id="clip0_3931_12938">
<rect width="16" height="16" fill="white" transform="translate(4 4)"/>
</clipPath>
</defs>
</svg>
