<svg width="24" height="24" viewBox="0 0 24 24" fill="none" xmlns="http://www.w3.org/2000/svg">
<rect width="24" height="24" rx="12" fill="white"/>
<path d="M12.3541 17.478C12.1545 17.3865 11.9549 17.295 11.7553 17.1869C10.7774 16.6347 9.87921 15.952 9.08546 15.1575C8.05628 14.1889 7.21091 13.0421 6.59026 11.7723C6.25772 11.0903 6.03324 10.3608 5.92487 9.60982C5.77731 8.8513 5.86135 8.06593 6.16608 7.35582C6.35388 7.05071 6.58032 6.77116 6.83979 6.52409C6.94496 6.40629 7.07284 6.31093 7.21576 6.24377C7.35868 6.17659 7.5137 6.13897 7.67151 6.13318C8.00002 6.18234 8.29745 6.35485 8.50325 6.61558C8.95239 7.11462 9.43479 7.56375 9.90887 8.03784C10.0955 8.19799 10.212 8.42493 10.2333 8.66995C10.2253 8.87613 10.1459 9.07311 10.0087 9.22722C9.85065 9.42683 9.65936 9.60981 9.47637 9.80111C9.36594 9.90744 9.28149 10.0378 9.22955 10.182C9.17763 10.3262 9.15963 10.4805 9.17695 10.6328C9.29121 10.9895 9.4878 11.3143 9.75084 11.5811C10.0669 12.0135 10.383 12.4127 10.7406 12.8369C11.3832 13.5789 12.1449 14.2085 12.9945 14.7C13.112 14.7887 13.2509 14.8447 13.397 14.8623C13.5431 14.8798 13.6913 14.8583 13.8263 14.7998C14.1087 14.6418 14.3597 14.4332 14.5665 14.1844C14.7455 13.9664 15.0019 13.8263 15.2819 13.7934C15.531 13.8061 15.7659 13.9132 15.9389 14.0929C16.1635 14.2841 16.3548 14.5087 16.5627 14.7167C16.7707 14.9245 16.937 15.0743 17.1117 15.2656C17.3208 15.4498 17.5181 15.647 17.7021 15.8561C17.8449 16.0408 17.9133 16.2723 17.8935 16.5049C17.8194 16.7829 17.6593 17.0303 17.4361 17.2118C17.1221 17.5384 16.7406 17.7925 16.3182 17.9563C15.8959 18.12 15.4428 18.1896 14.9907 18.1601C14.0755 18.1087 13.1795 17.8769 12.3541 17.478Z" stroke="#169E4A" stroke-miterlimit="10" stroke-linecap="round"/>
<path d="M15.8341 11.4653C15.8341 10.5709 15.4788 9.71298 14.8463 9.08048C14.2138 8.44798 13.356 8.09265 12.4614 8.09265" stroke="#169E4A" stroke-miterlimit="10" stroke-linecap="round"/>
<path d="M18.1458 11.2296C18.1458 9.79841 17.5772 8.42585 16.5652 7.41385C15.5532 6.40185 14.1806 5.83331 12.7495 5.83331" stroke="#169E4A" stroke-miterlimit="10" stroke-linecap="round"/>
</svg>
