<svg width="24" height="24" viewBox="0 0 24 24" fill="none" xmlns="http://www.w3.org/2000/svg">
<rect width="24" height="24" rx="12" fill="#E5E5E5"/>
<g clip-path="url(#clip0_3931_12952)">
<path fill-rule="evenodd" clip-rule="evenodd" d="M14.8035 6.83645C16.2126 6.90778 17.3335 8.07307 17.3335 9.49986V13.6665L17.3296 13.8039C17.2603 15.1673 16.167 16.2609 14.8035 16.3299L14.6668 16.3332H9.33349L9.19612 16.3299C7.78727 16.2585 6.66695 15.0931 6.66682 13.6665V9.49986C6.66682 8.07317 7.7872 6.90793 9.19612 6.83645L9.33349 6.83319H14.6668L14.8035 6.83645ZM7.73323 13.6665C7.73336 14.5501 8.44991 15.2668 9.33349 15.2668H14.6668C15.5502 15.2666 16.2663 14.55 16.2664 13.6665V10.1529L12.9338 12.0773C12.3563 12.4107 11.6441 12.4106 11.0666 12.0773L7.73323 10.1522V13.6665ZM9.33349 7.8996C8.63463 7.8996 8.04111 8.34792 7.82307 8.97251L11.6004 11.1535C11.8478 11.2961 12.1526 11.2962 12.3999 11.1535L16.1753 8.97317C15.9575 8.34855 15.3656 7.89974 14.6668 7.8996H9.33349Z" fill="#111111"/>
</g>
<defs>
<clipPath id="clip0_3931_12952">
<rect width="16" height="16" fill="white" transform="translate(4 3)"/>
</clipPath>
</defs>
</svg>
