<svg width="226" height="108" viewBox="0 0 226 108" fill="none" xmlns="http://www.w3.org/2000/svg">
<path d="M65.3136 0.991943C45.5842 11.0295 29.0306 26.3498 17.4985 45.2446C5.96637 64.1394 -0.0926874 84.8642 0.000244141 107L119.501 107.5L65.3136 0.991943Z" fill="url(#paint0_linear_137_26)" fill-opacity="0.2"/>
<path d="M20.4376 57.4996C20.2998 57.6218 20.1357 57.737 19.9454 57.8452C19.7574 57.9486 19.5634 58.04 19.3634 58.1196C19.1586 58.1968 18.9573 58.2609 18.7596 58.3118C18.5594 58.3556 18.377 58.3815 18.2125 58.3893C18.3204 58.532 18.4166 58.7045 18.501 58.9069C18.5877 59.1045 18.6601 59.3128 18.7183 59.532C18.7741 59.7441 18.8144 59.9574 18.8392 60.1719C18.8592 60.3841 18.8612 60.5785 18.8453 60.7551L18.027 61.0019C18.0424 60.6941 18.022 60.3985 17.9659 60.1149C17.9051 59.8289 17.8097 59.5646 17.6799 59.3219C17.5524 59.0744 17.3904 58.8544 17.194 58.6621C16.9952 58.4626 16.7619 58.2966 16.4942 58.1642L15.4114 57.6287L14.7659 58.9338L14.0488 58.5791L15.8116 55.0152L16.5286 55.3699L15.876 56.6893L16.9517 57.2213C17.2098 57.349 17.4749 57.4325 17.747 57.4719C18.0167 57.5041 18.2874 57.4982 18.5591 57.454C18.8308 57.4099 19.0976 57.3277 19.3594 57.2073C19.6189 57.0798 19.8674 56.9201 20.1051 56.7282L20.4376 57.4996ZM22.7621 56.4448L22.3259 57.3268L18.6329 55.5003L18.0087 56.7623L17.2629 56.3935L17.8871 55.1314L16.0442 54.2199L16.4805 53.3379L22.7621 56.4448Z" fill="#5AB651"/>
<path d="M23.072 47.5036C22.897 47.6979 22.7086 47.8782 22.5066 48.0444C22.3001 48.208 22.0888 48.3534 21.8727 48.4805C21.6593 48.603 21.4414 48.7013 21.2192 48.7754C20.9969 48.8496 20.7779 48.8916 20.5622 48.9017C20.6605 49.0825 20.7331 49.2915 20.7799 49.5287C20.8268 49.766 20.8491 50.0136 20.8469 50.2716C20.8473 50.5249 20.8249 50.7804 20.7797 51.038C20.7344 51.2956 20.6698 51.5389 20.5857 51.7677L19.7266 51.9705C19.8709 51.6595 19.9703 51.3409 20.0247 51.0146C20.0792 50.6882 20.0895 50.3794 20.0556 50.088C20.0245 49.792 19.9517 49.5304 19.8372 49.3032C19.7182 49.0732 19.5619 48.9018 19.3684 48.789L19.1334 48.652L19.6412 47.7812L19.8761 47.9182C20.0742 48.0337 20.3004 48.0853 20.5545 48.073C20.8087 48.0607 21.0699 47.9938 21.3382 47.8725C21.6065 47.7511 21.8729 47.5854 22.1374 47.3754C22.4 47.158 22.636 46.9067 22.8456 46.6214L23.072 47.5036ZM24.4719 47.4216L21.2079 53.0195L20.5375 52.6286L21.9278 50.2443L21.2367 49.8413L21.7404 48.9775L22.4315 49.3804L23.8016 47.0307L24.4719 47.4216ZM26.6467 49.6157L26.1551 50.4589L24.69 49.6046L22.6953 53.0255L22.018 52.6306L24.5043 48.3665L26.6467 49.6157Z" fill="#5AB651"/>
<path d="M30.9739 41.8491L27.4574 47.033L26.802 46.5884L28.3649 44.2844L26.9878 43.3503L25.8246 45.065L22.7461 42.9767L23.2985 42.1624L25.715 43.8016L27.9515 40.5046L28.6136 40.9537L27.5447 42.5294L28.9218 43.4635L30.3185 41.4045L30.9739 41.8491Z" fill="#5AB651"/>
<path d="M36.1425 36.3393L35.5431 37.0994L34.3433 36.1532C34.1721 36.5683 33.933 36.9707 33.6258 37.3601L31.565 39.9733L30.9431 39.4828L31.9735 38.1763L31.4522 37.7651C31.289 37.8945 31.111 37.9953 30.9183 38.0674C30.7288 38.1354 30.538 38.175 30.3456 38.1864C30.1566 38.1935 29.9715 38.1698 29.7904 38.1153C29.6051 38.0574 29.437 37.9691 29.2863 37.8502C29.1104 37.7115 28.9663 37.5367 28.8541 37.3259C28.7409 37.1076 28.6882 36.886 28.6957 36.6611L28.2202 37.2641L27.6171 36.7886L28.593 35.5511L27.9712 35.0606L28.5805 34.288L29.2024 34.7784L30.1486 33.5786L30.7516 34.0542L30.3107 34.6133C30.546 34.5475 30.7813 34.5463 31.0166 34.6096C31.2511 34.6654 31.452 34.7594 31.6195 34.8915C31.7703 35.0104 31.8933 35.1516 31.9886 35.315C32.0838 35.4784 32.15 35.6529 32.1871 35.8384C32.2242 36.0238 32.2318 36.2166 32.2099 36.4167C32.188 36.6167 32.1348 36.8091 32.0503 36.9938L32.5779 37.4099L33.0386 36.8257C33.2005 36.6205 33.3411 36.4292 33.4607 36.2518C33.576 36.0711 33.6734 35.883 33.7529 35.6875L30.0467 32.7647L30.6461 32.0046L32.5306 33.4908L33.135 32.7244L33.8134 33.2595L33.209 34.0258L36.1425 36.3393ZM31.3967 36.621C31.4411 36.4183 31.426 36.2264 31.3515 36.0453C31.276 35.8568 31.1524 35.6948 30.9807 35.5594C30.8635 35.4669 30.7397 35.3999 30.6095 35.3583C30.4751 35.3135 30.3417 35.2932 30.2093 35.2974C30.0802 35.2975 29.9546 35.3275 29.8326 35.3875C29.7139 35.4433 29.6099 35.5277 29.5207 35.6408C29.4349 35.7497 29.377 35.8704 29.3471 36.0031C29.3205 36.1316 29.3206 36.2607 29.3473 36.3904C29.3698 36.5169 29.4186 36.6402 29.4936 36.7605C29.5685 36.8807 29.6647 36.9871 29.7819 37.0796C29.895 37.1687 30.0166 37.2341 30.1469 37.2757C30.2771 37.3172 30.4084 37.3359 30.5408 37.3317C30.6723 37.3199 30.7975 37.2861 30.9162 37.2303C31.0349 37.1745 31.1372 37.0922 31.2231 36.9833C31.3056 36.8786 31.3635 36.7578 31.3967 36.621Z" fill="#5AB651"/>
<path d="M116.555 100.287L65.501 0.889893" stroke="#DFF1DD"/>
<path d="M215.351 107C221.233 107 226.056 102.22 225.474 96.3673C224.44 85.9633 221.891 75.7481 217.894 66.0529C212.542 53.071 204.697 41.2754 194.808 31.3396C184.918 21.4037 173.178 13.5221 160.257 8.14489C147.336 2.76764 133.487 -6.14208e-07 119.501 0C105.515 6.14208e-07 91.6664 2.76764 78.7452 8.14489C65.824 13.5221 54.0835 21.4037 44.1941 31.3396C34.3047 41.2754 26.4599 53.071 21.1078 66.0529C17.1107 75.7482 14.5622 85.9633 13.5281 96.3673C12.9463 102.22 17.7691 107 23.651 107V107C29.5328 107 34.233 102.214 34.9596 96.3771C35.9046 88.7858 37.8602 81.34 40.7864 74.2423C45.0681 63.8568 51.3439 54.4204 59.2555 46.4717C67.167 38.523 76.5594 32.2177 86.8963 27.9159C97.2333 23.6141 108.312 21.4 119.501 21.4C130.69 21.4 141.769 23.6141 152.106 27.9159C162.443 32.2177 171.835 38.523 179.746 46.4717C187.658 54.4204 193.934 63.8568 198.215 74.2423C201.142 81.3399 203.097 88.7858 204.042 96.3771C204.769 102.214 209.469 107 215.351 107V107Z" fill="url(#paint1_linear_137_26)"/>
<path d="M71.9539 27.5611L70.9851 28.0584L69.4903 27.1935C69.3945 27.1355 69.2526 27.0517 69.0645 26.9422C68.8796 26.8228 68.688 26.6904 68.4897 26.5449C68.4843 26.663 68.4774 26.786 68.4689 26.914C68.4571 27.0355 68.4453 27.157 68.4334 27.2785C68.4281 27.3966 68.421 27.5033 68.4122 27.5985C68.4034 27.6937 68.3959 27.7675 68.3899 27.8201L68.2351 29.4698L67.2565 29.9721L67.7926 26.2226L64.572 24.5248L65.5311 24.0326L66.9027 24.8741C66.9423 24.9032 67.0084 24.9435 67.1007 24.9951C67.1898 25.04 67.2871 25.0931 67.3927 25.1543C67.4949 25.209 67.5939 25.2654 67.6896 25.3234C67.7854 25.3814 67.8613 25.4249 67.9173 25.4538L68.0085 24.3066L68.1342 22.6965L69.0933 22.2043L68.5951 25.8107L71.9539 27.5611Z" fill="white"/>
<path d="M75.6926 23.1324C75.8567 23.4521 75.947 23.7725 75.9635 24.0938C75.9865 24.4117 75.9438 24.7138 75.8353 25.0003C75.7366 25.29 75.5787 25.5524 75.3614 25.7875C75.1475 26.0292 74.8872 26.2287 74.5806 26.3861C74.274 26.5435 73.9569 26.6403 73.6293 26.6766C73.3115 26.716 73.003 26.693 72.7036 26.6076C72.4076 26.5287 72.1339 26.3889 71.8826 26.1883C71.6377 25.9842 71.4333 25.7223 71.2692 25.4027L69.4158 21.7915C69.2651 21.4979 69.1832 21.1938 69.17 20.879C69.1535 20.5578 69.1978 20.2507 69.303 19.9577C69.4081 19.6647 69.566 19.3941 69.7766 19.1459C69.9871 18.8977 70.2457 18.6949 70.5524 18.5375C70.8525 18.3835 71.1647 18.2933 71.4892 18.2669C71.8102 18.234 72.1221 18.2635 72.4248 18.3554C72.7242 18.4408 72.9963 18.5855 73.2411 18.7896C73.4892 18.9838 73.6885 19.2276 73.8392 19.5212L75.6926 23.1324ZM72.0471 24.9911C72.2781 25.4412 72.5912 25.738 72.9863 25.8814C73.3879 26.0215 73.8105 25.9777 74.2541 25.75C74.6913 25.5257 74.9667 25.2112 75.0805 24.8066C75.2009 24.3986 75.1455 23.9696 74.9145 23.5194L73.0811 19.9474C72.8501 19.4972 72.5338 19.2021 72.1322 19.062C71.7337 18.9121 71.316 18.9493 70.8788 19.1736C70.4352 19.4013 70.1549 19.7224 70.0379 20.1369C69.9241 20.5415 69.9827 20.9689 70.2138 21.419L72.0471 24.9911Z" fill="white"/>
<path d="M79.1565 24.4209L78.0702 24.9784L77.4775 23.8236L78.5638 23.2661L79.1565 24.4209Z" fill="white"/>
<path d="M81.1636 22.8838C81.2159 22.552 81.2646 22.1973 81.3099 21.8196C81.3649 21.4451 81.4086 21.0724 81.4407 20.7015C81.4761 20.3207 81.5001 19.9498 81.5126 19.5889C81.5252 19.228 81.5218 18.9 81.5023 18.6051C81.3734 18.8196 81.2211 18.9967 81.0454 19.1363C80.873 19.266 80.6709 19.3862 80.4392 19.4969C80.1814 19.621 79.9033 19.6813 79.6048 19.6779C79.3128 19.6711 79.0252 19.6085 78.7419 19.4902C78.4651 19.3685 78.2025 19.1941 77.9541 18.9672C77.7123 18.7368 77.5076 18.4586 77.3402 18.1324C77.146 17.754 77.0273 17.3862 76.9842 17.0292C76.9476 16.6688 76.9769 16.3323 77.072 16.0198C77.1637 15.7007 77.3181 15.4153 77.5352 15.1638C77.7589 14.9089 78.0338 14.6977 78.36 14.5303C78.6927 14.3595 79.0262 14.2625 79.3605 14.2393C79.6915 14.2096 80.0084 14.2489 80.3112 14.3572C80.6173 14.4557 80.8979 14.6249 81.1529 14.8649C81.4112 15.0951 81.6324 15.3895 81.8166 15.7484C81.8969 15.905 81.9693 16.0862 82.0338 16.2922C82.0983 16.4981 82.1531 16.7173 82.1982 16.9497C82.2399 17.1755 82.272 17.4146 82.2943 17.6669C82.3198 17.9093 82.3338 18.1453 82.3362 18.3749C82.3371 19.0833 82.3134 19.792 82.2651 20.5009C82.22 21.2 82.153 21.8402 82.064 22.4217L81.1636 22.8838ZM81.0607 18.2506C81.1965 18.0655 81.2862 17.8628 81.3298 17.6426C81.37 17.4159 81.3659 17.1831 81.3175 16.9442C81.2723 16.6954 81.186 16.447 81.0588 16.1991C80.9248 15.9382 80.7732 15.7151 80.604 15.5299C80.4315 15.3382 80.243 15.1959 80.0387 15.103C79.8375 15.0001 79.6222 14.9499 79.3926 14.9523C79.1631 14.9548 78.9243 15.0196 78.6764 15.1468C78.4285 15.2741 78.2366 15.4303 78.1008 15.6153C77.965 15.8004 77.877 16.0064 77.8368 16.2331C77.7932 16.4533 77.7989 16.6894 77.8541 16.9413C77.9058 17.1868 77.9987 17.44 78.1327 17.7009C78.2599 17.9489 78.4081 18.1654 78.5773 18.3506C78.7531 18.5324 78.9399 18.6714 79.1377 18.7677C79.342 18.8607 79.5589 18.906 79.7885 18.9035C80.018 18.9011 80.2568 18.8363 80.5047 18.7091C80.7461 18.5852 80.9314 18.4323 81.0607 18.2506Z" fill="white"/>
<defs>
<linearGradient id="paint0_linear_137_26" x1="64.001" y1="107" x2="62.501" y2="0.999991" gradientUnits="userSpaceOnUse">
<stop stop-color="#5AB651" stop-opacity="0"/>
<stop offset="1" stop-color="#5AB651"/>
</linearGradient>
<linearGradient id="paint1_linear_137_26" x1="214.501" y1="107" x2="23.001" y2="107" gradientUnits="userSpaceOnUse">
<stop stop-color="#E95371"/>
<stop offset="0.500853" stop-color="#F8B500"/>
<stop offset="1" stop-color="#5AB651"/>
</linearGradient>
</defs>
</svg>
