<svg width="214" height="107" viewBox="0 0 214 107" fill="none" xmlns="http://www.w3.org/2000/svg">
<path d="M202.85 107C208.732 107 213.555 102.22 212.973 96.3673C211.939 85.9633 209.39 75.7481 205.393 66.0529C200.041 53.071 192.196 41.2754 182.307 31.3396C172.417 21.4037 160.677 13.5221 147.756 8.14489C134.835 2.76764 120.986 -6.14208e-07 107 0C93.0142 6.14208e-07 79.1654 2.76764 66.2442 8.14489C53.323 13.5221 41.5826 21.4037 31.6931 31.3396C21.8037 41.2754 13.959 53.071 8.60683 66.0529C4.60967 75.7482 2.06126 85.9633 1.02712 96.3673C0.445336 102.22 5.26817 107 11.15 107C17.0318 107 21.732 102.214 22.4586 96.3771C23.4036 88.7858 25.3593 81.34 28.2855 74.2423C32.5672 63.8568 38.8429 54.4204 46.7545 46.4717C54.666 38.523 64.0584 32.2177 74.3954 27.9159C84.7323 23.6141 95.8114 21.4 107 21.4C118.189 21.4 129.268 23.6141 139.605 27.9159C149.942 32.2177 159.334 38.523 167.245 46.4717C175.157 54.4203 181.433 63.8568 185.715 74.2423C188.641 81.3399 190.596 88.7858 191.541 96.3771C192.268 102.214 196.968 107 202.85 107Z" fill="url(#paint0_linear_3017_15369)"/>
<defs>
<linearGradient id="paint0_linear_3017_15369" x1="202" y1="107" x2="10.5" y2="107" gradientUnits="userSpaceOnUse">
<stop stop-color="#E95371"/>
<stop offset="0.500853" stop-color="#F8B500"/>
<stop offset="1" stop-color="#5AB651"/>
</linearGradient>
</defs>
</svg>
