<svg width="228" height="120" viewBox="0 0 228 120" fill="none" xmlns="http://www.w3.org/2000/svg">
<path d="M0.749756 119.077C0.749756 93.7628 8.75488 69.0973 23.6202 48.6079C38.4855 28.1185 59.4496 12.8549 83.5139 5L120.75 119.077H0.749756Z" fill="url(#paint0_linear_4596_5636)" fill-opacity="0.2"/>
<path d="M24.6163 62.8766C24.4703 62.989 24.2987 63.0926 24.1013 63.1873C23.9066 63.2774 23.7067 63.3552 23.5017 63.4207C23.292 63.4835 23.0868 63.5335 22.886 63.5706C22.6833 63.6004 22.4996 63.6135 22.3349 63.6099C22.4327 63.7597 22.5166 63.9385 22.5867 64.1462C22.6595 64.3494 22.7174 64.5623 22.7602 64.785C22.8012 65.0004 22.8265 65.2159 22.8364 65.4317C22.8416 65.6448 22.8302 65.8388 22.802 66.0139L21.9686 66.2033C22.0053 65.8974 22.0055 65.601 21.9692 65.3142C21.9283 65.0247 21.8515 64.7544 21.7388 64.5033C21.6288 64.2475 21.4825 64.0169 21.2999 63.8114C21.1154 63.5986 20.8942 63.4168 20.6363 63.2662L19.5933 62.6568L18.8588 63.914L18.1681 63.5105L20.1737 60.0774L20.8645 60.4809L20.1219 61.7519L21.1581 62.3573C21.4067 62.5025 21.6654 62.6042 21.9341 62.6624C22.2009 62.7132 22.4713 62.7261 22.7455 62.7009C23.0196 62.6758 23.2914 62.6122 23.561 62.5103C23.8287 62.4011 24.0877 62.259 24.3381 62.0841L24.6163 62.8766ZM27.0084 61.9857L26.512 62.8353L22.9546 60.757L22.2444 61.9727L21.526 61.553L22.2362 60.3373L20.461 59.3002L20.9574 58.4505L27.0084 61.9857Z" fill="#5AB651"/>
<path d="M27.9377 53.0874C27.7496 53.2691 27.5491 53.4359 27.3361 53.5878C27.1188 53.7366 26.8979 53.867 26.6735 53.9788C26.4521 54.0862 26.2279 54.1692 26.0011 54.2277C25.7742 54.2862 25.5528 54.313 25.3369 54.3081C25.4224 54.4952 25.4803 54.7088 25.5106 54.9487C25.541 55.1886 25.546 55.4372 25.5259 55.6944C25.5088 55.9472 25.4687 56.2005 25.4057 56.4544C25.3427 56.7082 25.2613 56.9464 25.1616 57.1688L24.2905 57.3116C24.456 57.0114 24.5772 56.7004 24.6542 56.3786C24.7311 56.0568 24.7628 55.7494 24.7493 55.4564C24.7387 55.159 24.6843 54.893 24.5858 54.6583C24.483 54.4207 24.339 54.2389 24.1538 54.1129L23.9289 53.9599L24.4958 53.1264L24.7207 53.2794C24.9103 53.4084 25.1323 53.4756 25.3867 53.4809C25.6411 53.4862 25.9063 53.4376 26.1824 53.3352C26.4585 53.2327 26.7358 53.0859 27.0142 52.8947C27.2912 52.6961 27.5441 52.4617 27.7729 52.1917L27.9377 53.0874ZM29.3399 53.1027L25.6955 58.4607L25.0538 58.0243L26.6061 55.7422L25.9446 55.2922L26.507 54.4654L27.1685 54.9153L28.6982 52.6663L29.3399 53.1027ZM31.3573 55.4424L30.8084 56.2494L29.406 55.2956L27.1789 58.5699L26.5306 58.129L29.3067 54.0476L31.3573 55.4424Z" fill="#5AB651"/>
<path d="M36.2127 47.9946L32.3451 52.9221L31.7221 52.4331L33.441 50.2431L32.1321 49.2157L30.8528 50.8456L27.9265 48.5488L28.534 47.7748L30.831 49.5776L33.2908 46.4437L33.9201 46.9376L32.7445 48.4354L34.0535 49.4628L35.5896 47.5056L36.2127 47.9946Z" fill="#5AB651"/>
<path d="M41.751 42.8565L41.1003 43.5732L39.969 42.5461C39.7695 42.9484 39.503 43.3331 39.1696 43.7003L36.9325 46.1643L36.3461 45.6319L37.4646 44.3999L36.973 43.9536C36.8013 44.0714 36.6167 44.1596 36.4195 44.2182C36.2258 44.2728 36.0326 44.2991 35.8399 44.2971C35.6509 44.2911 35.4679 44.2546 35.291 44.1877C35.1101 44.1171 34.9486 44.0173 34.8064 43.8882C34.6406 43.7377 34.509 43.5533 34.4116 43.3353C34.3139 43.1097 34.2766 42.8849 34.2998 42.6611L33.7836 43.2297L33.215 42.7134L34.2743 41.5466L33.688 41.0142L34.3494 40.2857L34.9358 40.8181L35.9629 39.6868L36.5315 40.203L36.0529 40.7302C36.2922 40.6809 36.527 40.696 36.7574 40.7755C36.9874 40.8474 37.1814 40.9551 37.3393 41.0985C37.4814 41.2276 37.5944 41.3769 37.6781 41.5466C37.7618 41.7162 37.8157 41.8948 37.8399 42.0825C37.864 42.2701 37.8582 42.4629 37.8225 42.661C37.7867 42.859 37.7203 43.0472 37.6232 43.2256L38.1207 43.6773L38.6208 43.1265C38.7965 42.933 38.9501 42.7519 39.0817 42.5832C39.2093 42.4109 39.3195 42.23 39.4123 42.0406L35.9177 38.8678L36.5684 38.1511L38.3453 39.7644L39.0014 39.0418L39.6411 39.6226L38.985 40.3452L41.751 42.8565ZM36.9971 42.8084C37.0554 42.6093 37.0537 42.4168 36.9918 42.231C36.9297 42.0377 36.8176 41.8675 36.6557 41.7205C36.5452 41.6201 36.4264 41.5447 36.2993 41.4942C36.1683 41.4401 36.0367 41.4106 35.9043 41.4056C35.7755 41.3968 35.6481 41.418 35.5222 41.4694C35.3999 41.5168 35.2904 41.5938 35.1936 41.7005C35.1004 41.8031 35.0343 41.9196 34.9952 42.0498C34.9598 42.1761 34.9509 42.3049 34.9686 42.4362C34.9823 42.5639 35.0224 42.6904 35.0888 42.8155C35.1553 42.9407 35.2438 43.0535 35.3543 43.1539C35.461 43.2507 35.5778 43.3243 35.7048 43.3748C35.8318 43.4253 35.9616 43.453 36.0939 43.458C36.226 43.4554 36.3531 43.4304 36.4754 43.3829C36.5977 43.3355 36.7055 43.2605 36.7987 43.1578C36.8883 43.0591 36.9544 42.9426 36.9971 42.8084Z" fill="#5AB651"/>
<path d="M120.25 119.077L84 6" stroke="#DFF1DD"/>
<path d="M216.6 119.077C222.482 119.077 227.305 114.297 226.723 108.444C225.689 98.0399 223.141 87.8248 219.143 78.1295C213.791 65.1477 205.947 53.3521 196.057 43.4162C186.168 33.4804 174.427 25.5988 161.506 20.2215C148.585 14.8443 134.736 12.0767 120.75 12.0767C106.764 12.0767 92.9156 14.8443 79.9945 20.2216C67.0733 25.5988 55.3328 33.4804 45.4434 43.4162C35.5539 53.3521 27.7092 65.1477 22.3571 78.1295C18.3599 87.8248 15.8115 98.0399 14.7774 108.444C14.1956 114.297 19.0184 119.077 24.9002 119.077C30.7821 119.077 35.4823 114.291 36.2088 108.454C37.1538 100.863 39.1095 93.4166 42.0357 86.319C46.3174 75.9335 52.5932 66.497 60.5047 58.5483C68.4163 50.5996 77.8087 44.2944 88.1456 39.9926C98.4825 35.6908 109.562 33.4767 120.75 33.4767C131.939 33.4767 143.018 35.6908 153.355 39.9926C163.692 44.2944 173.084 50.5996 180.996 58.5483C188.907 66.497 195.183 75.9335 199.465 86.319C202.391 93.4166 204.347 100.862 205.292 108.454C206.018 114.291 210.718 119.077 216.6 119.077Z" fill="url(#paint1_linear_4596_5636)"/>
<path d="M86.9351 32.7991L85.8954 33.1229L84.5709 32.0147C84.4865 31.9412 84.361 31.8343 84.1945 31.6942C84.0328 31.5448 83.8667 31.3815 83.6962 31.2042C83.6707 31.3196 83.6428 31.4397 83.6125 31.5644C83.5801 31.682 83.5476 31.7997 83.5151 31.9173C83.4896 32.0328 83.4644 32.1367 83.4394 32.2289C83.4143 32.3212 83.3944 32.3927 83.3795 32.4435L82.9443 34.0422L81.894 34.3694L83.0647 30.7672L80.1827 28.5427L81.2119 28.2221L82.419 29.2862C82.4531 29.3217 82.5112 29.3727 82.5934 29.4393C82.6734 29.4989 82.7602 29.5678 82.8537 29.6462C82.9451 29.7176 83.033 29.7901 83.1173 29.8637C83.2017 29.9373 83.269 29.9931 83.3193 30.0312L83.6058 28.9166L84.0055 27.3519L85.0347 27.0313L83.9259 30.499L86.9351 32.7991Z" fill="white"/>
<path d="M91.3774 29.0764C91.4842 29.4195 91.5183 29.7507 91.4795 30.07C91.4477 30.3872 91.3538 30.6775 91.1978 30.9412C91.051 31.2097 90.8505 31.4411 90.5961 31.6356C90.344 31.837 90.0533 31.989 89.7243 32.0915C89.3952 32.194 89.0662 32.2351 88.7372 32.2146C88.4175 32.199 88.1174 32.1235 87.8371 31.9881C87.559 31.8597 87.3133 31.675 87.1001 31.4342C86.8938 31.1913 86.7372 30.8982 86.6303 30.5552L85.4232 26.6798C85.325 26.3648 85.2964 26.0511 85.3374 25.7388C85.3762 25.4194 85.4725 25.1245 85.6263 24.8538C85.7801 24.5831 85.9819 24.3436 86.2319 24.1351C86.4819 23.9267 86.7714 23.7712 87.1005 23.6687C87.4226 23.5684 87.7457 23.533 88.0698 23.5626C88.3918 23.5852 88.694 23.6677 88.9765 23.8102C89.2568 23.9456 89.5 24.1348 89.7063 24.3778C89.9174 24.6116 90.072 24.886 90.1702 25.2011L91.3774 29.0764ZM87.4673 30.2829C87.6177 30.766 87.8753 31.1121 88.24 31.3211C88.6116 31.5279 89.0355 31.5572 89.5116 31.4089C89.9807 31.2627 90.306 31.0001 90.4875 30.621C90.6759 30.2397 90.6949 29.8075 90.5444 29.3244L89.3503 25.4911C89.1998 25.008 88.9387 24.663 88.5671 24.4562C88.2002 24.2402 87.7823 24.2052 87.3132 24.3514C86.8371 24.4997 86.5059 24.768 86.3196 25.1563C86.1381 25.5354 86.1227 25.9665 86.2731 26.4496L87.4673 30.2829Z" fill="white"/>
<path d="M94.5692 30.9394L93.4035 31.3026L93.0175 30.0633L94.1832 29.7002L94.5692 30.9394Z" fill="white"/>
<path d="M96.8101 29.769C96.9184 29.4511 97.0272 29.1099 97.1365 28.7456C97.2549 28.3861 97.3618 28.0264 97.457 27.6665C97.5571 27.2973 97.6443 26.9361 97.7185 26.5826C97.7928 26.2292 97.8456 25.9056 97.8769 25.6116C97.7131 25.8009 97.5327 25.9492 97.3358 26.0567C97.1436 26.1549 96.924 26.2387 96.6767 26.3081C96.4015 26.3861 96.1171 26.3979 95.8236 26.3434C95.5371 26.2867 95.2645 26.1758 95.0056 26.0106C94.7538 25.8433 94.525 25.6265 94.3192 25.3603C94.1204 25.092 93.9664 24.7828 93.8574 24.4327C93.7309 24.0266 93.677 23.644 93.6957 23.2849C93.7214 22.9235 93.8079 22.597 93.9551 22.3054C94.1002 22.0067 94.3012 21.7521 94.5582 21.5414C94.8222 21.3286 95.1292 21.1677 95.4793 21.0587C95.8364 20.9474 96.1816 20.909 96.5149 20.9434C96.846 20.9709 97.1515 21.0639 97.4314 21.2225C97.716 21.3719 97.9634 21.5867 98.1736 21.8669C98.3886 22.1379 98.5561 22.4659 98.676 22.851C98.7284 23.019 98.7687 23.21 98.7969 23.424C98.8251 23.6379 98.8416 23.8632 98.8462 24.0999C98.8486 24.3296 98.8392 24.5706 98.8179 24.823C98.8015 25.0663 98.7749 25.3012 98.7379 25.5277C98.6174 26.2258 98.4726 26.92 98.3036 27.6101C98.1394 28.2911 97.9636 28.9104 97.7763 29.468L96.8101 29.769ZM97.5026 25.1867C97.6681 25.0276 97.7912 24.8433 97.8719 24.6339C97.9504 24.4174 97.9862 24.1873 97.9795 23.9436C97.9775 23.6908 97.9351 23.4313 97.8522 23.1652C97.765 22.8852 97.6538 22.6394 97.5189 22.428C97.3817 22.2096 97.2204 22.0371 97.035 21.9105C96.8545 21.7747 96.6509 21.6884 96.4244 21.6514C96.1978 21.6144 95.9515 21.6374 95.6854 21.7203C95.4193 21.8032 95.2036 21.9242 95.0381 22.0832C94.8726 22.2423 94.7505 22.4301 94.672 22.6466C94.5914 22.8561 94.5566 23.0896 94.5677 23.3473C94.5767 23.598 94.6248 23.8634 94.712 24.1434C94.7949 24.4095 94.9038 24.6482 95.0388 24.8596C95.1808 25.0689 95.341 25.2379 95.5194 25.3667C95.7047 25.4933 95.9107 25.575 96.1373 25.612C96.3639 25.6489 96.6102 25.626 96.8762 25.5431C97.1353 25.4624 97.3441 25.3436 97.5026 25.1867Z" fill="white"/>
<rect x="79" width="10" height="10" rx="5" fill="#A0D59A"/>
<circle cx="84" cy="5" r="3.5" fill="white"/>
<defs>
<linearGradient id="paint0_linear_4596_5636" x1="216.841" y1="464.221" x2="224.752" y2="-7.16515" gradientUnits="userSpaceOnUse">
<stop offset="0.723471" stop-color="#5AB651" stop-opacity="0"/>
<stop offset="1" stop-color="#5AB651"/>
</linearGradient>
<linearGradient id="paint1_linear_4596_5636" x1="233.7" y1="54.3267" x2="-8.20139" y2="54.3266" gradientUnits="userSpaceOnUse">
<stop offset="0.1" stop-color="#E95371"/>
<stop offset="0.17" stop-color="#EF7B43"/>
<stop offset="0.371268" stop-color="#F8B500"/>
<stop offset="0.5" stop-color="#F8B500"/>
<stop offset="0.55" stop-color="#BFB51D"/>
<stop offset="0.715124" stop-color="#5AB651"/>
</linearGradient>
</defs>
</svg>
