<svg width="226" height="112" viewBox="0 0 226 112" fill="none" xmlns="http://www.w3.org/2000/svg">
<path d="M65.3145 4.99194C45.5852 15.0295 29.0315 30.3498 17.4994 49.2446C5.96734 68.1394 -0.0917109 88.8642 0.0012207 111L119.502 111.5L65.3145 4.99194Z" fill="url(#paint0_linear_142_24)" fill-opacity="0.2"/>
<path d="M20.4386 61.4996C20.3008 61.6218 20.1367 61.737 19.9463 61.8452C19.7583 61.9486 19.5644 62.04 19.3643 62.1196C19.1596 62.1968 18.9583 62.2609 18.7605 62.3118C18.5604 62.3556 18.378 62.3815 18.2135 62.3893C18.3214 62.532 18.4176 62.7045 18.5019 62.9069C18.5887 63.1045 18.6611 63.3128 18.7193 63.532C18.7751 63.7441 18.8154 63.9574 18.8401 64.1719C18.8601 64.3841 18.8622 64.5785 18.8462 64.7551L18.028 65.0019C18.0434 64.6941 18.023 64.3985 17.9669 64.1149C17.9061 63.8289 17.8107 63.5646 17.6808 63.3219C17.5534 63.0744 17.3914 62.8544 17.195 62.6621C16.9962 62.4626 16.7629 62.2966 16.4952 62.1642L15.4124 61.6287L14.7669 62.9338L14.0498 62.5791L15.8125 59.0152L16.5296 59.3699L15.877 60.6893L16.9526 61.2213C17.2108 61.349 17.4759 61.4325 17.748 61.4719C18.0176 61.5041 18.2883 61.4982 18.56 61.454C18.8318 61.4099 19.0985 61.3277 19.3604 61.2073C19.6198 61.0798 19.8684 60.9201 20.1061 60.7282L20.4386 61.4996ZM22.7631 60.4448L22.3269 61.3268L18.6339 59.5003L18.0097 60.7623L17.2639 60.3935L17.8881 59.1314L16.0452 58.2199L16.4815 57.3379L22.7631 60.4448Z" fill="#5AB651"/>
<path d="M23.073 51.5036C22.898 51.6979 22.7095 51.8782 22.5076 52.0444C22.3011 52.208 22.0898 52.3534 21.8737 52.4805C21.6603 52.603 21.4424 52.7013 21.2202 52.7754C20.9979 52.8496 20.7789 52.8916 20.5631 52.9017C20.6614 53.0825 20.734 53.2915 20.7809 53.5287C20.8278 53.766 20.8501 54.0136 20.8479 54.2716C20.8483 54.5249 20.8259 54.7804 20.7806 55.038C20.7354 55.2956 20.6707 55.5389 20.5867 55.7677L19.7276 55.9705C19.8719 55.6595 19.9712 55.3409 20.0257 55.0146C20.0801 54.6882 20.0904 54.3794 20.0566 54.088C20.0255 53.792 19.9527 53.5304 19.8382 53.3032C19.7192 53.0732 19.5629 52.9018 19.3694 52.789L19.1344 52.652L19.6421 51.7812L19.8771 51.9182C20.0752 52.0337 20.3014 52.0853 20.5555 52.073C20.8096 52.0607 21.0709 51.9938 21.3392 51.8725C21.6075 51.7511 21.8739 51.5854 22.1384 51.3754C22.4009 51.158 22.637 50.9067 22.8465 50.6214L23.073 51.5036ZM24.4729 51.4216L21.2089 57.0195L20.5385 56.6286L21.9287 54.2443L21.2376 53.8413L21.7413 52.9775L22.4324 53.3804L23.8025 51.0307L24.4729 51.4216ZM26.6477 53.6157L26.1561 54.4589L24.691 53.6046L22.6963 57.0255L22.019 56.6306L24.5053 52.3665L26.6477 53.6157Z" fill="#5AB651"/>
<path d="M30.9749 45.8491L27.4584 51.033L26.803 50.5884L28.3658 48.2844L26.9888 47.3503L25.8256 49.065L22.7471 46.9767L23.2995 46.1624L25.716 47.8016L27.9525 44.5046L28.6145 44.9537L27.5457 46.5294L28.9227 47.4635L30.3194 45.4045L30.9749 45.8491Z" fill="#5AB651"/>
<path d="M36.1435 40.3393L35.5441 41.0994L34.3443 40.1532C34.1731 40.5683 33.934 40.9707 33.6268 41.3601L31.566 43.9733L30.9441 43.4828L31.9745 42.1763L31.4531 41.7651C31.29 41.8945 31.112 41.9953 30.9193 42.0674C30.7298 42.1354 30.5389 42.175 30.3466 42.1864C30.1576 42.1935 29.9725 42.1698 29.7914 42.1153C29.606 42.0574 29.438 41.9691 29.2872 41.8502C29.1114 41.7115 28.9673 41.5367 28.855 41.3259C28.7419 41.1076 28.6891 40.886 28.6967 40.6611L28.2212 41.2641L27.6181 40.7886L28.594 39.5511L27.9721 39.0606L28.5815 38.288L29.2034 38.7784L30.1495 37.5786L30.7526 38.0542L30.3117 38.6133C30.547 38.5475 30.7823 38.5463 31.0176 38.6096C31.252 38.6654 31.453 38.7594 31.6205 38.8915C31.7713 39.0104 31.8943 39.1516 31.9896 39.315C32.0848 39.4784 32.151 39.6529 32.1881 39.8384C32.2252 40.0238 32.2328 40.2166 32.2109 40.4167C32.189 40.6167 32.1357 40.8091 32.0512 40.9938L32.5789 41.4099L33.0396 40.8257C33.2014 40.6205 33.3421 40.4292 33.4617 40.2518C33.577 40.0711 33.6744 39.883 33.7538 39.6875L30.0477 36.7647L30.6471 36.0046L32.5316 37.4908L33.1359 36.7244L33.8144 37.2595L33.21 38.0258L36.1435 40.3393ZM31.3977 40.621C31.4421 40.4183 31.427 40.2264 31.3524 40.0453C31.277 39.8568 31.1534 39.6948 30.9817 39.5594C30.8645 39.4669 30.7407 39.3999 30.6105 39.3583C30.4761 39.3135 30.3427 39.2932 30.2103 39.2974C30.0812 39.2975 29.9556 39.3275 29.8336 39.3875C29.7148 39.4433 29.6109 39.5277 29.5217 39.6408C29.4359 39.7497 29.378 39.8704 29.3481 40.0031C29.3215 40.1316 29.3216 40.2607 29.3483 40.3904C29.3708 40.5169 29.4196 40.6402 29.4945 40.7605C29.5695 40.8807 29.6656 40.9871 29.7829 41.0796C29.896 41.1687 30.0176 41.2341 30.1478 41.2757C30.2781 41.3172 30.4094 41.3359 30.5418 41.3317C30.6733 41.3199 30.7984 41.2861 30.9172 41.2303C31.0359 41.1745 31.1382 41.0922 31.224 40.9833C31.3066 40.8786 31.3645 40.7578 31.3977 40.621Z" fill="#5AB651"/>
<path d="M116.556 104.287L65.502 4.88989" stroke="#DFF1DD"/>
<path d="M215.352 111C221.234 111 226.057 106.22 225.475 100.367C224.441 89.9633 221.892 79.7481 217.895 70.0529C212.543 57.071 204.698 45.2754 194.809 35.3396C184.919 25.4037 173.179 17.5221 160.258 12.1449C147.337 6.76764 133.488 4 119.502 4C105.516 4 91.6673 6.76764 78.7462 12.1449C65.825 17.5221 54.0845 25.4037 44.1951 35.3396C34.3056 45.2754 26.4609 57.071 21.1088 70.0529C17.1116 79.7482 14.5632 89.9633 13.5291 100.367C12.9473 106.22 17.7701 111 23.652 111V111C29.5338 111 34.234 106.214 34.9606 100.377C35.9055 92.7858 37.8612 85.34 40.7874 78.2423C45.0691 67.8568 51.3449 58.4204 59.2565 50.4717C67.168 42.523 76.5604 36.2177 86.8973 31.9159C97.2343 27.6141 108.313 25.4 119.502 25.4C130.691 25.4 141.77 27.6141 152.107 31.9159C162.444 36.2177 171.836 42.523 179.747 50.4717C187.659 58.4204 193.935 67.8568 198.216 78.2423C201.143 85.3399 203.098 92.7858 204.043 100.377C204.77 106.214 209.47 111 215.352 111V111Z" fill="url(#paint1_linear_142_24)"/>
<path d="M71.9549 31.5611L70.9861 32.0584L69.4912 31.1935C69.3955 31.1355 69.2536 31.0517 69.0655 30.9422C68.8806 30.8228 68.6889 30.6904 68.4906 30.5449C68.4853 30.663 68.4784 30.786 68.4699 30.914C68.4581 31.0355 68.4462 31.157 68.4344 31.2785C68.4291 31.3966 68.422 31.5033 68.4132 31.5985C68.4043 31.6937 68.3969 31.7675 68.3909 31.8201L68.2361 33.4698L67.2575 33.9721L67.7936 30.2226L64.573 28.5248L65.5321 28.0326L66.9037 28.8741C66.9433 28.9032 67.0093 28.9435 67.1017 28.9951C67.1907 29.04 67.2881 29.0931 67.3937 29.1543C67.4959 29.209 67.5949 29.2654 67.6906 29.3234C67.7863 29.3814 67.8622 29.4249 67.9183 29.4538L68.0095 28.3066L68.1352 26.6965L69.0943 26.2043L68.596 29.8107L71.9549 31.5611Z" fill="white"/>
<path d="M75.6936 27.1324C75.8576 27.4521 75.9479 27.7725 75.9644 28.0938C75.9875 28.4117 75.9447 28.7138 75.8362 29.0003C75.7376 29.29 75.5797 29.5524 75.3624 29.7875C75.1485 30.0292 74.8882 30.2287 74.5816 30.3861C74.2749 30.5435 73.9578 30.6403 73.6302 30.6766C73.3125 30.716 73.004 30.693 72.7046 30.6076C72.4086 30.5287 72.1349 30.3889 71.8835 30.1883C71.6387 29.9842 71.4342 29.7223 71.2702 29.4027L69.4168 25.7915C69.2661 25.4979 69.1842 25.1938 69.171 24.879C69.1545 24.5578 69.1988 24.2507 69.304 23.9577C69.4091 23.6647 69.567 23.3941 69.7775 23.1459C69.9881 22.8977 70.2467 22.6949 70.5533 22.5375C70.8535 22.3835 71.1657 22.2933 71.4901 22.2669C71.8112 22.234 72.1231 22.2635 72.4258 22.3554C72.7252 22.4408 72.9973 22.5855 73.2421 22.7896C73.4901 22.9838 73.6895 23.2276 73.8402 23.5212L75.6936 27.1324ZM72.048 28.9911C72.2791 29.4412 72.5921 29.738 72.9872 29.8814C73.3888 30.0215 73.8115 29.9777 74.2551 29.75C74.6922 29.5257 74.9677 29.2112 75.0815 28.8066C75.2018 28.3986 75.1465 27.9696 74.9154 27.5194L73.0821 23.9474C72.8511 23.4972 72.5348 23.2021 72.1331 23.062C71.7347 22.9121 71.3169 22.9493 70.8798 23.1736C70.4362 23.4013 70.1559 23.7224 70.0389 24.1369C69.9251 24.5415 69.9837 24.9689 70.2147 25.419L72.048 28.9911Z" fill="white"/>
<path d="M79.1575 28.4209L78.0712 28.9784L77.4785 27.8236L78.5648 27.2661L79.1575 28.4209Z" fill="white"/>
<path d="M81.1646 26.8838C81.2169 26.552 81.2656 26.1973 81.3108 25.8196C81.3659 25.4451 81.4095 25.0724 81.4417 24.7015C81.4771 24.3207 81.501 23.9498 81.5136 23.5889C81.5262 23.228 81.5228 22.9 81.5033 22.6051C81.3743 22.8196 81.222 22.9967 81.0464 23.1363C80.874 23.266 80.6719 23.3862 80.4402 23.4969C80.1824 23.621 79.9042 23.6813 79.6057 23.6779C79.3138 23.6711 79.0261 23.6085 78.7428 23.4902C78.4661 23.3685 78.2035 23.1941 77.9551 22.9672C77.7133 22.7368 77.5086 22.4586 77.3412 22.1324C77.147 21.754 77.0283 21.3862 76.9852 21.0292C76.9486 20.6688 76.9779 20.3323 77.073 20.0198C77.1647 19.7007 77.3191 19.4153 77.5362 19.1638C77.7598 18.9089 78.0347 18.6977 78.361 18.5303C78.6937 18.3595 79.0272 18.2625 79.3615 18.2393C79.6924 18.2096 80.0093 18.2489 80.3122 18.3572C80.6183 18.4557 80.8988 18.6249 81.1539 18.8649C81.4122 19.0951 81.6334 19.3895 81.8175 19.7484C81.8979 19.905 81.9703 20.0862 82.0348 20.2922C82.0993 20.4981 82.1541 20.7173 82.1992 20.9497C82.2409 21.1755 82.2729 21.4146 82.2953 21.6669C82.3208 21.9093 82.3347 22.1453 82.3372 22.3749C82.3381 23.0833 82.3144 23.792 82.2661 24.5009C82.221 25.2 82.1539 25.8402 82.065 26.4217L81.1646 26.8838ZM81.0617 22.2506C81.1975 22.0655 81.2872 21.8628 81.3308 21.6426C81.371 21.4159 81.3669 21.1831 81.3185 20.9442C81.2732 20.6954 81.187 20.447 81.0597 20.1991C80.9258 19.9382 80.7742 19.7151 80.605 19.5299C80.4324 19.3382 80.244 19.1959 80.0397 19.103C79.8385 19.0001 79.6232 18.9499 79.3936 18.9523C79.164 18.9548 78.9253 19.0196 78.6774 19.1468C78.4295 19.2741 78.2376 19.4303 78.1018 19.6153C77.966 19.8004 77.878 20.0064 77.8377 20.2331C77.7941 20.4533 77.7999 20.6894 77.855 20.9413C77.9068 21.1868 77.9997 21.44 78.1336 21.7009C78.2609 21.9489 78.4091 22.1654 78.5783 22.3506C78.7541 22.5324 78.9408 22.6714 79.1386 22.7677C79.343 22.8607 79.5599 22.906 79.7895 22.9035C80.019 22.9011 80.2578 22.8363 80.5057 22.7091C80.7471 22.5852 80.9324 22.4323 81.0617 22.2506Z" fill="white"/>
<rect x="60" width="10" height="10" rx="5" fill="#A0D59A"/>
<circle cx="65" cy="5" r="3.5" fill="white"/>
<defs>
<linearGradient id="paint0_linear_142_24" x1="64.002" y1="111" x2="62.502" y2="4.99999" gradientUnits="userSpaceOnUse">
<stop stop-color="#5AB651" stop-opacity="0"/>
<stop offset="1" stop-color="#5AB651"/>
</linearGradient>
<linearGradient id="paint1_linear_142_24" x1="214.502" y1="111" x2="23.002" y2="111" gradientUnits="userSpaceOnUse">
<stop stop-color="#E95371"/>
<stop offset="0.500853" stop-color="#F8B500"/>
<stop offset="1" stop-color="#5AB651"/>
</linearGradient>
</defs>
</svg>
