<svg width="57" height="56" viewBox="0 0 57 56" fill="none" xmlns="http://www.w3.org/2000/svg">
<path d="M11.016 26.8736C10.0794 32.5154 13.6442 38.0427 19.3978 39.5439C25.1514 41.045 31.0481 37.9861 33.097 32.6345C33.5049 31.1329 34.2548 29.7967 35.1697 28.642C37.4563 25.7559 41.0912 24.0873 44.8983 24.3043C45.6607 24.3478 46.4299 24.4668 47.1967 24.6668C53.3241 26.2655 56.9691 32.4306 55.3383 38.4373L55.3411 38.438C53.7743 44.2072 49.9338 49.1302 44.6644 52.1239C39.395 55.1176 33.1284 55.9369 27.2431 54.4014C21.3579 52.8659 16.3361 49.1015 13.2824 43.9363C10.2288 38.7711 9.39347 32.6282 10.9602 26.859L11.016 26.8736Z" fill="#134A9D"/>
<path d="M55.3871 38.2378C56.4294 32.7742 52.3308 27.095 46.5573 25.6723C40.7838 24.2496 35.1094 27.3814 33.1335 32.7604C32.5849 34.2537 31.8343 35.6208 30.9353 36.7878C28.6881 39.7047 25.0762 41.4226 21.2666 41.2575C20.5037 41.2244 19.7329 41.1158 18.9635 40.9263C12.8148 39.4111 9.33346 33.8804 10.6352 27.2679L10.6324 27.2672C12.1335 20.8137 15.8937 16.5024 21.1218 13.4373C26.35 10.3721 32.6049 9.46768 38.5105 10.9229C44.4161 12.3781 49.4887 16.0739 52.6123 21.197C55.736 26.3202 56.8752 32.4478 55.3871 38.2378Z" fill="#D0303C"/>
<path d="M23.2262 39.2031H23.1964C22.5962 39.2031 22.1096 39.6744 22.1096 40.2557V46.2251C22.1096 46.8064 22.5962 47.2777 23.1964 47.2777H23.2262C23.8264 47.2777 24.313 46.8064 24.313 46.2251V40.2557C24.313 39.6744 23.8264 39.2031 23.2262 39.2031Z" fill="white"/>
<path d="M23.181 38.7271H23.2256C23.9105 38.7271 24.4762 38.1936 24.4762 37.5159C24.4762 36.8526 23.9253 36.3047 23.2256 36.3047H23.181C22.4961 36.3047 21.9304 36.8382 21.9304 37.5159C21.9304 38.1791 22.4813 38.7271 23.181 38.7271Z" fill="white"/>
<path d="M29.9541 39.2031C28.8227 39.2031 27.8252 39.6069 27.0213 40.3855C26.2174 41.1641 25.8005 42.2167 25.8005 43.3125V46.2395C25.8005 46.8163 26.2769 47.2921 26.8873 47.2921H26.932C27.5275 47.2921 28.0188 46.8307 28.0188 46.2395V43.2548C28.0188 42.7213 28.2123 42.2743 28.5994 41.8994C28.9865 41.5246 29.4331 41.3371 29.9839 41.3371C30.5348 41.3371 31.0707 41.5678 31.4429 41.9571C31.7853 42.3176 31.964 42.7502 31.964 43.2404V46.2251C31.964 46.8019 32.4404 47.2777 33.0507 47.2777H33.0954C33.6909 47.2777 34.1822 46.8163 34.1822 46.2251V43.2404C34.1822 42.1301 33.7653 41.1641 32.9614 40.3855C32.1426 39.5924 31.16 39.2031 30.0137 39.2031H29.9541Z" fill="white"/>
<path d="M42.3716 40.3991C41.5677 39.6061 40.5702 39.2168 39.4239 39.2168C38.2775 39.2168 37.295 39.6205 36.491 40.3991C35.6722 41.1778 35.2703 42.1438 35.2703 43.2541C35.2703 44.3643 35.6871 45.316 36.491 46.109C37.295 46.902 38.2924 47.2913 39.4388 47.2913C40.1385 47.2913 40.8084 47.1327 41.4188 46.8011V46.902C41.4188 47.4355 41.2253 47.8681 40.8531 48.243C40.6447 48.4449 40.4213 48.589 40.1683 48.6756C39.7365 48.8342 39.4537 49.2235 39.4537 49.656V49.6993C39.4537 50.4347 40.2129 50.9393 40.9126 50.6798C41.4635 50.4779 41.9548 50.1751 42.4014 49.7425C43.2202 48.9639 43.6222 47.9979 43.6222 46.8876V43.2397C43.6222 42.1294 43.2053 41.1633 42.4014 40.3847L42.3716 40.3991ZM40.8084 44.595C40.4213 44.9699 39.9598 45.1574 39.409 45.1574C38.8582 45.1574 38.4115 44.9699 38.0245 44.595C37.6374 44.2201 37.4438 43.7731 37.4438 43.2541C37.4438 42.735 37.6374 42.2736 38.0245 41.8987C38.4115 41.5238 38.873 41.3364 39.409 41.3364C39.9449 41.3364 40.4213 41.5238 40.8084 41.8843C41.1955 42.2736 41.389 42.7062 41.389 43.2397C41.389 43.7731 41.1955 44.2057 40.8084 44.5806V44.595Z" fill="white"/>
<path d="M23.1217 30.5237C23.3599 30.7544 23.479 31.014 23.479 31.3456V35.0801C23.479 35.6568 23.9554 36.1327 24.5658 36.1327H24.6105C25.206 36.1327 25.6973 35.6713 25.6973 35.0801V31.3456C25.6973 30.4516 25.3549 29.6586 24.6998 29.0242C24.0299 28.3753 23.226 28.0581 22.3029 28.0581C21.3799 28.0581 20.6206 28.3465 19.9954 28.9232C19.3701 28.3465 18.596 28.0581 17.7027 28.0581C16.8095 28.0581 15.9609 28.3897 15.2909 29.0242C14.6359 29.673 14.3083 30.4516 14.3083 31.3456V35.0801C14.3083 35.6568 14.7848 36.1327 15.3951 36.1327H15.4398C16.0353 36.1327 16.5266 35.6713 16.5266 35.0801V31.3456C16.5266 31.0572 16.6308 30.7833 16.8243 30.5814C17.0774 30.3219 17.3603 30.1921 17.7176 30.1921C18.0451 30.1921 18.328 30.3074 18.5662 30.5381C18.8044 30.7688 18.9235 31.0284 18.9235 31.36V35.0945C18.9235 35.6713 19.3999 36.1471 20.0103 36.1471H20.0549C20.6504 36.1471 21.1417 35.6857 21.1417 35.0945V31.36C21.1417 31.0428 21.2608 30.7688 21.4841 30.5381C21.7223 30.3074 22.0052 30.1921 22.3476 30.1921C22.69 30.1921 22.958 30.3074 23.1962 30.5381L23.1217 30.5237Z" fill="white"/>
<path d="M34.1087 29.239C33.3047 28.4604 32.3073 28.0566 31.1609 28.0566C30.0146 28.0566 29.032 28.4604 28.2132 29.239C27.3944 30.0176 26.9924 30.9837 26.9924 32.0939C26.9924 33.2042 27.4093 34.1558 28.2132 34.9488C29.0171 35.7275 30.0146 36.1312 31.1609 36.1312C32.3073 36.1312 33.3047 35.7275 34.1087 34.9488C34.9275 34.1558 35.3294 33.2042 35.3294 32.0939C35.3294 30.9837 34.9126 30.0176 34.1087 29.239ZM33.1261 32.0939C33.1261 32.6274 32.9325 33.06 32.5455 33.4349C32.1584 33.8098 31.7118 33.9972 31.1609 33.9972C30.6101 33.9972 30.1635 33.8098 29.7764 33.4349C29.3893 33.06 29.1958 32.6274 29.1958 32.0939C29.1958 31.5604 29.3893 31.1134 29.7764 30.7385C30.1635 30.3637 30.6101 30.1762 31.1609 30.1762C31.7118 30.1762 32.1584 30.3637 32.5455 30.7385C32.9325 31.1134 33.1261 31.5604 33.1261 32.0939Z" fill="white"/>
<path d="M37.7855 29.2396C36.9667 30.0182 36.5647 30.9843 36.5647 32.0945V35.0648C36.5647 35.656 37.056 36.1318 37.6664 36.1318C38.2768 36.1318 38.768 35.656 38.768 35.0648V32.0945C38.768 31.561 38.9616 31.1141 39.3338 30.7392C39.5422 30.5373 39.7655 30.3931 40.0186 30.3066C40.4354 30.148 40.7332 29.7587 40.7332 29.3261V29.2829C40.7332 28.5475 39.9739 28.0428 39.2742 28.3024C38.7383 28.5042 38.247 28.807 37.8004 29.2396H37.7855Z" fill="white"/>
<path d="M49.6064 29.3546C48.8472 28.5615 47.7753 28.0857 46.6438 28.0569C45.4528 28.028 44.4256 28.4318 43.5919 29.2392C42.7879 30.0178 42.3711 30.9839 42.3711 32.0941V35.0788C42.3711 35.6556 42.8475 36.1314 43.4579 36.1314H43.5025C44.098 36.1314 44.5893 35.67 44.5893 35.0788V32.0941C44.5893 31.5606 44.7829 31.1137 45.1699 30.7388C45.557 30.3639 46.0036 30.1764 46.5545 30.1764C47.1053 30.1764 47.5519 30.3639 47.939 30.7388C48.3261 31.1137 48.5196 31.5606 48.5196 32.0941V35.0788C48.5196 35.6556 48.996 36.1314 49.6064 36.1314H49.6511C50.2466 36.1314 50.7379 35.67 50.7379 35.0788V32.0941C50.7379 31.0416 50.3657 30.1188 49.6213 29.3401L49.6064 29.3546Z" fill="white"/>
<path d="M27.2747 18.0497C26.4857 17.3144 25.4287 16.9106 24.3419 16.9106C23.2402 16.9106 22.2725 17.3 21.4835 18.0497C20.6944 18.7851 20.2329 19.7944 20.218 20.8614C20.1883 22.0149 20.6051 22.9954 21.4388 23.8028C22.2576 24.5959 23.2402 24.9852 24.3865 24.9852C25.0862 24.9852 25.7562 24.8266 26.3517 24.495V24.5959C26.3517 25.1294 26.1581 25.5619 25.786 25.9368C25.5775 26.1387 25.3542 26.2829 25.1011 26.3694C24.6694 26.528 24.3865 26.9173 24.3865 27.3499V27.3931C24.3865 28.1285 25.1458 28.6332 25.8455 28.3736C26.3963 28.1718 26.8876 27.869 27.3343 27.4364C28.1531 26.6578 28.555 25.6917 28.555 24.5815V20.9335C28.555 19.7944 28.1233 18.8139 27.2747 18.0209V18.0497ZM25.7711 22.3033C25.384 22.6782 24.9225 22.8656 24.3716 22.8656C23.8208 22.8656 23.3742 22.6782 22.9871 22.3033C22.6 21.9284 22.4065 21.4958 22.4065 20.9623C22.4065 20.4288 22.6 19.9819 22.9871 19.607C23.3742 19.2321 23.8357 19.0446 24.3716 19.0446C24.9076 19.0446 25.384 19.2321 25.7711 19.5925C26.1581 19.9819 26.3517 20.4144 26.3517 20.9479C26.3517 21.4814 26.1581 21.914 25.7711 22.2889V22.3033Z" fill="white"/>
<path d="M33.9593 24.9855C35.1503 25.0143 36.1775 24.6106 37.0112 23.8031C37.83 23.0101 38.232 22.0584 38.232 20.9482V17.9491C38.232 17.3723 37.7556 16.8965 37.1452 16.8965H37.1005C36.505 16.8965 36.0138 17.3579 36.0138 17.9491V20.9482C36.0138 21.4817 35.8202 21.9142 35.4332 22.2891C35.0461 22.664 34.5995 22.8515 34.0486 22.8515C33.4978 22.8515 33.0363 22.664 32.6492 22.2891C32.2621 21.9142 32.0686 21.4817 32.0686 20.9482V17.9491C32.0686 17.3723 31.5922 16.8965 30.9818 16.8965H30.9371C30.3416 16.8965 29.8503 17.3579 29.8503 17.9491V20.9482C29.8503 22.0008 30.2225 22.9236 30.9669 23.6878C31.7262 24.4808 32.7981 24.9566 33.9295 24.9855H33.9593Z" fill="white"/>
<path d="M40.4502 24.2358C40.9712 24.726 41.5965 24.9711 42.3111 24.9711H43.7552C44.3507 24.9711 44.842 24.5097 44.842 23.9186V23.8753C44.842 23.2985 44.3656 22.8227 43.7552 22.8227H42.3111C42.1771 22.8227 42.0878 22.7795 41.9985 22.693C41.9091 22.6064 41.8645 22.5199 41.8645 22.4046V19.0162H43.2788C43.8743 19.0162 44.3656 18.5548 44.3656 17.9636V17.9203C44.3656 17.3436 43.8892 16.8677 43.2788 16.8677H41.8645V15.4259C41.8645 14.8491 41.3881 14.3733 40.7777 14.3733H40.733C40.1375 14.3733 39.6462 14.8491 39.6462 15.4259V22.3902C39.6462 23.0967 39.9142 23.7023 40.4204 24.2069L40.4502 24.2358Z" fill="white"/>
<path d="M8.01404 22.2108C8.39195 22.3118 8.78959 22.2573 9.12241 22.0708C9.47373 21.8738 9.71797 21.5564 9.82477 21.1717L9.83664 21.1289C9.94344 20.7442 9.89698 20.3491 9.69597 20.0045C9.50025 19.669 9.19096 19.4333 8.81306 19.3323L2.46128 17.6346C1.67639 17.4248 0.872057 17.8757 0.653168 18.6361L0.621524 18.7501C0.52397 19.1297 0.579677 19.5196 0.764816 19.837C0.949956 20.1543 1.26982 20.4082 1.66226 20.5131L8.01404 22.2108Z" fill="#FCAF17"/>
<path d="M12.9843 12.6994C13.2612 12.9709 13.634 13.1172 14.0174 13.1172C14.4221 13.1172 14.7949 12.9605 15.0824 12.6785L15.1144 12.6471C15.4019 12.3651 15.5617 11.9995 15.5617 11.6026C15.5617 11.2161 15.4126 10.861 15.1357 10.5894L10.4815 6.02474C9.90644 5.46069 8.97987 5.46069 8.40476 6.0143L8.31956 6.09786C8.04266 6.37989 7.89355 6.74548 7.89355 7.11107C7.89355 7.47666 8.04266 7.85269 8.33021 8.13472L12.9843 12.6994Z" fill="#FCAF17"/>
<path d="M21.8677 7.88513C21.8444 8.26843 21.9804 8.63875 22.235 8.91978C22.5037 9.21642 22.8707 9.3856 23.2768 9.4091L23.3219 9.41172C23.728 9.43522 24.1129 9.30956 24.4157 9.046C24.7105 8.78938 24.8824 8.44427 24.9057 8.06098L25.2971 1.61868C25.3455 0.822608 24.7303 0.143458 23.9261 0.0895142L23.8058 0.0825512C23.4068 0.0668539 23.0289 0.200319 22.7501 0.443072C22.4712 0.685824 22.2834 1.0448 22.2592 1.44284L21.8677 7.88513Z" fill="#FCAF17"/>
</svg>
