<svg width="52" height="44" viewBox="0 0 52 44" fill="none" xmlns="http://www.w3.org/2000/svg">
<path d="M49.0485 23.5307H43.0286C42.667 23.5307 42.3348 23.6658 42.0807 23.9169C41.8168 24.1776 41.68 24.5155 41.68 24.8824V24.9017C41.68 33.8717 34.2919 41.1712 25.2132 41.1712C16.1345 41.1712 8.74645 33.8717 8.74645 24.9017V24.8824C8.74645 24.5155 8.59986 24.1679 8.34577 23.9169C8.09168 23.6658 7.74964 23.5307 7.39783 23.5307H1.35839C0.615672 23.5307 0.00977256 24.1293 0 24.8728V24.95C0 25.6838 0.605899 26.2825 1.35839 26.2825H5.94172L5.99058 26.7459C6.44989 31.4385 8.64872 35.7931 12.1962 38.9987C15.7631 42.2237 20.3856 44.0003 25.2132 44.0003C30.0409 44.0003 34.6633 42.2237 38.2303 38.9987C41.7777 35.7931 43.9765 31.4481 44.4359 26.7459L44.4847 26.2825H49.0583C49.801 26.2825 50.4069 25.6838 50.4167 24.9404V24.8631C50.4167 24.1293 49.8108 23.521 49.0583 23.521L49.0485 23.5307Z" fill="#F79C22"/>
<path d="M25.2129 8.632C25.594 8.632 25.9361 8.48716 26.1999 8.23612C26.454 7.98508 26.5909 7.64714 26.5909 7.29954V1.34211C26.5909 0.608295 25.985 0.00965548 25.2325 0H25.1543C24.4116 0 23.7959 0.59864 23.7959 1.34211V7.29954C23.7959 7.65679 23.9327 7.98508 24.1868 8.23612C24.4507 8.49682 24.7927 8.632 25.1641 8.632H25.1836H25.1934H25.2129Z" fill="#F79C22"/>
<path d="M36.8233 11.4806C36.5693 11.7316 36.4324 12.0695 36.4324 12.4171C36.4324 12.784 36.579 13.122 36.8429 13.3827L36.8722 13.4116C37.1361 13.6723 37.4781 13.8172 37.8495 13.8172C38.211 13.8172 38.5433 13.682 38.7974 13.431L43.068 9.21152C43.5957 8.69012 43.5957 7.85009 43.0778 7.3287L42.9996 7.25145C42.7357 7.00041 42.3937 6.86523 42.0517 6.86523C41.7096 6.86523 41.3578 7.00041 41.0939 7.26111L36.8233 11.4806Z" fill="#F79C22"/>
<path d="M7.35893 9.21141L11.6198 13.4212C11.8739 13.6722 12.2159 13.8074 12.5677 13.8074C12.9391 13.8074 13.2811 13.6626 13.545 13.4019L13.5743 13.3729C13.8381 13.1122 13.9847 12.7743 13.9847 12.4074C13.9847 12.0501 13.8479 11.7218 13.5938 11.4708L9.32322 7.25134C9.05936 6.99065 8.70755 6.85547 8.36551 6.85547C8.02347 6.85547 7.68143 6.98099 7.41757 7.24169L7.33939 7.31893C6.82144 7.84033 6.82144 8.68035 7.33939 9.20175L7.35893 9.21141Z" fill="#F79C22"/>
<path d="M19.1155 29.1597H19.096C18.702 29.1597 18.3826 29.4752 18.3826 29.8645V33.8619C18.3826 34.2512 18.702 34.5667 19.096 34.5667H19.1155C19.5095 34.5667 19.8289 34.2512 19.8289 33.8619V29.8645C19.8289 29.4752 19.5095 29.1597 19.1155 29.1597Z" fill="#111111"/>
<path d="M19.086 28.8409H19.1153C19.5649 28.8409 19.9362 28.4836 19.9362 28.0298C19.9362 27.5857 19.5747 27.2188 19.1153 27.2188H19.086C18.6365 27.2188 18.2651 27.576 18.2651 28.0298C18.2651 28.474 18.6267 28.8409 19.086 28.8409Z" fill="#111111"/>
<path d="M23.5325 29.1597C22.7897 29.1597 22.135 29.43 21.6073 29.9514C21.0795 30.4728 20.8059 31.1777 20.8059 31.9115V33.8715C20.8059 34.2578 21.1186 34.5764 21.5193 34.5764H21.5486C21.9395 34.5764 22.262 34.2674 22.262 33.8715V31.8729C22.262 31.5156 22.3891 31.2163 22.6431 30.9652C22.8972 30.7142 23.1904 30.5887 23.552 30.5887C23.9136 30.5887 24.2654 30.7432 24.5097 31.0039C24.7345 31.2453 24.8517 31.5349 24.8517 31.8632V33.8619C24.8517 34.2481 25.1645 34.5667 25.5651 34.5667H25.5945C25.9854 34.5667 26.3079 34.2578 26.3079 33.8619V31.8632C26.3079 31.1197 26.0342 30.4728 25.5065 29.9514C24.969 29.4204 24.324 29.1597 23.5715 29.1597H23.5325Z" fill="#111111"/>
<path d="M31.6834 29.9607C31.1556 29.4296 30.5009 29.1689 29.7484 29.1689C28.9959 29.1689 28.3509 29.4393 27.8232 29.9607C27.2857 30.4821 27.0219 31.129 27.0219 31.8725C27.0219 32.6159 27.2955 33.2532 27.8232 33.7843C28.3509 34.3153 29.0057 34.576 29.7582 34.576C30.2175 34.576 30.6572 34.4698 31.0579 34.2477V34.3153C31.0579 34.6726 30.9309 34.9622 30.6866 35.2133C30.5497 35.3485 30.4032 35.445 30.237 35.5029C29.9536 35.6091 29.7679 35.8698 29.7679 36.1595V36.1885C29.7679 36.6809 30.2663 37.0188 30.7257 36.8451C31.0872 36.7099 31.4097 36.5071 31.7029 36.2174C32.2404 35.696 32.5043 35.0491 32.5043 34.3057V31.8628C32.5043 31.1194 32.2306 30.4724 31.7029 29.951L31.6834 29.9607ZM30.6572 32.7704C30.4032 33.0215 30.1002 33.147 29.7386 33.147C29.377 33.147 29.0839 33.0215 28.8298 32.7704C28.5757 32.5194 28.4486 32.2201 28.4486 31.8725C28.4486 31.5249 28.5757 31.2159 28.8298 30.9649C29.0839 30.7138 29.3868 30.5883 29.7386 30.5883C30.0904 30.5883 30.4032 30.7138 30.6572 30.9552C30.9113 31.2159 31.0384 31.5056 31.0384 31.8628C31.0384 32.2201 30.9113 32.5097 30.6572 32.7608V32.7704Z" fill="#111111"/>
<path d="M19.0468 23.3474C19.2031 23.5019 19.2813 23.6757 19.2813 23.8977V26.3985C19.2813 26.7847 19.594 27.1034 19.9947 27.1034H20.024C20.4149 27.1034 20.7374 26.7944 20.7374 26.3985V23.8977C20.7374 23.2991 20.5127 22.768 20.0827 22.3432C19.6429 21.9087 19.1152 21.6963 18.5093 21.6963C17.9034 21.6963 17.405 21.8894 16.9945 22.2756C16.5841 21.8894 16.0759 21.6963 15.4896 21.6963C14.9032 21.6963 14.3462 21.9184 13.9064 22.3432C13.4764 22.7777 13.2614 23.2991 13.2614 23.8977V26.3985C13.2614 26.7847 13.5741 27.1034 13.9748 27.1034H14.0041C14.395 27.1034 14.7175 26.7944 14.7175 26.3985V23.8977C14.7175 23.7046 14.7859 23.5212 14.913 23.386C15.0791 23.2122 15.2648 23.1253 15.4993 23.1253C15.7143 23.1253 15.9 23.2025 16.0564 23.357C16.2127 23.5115 16.2909 23.6853 16.2909 23.9074V26.4082C16.2909 26.7944 16.6036 27.113 17.0043 27.113H17.0336C17.4245 27.113 17.747 26.804 17.747 26.4082V23.9074C17.747 23.695 17.8252 23.5115 17.9718 23.357C18.1282 23.2025 18.3138 23.1253 18.5386 23.1253C18.7634 23.1253 18.9393 23.2025 19.0956 23.357L19.0468 23.3474Z" fill="#111111"/>
<path d="M26.2592 22.4876C25.7315 21.9662 25.0768 21.6958 24.3243 21.6958C23.5718 21.6958 22.9268 21.9662 22.3893 22.4876C21.8518 23.0089 21.588 23.6559 21.588 24.3993C21.588 25.1428 21.8616 25.7801 22.3893 26.3111C22.917 26.8325 23.5718 27.1029 24.3243 27.1029C25.0768 27.1029 25.7315 26.8325 26.2592 26.3111C26.7967 25.7801 27.0606 25.1428 27.0606 24.3993C27.0606 23.6559 26.787 23.0089 26.2592 22.4876ZM25.6142 24.3993C25.6142 24.7566 25.4872 25.0463 25.2331 25.2973C24.979 25.5483 24.6859 25.6739 24.3243 25.6739C23.9627 25.6739 23.6695 25.5483 23.4154 25.2973C23.1613 25.0463 23.0343 24.7566 23.0343 24.3993C23.0343 24.0421 23.1613 23.7428 23.4154 23.4917C23.6695 23.2407 23.9627 23.1152 24.3243 23.1152C24.6859 23.1152 24.979 23.2407 25.2331 23.4917C25.4872 23.7428 25.6142 24.0421 25.6142 24.3993Z" fill="#111111"/>
<path d="M28.6729 22.4873C28.1354 23.0087 27.8715 23.6556 27.8715 24.3991V26.3881C27.8715 26.784 28.194 27.1026 28.5947 27.1026C28.9954 27.1026 29.3179 26.784 29.3179 26.3881V24.3991C29.3179 24.0418 29.4449 23.7425 29.6892 23.4914C29.826 23.3563 29.9726 23.2597 30.1388 23.2018C30.4124 23.0956 30.6078 22.8349 30.6078 22.5452V22.5162C30.6078 22.0238 30.1094 21.6859 29.6501 21.8597C29.2983 21.9948 28.9758 22.1976 28.6826 22.4873H28.6729Z" fill="#111111"/>
<path d="M36.4323 22.5648C35.9339 22.0337 35.2302 21.7151 34.4875 21.6958C33.7057 21.6765 33.0314 21.9468 32.4842 22.4875C31.9564 23.0089 31.6828 23.6559 31.6828 24.3993V26.398C31.6828 26.7842 31.9955 27.1029 32.3962 27.1029H32.4255C32.8164 27.1029 33.1389 26.7939 33.1389 26.398V24.3993C33.1389 24.0421 33.266 23.7428 33.52 23.4917C33.7741 23.2407 34.0673 23.1151 34.4289 23.1151C34.7905 23.1151 35.0837 23.2407 35.3377 23.4917C35.5918 23.7428 35.7189 24.0421 35.7189 24.3993V26.398C35.7189 26.7842 36.0316 27.1029 36.4323 27.1029H36.4616C36.8525 27.1029 37.175 26.7939 37.175 26.398V24.3993C37.175 23.6945 36.9307 23.0765 36.442 22.5551L36.4323 22.5648Z" fill="#111111"/>
<path d="M21.7732 14.9947C21.2552 14.5023 20.5614 14.2319 19.848 14.2319C19.1248 14.2319 18.4896 14.4926 17.9717 14.9947C17.4537 15.4871 17.1508 16.163 17.141 16.8775C17.1214 17.65 17.3951 18.3065 17.9423 18.8473C18.4798 19.3783 19.1248 19.639 19.8773 19.639C20.3366 19.639 20.7764 19.5328 21.1673 19.3107V19.3783C21.1673 19.7356 21.0402 20.0252 20.7959 20.2763C20.6591 20.4114 20.5125 20.508 20.3464 20.5659C20.063 20.6721 19.8773 20.9328 19.8773 21.2225V21.2515C19.8773 21.7439 20.3757 22.0818 20.835 21.908C21.1966 21.7729 21.5191 21.5701 21.8123 21.2804C22.3498 20.759 22.6136 20.1121 22.6136 19.3686V16.9258C22.6136 16.163 22.3302 15.5065 21.7732 14.9754V14.9947ZM20.7862 17.8431C20.5321 18.0941 20.2291 18.2196 19.8675 18.2196C19.506 18.2196 19.2128 18.0941 18.9587 17.8431C18.7046 17.592 18.5776 17.3024 18.5776 16.9451C18.5776 16.5879 18.7046 16.2886 18.9587 16.0375C19.2128 15.7865 19.5157 15.6609 19.8675 15.6609C20.2193 15.6609 20.5321 15.7865 20.7862 16.0279C21.0402 16.2886 21.1673 16.5782 21.1673 16.9355C21.1673 17.2927 21.0402 17.5824 20.7862 17.8334V17.8431Z" fill="#111111"/>
<path d="M26.1609 19.6394C26.9427 19.6587 27.617 19.3883 28.1643 18.8476C28.7018 18.3166 28.9656 17.6793 28.9656 16.9358V14.9275C28.9656 14.5413 28.6529 14.2227 28.2522 14.2227H28.2229C27.832 14.2227 27.5095 14.5316 27.5095 14.9275V16.9358C27.5095 17.2931 27.3825 17.5828 27.1284 17.8338C26.8743 18.0848 26.5811 18.2104 26.2195 18.2104C25.858 18.2104 25.555 18.0848 25.3009 17.8338C25.0468 17.5828 24.9198 17.2931 24.9198 16.9358V14.9275C24.9198 14.5413 24.6071 14.2227 24.2064 14.2227H24.1771C23.7862 14.2227 23.4637 14.5316 23.4637 14.9275V16.9358C23.4637 17.6407 23.708 18.2586 24.1966 18.7704C24.695 19.3014 25.3987 19.6201 26.1414 19.6394H26.1609Z" fill="#111111"/>
<path d="M30.4218 19.1371C30.7639 19.4653 31.1743 19.6295 31.6434 19.6295H32.5913C32.9822 19.6295 33.3047 19.3205 33.3047 18.9246V18.8957C33.3047 18.5095 32.992 18.1908 32.5913 18.1908H31.6434C31.5554 18.1908 31.4968 18.1619 31.4382 18.1039C31.3795 18.046 31.3502 17.9881 31.3502 17.9108V15.6418H32.2786C32.6695 15.6418 32.992 15.3328 32.992 14.9369V14.908C32.992 14.5217 32.6793 14.2031 32.2786 14.2031H31.3502V13.2376C31.3502 12.8513 31.0375 12.5327 30.6368 12.5327H30.6075C30.2166 12.5327 29.8941 12.8513 29.8941 13.2376V17.9012C29.8941 18.3743 30.07 18.7798 30.4023 19.1177L30.4218 19.1371Z" fill="#111111"/>
</svg>
