<svg width="34" height="34" viewBox="0 0 34 34" fill="none" xmlns="http://www.w3.org/2000/svg">
<g clip-path="url(#clip0_4312_15393)">
<g clip-path="url(#clip1_4312_15393)">
<path d="M17.0547 3.01172C24.8102 3.01189 31.0977 9.29915 31.0977 17.0547V29.0977C31.0975 30.2019 30.2019 31.0974 29.0977 31.0977H17.0547C9.29911 31.0977 3.01184 24.8102 3.01172 17.0547C3.01172 9.29904 9.29904 3.01172 17.0547 3.01172ZM17.0547 5.01172C10.4036 5.01172 5.01172 10.4036 5.01172 17.0547C5.01184 23.7057 10.4037 29.0977 17.0547 29.0977H29.0977V17.0547C29.0977 10.4037 23.7056 5.01189 17.0547 5.01172ZM17.0752 21.2471C17.9776 21.2473 18.7089 21.9769 18.709 22.877C18.7089 23.7771 17.9776 24.5066 17.0752 24.5068C16.1728 24.5066 15.4405 23.777 15.4404 22.877C15.4406 21.9769 16.1728 21.2473 17.0752 21.2471ZM17.0537 9.60156C19.6189 9.60156 21.7119 11.5218 21.7119 13.875C21.7116 15.6333 20.4248 16.788 19.5166 17.4775C18.777 18.039 18.6071 18.2653 18.5684 18.333L18.5674 18.3359C18.5668 18.3371 18.5647 18.3422 18.5625 18.3574C18.5546 18.4118 18.5518 18.4862 18.5518 18.7051V19.0342C18.5517 19.793 17.8809 20.4082 17.0537 20.4082C16.2269 20.4079 15.5557 19.7928 15.5557 19.0342V18.6484C15.5546 18.2767 15.5534 17.691 15.916 17.0566C16.2543 16.4652 16.8392 15.9428 17.6064 15.3604C18.4209 14.742 18.7165 14.3032 18.7168 13.875C18.7168 13.0395 17.9645 12.3496 17.0537 12.3496C16.1432 12.3499 15.3916 13.0397 15.3916 13.875C15.3913 14.6336 14.7206 15.249 13.8936 15.249C13.0668 15.2488 12.3959 14.6334 12.3955 13.875C12.3955 11.522 14.4888 9.6019 17.0537 9.60156Z" fill="#666666"/>
</g>
</g>
<defs>
<clipPath id="clip0_4312_15393">
<rect width="34" height="34" fill="white"/>
</clipPath>
<clipPath id="clip1_4312_15393">
<rect width="34" height="34" fill="white"/>
</clipPath>
</defs>
</svg>
