<svg width="52" height="44" viewBox="0 0 52 44" fill="none" xmlns="http://www.w3.org/2000/svg">
<g clip-path="url(#clip0_3633_11356)">
<path d="M49.8385 23.5302H43.8186C43.4571 23.5302 43.1248 23.6653 42.8707 23.9164C42.6068 24.1771 42.47 24.515 42.47 24.8819V24.9012C42.47 33.8712 35.082 41.1707 26.0033 41.1707C16.9245 41.1707 9.53648 33.8712 9.53648 24.9012V24.8819C9.53648 24.515 9.3899 24.1674 9.13581 23.9164C8.88172 23.6653 8.53968 23.5302 8.18787 23.5302H2.14843C1.40571 23.5302 0.799812 24.1288 0.790039 24.8723V24.9495C0.790039 25.6833 1.39594 26.282 2.14843 26.282H6.73176L6.78062 26.7454C7.23993 31.438 9.43876 35.7926 12.9862 38.9982C16.5532 42.2232 21.1756 43.9998 26.0033 43.9998C30.8309 43.9998 35.4533 42.2232 39.0203 38.9982C42.5678 35.7926 44.7666 31.4477 45.2259 26.7454L45.2748 26.282H49.8483C50.591 26.282 51.1969 25.6833 51.2067 24.9399V24.8626C51.2067 24.1288 50.6008 23.5205 49.8483 23.5205L49.8385 23.5302Z" fill="#F79C22"/>
<path d="M26.003 8.632C26.3841 8.632 26.7261 8.48716 26.99 8.23612C27.2441 7.98508 27.3809 7.64714 27.3809 7.29954V1.34211C27.3809 0.608295 26.775 0.00965548 26.0225 0H25.9443C25.2016 0 24.5859 0.59864 24.5859 1.34211V7.29954C24.5859 7.65679 24.7228 7.98508 24.9768 8.23612C25.2407 8.49682 25.5827 8.632 25.9541 8.632H25.9736H25.9834H26.003Z" fill="#F79C22"/>
<path d="M37.6133 11.4806C37.3592 11.7316 37.2224 12.0695 37.2224 12.4171C37.2224 12.784 37.369 13.122 37.6329 13.3827L37.6622 13.4116C37.926 13.6723 38.2681 13.8172 38.6394 13.8172C39.001 13.8172 39.3333 13.682 39.5874 13.431L43.858 9.21152C44.3857 8.69012 44.3857 7.85009 43.8678 7.3287L43.7896 7.25145C43.5257 7.00041 43.1837 6.86523 42.8416 6.86523C42.4996 6.86523 42.1478 7.00041 41.8839 7.26111L37.6133 11.4806Z" fill="#F79C22"/>
<path d="M8.14897 9.21141L12.4098 13.4212C12.6639 13.6722 13.0059 13.8074 13.3577 13.8074C13.7291 13.8074 14.0711 13.6626 14.335 13.4019L14.3643 13.3729C14.6282 13.1122 14.7748 12.7743 14.7748 12.4074C14.7748 12.0501 14.638 11.7218 14.3839 11.4708L10.1133 7.25134C9.8494 6.99065 9.49759 6.85547 9.15555 6.85547C8.81351 6.85547 8.47147 6.98099 8.20761 7.24169L8.12943 7.31893C7.61148 7.84033 7.61148 8.68035 8.12943 9.20175L8.14897 9.21141Z" fill="#F79C22"/>
<path d="M19.9057 29.1592H19.8861C19.4921 29.1592 19.1727 29.4748 19.1727 29.864V33.8614C19.1727 34.2507 19.4921 34.5662 19.8861 34.5662H19.9057C20.2997 34.5662 20.6191 34.2507 20.6191 33.8614V29.864C20.6191 29.4748 20.2997 29.1592 19.9057 29.1592Z" fill="#FCFCFC"/>
<path d="M19.8762 28.8409H19.9055C20.355 28.8409 20.7264 28.4836 20.7264 28.0298C20.7264 27.5857 20.3648 27.2188 19.9055 27.2188H19.8762C19.4267 27.2188 19.0553 27.576 19.0553 28.0298C19.0553 28.474 19.4169 28.8409 19.8762 28.8409Z" fill="#FCFCFC"/>
<path d="M24.3226 29.1592C23.5799 29.1592 22.9251 29.4295 22.3974 29.9509C21.8697 30.4723 21.5961 31.1772 21.5961 31.911V33.8711C21.5961 34.2573 21.9088 34.5759 22.3095 34.5759H22.3388C22.7297 34.5759 23.0522 34.2669 23.0522 33.8711V31.8724C23.0522 31.5151 23.1792 31.2158 23.4333 30.9648C23.6874 30.7137 23.9806 30.5882 24.3422 30.5882C24.7037 30.5882 25.0556 30.7427 25.2999 31.0034C25.5246 31.2448 25.6419 31.5344 25.6419 31.8627V33.8614C25.6419 34.2476 25.9546 34.5662 26.3553 34.5662H26.3846C26.7755 34.5662 27.098 34.2573 27.098 33.8614V31.8627C27.098 31.1192 26.8244 30.4723 26.2967 29.9509C25.7592 29.4199 25.1142 29.1592 24.3617 29.1592H24.3226Z" fill="#FCFCFC"/>
<path d="M32.4735 29.9607C31.9458 29.4296 31.291 29.1689 30.5386 29.1689C29.7861 29.1689 29.1411 29.4393 28.6134 29.9607C28.0759 30.4821 27.812 31.129 27.812 31.8725C27.812 32.6159 28.0856 33.2532 28.6134 33.7843C29.1411 34.3153 29.7958 34.576 30.5483 34.576C31.0076 34.576 31.4474 34.4698 31.8481 34.2477V34.3153C31.8481 34.6726 31.721 34.9622 31.4767 35.2133C31.3399 35.3485 31.1933 35.445 31.0272 35.5029C30.7438 35.6091 30.5581 35.8698 30.5581 36.1595V36.1885C30.5581 36.6809 31.0565 37.0188 31.5158 36.8451C31.8774 36.7099 32.1999 36.5071 32.4931 36.2174C33.0306 35.696 33.2944 35.0491 33.2944 34.3057V31.8628C33.2944 31.1194 33.0208 30.4724 32.4931 29.951L32.4735 29.9607ZM31.4474 32.7704C31.1933 33.0215 30.8904 33.147 30.5288 33.147C30.1672 33.147 29.874 33.0215 29.6199 32.7704C29.3659 32.5194 29.2388 32.2201 29.2388 31.8725C29.2388 31.5249 29.3659 31.2159 29.6199 30.9649C29.874 30.7138 30.177 30.5883 30.5288 30.5883C30.8806 30.5883 31.1933 30.7138 31.4474 30.9552C31.7015 31.2159 31.8285 31.5056 31.8285 31.8628C31.8285 32.2201 31.7015 32.5097 31.4474 32.7608V32.7704Z" fill="#FCFCFC"/>
<path d="M19.837 23.3474C19.9934 23.5019 20.0715 23.6757 20.0715 23.8977V26.3985C20.0715 26.7847 20.3843 27.1034 20.7849 27.1034H20.8143C21.2052 27.1034 21.5276 26.7944 21.5276 26.3985V23.8977C21.5276 23.2991 21.3029 22.768 20.8729 22.3432C20.4331 21.9087 19.9054 21.6963 19.2995 21.6963C18.6936 21.6963 18.1952 21.8894 17.7848 22.2756C17.3743 21.8894 16.8661 21.6963 16.2798 21.6963C15.6934 21.6963 15.1364 21.9184 14.6966 22.3432C14.2666 22.7777 14.0516 23.2991 14.0516 23.8977V26.3985C14.0516 26.7847 14.3644 27.1034 14.765 27.1034H14.7944C15.1853 27.1034 15.5077 26.7944 15.5077 26.3985V23.8977C15.5077 23.7046 15.5762 23.5212 15.7032 23.386C15.8693 23.2122 16.055 23.1253 16.2896 23.1253C16.5045 23.1253 16.6902 23.2025 16.8466 23.357C17.003 23.5115 17.0811 23.6853 17.0811 23.9074V26.4082C17.0811 26.7944 17.3939 27.113 17.7945 27.113H17.8238C18.2147 27.113 18.5372 26.804 18.5372 26.4082V23.9074C18.5372 23.695 18.6154 23.5115 18.762 23.357C18.9184 23.2025 19.1041 23.1253 19.3288 23.1253C19.5536 23.1253 19.7295 23.2025 19.8859 23.357L19.837 23.3474Z" fill="#FCFCFC"/>
<path d="M27.0493 22.488C26.5216 21.9666 25.8669 21.6963 25.1144 21.6963C24.3619 21.6963 23.7169 21.9666 23.1794 22.488C22.6419 23.0094 22.3781 23.6564 22.3781 24.3998C22.3781 25.1433 22.6517 25.7806 23.1794 26.3116C23.7071 26.833 24.3619 27.1034 25.1144 27.1034C25.8669 27.1034 26.5216 26.833 27.0493 26.3116C27.5868 25.7806 27.8507 25.1433 27.8507 24.3998C27.8507 23.6564 27.5771 23.0094 27.0493 22.488ZM26.4043 24.3998C26.4043 24.7571 26.2773 25.0467 26.0232 25.2978C25.7691 25.5488 25.476 25.6743 25.1144 25.6743C24.7528 25.6743 24.4596 25.5488 24.2055 25.2978C23.9514 25.0467 23.8244 24.7571 23.8244 24.3998C23.8244 24.0426 23.9514 23.7433 24.2055 23.4922C24.4596 23.2412 24.7528 23.1156 25.1144 23.1156C25.476 23.1156 25.7691 23.2412 26.0232 23.4922C26.2773 23.7433 26.4043 24.0426 26.4043 24.3998Z" fill="#FCFCFC"/>
<path d="M29.4631 22.4883C28.9256 23.0097 28.6617 23.6566 28.6617 24.4V26.3891C28.6617 26.7849 28.9842 27.1036 29.3849 27.1036C29.7856 27.1036 30.1081 26.7849 30.1081 26.3891V24.4C30.1081 24.0428 30.2351 23.7435 30.4794 23.4924C30.6163 23.3572 30.7628 23.2607 30.929 23.2028C31.2026 23.0966 31.3981 22.8359 31.3981 22.5462V22.5172C31.3981 22.0248 30.8997 21.6869 30.4403 21.8606C30.0885 21.9958 29.766 22.1986 29.4729 22.4883H29.4631Z" fill="#FCFCFC"/>
<path d="M37.2225 22.5653C36.7241 22.0342 36.0205 21.7156 35.2778 21.6963C34.4959 21.677 33.8216 21.9473 33.2744 22.488C32.7467 23.0094 32.473 23.6563 32.473 24.3998V26.3985C32.473 26.7847 32.7857 27.1033 33.1864 27.1033H33.2157C33.6066 27.1033 33.9291 26.7944 33.9291 26.3985V24.3998C33.9291 24.0426 34.0562 23.7432 34.3103 23.4922C34.5644 23.2412 34.8575 23.1156 35.2191 23.1156C35.5807 23.1156 35.8739 23.2412 36.128 23.4922C36.3821 23.7432 36.5091 24.0426 36.5091 24.3998V26.3985C36.5091 26.7847 36.8218 27.1033 37.2225 27.1033H37.2518C37.6427 27.1033 37.9652 26.7944 37.9652 26.3985V24.3998C37.9652 23.695 37.7209 23.077 37.2323 22.5556L37.2225 22.5653Z" fill="#FCFCFC"/>
<path d="M22.5633 14.9952C22.0454 14.5028 21.3515 14.2324 20.6382 14.2324C19.915 14.2324 19.2798 14.4931 18.7618 14.9952C18.2439 15.4876 17.9409 16.1635 17.9312 16.878C17.9116 17.6505 18.1852 18.307 18.7325 18.8477C19.27 19.3788 19.915 19.6395 20.6675 19.6395C21.1268 19.6395 21.5665 19.5333 21.9574 19.3112V19.3788C21.9574 19.736 21.8304 20.0257 21.5861 20.2768C21.4493 20.4119 21.3027 20.5085 21.1366 20.5664C20.8531 20.6726 20.6675 20.9333 20.6675 21.223V21.252C20.6675 21.7444 21.1659 22.0823 21.6252 21.9085C21.9868 21.7733 22.3093 21.5706 22.6024 21.2809C23.1399 20.7595 23.4038 20.1126 23.4038 19.3691V16.9263C23.4038 16.1635 23.1204 15.5069 22.5633 14.9759V14.9952ZM21.5763 17.8436C21.3222 18.0946 21.0193 18.2201 20.6577 18.2201C20.2961 18.2201 20.0029 18.0946 19.7488 17.8436C19.4948 17.5925 19.3677 17.3029 19.3677 16.9456C19.3677 16.5884 19.4948 16.289 19.7488 16.038C20.0029 15.787 20.3059 15.6614 20.6577 15.6614C21.0095 15.6614 21.3222 15.787 21.5763 16.0283C21.8304 16.289 21.9574 16.5787 21.9574 16.936C21.9574 17.2932 21.8304 17.5829 21.5763 17.8339V17.8436Z" fill="#FCFCFC"/>
<path d="M26.951 19.6394C27.7328 19.6587 28.4071 19.3883 28.9544 18.8476C29.4919 18.3166 29.7557 17.6793 29.7557 16.9358V14.9275C29.7557 14.5413 29.443 14.2227 29.0423 14.2227H29.013C28.6221 14.2227 28.2996 14.5316 28.2996 14.9275V16.9358C28.2996 17.2931 28.1726 17.5828 27.9185 17.8338C27.6644 18.0848 27.3712 18.2104 27.0096 18.2104C26.6481 18.2104 26.3451 18.0848 26.091 17.8338C25.8369 17.5828 25.7099 17.2931 25.7099 16.9358V14.9275C25.7099 14.5413 25.3972 14.2227 24.9965 14.2227H24.9672C24.5763 14.2227 24.2538 14.5316 24.2538 14.9275V16.9358C24.2538 17.6407 24.4981 18.2586 24.9867 18.7704C25.4851 19.3014 26.1888 19.6201 26.9315 19.6394H26.951Z" fill="#FCFCFC"/>
<path d="M31.212 19.1375C31.5541 19.4658 31.9645 19.63 32.4336 19.63H33.3816C33.7725 19.63 34.095 19.321 34.095 18.9251V18.8962C34.095 18.5099 33.7822 18.1913 33.3816 18.1913H32.4336C32.3457 18.1913 32.287 18.1623 32.2284 18.1044C32.1698 18.0465 32.1404 17.9885 32.1404 17.9113V15.6423H33.0688C33.4597 15.6423 33.7822 15.3333 33.7822 14.9374V14.9084C33.7822 14.5222 33.4695 14.2036 33.0688 14.2036H32.1404V13.2381C32.1404 12.8518 31.8277 12.5332 31.427 12.5332H31.3977C31.0068 12.5332 30.6843 12.8518 30.6843 13.2381V17.9016C30.6843 18.3748 30.8602 18.7803 31.1925 19.1182L31.212 19.1375Z" fill="#FCFCFC"/>
</g>
<defs>
<clipPath id="clip0_3633_11356">
<rect width="52" height="44" fill="white"/>
</clipPath>
</defs>
</svg>
