<svg width="42" height="42" viewBox="0 0 42 42" fill="none" xmlns="http://www.w3.org/2000/svg">
<mask id="path-1-inside-1_1054_2071" fill="white">
<path fill-rule="evenodd" clip-rule="evenodd" d="M26.7549 9.70743C26.7549 9.5557 26.7351 9.4086 26.698 9.26856C26.5043 8.53824 25.8387 8 25.0475 8C24.2562 8 23.5906 8.53824 23.397 9.26856C23.3598 9.4086 23.34 9.5557 23.34 9.70743V9.86228C18.9689 10.6652 15.6567 14.4949 15.6567 19.0983V25.5321C14.1404 26.271 13.0957 27.8272 13.0957 29.6274C13.0957 30.8847 14.115 31.904 15.3723 31.904H15.6567H34.4384H34.7231C35.9804 31.904 36.9997 30.8847 36.9997 29.6274C36.9997 27.8271 35.9548 26.2708 34.4384 25.5319V19.0983C34.4384 14.4949 31.1261 10.6652 26.7549 9.86226V9.70743ZM22.9598 34.4651C22.9598 33.968 22.5568 33.5651 22.0598 33.5651C21.5627 33.5651 21.1598 33.968 21.1598 34.4651C21.1598 35.4206 21.7035 36.2007 22.4118 36.7066C23.1219 37.2138 24.0567 37.4994 25.0478 37.4994C26.0388 37.4994 26.9737 37.2138 27.6837 36.7066C28.3921 36.2007 28.9358 35.4206 28.9358 34.4651C28.9358 33.968 28.5328 33.5651 28.0358 33.5651C27.5387 33.5651 27.1358 33.968 27.1358 34.4651C27.1358 34.6884 27.0106 34.9754 26.6375 35.2419C26.2661 35.5072 25.7069 35.6994 25.0478 35.6994C24.3886 35.6994 23.8294 35.5072 23.4581 35.2419C23.0849 34.9754 22.9598 34.6884 22.9598 34.4651Z"/>
</mask>
<path d="M26.698 9.26856L24.9581 9.72998L24.9581 9.72998L26.698 9.26856ZM23.397 9.26856L21.6571 8.80715L21.6571 8.80716L23.397 9.26856ZM23.34 9.86228L23.6652 11.6327L25.14 11.3618V9.86228H23.34ZM15.6567 25.5321L16.4452 27.1501L17.4567 26.6572V25.5321H15.6567ZM34.4384 25.5319H32.6384V26.6571L33.6499 27.15L34.4384 25.5319ZM26.7549 9.86226H24.9549V11.3617L26.4297 11.6326L26.7549 9.86226ZM22.4118 36.7066L21.3656 38.1713H21.3656L22.4118 36.7066ZM27.6837 36.7066L28.7299 38.1713H28.7299L27.6837 36.7066ZM26.6375 35.2419L27.6837 36.7066L26.6375 35.2419ZM23.4581 35.2419L22.4118 36.7066L22.4118 36.7066L23.4581 35.2419ZM24.9581 9.72998C24.9557 9.7208 24.9549 9.71283 24.9549 9.70743H28.5549C28.5549 9.39857 28.5145 9.09641 28.4378 8.80714L24.9581 9.72998ZM25.0475 9.8C25.0279 9.8 25.0052 9.79178 24.9896 9.77963C24.9769 9.76966 24.9644 9.75366 24.9581 9.72998L28.4378 8.80715C28.0401 7.30746 26.6754 6.2 25.0475 6.2V9.8ZM25.1368 9.72998C25.1305 9.75366 25.1181 9.76966 25.1053 9.77963C25.0897 9.79178 25.067 9.8 25.0475 9.8V6.2C23.4195 6.2 22.0548 7.30746 21.6571 8.80715L25.1368 9.72998ZM25.14 9.70743C25.14 9.71283 25.1393 9.72079 25.1368 9.72997L21.6571 8.80716C21.5804 9.09641 21.54 9.39857 21.54 9.70743H25.14ZM25.14 9.86228V9.70743H21.54V9.86228H25.14ZM17.4567 19.0983C17.4567 15.3792 20.133 12.2815 23.6652 11.6327L23.0148 8.0919C17.8047 9.04896 13.8567 13.6107 13.8567 19.0983H17.4567ZM17.4567 25.5321V19.0983H13.8567V25.5321H17.4567ZM14.8957 29.6274C14.8957 28.5415 15.5241 27.599 16.4452 27.1501L14.8681 23.914C12.7567 24.943 11.2957 27.1129 11.2957 29.6274H14.8957ZM15.3723 30.104C15.1091 30.104 14.8957 29.8906 14.8957 29.6274H11.2957C11.2957 31.8788 13.1209 33.704 15.3723 33.704V30.104ZM15.6567 30.104H15.3723V33.704H15.6567V30.104ZM34.4384 30.104H15.6567V33.704H34.4384V30.104ZM34.7231 30.104H34.4384V33.704H34.7231V30.104ZM35.1997 29.6274C35.1997 29.8906 34.9863 30.104 34.7231 30.104V33.704C36.9745 33.704 38.7997 31.8788 38.7997 29.6274H35.1997ZM33.6499 27.15C34.5711 27.5989 35.1997 28.5415 35.1997 29.6274H38.7997C38.7997 27.1127 37.3384 24.9427 35.2268 23.9138L33.6499 27.15ZM32.6384 19.0983V25.5319H36.2384V19.0983H32.6384ZM26.4297 11.6326C29.962 12.2814 32.6384 15.3792 32.6384 19.0983H36.2384C36.2384 13.6106 32.2903 9.04889 27.0801 8.09188L26.4297 11.6326ZM24.9549 9.70743V9.86226H28.5549V9.70743H24.9549ZM22.0598 35.3651C21.5627 35.3651 21.1598 34.9622 21.1598 34.4651H24.7598C24.7598 32.9739 23.5509 31.7651 22.0598 31.7651V35.3651ZM22.9598 34.4651C22.9598 34.9622 22.5568 35.3651 22.0598 35.3651V31.7651C20.5686 31.7651 19.3598 32.9739 19.3598 34.4651H22.9598ZM23.4581 35.2419C23.0811 34.9726 22.9598 34.6846 22.9598 34.4651H19.3598C19.3598 36.1565 20.3259 37.4287 21.3656 38.1713L23.4581 35.2419ZM25.0478 35.6994C24.3883 35.6994 23.8292 35.507 23.4581 35.2419L21.3656 38.1713C22.4146 38.9206 23.7251 39.2994 25.0478 39.2994V35.6994ZM26.6375 35.2419C26.2663 35.507 25.7072 35.6994 25.0478 35.6994V39.2994C26.3704 39.2994 27.681 38.9206 28.7299 38.1713L26.6375 35.2419ZM27.1358 34.4651C27.1358 34.6846 27.0145 34.9726 26.6375 35.2419L28.7299 38.1713C29.7696 37.4287 30.7358 36.1565 30.7358 34.4651H27.1358ZM28.0358 35.3651C27.5387 35.3651 27.1358 34.9622 27.1358 34.4651H30.7358C30.7358 32.9739 29.5269 31.7651 28.0358 31.7651V35.3651ZM28.9358 34.4651C28.9358 34.9622 28.5328 35.3651 28.0358 35.3651V31.7651C26.5446 31.7651 25.3358 32.9739 25.3358 34.4651H28.9358ZM27.6837 36.7066C28.4031 36.1928 28.9358 35.4097 28.9358 34.4651H25.3358C25.3358 34.2347 25.4013 34.0505 25.4736 33.9272C25.5442 33.8066 25.6077 33.7655 25.5913 33.7772L27.6837 36.7066ZM25.0478 37.4994C26.0394 37.4994 26.974 37.2135 27.6837 36.7066L25.5913 33.7772C25.5815 33.7841 25.5302 33.8167 25.4296 33.8471C25.3322 33.8766 25.2033 33.8994 25.0478 33.8994V37.4994ZM22.4118 36.7066C23.1215 37.2135 24.0562 37.4994 25.0478 37.4994V33.8994C24.8923 33.8994 24.7633 33.8766 24.6659 33.8471C24.5654 33.8167 24.514 33.7841 24.5043 33.7772L22.4118 36.7066ZM21.1598 34.4651C21.1598 35.4097 21.6924 36.1928 22.4118 36.7066L24.5043 33.7772C24.4879 33.7655 24.5513 33.8066 24.622 33.9272C24.6942 34.0505 24.7598 34.2347 24.7598 34.4651H21.1598Z" fill="#666666" mask="url(#path-1-inside-1_1054_2071)"/>
<path d="M36.5 4H34V12H36.5V7.5L39.5 12H42V4H39.5V8.5L36.5 4Z" fill="#E42864"/>
</svg>
