<svg width="34" height="34" viewBox="0 0 34 34" fill="none" xmlns="http://www.w3.org/2000/svg">
<g clip-path="url(#clip0_4312_15384)">
<g clip-path="url(#clip1_4312_15384)">
<path d="M17.0547 3.01172C24.8102 3.01189 31.0977 9.29915 31.0977 17.0547V29.0977C31.0975 30.2019 30.2019 31.0974 29.0977 31.0977H17.0547C9.29911 31.0977 3.01184 24.8102 3.01172 17.0547C3.01172 9.29904 9.29904 3.01172 17.0547 3.01172ZM17.0547 5.01172C10.4036 5.01172 5.01172 10.4036 5.01172 17.0547C5.01184 23.7057 10.4037 29.0977 17.0547 29.0977H29.0977V17.0547C29.0977 10.4037 23.7056 5.01189 17.0547 5.01172ZM17.5449 21C18.3732 21.0001 19.0449 21.6717 19.0449 22.5C19.0449 23.3283 18.3732 23.9999 17.5449 24C16.7165 24 16.0449 23.3284 16.0449 22.5C16.0449 21.6716 16.7165 21 17.5449 21ZM17.5439 9.94629C18.3723 9.94629 19.0439 10.6179 19.0439 11.4463V18.4463C19.0439 19.2747 18.3724 19.9463 17.5439 19.9463C16.7156 19.9462 16.0439 19.2746 16.0439 18.4463V11.4463C16.044 10.618 16.7157 9.94641 17.5439 9.94629Z" fill="#666666"/>
</g>
</g>
<defs>
<clipPath id="clip0_4312_15384">
<rect width="34" height="34" fill="white"/>
</clipPath>
<clipPath id="clip1_4312_15384">
<rect width="34" height="34" fill="white"/>
</clipPath>
</defs>
</svg>
