<svg width="34" height="34" viewBox="0 0 34 34" fill="none" xmlns="http://www.w3.org/2000/svg">
<path d="M6 18C6 10.8203 11.8203 5 19 5V5C26.1797 5 32 10.8203 32 18V29C32 30.1046 31.1046 31 30 31H19C11.8203 31 6 25.1797 6 18V18Z" stroke="#666666" stroke-width="1.8"/>
<path d="M17.3887 20.6641C17.4082 18.1738 18.1113 17.4121 19.3418 16.6602C20.1719 16.123 20.8164 15.4688 20.8066 14.4922C20.8164 13.3984 19.957 12.6953 18.8926 12.6953C17.9258 12.6953 16.9883 13.3203 16.9199 14.6289H14.4785C14.5469 12.002 16.5 10.6641 18.9121 10.6641C21.5488 10.6641 23.3555 12.1289 23.3652 14.4531C23.3555 16.0449 22.5645 17.0801 21.2949 17.832C20.1621 18.5254 19.6934 19.1992 19.6738 20.6641V20.8398H17.3887V20.6641ZM17.0762 23.6328C17.0664 22.8125 17.7598 22.1387 18.5996 22.1289C19.4102 22.1387 20.1035 22.8125 20.1035 23.6328C20.1035 24.4727 19.4102 25.1562 18.5996 25.1562C17.7598 25.1562 17.0664 24.4727 17.0762 23.6328Z" fill="#666666"/>
</svg>
