<svg width="32" height="32" viewBox="0 0 32 32" fill="none" xmlns="http://www.w3.org/2000/svg">
<g clip-path="url(#clip0_4480_1606)">
<g clip-path="url(#clip1_4480_1606)">
<path d="M18.5 24.1558C19.0891 24.1558 19.5664 24.6331 19.5664 25.2222C19.5663 26.1492 19.0164 26.8694 18.3698 27.3121C17.7181 27.7582 16.8773 28.0009 16 28.0009C15.1227 28.0009 14.2819 27.7582 13.6302 27.3121C12.9836 26.8694 12.4337 26.1492 12.4336 25.2222C12.4336 24.6331 12.9109 24.1558 13.5 24.1558C14.0891 24.1558 14.5664 24.6331 14.5664 25.2222C14.5665 25.2411 14.5772 25.3767 14.8346 25.553C15.0878 25.7262 15.4968 25.8668 16 25.8668C16.5032 25.8668 16.9122 25.7262 17.1654 25.553C17.4228 25.3767 17.4335 25.2411 17.4336 25.2222C17.4336 24.6331 17.9109 24.1558 18.5 24.1558Z" fill="#666666"/>
<path fill-rule="evenodd" clip-rule="evenodd" d="M16 3.99829C16.7365 3.9986 17.3333 4.59764 17.3333 5.33423V5.3785C21.1196 6.01325 24.0051 9.30523 24.0052 13.2717V18.092C25.1881 18.696 25.9998 19.9228 26 21.342C26 22.3503 25.1827 23.1675 24.1745 23.1676H7.82552C6.8173 23.1675 6 22.3503 6 21.342C6.00025 19.9222 6.8124 18.6945 7.99609 18.0907V13.2717C7.99617 9.28137 10.917 5.9731 14.737 5.36678L14.6654 5.33423C14.6654 4.59753 15.2633 3.99842 16 3.99829ZM16.0013 7.39933C12.7589 7.39933 10.129 10.0293 10.1289 13.2717V19.398L8.96484 19.9918C8.55506 20.201 8.26174 20.5829 8.16797 21.0347H23.832C23.7383 20.5834 23.4453 20.2012 23.0352 19.9918L21.8724 19.398V13.2717C21.8723 10.1306 19.4049 7.5647 16.3034 7.40715L16.0013 7.39933Z" fill="#666666"/>
</g>
</g>
<defs>
<clipPath id="clip0_4480_1606">
<rect width="32" height="32" fill="white"/>
</clipPath>
<clipPath id="clip1_4480_1606">
<rect width="32" height="32" fill="white"/>
</clipPath>
</defs>
</svg>
