<svg width="32" height="32" viewBox="0 0 32 32" fill="none" xmlns="http://www.w3.org/2000/svg">
<g clip-path="url(#clip0_3633_11395)">
<g clip-path="url(#clip1_3633_11395)">
<path d="M18.5 24.1556C19.0891 24.1556 19.5664 24.6329 19.5664 25.222C19.5663 26.149 19.0164 26.8692 18.3698 27.3118C17.7181 27.7579 16.8773 28.0007 16 28.0007C15.1227 28.0006 14.2819 27.7579 13.6302 27.3118C12.9836 26.8692 12.4337 26.149 12.4336 25.222C12.4336 24.6329 12.9109 24.1556 13.5 24.1556C14.0891 24.1556 14.5664 24.6329 14.5664 25.222C14.5665 25.2408 14.5772 25.3765 14.8346 25.5527C15.0878 25.7259 15.4968 25.8665 16 25.8665C16.5032 25.8665 16.9122 25.7259 17.1654 25.5527C17.4228 25.3765 17.4335 25.2408 17.4336 25.222C17.4336 24.6329 17.9109 24.1556 18.5 24.1556Z" fill="white"/>
<path fill-rule="evenodd" clip-rule="evenodd" d="M16 3.99805C16.7365 3.99836 17.3333 4.5974 17.3333 5.33398V5.37826C21.1196 6.013 24.0051 9.30499 24.0052 13.2715V18.0918C25.1881 18.6958 25.9998 19.9226 26 21.3418C26 22.35 25.1827 23.1673 24.1745 23.1673H7.82552C6.8173 23.1672 6 22.35 6 21.3418C6.00025 19.9219 6.8124 18.6942 7.99609 18.0905V13.2715C7.99617 9.28113 10.917 5.97286 14.737 5.36654L14.6654 5.33398C14.6654 4.59728 15.2633 3.99817 16 3.99805ZM16.0013 7.39909C12.7589 7.39909 10.129 10.0291 10.1289 13.2715V19.3978L8.96484 19.9915C8.55506 20.2008 8.26174 20.5827 8.16797 21.0345H23.832C23.7383 20.5831 23.4453 20.201 23.0352 19.9915L21.8724 19.3978V13.2715C21.8723 10.1304 19.4049 7.56445 16.3034 7.4069L16.0013 7.39909Z" fill="white"/>
</g>
</g>
<defs>
<clipPath id="clip0_3633_11395">
<rect width="32" height="32" fill="white"/>
</clipPath>
<clipPath id="clip1_3633_11395">
<rect width="32" height="32" fill="white"/>
</clipPath>
</defs>
</svg>
