<svg width="109" height="18" viewBox="0 0 109 18" fill="none" xmlns="http://www.w3.org/2000/svg">
<path fill-rule="evenodd" clip-rule="evenodd" d="M83.7974 3.00821H83.857C84.683 3.00821 85.3557 2.33307 85.3557 1.50411C85.3557 0.675139 84.683 0 83.857 0H83.7974C82.9715 0 82.2988 0.675139 82.2988 1.50411C82.2988 2.33307 82.9715 3.00821 83.7974 3.00821ZM83.8531 3.59766H83.8021C83.0849 3.59766 82.5035 4.18115 82.5035 4.90093V12.3574C82.5035 13.0771 83.0849 13.6606 83.8021 13.6606H83.8531C84.5703 13.6606 85.1517 13.0771 85.1517 12.3574V4.90093C85.1517 4.18115 84.5703 3.59766 83.8531 3.59766ZM88.4044 5.06758C89.3793 4.09333 90.5672 3.59766 91.9338 3.59766C93.3132 3.59766 94.5096 4.09333 95.4845 5.07185C96.4595 6.05465 96.9533 7.2511 96.9533 8.63556V12.3574C96.9533 13.0752 96.3701 13.6606 95.6548 13.6606H95.6037C94.8885 13.6606 94.3052 13.0752 94.3052 12.3574V8.63556C94.3052 8.01597 94.1008 7.49039 93.6836 7.03317C93.2323 6.54605 92.598 6.25548 91.9338 6.25548C91.2739 6.25548 90.7289 6.48195 90.2649 6.94771C89.8008 7.42202 89.5752 7.97324 89.5752 8.63556V12.3574C89.5752 13.0752 88.9919 13.6606 88.2766 13.6606H88.2256C87.5103 13.6606 86.927 13.0752 86.927 12.3574V8.71675C86.927 7.35365 87.4422 6.02901 88.4044 5.06758ZM106.865 5.08483C105.89 4.1063 104.697 3.61063 103.314 3.61063C101.93 3.61063 100.751 4.1063 99.7801 5.08483C98.8052 6.06335 98.3071 7.26407 98.3071 8.64853C98.3071 10.033 98.8009 11.2209 99.7801 12.1994C100.755 13.1779 101.947 13.6779 103.314 13.6779C104.165 13.6779 104.957 13.4728 105.685 13.0668V13.195C105.685 13.8531 105.46 14.4043 104.996 14.8658C104.744 15.1136 104.468 15.2974 104.165 15.4127C103.654 15.6093 103.31 16.0879 103.31 16.6348V16.6946C103.31 17.6091 104.216 18.2329 105.072 17.9167C105.728 17.6732 106.328 17.2801 106.86 16.7502C107.839 15.7802 108.333 14.5838 108.333 13.1993V8.65708C108.333 7.27262 107.839 6.0719 106.86 5.09765L106.865 5.08483ZM104.996 10.3236C104.531 10.7893 103.978 11.0158 103.314 11.0158C102.65 11.0158 102.109 10.7893 101.645 10.3236C101.181 9.8578 100.955 9.30658 100.955 8.64853C100.955 7.99049 101.181 7.43499 101.645 6.96069C102.113 6.49493 102.658 6.26846 103.314 6.26846C103.969 6.26846 104.527 6.49493 104.991 6.96069C105.46 7.43499 105.685 7.99049 105.685 8.64853C105.685 9.30658 105.46 9.8578 104.996 10.3236ZM47.6949 7.71286C47.6949 7.3112 47.5587 6.9779 47.2734 6.69161L47.2649 6.70015C46.9839 6.41386 46.6561 6.27712 46.2517 6.27712C45.8472 6.27712 45.5109 6.41813 45.2171 6.70443C44.9361 6.98645 44.7999 7.31974 44.7999 7.72141V12.379C44.7999 13.0969 44.2166 13.6823 43.5013 13.6823H43.4503C42.735 13.6823 42.1517 13.0969 42.1517 12.379V7.72141C42.1517 7.31974 42.0155 6.98645 41.7302 6.70015C41.4493 6.41386 41.1172 6.27712 40.717 6.27712C40.287 6.27712 39.9379 6.43523 39.6398 6.75998C39.4014 7.02063 39.278 7.36247 39.278 7.71714V12.3747C39.278 13.0926 38.6947 13.678 37.9794 13.678H37.9283C37.2131 13.678 36.6298 13.0926 36.6298 12.3747V7.71714C36.6298 6.5976 37.03 5.62335 37.8176 4.82429C38.618 4.02096 39.6313 3.61503 40.717 3.61503C41.8026 3.61503 42.7307 3.97823 43.4801 4.69183C44.2379 3.97823 45.1405 3.61503 46.2559 3.61503C47.3714 3.61503 48.3421 4.02096 49.1382 4.82002C49.9386 5.61908 50.3431 6.59333 50.3431 7.71286V12.3705C50.3431 13.0883 49.7598 13.6737 49.0445 13.6737H48.9935C48.2782 13.6737 47.6949 13.0883 47.6949 12.3705V7.71286ZM60.4965 5.08483C59.5216 4.1063 58.3252 3.61063 56.9458 3.61063C55.5664 3.61063 54.3828 4.1063 53.4079 5.08483C52.4329 6.06335 51.9391 7.26407 51.9391 8.64853C51.9391 10.033 52.4329 11.2209 53.4079 12.1994C54.3828 13.1779 55.5749 13.6736 56.9458 13.6736C58.3167 13.6736 59.5216 13.1779 60.4965 12.1994C61.4715 11.2209 61.9696 10.0244 61.9696 8.64853C61.9696 7.27262 61.4757 6.06762 60.4965 5.08483ZM59.3172 8.64853C59.3172 9.30658 59.0873 9.85353 58.6147 10.3236C58.1507 10.7893 57.6057 11.0158 56.9458 11.0158C56.2859 11.0158 55.741 10.7893 55.2769 10.3236C54.8128 9.8578 54.5872 9.31085 54.5872 8.64853C54.5872 7.98621 54.8128 7.43499 55.2769 6.96069C55.741 6.49493 56.2859 6.26846 56.9458 6.26846C57.6057 6.26846 58.1507 6.49493 58.6147 6.96069C59.0873 7.43499 59.3172 7.98621 59.3172 8.64853ZM63.4471 8.64874C63.4471 7.26629 63.9437 6.06705 64.9159 5.0893C65.4438 4.55517 66.0356 4.16633 66.687 3.92277C67.5385 3.60229 68.4496 4.22615 68.4496 5.14058V5.19613C68.4496 5.74308 68.109 6.22166 67.5981 6.41822C67.3043 6.53359 67.0318 6.71305 66.7849 6.96089C66.3208 7.4352 66.0952 7.98642 66.0952 8.64874V12.3449C66.0952 13.0799 65.5034 13.6738 64.7711 13.6738C64.0388 13.6738 63.4471 13.0799 63.4471 12.3449V8.64874ZM79.1313 5.22179C78.2117 4.23472 76.926 3.64077 75.5763 3.61086C74.1501 3.58095 72.9197 4.07662 71.9107 5.08506C70.9357 6.06358 70.4419 7.2643 70.4419 8.64876V12.3706C70.4419 13.0884 71.0251 13.6738 71.7404 13.6738H71.7915C72.5067 13.6738 73.09 13.0884 73.09 12.3706V8.64876C73.09 7.98644 73.3156 7.43522 73.7797 6.96092C74.2438 6.49516 74.7887 6.26869 75.4486 6.26869C76.1085 6.26869 76.6535 6.49516 77.1175 6.96092C77.5901 7.43522 77.82 7.98644 77.82 8.64876V12.3706C77.82 13.0884 78.4033 13.6738 79.1185 13.6738H79.1696C79.8849 13.6738 80.4682 13.0884 80.4682 12.3706V8.64876C80.4682 7.3284 80.0169 6.17895 79.1313 5.22607V5.22179ZM5.29877 3.61074C6.61007 3.60219 7.8873 4.11068 8.8282 5.02511L8.82394 5.02938C9.84573 6.02073 10.3609 7.23854 10.3609 8.65291V13.1951C10.3609 14.5796 9.86701 15.7761 8.8878 16.746C8.35988 17.2759 7.75958 17.669 7.10393 17.9126C6.24818 18.2288 5.34134 17.6049 5.34134 16.6905V16.6307C5.34134 16.0837 5.6862 15.6051 6.19709 15.4086C6.49511 15.2932 6.77185 15.1095 7.02304 14.8616C7.4871 14.4001 7.71274 13.8489 7.71274 13.1909V13.0627C6.98472 13.4686 6.18858 13.6737 5.34134 13.6737C3.97045 13.6737 2.77836 13.1738 1.8034 12.1953C0.798646 11.1911 0.304783 9.95191 0.334585 8.52472C0.364387 7.20863 0.922112 5.94808 1.86301 5.02938C2.81668 4.09786 3.9747 3.61928 5.29877 3.61074ZM5.34134 11.0159C6.00976 11.0159 6.55898 10.7894 7.02304 10.3237C7.4871 9.85791 7.71274 9.30669 7.71274 8.64864C7.71274 7.99059 7.4871 7.4351 7.01878 6.96079C6.55472 6.49503 5.99699 6.26856 5.34134 6.26856C4.6857 6.26856 4.13649 6.49503 3.67242 6.96079C3.20836 7.4351 2.98272 7.98632 2.98272 8.64864C2.98272 9.31096 3.20836 9.85791 3.67242 10.3237C4.13649 10.7894 4.67292 11.0159 5.34134 11.0159ZM16.866 13.6606C18.2922 13.6906 19.5269 13.1949 20.5317 12.1864C21.5066 11.2036 22.0047 10.0115 22.0047 8.63556V4.90093C22.0047 4.18306 21.4215 3.59766 20.7062 3.59766H20.6551C19.9399 3.59766 19.3566 4.18306 19.3566 4.90093V8.63556C19.3566 9.29788 19.131 9.84483 18.6669 10.3106C18.2028 10.7763 17.6579 11.0028 17.0022 11.0028C16.3466 11.0028 15.7931 10.7763 15.3205 10.3106C14.8565 9.84483 14.6308 9.29788 14.6308 8.63556V4.90093C14.6308 4.18306 14.0476 3.59766 13.3323 3.59766H13.2812C12.566 3.59766 11.9827 4.18306 11.9827 4.90093V8.63556C11.9827 9.94738 12.434 11.0968 13.3195 12.0497C14.2392 13.0368 15.5249 13.6307 16.8745 13.6606H16.866ZM26.9139 13.6608C26.0411 13.6608 25.2875 13.3489 24.6702 12.7379H24.6745C24.0614 12.114 23.7506 11.3534 23.7506 10.4817L23.7378 1.79462C23.7378 1.07676 24.3168 0.49135 25.0363 0.49135H25.0874C25.8027 0.49135 26.3859 1.07676 26.3859 1.79462V3.59784H28.0804C28.7957 3.59784 29.3789 4.18325 29.3789 4.90112V4.95239C29.3789 5.67026 28.7957 6.25567 28.0804 6.25567H26.3859V10.4817C26.3859 10.6313 26.4328 10.7424 26.5392 10.8492C26.6414 10.956 26.7606 11.003 26.9139 11.003H28.6509C29.3662 11.003 29.9494 11.5884 29.9494 12.3063V12.3576C29.9494 13.0754 29.3662 13.6608 28.6509 13.6608H26.9139Z" fill="#111111"/>
</svg>
