<svg width="34" height="34" viewBox="0 0 34 34" fill="none" xmlns="http://www.w3.org/2000/svg">
<path d="M32 31H16C11.5817 31 8 27.4183 8 23V13C8 8.58172 11.5817 5 16 5H24C28.4183 5 32 8.58172 32 13V23.2813" stroke="#666666" stroke-width="1.8" stroke-linecap="round"/>
<path d="M21.3184 10.8594L21.1035 20.8398H18.8965L18.6621 10.8594H21.3184ZM18.4863 23.6328C18.4766 22.8125 19.1699 22.1387 20.0098 22.1289C20.8203 22.1387 21.5137 22.8125 21.5137 23.6328C21.5137 24.4727 20.8203 25.1562 20.0098 25.1562C19.1699 25.1562 18.4766 24.4727 18.4863 23.6328Z" fill="#666666"/>
</svg>
