<svg width="32" height="32" viewBox="0 0 32 32" fill="none" xmlns="http://www.w3.org/2000/svg">
<g clip-path="url(#clip0_151_62)">
<g clip-path="url(#clip1_151_62)">
<path d="M18.5 24.156C19.0891 24.156 19.5664 24.6333 19.5664 25.2224C19.5663 26.1494 19.0164 26.8695 18.3698 27.3122C17.7181 27.7583 16.8773 28.001 16 28.001C15.1227 28.001 14.2819 27.7583 13.6302 27.3122C12.9836 26.8695 12.4337 26.1494 12.4336 25.2224C12.4336 24.6333 12.9109 24.156 13.5 24.156C14.0891 24.156 14.5664 24.6333 14.5664 25.2224C14.5665 25.2412 14.5772 25.3769 14.8346 25.5531C15.0878 25.7263 15.4968 25.8669 16 25.8669C16.5032 25.8669 16.9122 25.7263 17.1654 25.5531C17.4228 25.3769 17.4335 25.2412 17.4336 25.2224C17.4336 24.6333 17.9109 24.156 18.5 24.156Z" fill="white"/>
<path fill-rule="evenodd" clip-rule="evenodd" d="M16 3.99841C16.7365 3.99873 17.3333 4.59776 17.3333 5.33435V5.37862C21.1196 6.01337 24.0051 9.30535 24.0052 13.2719V18.0922C25.1881 18.6962 25.9998 19.9229 26 21.3422C26 22.3504 25.1827 23.1676 24.1745 23.1677H7.82552C6.8173 23.1676 6 22.3504 6 21.3422C6.00025 19.9223 6.8124 18.6946 7.99609 18.0909V13.2719C7.99617 9.2815 10.917 5.97322 14.737 5.3669L14.6654 5.33435C14.6654 4.59765 15.2633 3.99854 16 3.99841ZM16.0013 7.39945C12.7589 7.39945 10.129 10.0295 10.1289 13.2719V19.3982L8.96484 19.9919C8.55506 20.2012 8.26174 20.583 8.16797 21.0349H23.832C23.7383 20.5835 23.4453 20.2013 23.0352 19.9919L21.8724 19.3982V13.2719C21.8723 10.1307 19.4049 7.56482 16.3034 7.40727L16.0013 7.39945Z" fill="white"/>
</g>
</g>
<path d="M30.1694 0.5C30.6281 0.5 31 0.871881 31 1.33062V6.56842C31 7.08292 30.5829 7.5 30.0684 7.5V7.5C29.7643 7.5 29.4792 7.3515 29.3049 7.10222L26.7197 3.4046C26.7137 3.396 26.7038 3.39088 26.6934 3.39088V3.39088C26.6756 3.39088 26.6612 3.40527 26.6612 3.42301V6.66938C26.6612 7.12812 26.2894 7.5 25.8306 7.5V7.5C25.3719 7.5 25 7.12812 25 6.66938V1.44253C25 0.921985 25.422 0.5 25.9425 0.5V0.5C26.2519 0.5 26.5415 0.6518 26.7176 0.906176L29.2687 4.59254C29.2758 4.60292 29.2877 4.60912 29.3003 4.60912V4.60912C29.3215 4.60912 29.3388 4.59189 29.3388 4.57065V1.33062C29.3388 0.871881 29.7106 0.5 30.1694 0.5V0.5Z" fill="#E42864"/>
<defs>
<clipPath id="clip0_151_62">
<rect width="32" height="32" fill="white"/>
</clipPath>
<clipPath id="clip1_151_62">
<rect width="32" height="32" fill="white"/>
</clipPath>
</defs>
</svg>
