<svg width="108" height="18" viewBox="0 0 108 18" fill="none" xmlns="http://www.w3.org/2000/svg">
<path d="M102.981 3.61035C104.364 3.61035 105.557 4.10644 106.532 5.08496L106.528 5.09766C107.507 6.07187 108 7.27286 108 8.65723V13.1992C108 14.5835 107.507 15.7801 106.528 16.75C105.996 17.2798 105.395 17.6734 104.74 17.917C103.884 18.2332 102.977 17.6088 102.977 16.6943V16.6348C102.977 16.0879 103.321 15.6097 103.832 15.4131C104.135 15.2978 104.411 15.1139 104.662 14.8662C105.126 14.4048 105.352 13.8532 105.352 13.1953V13.0664C104.624 13.4723 103.832 13.6777 102.981 13.6777C101.614 13.6777 100.422 13.1777 99.4476 12.1992C98.4683 11.2207 97.9739 10.0329 97.9739 8.64844C97.974 7.26402 98.4726 6.06346 99.4476 5.08496C100.418 4.10655 101.597 3.61036 102.981 3.61035ZM4.96612 3.61035C6.27728 3.6019 7.5546 4.11105 8.49541 5.02539L8.49053 5.0293C9.51232 6.02064 10.0276 7.23895 10.0276 8.65332V13.1953C10.0276 14.5797 9.53411 15.7762 8.55498 16.7461C8.02707 17.2759 7.42643 17.6685 6.7708 17.9121C5.91506 18.2283 5.00811 17.6049 5.00811 16.6904V16.6309C5.00811 16.0839 5.35366 15.6048 5.86455 15.4082C6.16237 15.2928 6.43871 15.109 6.68975 14.8613C7.1538 14.3998 7.38018 13.8485 7.38018 13.1904V13.0625C6.65215 13.4684 5.85534 13.6738 5.00811 13.6738C3.6373 13.6738 2.44493 13.1738 1.47002 12.1953C0.465367 11.1912 -0.0285285 9.95153 0.00127214 8.52441C0.0311507 7.2085 0.588865 5.94792 1.52959 5.0293C2.48326 4.09778 3.64205 3.6189 4.96612 3.61035ZM45.9231 3.61523C47.0385 3.6153 48.0089 4.02132 48.805 4.82031C49.6054 5.61936 50.0101 6.59338 50.0101 7.71289V12.3701C50.0101 13.088 49.4265 13.6738 48.7112 13.6738H48.6604C47.9452 13.6738 47.3616 13.088 47.3616 12.3701V7.71289C47.3616 7.31125 47.2259 6.97769 46.9407 6.69141L46.9319 6.7002C46.6509 6.4139 46.3227 6.27734 45.9183 6.27734C45.514 6.27743 45.1777 6.41801 44.8841 6.7041C44.6031 6.98612 44.4671 7.32001 44.4671 7.72168V12.3789C44.4671 13.0968 43.8835 13.6826 43.1683 13.6826H43.1175C42.4022 13.6826 41.8187 13.0968 41.8187 12.3789V7.72168C41.8187 7.32001 41.682 6.98649 41.3968 6.7002C41.1159 6.41407 40.7841 6.27737 40.3841 6.27734C39.9542 6.27734 39.6049 6.43513 39.3069 6.75977C39.0686 7.02034 38.9447 7.36226 38.9446 7.7168V12.375C38.9445 13.0926 38.3618 13.6775 37.6468 13.6777H37.595C36.88 13.6776 36.2973 13.0927 36.2972 12.375V7.7168C36.2973 6.5974 36.6971 5.6232 37.4847 4.82422C38.2851 4.02093 39.2985 3.61523 40.3841 3.61523C41.4695 3.61526 42.3976 3.97806 43.1468 4.69141C43.9046 3.97786 44.8077 3.61523 45.9231 3.61523ZM56.6126 3.61035C57.992 3.61035 59.1884 4.10644 60.1634 5.08496C61.1426 6.06774 61.637 7.27256 61.637 8.64844C61.637 10.0243 61.1383 11.2207 60.1634 12.1992C59.1884 13.1777 57.9835 13.6738 56.6126 13.6738C55.2418 13.6738 54.0494 13.1777 53.0745 12.1992C52.0997 11.2207 51.6058 10.0328 51.6058 8.64844C51.6058 7.26413 52.0997 6.06342 53.0745 5.08496C54.0494 4.10649 55.2333 3.6104 56.6126 3.61035ZM66.3538 3.92285C67.2053 3.60237 68.1165 4.2262 68.1165 5.14062V5.19629C68.1164 5.74317 67.7758 6.22143 67.2649 6.41797C66.9712 6.53334 66.6984 6.7131 66.4515 6.96094C65.9876 7.43512 65.7621 7.98636 65.762 8.64844V12.3447C65.762 13.0797 65.1701 13.6738 64.4378 13.6738C63.7057 13.6737 63.1136 13.0796 63.1136 12.3447V8.64844C63.1136 7.35082 63.5517 6.21459 64.4095 5.27148L64.5833 5.08887C65.1111 4.55501 65.7027 4.16635 66.3538 3.92285ZM75.2435 3.61133C76.593 3.64128 77.8786 4.23472 78.7981 5.22168V5.22559C79.6836 6.17839 80.135 7.32821 80.1351 8.64844V12.3701C80.1351 13.088 79.5515 13.6738 78.8362 13.6738H78.7855C78.0702 13.6738 77.4866 13.088 77.4866 12.3701V8.64844C77.4865 7.98626 77.257 7.43517 76.7845 6.96094C76.3204 6.49519 75.7754 6.26855 75.1155 6.26855C74.4557 6.26857 73.9106 6.49519 73.4466 6.96094C72.9826 7.43515 72.7572 7.98629 72.7571 8.64844V12.3701C72.7571 13.088 72.1736 13.6738 71.4583 13.6738H71.4075C70.6923 13.6738 70.1087 13.088 70.1087 12.3701V8.64844C70.1088 7.26414 70.6026 6.0634 71.5774 5.08496C72.5865 4.07653 73.8172 3.58142 75.2435 3.61133ZM24.7542 0.491211C25.4695 0.491211 26.053 1.07705 26.053 1.79492V3.59766H27.7474C28.4626 3.59766 29.0462 4.1835 29.0462 4.90137V4.95215C29.0462 5.67002 28.4626 6.25586 27.7474 6.25586H26.053V10.4814C26.053 10.631 26.0999 10.7428 26.2064 10.8496C26.3084 10.9561 26.4275 11.0028 26.5804 11.0029H28.3177C29.0329 11.0029 29.6165 11.5888 29.6165 12.3066V12.3574C29.6165 13.0753 29.0329 13.6611 28.3177 13.6611H26.5804C25.7079 13.661 24.9544 13.3491 24.3372 12.7383H24.3411C23.728 12.1144 23.4173 11.3531 23.4173 10.4814L23.4046 1.79492C23.4046 1.07705 23.9839 0.491211 24.7034 0.491211H24.7542ZM12.9993 3.59766C13.7146 3.59767 14.2981 4.18351 14.2981 4.90137V8.63574C14.2982 9.29798 14.5236 9.84483 14.9876 10.3105C15.4602 10.7763 16.0136 11.0029 16.6692 11.0029C17.3249 11.0029 17.8702 10.7763 18.3343 10.3105C18.7982 9.84488 19.0237 9.29788 19.0237 8.63574V4.90137C19.0237 4.1835 19.6073 3.59766 20.3226 3.59766H20.3733C21.0885 3.59773 21.6722 4.18355 21.6722 4.90137V8.63574C21.6721 10.0116 21.1735 11.2038 20.1985 12.1865C19.2566 13.1319 18.1126 13.6267 16.7981 13.6602H16.5413C15.1918 13.6302 13.9062 13.0368 12.9866 12.0498C12.1011 11.097 11.6498 9.94749 11.6497 8.63574V4.90137C11.6497 4.1835 12.2333 3.59766 12.9485 3.59766H12.9993ZM83.5198 3.59766C84.237 3.59766 84.8187 4.18159 84.8187 4.90137V12.3574C84.8186 13.0772 84.237 13.6602 83.5198 13.6602H83.469C82.7519 13.6602 82.1702 13.0772 82.1702 12.3574V4.90137C82.1702 4.18159 82.7519 3.59766 83.469 3.59766H83.5198ZM91.6009 3.59766C92.9803 3.59768 94.1767 4.09377 95.1517 5.07227C96.1264 6.05501 96.6204 7.25142 96.6204 8.63574V12.3574C96.6204 13.0753 96.0368 13.6602 95.3216 13.6602H95.2708C94.5556 13.6602 93.972 13.0753 93.972 12.3574V8.63574C93.972 8.01623 93.768 7.49038 93.3509 7.0332C92.8996 6.5461 92.265 6.25589 91.6009 6.25586C90.9411 6.25586 90.3959 6.48168 89.9319 6.94727C89.4679 7.42157 89.2425 7.97342 89.2425 8.63574V12.3574C89.2425 13.0753 88.6589 13.6601 87.9437 13.6602H87.8929C87.1776 13.6602 86.5941 13.0753 86.594 12.3574V8.7168C86.594 7.3537 87.1094 6.02881 88.0716 5.06738C89.0465 4.09327 90.2343 3.59766 91.6009 3.59766ZM5.00811 6.26855C4.35256 6.26861 3.80317 6.49523 3.33916 6.96094C2.87528 7.43515 2.64976 7.9863 2.64971 8.64844C2.64971 9.3106 2.87533 9.85755 3.33916 10.3232C3.80317 10.789 4.33979 11.0156 5.00811 11.0156C5.67653 11.0156 6.22569 10.789 6.68975 10.3232C7.15376 9.8575 7.38018 9.30645 7.38018 8.64844C7.38013 7.99053 7.15404 7.43517 6.68584 6.96094C6.22178 6.49518 5.66376 6.26855 5.00811 6.26855ZM56.6126 6.26855C55.9528 6.2686 55.4077 6.49523 54.9437 6.96094C54.4798 7.43517 54.2542 7.98627 54.2542 8.64844C54.2542 9.31063 54.4798 9.85754 54.9437 10.3232C55.4077 10.789 55.9528 11.0156 56.6126 11.0156C57.2725 11.0156 57.8175 10.789 58.2815 10.3232C58.7541 9.85322 58.9847 9.30645 58.9847 8.64844C58.9846 7.98618 58.7541 7.43521 58.2815 6.96094C57.8175 6.49518 57.2725 6.26855 56.6126 6.26855ZM102.981 6.26855C102.325 6.26856 101.78 6.49518 101.312 6.96094C100.848 7.43519 100.622 7.99051 100.622 8.64844C100.622 9.30639 100.848 9.85752 101.312 10.3232C101.776 10.789 102.317 11.0156 102.981 11.0156C103.645 11.0156 104.198 10.789 104.662 10.3232C105.126 9.85751 105.352 9.30643 105.352 8.64844C105.352 7.99055 105.127 7.43516 104.659 6.96094C104.194 6.49518 103.636 6.26855 102.981 6.26855ZM83.5237 0C84.3496 0 85.0227 0.67503 85.0228 1.50391C85.0228 2.33287 84.3497 3.00781 83.5237 3.00781H83.4642C82.6383 3.00767 81.9661 2.33279 81.9661 1.50391C81.9662 0.675116 82.6384 0.000140552 83.4642 0H83.5237Z" fill="#FCFCFC"/>
</svg>
