<svg width="32" height="32" viewBox="0 0 32 32" fill="none" xmlns="http://www.w3.org/2000/svg">
<path d="M13.8654 8.24431C14.2813 7.89901 14.8999 7.91865 15.2938 8.30551C15.7136 8.71839 15.7195 9.39323 15.3068 9.81332L10.2743 14.9331H24.2717L24.3798 14.9383C24.9177 14.9929 25.3381 15.4472 25.3381 15.9995C25.3381 16.5519 24.9177 17.0062 24.3798 17.0607L24.2717 17.0659H10.2769L15.3068 22.1844L15.3798 22.2664C15.7177 22.6883 15.6876 23.3065 15.2938 23.6935C14.9 24.0806 14.2814 24.0999 13.8654 23.7547L13.7847 23.6805L6.97221 16.7469C6.56467 16.3319 6.56454 15.667 6.97221 15.2521L13.7847 8.31853L13.8654 8.24431Z" fill="#111111"/>
</svg>
