<svg width="16" height="16" viewBox="0 0 16 16" fill="none" xmlns="http://www.w3.org/2000/svg">
<path d="M3.5 5.88889C3.5 4.56954 4.56954 3.5 5.88889 3.5H13.1111C14.4305 3.5 15.5 4.56954 15.5 5.88889V13.1111C15.5 14.4305 14.4305 15.5 13.1111 15.5H5.88889C4.56954 15.5 3.5 14.4305 3.5 13.1111V5.88889Z" fill="#F5F5F5" stroke="#B3B3B3"/>
<path d="M0.5 2.88889C0.5 1.56954 1.56954 0.5 2.88889 0.5H10.1111C11.4305 0.5 12.5 1.56954 12.5 2.88889V10.1111C12.5 11.4305 11.4305 12.5 10.1111 12.5H2.88889C1.56954 12.5 0.5 11.4305 0.5 10.1111V2.88889Z" fill="white" stroke="#B3B3B3"/>
</svg>
