<svg width="25" height="24" viewBox="0 0 25 24" fill="none" xmlns="http://www.w3.org/2000/svg">
<g clip-path="url(#clip0_2329_8145)">
<path fill-rule="evenodd" clip-rule="evenodd" d="M12.4795 4C16.8865 4.00001 20.459 7.57245 20.459 11.9795C20.459 16.3865 16.8865 19.959 12.4795 19.959C8.07245 19.959 4.50001 16.3865 4.5 11.9795C4.5 7.57244 8.07244 4 12.4795 4ZM12.4912 14.2871C11.9946 14.2874 11.5919 14.6892 11.5918 15.1846C11.5919 15.6799 11.9946 16.0818 12.4912 16.082C12.9878 16.0818 13.3915 15.6799 13.3916 15.1846C13.3915 14.6892 12.9878 14.2874 12.4912 14.2871ZM12.4805 7.87695C11.0684 7.87695 9.91602 8.93413 9.91602 10.2295C9.91625 10.6469 10.2852 10.9852 10.7402 10.9854C11.1952 10.9851 11.5652 10.6469 11.5654 10.2295C11.5654 9.7696 11.9791 9.38965 12.4805 9.38965C12.9815 9.39004 13.3955 9.76984 13.3955 10.2295C13.3953 10.4651 13.2323 10.7067 12.7842 11.0469C12.3618 11.3676 12.0397 11.6558 11.8535 11.9814C11.6541 12.3305 11.6547 12.6529 11.6553 12.8574V13.0693C11.6553 13.487 12.0252 13.8262 12.4805 13.8262C12.9354 13.8258 13.3046 13.4868 13.3047 13.0693V12.8887C13.3047 12.7685 13.3062 12.7272 13.3105 12.6973C13.3117 12.6894 13.3135 12.6855 13.3135 12.6855L13.3145 12.6836C13.3361 12.646 13.4297 12.5213 13.8359 12.2129C14.3358 11.8333 15.0437 11.1972 15.0439 10.2295C15.0439 8.93437 13.8922 7.87734 12.4805 7.87695Z" fill="#666666"/>
</g>
<defs>
<clipPath id="clip0_2329_8145">
<rect width="24" height="24" fill="white" transform="translate(0.5)"/>
</clipPath>
</defs>
</svg>
