<svg width="22" height="21" viewBox="0 0 22 21" fill="none" xmlns="http://www.w3.org/2000/svg">
<path d="M9.6549 1.72548C10.2051 0.610612 11.7949 0.61061 12.3451 1.72548L14.1777 5.43873C14.3962 5.88145 14.8185 6.1883 15.3071 6.2593L19.4049 6.85474C20.6353 7.03352 21.1265 8.54548 20.2363 9.41328L17.271 12.3037C16.9175 12.6483 16.7562 13.1448 16.8396 13.6313L17.5396 17.7126C17.7498 18.938 16.4637 19.8724 15.3632 19.2939L11.698 17.367C11.261 17.1372 10.739 17.1372 10.302 17.367L6.63679 19.2939C5.53635 19.8724 4.2502 18.938 4.46036 17.7126L5.16035 13.6314C5.24381 13.1448 5.08249 12.6483 4.72896 12.3037L1.76375 9.41329C0.873472 8.54548 1.36474 7.03352 2.59507 6.85475L6.69289 6.2593C7.18145 6.1883 7.6038 5.88145 7.82229 5.43873L9.6549 1.72548Z" stroke="#666666" stroke-width="1.5"/>
</svg>
