<svg width="22" height="16" viewBox="0 0 22 16" fill="none" xmlns="http://www.w3.org/2000/svg">
<path d="M9.65385 16C9.65385 16 8.34615 16 8.34615 14.6667C8.34615 13.3333 9.65385 9.33333 14.8846 9.33333C20.1154 9.33333 21.4231 13.3333 21.4231 14.6667C21.4231 16 20.1154 16 20.1154 16H9.65385ZM14.8846 8C15.9251 8 16.9229 7.57857 17.6586 6.82843C18.3944 6.07828 18.8077 5.06087 18.8077 4C18.8077 2.93913 18.3944 1.92172 17.6586 1.17157C16.9229 0.421427 15.9251 0 14.8846 0C13.8442 0 12.8463 0.421427 12.1106 1.17157C11.3749 1.92172 10.9615 2.93913 10.9615 4C10.9615 5.06087 11.3749 6.07828 12.1106 6.82843C12.8463 7.57857 13.8442 8 14.8846 8ZM7.32092 16C7.12715 15.5837 7.03048 15.1274 7.03846 14.6667C7.03846 12.86 7.92769 11 9.57015 9.70667C8.75047 9.44858 7.89628 9.32262 7.03846 9.33333C1.80769 9.33333 0.5 13.3333 0.5 14.6667C0.5 16 1.80769 16 1.80769 16H7.32092ZM6.38462 8C7.25167 8 8.08321 7.64881 8.69631 7.02369C9.30941 6.39857 9.65385 5.55072 9.65385 4.66667C9.65385 3.78261 9.30941 2.93477 8.69631 2.30964C8.08321 1.68452 7.25167 1.33333 6.38462 1.33333C5.51756 1.33333 4.68602 1.68452 4.07292 2.30964C3.45982 2.93477 3.11538 3.78261 3.11538 4.66667C3.11538 5.55072 3.45982 6.39857 4.07292 7.02369C4.68602 7.64881 5.51756 8 6.38462 8Z" fill="#3F3F3F"/>
</svg>
