<svg width="24" height="24" viewBox="0 0 24 24" fill="none" xmlns="http://www.w3.org/2000/svg">
<g clip-path="url(#clip0_1993_37618)">
<path fill-rule="evenodd" clip-rule="evenodd" d="M8.5191 12.8647C8.85172 12.8647 9.17603 12.8627 9.44591 12.8989C9.70534 12.9336 9.97699 13.0096 10.2258 13.1908L10.3306 13.2758L10.4648 13.4066C10.5918 13.544 10.6975 13.6997 10.7812 13.8646L10.8332 13.9759C10.9437 14.2372 10.9873 14.5114 11.0085 14.7864C11.0324 15.096 11.0321 15.4792 11.0321 15.9318C11.0321 16.3847 11.0325 16.7686 11.0085 17.0782C10.9872 17.3533 10.9438 17.6275 10.8332 17.8887L10.7812 18.0001C10.6975 18.165 10.5919 18.3207 10.4648 18.458L10.3306 18.5889C10.0544 18.8317 9.74234 18.9261 9.44591 18.9658C9.17604 19.0019 8.85169 19 8.5191 19H7.51295C7.18042 19 6.85599 19.0019 6.58614 18.9658C6.327 18.9311 6.05582 18.8546 5.80728 18.6738L5.70147 18.5889C5.56005 18.4644 5.44014 18.3187 5.34192 18.1612L5.25081 18.0001C5.10146 17.7058 5.04786 17.3926 5.02351 17.0782C4.99958 16.7686 5 16.3847 5 15.9318C5 15.4792 4.99964 15.096 5.02351 14.7864C5.04782 14.472 5.10152 14.1589 5.25081 13.8646L5.34192 13.7035C5.44015 13.5459 5.55998 13.4003 5.70147 13.2758L5.80728 13.1908C6.05592 13.0099 6.32688 12.9336 6.58614 12.8989C6.85602 12.8627 7.18036 12.8647 7.51295 12.8647H8.5191ZM7.51295 14.3646C7.13955 14.3646 6.9337 14.3665 6.78698 14.3861C6.73269 14.3933 6.70431 14.4012 6.69195 14.4056C6.67806 14.4185 6.66245 14.4349 6.64689 14.4554L6.593 14.5423C6.57293 14.5822 6.54137 14.6698 6.52344 14.9016C6.50506 15.1402 6.50483 15.4556 6.50483 15.9318C6.50483 16.4084 6.505 16.7244 6.52344 16.963C6.54145 17.1952 6.57296 17.2827 6.593 17.3224L6.64689 17.4093C6.66223 17.4294 6.67825 17.4453 6.69195 17.4581C6.70427 17.4625 6.73253 17.4713 6.78698 17.4786C6.93369 17.4982 7.13964 17.5001 7.51295 17.5001H8.5191C8.89242 17.5001 9.09836 17.4982 9.24507 17.4786C9.29955 17.4713 9.32784 17.4625 9.3401 17.4581C9.36972 17.4305 9.40634 17.3867 9.43905 17.3224L9.47432 17.2159C9.48693 17.1602 9.49956 17.0797 9.50861 16.963C9.52705 16.7244 9.52722 16.4084 9.52722 15.9318C9.52722 15.4557 9.52701 15.1402 9.50861 14.9016C9.49959 14.7851 9.48691 14.7045 9.47432 14.6487L9.43905 14.5423C9.40627 14.4777 9.3698 14.4332 9.3401 14.4056C9.32778 14.4012 9.29926 14.3933 9.24507 14.3861C9.09836 14.3665 8.89249 14.3646 8.5191 14.3646H7.51295Z" fill="#111111"/>
<path d="M16.346 16.5949C16.7253 16.6334 17.0209 16.9527 17.021 17.3409C17.0208 17.729 16.7252 18.0485 16.346 18.087L16.2686 18.0909H12.529C12.1137 18.0908 11.7769 17.7549 11.7766 17.3409C11.7767 16.9268 12.1136 16.591 12.529 16.591H16.2686L16.346 16.5949Z" fill="#111111"/>
<path d="M18.324 13.8002C18.7035 13.8384 19 14.1578 19 14.5462C18.9998 14.9344 18.7034 15.254 18.324 15.2922L18.2476 15.2961H12.529C12.1136 15.2961 11.7769 14.9602 11.7766 14.5462C11.7766 14.132 12.1135 13.7963 12.529 13.7963H18.2476L18.324 13.8002Z" fill="#111111"/>
<path fill-rule="evenodd" clip-rule="evenodd" d="M8.5191 5.00002C8.8517 5.00002 9.17604 4.99807 9.44591 5.0342C9.70536 5.06895 9.97696 5.14495 10.2258 5.32617L10.3306 5.41112L10.4648 5.54197C10.592 5.67935 10.6974 5.8349 10.7812 5.99995L10.8332 6.11127C10.9438 6.37259 10.9872 6.64658 11.0085 6.92175C11.0325 7.23139 11.0321 7.61431 11.0321 8.06718C11.0321 8.52017 11.0325 8.90385 11.0085 9.21358C10.9873 9.48871 10.9438 9.76274 10.8332 10.0241L10.7822 10.1354C10.6984 10.3005 10.5921 10.4559 10.4648 10.5934L10.3306 10.7242C10.0543 10.9672 9.74241 11.0604 9.44591 11.1002C9.17603 11.1363 8.85173 11.1353 8.5191 11.1353H7.51295C7.18037 11.1353 6.856 11.1363 6.58614 11.1002C6.32675 11.0654 6.05601 10.9894 5.80728 10.8082L5.70147 10.7242C5.55991 10.5997 5.4402 10.4542 5.34192 10.2965L5.25081 10.1354C5.10143 9.84105 5.04784 9.52801 5.02351 9.21358C4.99959 8.90384 5 8.52018 5 8.06718C5 7.61435 4.99959 7.23137 5.02351 6.92175C5.04784 6.60732 5.10139 6.2943 5.25081 5.99995L5.34192 5.83883C5.44017 5.68125 5.55997 5.53562 5.70147 5.41112L5.80728 5.32617C6.05587 5.14532 6.32694 5.06892 6.58614 5.0342C6.85599 4.99809 7.18038 5.00002 7.51295 5.00002H8.5191ZM7.51295 6.49991C7.1396 6.49991 6.9337 6.5018 6.78698 6.52139C6.73284 6.52864 6.70439 6.53651 6.69195 6.54092C6.67807 6.55379 6.66246 6.57026 6.64689 6.59072L6.593 6.67763C6.57295 6.71735 6.54144 6.80449 6.52344 7.03698C6.50501 7.27558 6.50483 7.59068 6.50483 8.06718C6.50483 8.54385 6.50502 8.85967 6.52344 9.09835C6.54144 9.33084 6.57294 9.41795 6.593 9.4577L6.64689 9.54461C6.66253 9.56519 6.67899 9.58053 6.69293 9.59344C6.70556 9.59787 6.73343 9.60677 6.78698 9.61394C6.93371 9.63355 7.13955 9.63542 7.51295 9.63543H8.5191C8.89281 9.63542 9.0993 9.63359 9.24605 9.61394C9.29888 9.60683 9.32644 9.59786 9.33912 9.59344C9.36891 9.56585 9.40612 9.52258 9.43905 9.4577L9.47432 9.35127C9.48693 9.29548 9.49957 9.21514 9.50861 9.09835C9.52703 8.85967 9.52722 8.54383 9.52722 8.06718C9.52722 7.59071 9.52705 7.27556 9.50861 7.03698C9.49956 6.92014 9.48694 6.83984 9.47432 6.78407L9.43905 6.67763C9.4061 6.61277 9.36987 6.56848 9.3401 6.54092C9.32772 6.53653 9.29981 6.52862 9.24605 6.52139C9.0993 6.50174 8.89281 6.49991 8.5191 6.49991H7.51295Z" fill="#111111"/>
<path d="M16.346 8.73022C16.7251 8.76877 17.0209 9.0882 17.021 9.47626C17.021 9.86442 16.7252 10.1837 16.346 10.2223L16.2686 10.2262H12.529C12.1135 10.2262 11.7766 9.89044 11.7766 9.47626C11.7768 9.0622 12.1136 8.72631 12.529 8.72631H16.2686L16.346 8.73022Z" fill="#111111"/>
<path d="M18.324 5.9355C18.7032 5.97396 18.9999 6.29342 19 6.68154C19 7.06977 18.7033 7.38908 18.324 7.42758L18.2476 7.43148H12.529C12.1135 7.43148 11.7766 7.09572 11.7766 6.68154C11.7768 6.26748 12.1136 5.93159 12.529 5.93159H18.2476L18.324 5.9355Z" fill="#111111"/>
</g>
<defs>
<clipPath id="clip0_1993_37618">
<rect width="24" height="24" fill="white"/>
</clipPath>
</defs>
</svg>
