<svg width="22" height="22" viewBox="0 0 22 22" fill="none" xmlns="http://www.w3.org/2000/svg">
<path d="M20.9913 2.80293C20.71 2.5438 20.38 2.34323 20.0204 2.21293C19.6608 2.08263 19.2789 2.0252 18.8969 2.04398H17.3283C17.1633 1.5514 16.872 1.1107 16.4835 0.765872C16.1979 0.506579 15.8639 0.306094 15.5008 0.175872C15.1377 0.04565 14.7524 -0.0117593 14.3671 0.00692378H7.6769C7.27907 -0.0202875 6.87983 0.0328882 6.50299 0.16328C6.12615 0.293672 5.77943 0.49861 5.4835 0.765872C5.09912 1.10959 4.81482 1.55083 4.6607 2.04288H3.1141C2.72678 2.02088 2.33897 2.07671 1.97358 2.20706C1.60819 2.33741 1.27263 2.53965 0.9867 2.80183C0.690667 3.06941 0.450938 3.39331 0.281522 3.75459C0.112106 4.11588 0.0164017 4.5073 0 4.90599C0.0151128 6.32761 0.392576 7.72189 1.0967 8.95701C1.80539 10.2195 2.80089 11.2978 4.0029 12.105L4.9357 12.732L5.6375 13.1609C6.21719 14.0651 8.69458 14.8196 9.62111 15.363V17.2988H9.19431C8.40891 17.2988 5.962 17.6134 5.4076 18.17C4.85153 18.7277 4.53974 19.4833 4.5408 20.2708V20.6349C4.53973 20.8143 4.57406 20.9921 4.64183 21.1582C4.70959 21.3243 4.80945 21.4754 4.9357 21.6029C5.192 21.858 5.5396 22.001 5.9004 21.9999H16.0996C16.3699 22.0028 16.6347 21.924 16.8594 21.7739C17.0842 21.6237 17.2583 21.4092 17.3591 21.1585C17.4273 20.9935 17.4614 20.8142 17.4592 20.6349V20.2719C17.4592 19.4833 17.1479 18.7276 16.5924 18.1711C16.0373 17.6153 13.5923 17.3021 12.8068 17.2999H12.3778V15.352C13.3087 14.8101 15.7904 14.0555 16.3735 13.1499L17.0973 12.71L17.9861 12.105C19.1907 11.2929 20.1895 10.2113 20.9033 8.94601C21.6103 7.69572 21.9877 6.28617 22 4.84989C21.9428 4.06237 21.581 3.32812 20.9913 2.80293ZM2.5333 8.16177C1.99019 7.18475 1.69979 6.08753 1.6885 4.96979C1.70488 4.7041 1.79991 4.4493 1.96151 4.23777C2.1231 4.02624 2.34396 3.86754 2.596 3.78187C2.7621 3.72687 2.9392 3.70267 3.1141 3.71587H4.5507V9.59277C4.56023 9.90661 4.5859 10.2183 4.6277 10.5277C3.76916 9.89751 3.0551 9.09015 2.5333 8.16177ZM19.4887 8.16287C18.9579 9.08547 18.2454 9.89074 17.3943 10.5299C17.4361 10.2109 17.4618 9.89158 17.4713 9.57187V3.71587H18.9398C19.1139 3.70379 19.2885 3.72785 19.4529 3.78653C19.6172 3.84521 19.7676 3.93724 19.8946 4.05685C20.1443 4.27683 20.3016 4.58481 20.3335 4.91589C20.3267 6.05167 20.0363 7.16778 19.4887 8.16287Z" fill="#169E4A"/>
</svg>
