<svg width="20" height="16" viewBox="0 0 20 16" fill="none" xmlns="http://www.w3.org/2000/svg">
<path d="M9.84546 5.05263L12.7273 7.71368V7.57895C12.7273 6.90893 12.4399 6.26635 11.9285 5.79257C11.417 5.3188 10.7233 5.05263 10 5.05263H9.84546ZM5.93636 5.72632L7.34545 7.03158C7.3 7.20842 7.27273 7.38526 7.27273 7.57895C7.27273 8.24897 7.56006 8.89155 8.07153 9.36532C8.58299 9.8391 9.27668 10.1053 10 10.1053C10.2 10.1053 10.4 10.08 10.5909 10.0379L12 11.3432C11.3909 11.6211 10.7182 11.7895 10 11.7895C8.79447 11.7895 7.63832 11.3459 6.78588 10.5562C5.93344 9.76661 5.45455 8.69565 5.45455 7.57895C5.45455 6.91368 5.63636 6.29053 5.93636 5.72632ZM0.909091 1.06947L2.98182 2.98947L3.39091 3.36842C1.89091 4.46316 0.709091 5.89474 0 7.57895C1.57273 11.2758 5.45455 13.8947 10 13.8947C11.4091 13.8947 12.7545 13.6421 13.9818 13.1874L14.3727 13.5411L17.0273 16L18.1818 14.9305L2.06364 0M10 3.36842C11.2055 3.36842 12.3617 3.81203 13.2141 4.60166C14.0666 5.39128 14.5455 6.46225 14.5455 7.57895C14.5455 8.1179 14.4273 8.64 14.2182 9.11158L16.8818 11.5789C18.2455 10.5263 19.3364 9.14526 20 7.57895C18.4273 3.88211 14.5455 1.26316 10 1.26316C8.72727 1.26316 7.50909 1.47368 6.36364 1.85263L8.33636 3.66316C8.85455 3.47789 9.40909 3.36842 10 3.36842Z" fill="#CACACA"/>
</svg>
