<svg width="24" height="24" viewBox="0 0 24 24" fill="none" xmlns="http://www.w3.org/2000/svg">
<path d="M19.5 6.99992H16.8583L15.3333 5.33325H10.3333V6.99992H14.6L16.125 8.66658H19.5V18.6666H6.16667V11.1666H4.5V18.6666C4.5 19.5833 5.25 20.3333 6.16667 20.3333H19.5C20.4167 20.3333 21.1667 19.5833 21.1667 18.6666V8.66658C21.1667 7.74992 20.4167 6.99992 19.5 6.99992ZM8.66667 13.6666C8.66667 15.9666 10.5333 17.8333 12.8333 17.8333C15.1333 17.8333 17 15.9666 17 13.6666C17 11.3666 15.1333 9.49992 12.8333 9.49992C10.5333 9.49992 8.66667 11.3666 8.66667 13.6666ZM12.8333 11.1666C14.2083 11.1666 15.3333 12.2916 15.3333 13.6666C15.3333 15.0416 14.2083 16.1666 12.8333 16.1666C11.4583 16.1666 10.3333 15.0416 10.3333 13.6666C10.3333 12.2916 11.4583 11.1666 12.8333 11.1666ZM6.16667 6.99992H8.66667V5.33325H6.16667V2.83325H4.5V5.33325H2V6.99992H4.5V9.49992H6.16667V6.99992Z" fill="#169E4A"/>
</svg>
