<svg width="20" height="20" viewBox="0 0 20 20" fill="none" xmlns="http://www.w3.org/2000/svg">
<g clip-path="url(#clip0_2001_46723)">
<path d="M13.8262 5.0458C14.1402 4.78983 14.6037 4.80798 14.8965 5.10049C15.1892 5.39323 15.2079 5.85656 14.9521 6.1708L14.8965 6.23233L11.1289 9.99893L14.8955 13.7665C15.2079 14.079 15.2079 14.5849 14.8955 14.8974C14.5831 15.2097 14.077 15.2098 13.7646 14.8974L9.99805 11.1308L6.23242 14.8974C5.92003 15.2098 5.41393 15.2098 5.10156 14.8974C4.78955 14.5849 4.78944 14.0789 5.10156 13.7665L8.86719 9.99893L5.10058 6.23233L5.0459 6.1708C4.79009 5.85658 4.80793 5.39326 5.10058 5.10049C5.39333 4.80769 5.85672 4.78983 6.1709 5.0458L6.23242 5.10049L9.99805 8.86807L13.7656 5.10049L13.8262 5.0458Z" fill="white"/>
<path d="M13.9101 5.14966C14.172 4.93596 14.5588 4.95109 14.8029 5.19523C15.0466 5.43927 15.0617 5.82539 14.8484 6.08716L14.8021 6.13843L10.9414 9.9991L14.8012 13.8606C15.0616 14.121 15.0616 14.5434 14.8012 14.8038C14.5409 15.0638 14.1191 15.064 13.8589 14.8038L9.99818 10.9423L6.13832 14.8038C5.87803 15.0639 5.4562 15.0639 5.19593 14.8038C4.93561 14.5434 4.93561 14.121 5.19593 13.8606L9.0558 9.99992L5.19512 6.13843L5.14955 6.08716C4.93601 5.8253 4.95111 5.43933 5.19512 5.19523C5.4392 4.9511 5.82522 4.93598 6.08705 5.14966L6.13832 5.19523L9.99818 9.05672L13.8597 5.19523L13.9101 5.14966Z" fill="white"/>
</g>
<defs>
<clipPath id="clip0_2001_46723">
<rect width="20" height="20" fill="white"/>
</clipPath>
</defs>
</svg>
