<svg width="32" height="32" viewBox="0 0 32 32" fill="none" xmlns="http://www.w3.org/2000/svg">
<path d="M23.132 9.0118C23.8613 9.14789 24.6356 8.90394 25.1485 8.3082C25.9412 7.3875 25.8324 5.97019 24.9055 5.14103C23.9785 4.31186 22.5856 4.386 21.7929 5.3067C21.2764 5.90661 21.1432 6.71668 21.3703 7.43602L13.0709 12.1343C12.0364 12.5511 10.86 11.8823 10.6486 10.7566L9.46869 4.44332C9.91874 4.35178 10.3423 4.11856 10.6651 3.74361C11.4578 2.82291 11.349 1.4056 10.422 0.576439C9.49503 -0.252724 8.10217 -0.178584 7.30948 0.742115C6.51679 1.66281 6.62556 3.08012 7.55255 3.90929L7.58191 3.93555L0.481506 16.1236C-0.378193 17.5965 -0.0629237 19.5156 1.23738 20.6786L12.8646 31.0788C14.1607 32.2382 16.0649 32.3117 17.3938 31.2512L28.328 22.4923L28.3574 22.5186C29.2844 23.3477 30.6772 23.2736 31.4699 22.3529C32.2626 21.4322 32.1538 20.0149 31.2268 19.1857C30.2999 18.3565 28.907 18.4307 28.1143 19.3514C27.7915 19.7263 27.6196 20.1847 27.589 20.6514L21.2943 20.2789C20.1718 20.2114 19.3684 19.1093 19.6395 18.0097L23.132 9.0118Z" fill="#F79C22"/>
</svg>
