<svg width="24" height="24" viewBox="0 0 24 24" fill="none" xmlns="http://www.w3.org/2000/svg">
<g clip-path="url(#clip0_1993_32681)">
<path d="M11.032 5.0888C11.428 4.30376 12.5716 4.30371 12.9675 5.0888L14.6033 8.33392C14.7605 8.64572 15.0652 8.86204 15.4168 8.91204L19.074 9.43255C19.959 9.55863 20.3128 10.623 19.6726 11.2343L17.0252 13.7607C16.771 14.0034 16.6556 14.3536 16.7156 14.6962L17.3396 18.2626C17.4811 19.0717 16.6771 19.7005 15.9236 19.4404L15.7742 19.3759L12.5017 17.6923C12.1875 17.5307 11.8121 17.5307 11.4978 17.6923L8.22535 19.3759L8.07594 19.4404C7.32239 19.7007 6.51833 19.0718 6.65992 18.2626L7.28394 14.6962C7.33646 14.3965 7.25482 14.0906 7.06324 13.8564L6.97437 13.7607L4.32691 11.2343C3.68649 10.623 4.04028 9.55848 4.92554 9.43255L8.58277 8.91204C8.89022 8.86824 9.16157 8.69704 9.32984 8.44622L9.39625 8.33392L11.032 5.0888ZM10.6462 8.9638C10.3017 9.64717 9.66272 10.1224 8.92847 10.2724L8.78004 10.2978L5.81519 10.7187L7.94019 12.748L8.04664 12.8554C8.52722 13.374 8.76389 14.0768 8.68531 14.7851L8.66285 14.9374L8.15504 17.8378L10.8572 16.4472L10.9929 16.3827C11.6337 16.1006 12.3658 16.1005 13.0066 16.3827L13.1423 16.4472L15.8435 17.8378L15.3367 14.9374C15.1949 14.1281 15.4708 13.3096 16.0593 12.748L18.1834 10.7187L15.2195 10.2978C14.4732 10.1916 13.8094 9.75275 13.4265 9.09759L13.3533 8.9638L11.9998 6.27923L10.6462 8.9638Z" fill="#666666"/>
<path fill-rule="evenodd" clip-rule="evenodd" d="M11.032 5.0888C11.428 4.30376 12.5716 4.30371 12.9675 5.0888L14.6033 8.33392C14.7605 8.64572 15.0652 8.86204 15.4168 8.91204L19.074 9.43255C19.959 9.55863 20.3128 10.623 19.6726 11.2343L17.0252 13.7607C16.771 14.0034 16.6556 14.3536 16.7156 14.6962L17.3396 18.2626C17.4811 19.0717 16.6771 19.7005 15.9236 19.4404L15.7742 19.3759L12.5017 17.6923C12.1875 17.5307 11.8121 17.5307 11.4978 17.6923L8.22535 19.3759L8.07594 19.4404C7.32239 19.7007 6.51833 19.0718 6.65992 18.2626L7.28394 14.6962C7.33646 14.3965 7.25482 14.0906 7.06324 13.8564L6.97437 13.7607L4.32691 11.2343C3.68649 10.623 4.04028 9.55848 4.92554 9.43255L8.58277 8.91204C8.89022 8.86824 9.16157 8.69704 9.32984 8.44622L9.39625 8.33392L11.032 5.0888ZM10.6462 8.9638C10.3017 9.64717 9.66272 10.1224 8.92847 10.2724L8.78004 10.2978L5.81519 10.7187L7.94019 12.748L8.04664 12.8554C8.52722 13.374 8.76389 14.0768 8.68531 14.7851L8.66285 14.9374L8.15504 17.8378L10.8572 16.4472L10.9929 16.3827C11.6337 16.1006 12.3658 16.1005 13.0066 16.3827L13.1423 16.4472L15.8435 17.8378L15.3367 14.9374C15.1949 14.1281 15.4708 13.3096 16.0593 12.748L18.1834 10.7187L15.2195 10.2978C14.4732 10.1916 13.8094 9.75275 13.4265 9.09759L13.3533 8.9638L11.9998 6.27923L10.6462 8.9638Z" fill="#666666"/>
</g>
<defs>
<clipPath id="clip0_1993_32681">
<rect width="24" height="24" fill="white"/>
</clipPath>
</defs>
</svg>
