<svg width="24" height="24" viewBox="0 0 24 24" fill="none" xmlns="http://www.w3.org/2000/svg">
<g clip-path="url(#clip0_1421_9711)">
<path fill-rule="evenodd" clip-rule="evenodd" d="M16.6133 12.7227C17.5115 12.7227 18.3737 13.0794 19.0088 13.7148C19.6439 14.3502 19.9999 15.2128 20 16.1113C19.9999 17.0098 19.6438 17.8724 19.0088 18.5078C18.3737 19.1432 17.5114 19.5 16.6133 19.5C15.7153 19.4999 14.8538 19.143 14.2188 18.5078C13.5837 17.8724 13.2266 17.0099 13.2266 16.1113C13.2267 15.2128 13.5837 14.3502 14.2188 13.7148C14.8538 13.0796 15.7153 12.7227 16.6133 12.7227ZM16.6162 14.3047C16.4231 14.3047 16.2621 14.442 16.2246 14.624L16.2158 14.7051V15.71H15.21C14.9892 15.7102 14.8096 15.8896 14.8096 16.1104C14.8098 16.331 14.9893 16.5106 15.21 16.5107H16.2148V17.5156C16.2152 17.7362 16.3946 17.9159 16.6152 17.916C16.8359 17.916 17.0152 17.7362 17.0156 17.5156V16.5107H18.0205L18.1016 16.502C18.2834 16.4645 18.4206 16.3032 18.4209 16.1104C18.4209 15.9173 18.2835 15.7563 18.1016 15.7188L18.0205 15.71H17.0166V14.7051L17.0078 14.624C16.9704 14.4422 16.8091 14.3049 16.6162 14.3047Z" fill="#666666"/>
<path d="M11.0264 12.9717C11.9564 12.9717 12.7743 13.0709 13.4912 13.2402C13.1453 13.597 12.8678 14.0084 12.668 14.4541C12.1795 14.3732 11.6341 14.3262 11.0264 14.3262C6.27651 14.3263 5.35459 17.1157 5.35449 17.7148L5.3584 17.7773C5.36645 17.8301 5.38451 17.8548 5.39551 17.8682C5.41987 17.8976 5.46998 17.9361 5.55957 17.9727C5.73734 18.0451 5.93198 18.053 5.94922 18.0537H12.7295C12.9326 18.4685 13.2035 18.8517 13.5361 19.1846C13.6145 19.263 13.6966 19.3376 13.7803 19.4092H5.94434C5.90502 19.409 5.48337 19.4061 5.04785 19.2285C4.82354 19.137 4.55876 18.9849 4.34863 18.7295C4.15657 18.4959 4.03384 18.2039 4.00586 17.8643L4 17.7148C4.00007 16.2807 5.61784 12.9718 11.0264 12.9717Z" fill="#666666"/>
<path fill-rule="evenodd" clip-rule="evenodd" d="M11.2354 4.50488C12.2135 4.55205 13.1456 4.95078 13.8467 5.63281L13.9834 5.77148C14.6466 6.48422 15.0185 7.41704 15.0186 8.38965L15.0137 8.58301C14.9677 9.48506 14.6024 10.3425 13.9834 11.0078L13.8467 11.1475C13.1457 11.8292 12.2133 12.2272 11.2354 12.2744L11.0391 12.2793C10.0557 12.2792 9.10579 11.9238 8.375 11.2803L8.23242 11.1475C7.53075 10.4647 7.11467 9.54945 7.06543 8.58301L7.06055 8.38965C7.06063 7.35236 7.48414 6.36095 8.23242 5.63281L8.375 5.49902C9.10584 4.85533 10.0557 4.50011 11.0391 4.5L11.2354 4.50488ZM11.0391 5.85547C10.4246 5.85556 9.8347 6.06281 9.36816 6.43457L9.17676 6.60352C8.68699 7.08006 8.41512 7.72346 8.41504 8.38965L8.42773 8.6377C8.48641 9.21369 8.74813 9.75877 9.17676 10.1758L9.36816 10.3447C9.83473 10.7165 10.4247 10.9247 11.0391 10.9248L11.3008 10.9121C11.9062 10.8536 12.473 10.5932 12.9023 10.1758L13.0762 9.99023C13.4562 9.53883 13.664 8.97254 13.6641 8.38965L13.6514 8.1416C13.6011 7.64792 13.402 7.17706 13.0762 6.79004L12.9023 6.60352C12.4731 6.18612 11.9062 5.92566 11.3008 5.86719L11.0391 5.85547Z" fill="#666666"/>
</g>
<defs>
<clipPath id="clip0_1421_9711">
<rect width="24" height="24" fill="white"/>
</clipPath>
</defs>
</svg>
