<svg width="32" height="32" viewBox="0 0 32 32" fill="none" xmlns="http://www.w3.org/2000/svg">
<g clip-path="url(#clip0_908_21779)">
<path d="M22.6668 15.9999C22.6668 19.1426 22.6668 20.714 21.6905 21.6903C20.7142 22.6666 19.1429 22.6666 16.0002 22.6666C12.8575 22.6666 11.2861 22.6666 10.3098 21.6903C9.3335 20.714 9.3335 19.1426 9.3335 15.9999C9.3335 12.8572 9.3335 11.2859 10.3098 10.3096C11.2861 9.33325 12.8575 9.33325 16.0002 9.33325" stroke="white" stroke-width="1.5" stroke-linecap="round"/>
<path d="M9.3335 16.3335L10.5012 15.3118C11.1087 14.7802 12.0243 14.8107 12.5952 15.3815L15.455 18.2413C15.9131 18.6995 16.6343 18.7619 17.1644 18.3894L17.3632 18.2497C18.1261 17.7136 19.1581 17.7757 19.8511 18.3994L22.0002 20.3335" stroke="white" stroke-width="1.5" stroke-linecap="round"/>
<path d="M20.3745 9.95685L20.6526 9.67879C21.1133 9.21807 21.8603 9.21807 22.321 9.67879C22.7817 10.1395 22.7817 10.8865 22.321 11.3472L22.0429 11.6252M20.3745 9.95685C20.3745 9.95685 20.4093 10.5477 20.9307 11.0691C21.452 11.5905 22.0429 11.6252 22.0429 11.6252M20.3745 9.95685L17.8182 12.5132C17.645 12.6864 17.5584 12.7729 17.484 12.8684C17.3961 12.981 17.3208 13.1028 17.2594 13.2318C17.2073 13.341 17.1686 13.4572 17.0912 13.6895L16.8433 14.4333M22.0429 11.6252L19.4865 14.1816C19.3134 14.3548 19.2268 14.4413 19.1314 14.5158C19.0187 14.6036 18.8969 14.6789 18.768 14.7403C18.6587 14.7924 18.5426 14.8311 18.3103 14.9086L17.5665 15.1565M17.5665 15.1565L17.0853 15.3169C16.9709 15.355 16.8449 15.3253 16.7597 15.2401C16.6745 15.1549 16.6447 15.0288 16.6828 14.9145L16.8433 14.4333M17.5665 15.1565L16.8433 14.4333" stroke="white" stroke-width="1.5"/>
</g>
<defs>
<clipPath id="clip0_908_21779">
<rect width="16" height="16" fill="white" transform="translate(8 8)"/>
</clipPath>
</defs>
</svg>
