<svg width="16" height="16" viewBox="0 0 16 16" fill="none" xmlns="http://www.w3.org/2000/svg">
<g clip-path="url(#clip0_2254_13712)">
<g clip-path="url(#clip1_2254_13712)">
<path d="M11.8561 12.2703C12.1252 12.2975 12.3353 12.5247 12.3353 12.8009C12.3353 13.0771 12.1252 13.3043 11.8561 13.3315L11.8021 13.3341H4.19987C3.90541 13.334 3.66669 13.0954 3.66666 12.8009C3.66666 12.5064 3.9054 12.2678 4.19987 12.2677H11.8021L11.8561 12.2703Z" fill="#666666"/>
<path fill-rule="evenodd" clip-rule="evenodd" d="M8.94661 3.19351C9.74316 2.46648 10.9751 2.49117 11.7428 3.26643C12.5075 4.03903 12.5318 5.27469 11.8151 6.07632L11.7428 6.1525L8.15169 9.7814C7.99385 9.94088 7.87808 10.0587 7.76562 10.1584L7.65299 10.2528C7.52319 10.355 7.38536 10.4466 7.24088 10.5262L7.09375 10.6017C7.00628 10.6438 6.9168 10.6806 6.8138 10.7183L6.45247 10.8419L5.20572 11.2625L4.90039 11.3647C4.56164 11.4787 4.18915 11.3892 3.9388 11.1362C3.68931 10.8839 3.60348 10.5128 3.71419 10.1772L4.23112 8.60888L4.35416 8.24494C4.39132 8.14103 4.4272 8.05046 4.46875 7.96239L4.54362 7.8146C4.62211 7.66918 4.71214 7.53011 4.81315 7.39924L4.9069 7.28531C5.00546 7.17179 5.12207 7.05485 5.27994 6.89533L8.87109 3.26643L8.94661 3.19351ZM6.03776 7.64533C5.86679 7.81808 5.7781 7.90927 5.71484 7.98192L5.65755 8.05093C5.59188 8.13602 5.5329 8.22637 5.48177 8.32112L5.43359 8.41747C5.40918 8.46923 5.38705 8.52345 5.35872 8.60302L5.24414 8.94351L4.82877 10.2033L4.80599 10.271L4.86523 10.2515L6.11197 9.83153L6.44856 9.71565C6.52701 9.68714 6.58005 9.66523 6.63086 9.64078L6.72591 9.59195C6.81934 9.54047 6.90872 9.48115 6.99283 9.41487L7.06119 9.35757C7.133 9.29373 7.22289 9.20351 7.39388 9.03075L10.0202 6.3771C9.76689 6.24897 9.48828 6.06474 9.2233 5.79703C8.96128 5.53224 8.7799 5.25441 8.65364 5.00145L6.03776 7.64533ZM10.985 4.01708C10.6335 3.66213 10.0793 3.63951 9.70247 3.95002L9.62955 4.01708L9.4733 4.17398C9.48267 4.20817 9.49343 4.24597 9.50716 4.28596C9.58047 4.49947 9.71941 4.78122 9.98177 5.04638C10.2439 5.31116 10.5215 5.4507 10.7311 5.52424C10.7673 5.53691 10.802 5.54656 10.8333 5.55549L10.985 5.4025L11.0514 5.32828C11.3616 4.9439 11.3394 4.37521 10.985 4.01708Z" fill="#666666"/>
</g>
</g>
<defs>
<clipPath id="clip0_2254_13712">
<rect width="16" height="16" fill="white"/>
</clipPath>
<clipPath id="clip1_2254_13712">
<rect width="16" height="16" fill="white"/>
</clipPath>
</defs>
</svg>
