<svg width="24" height="24" viewBox="0 0 24 24" fill="none" xmlns="http://www.w3.org/2000/svg">
<path d="M4 6.92308H20M8.66667 6.92308V6.26923C8.66667 5.40218 9.01786 4.57064 9.64298 3.95754C10.2681 3.34444 11.1159 3 12 3C12.8841 3 13.7319 3.34444 14.357 3.95754C14.9821 4.57064 15.3333 5.40218 15.3333 6.26923V6.92308M10 10.8475V16.0808M14 10.8475V16.0808M6 6.92308H18V18.6923C18 19.0391 17.8595 19.3717 17.6095 19.617C17.3594 19.8622 17.0203 20 16.6667 20H7.33333C6.97971 20 6.64057 19.8622 6.39052 19.617C6.14048 19.3717 6 19.0391 6 18.6923V6.92308Z" stroke="#B3B3B3" stroke-width="1.5" stroke-linecap="round" stroke-linejoin="round"/>
</svg>
