<svg width="40" height="40" viewBox="0 0 40 40" fill="none" xmlns="http://www.w3.org/2000/svg">
<rect width="40" height="40" rx="20" fill="#169E4A"/>
<path d="M22.09 12.6243L25.916 15.9653C27.4268 17.2847 28.1822 17.9443 28.1822 18.7942C28.1822 19.644 27.4268 20.3036 25.916 21.623L22.09 24.964C21.4004 25.5662 21.0556 25.8673 20.7713 25.7419C20.487 25.6164 20.487 25.1632 20.487 24.2568V22.0383C17.0196 22.0383 13.2633 23.6604 11.8186 26.3638C11.8186 17.7128 16.9554 15.55 20.487 15.55V13.3315C20.487 12.4251 20.487 11.9719 20.7713 11.8464C21.0556 11.721 21.4004 12.0221 22.09 12.6243Z" fill="white"/>
</svg>
