<svg width="32" height="32" viewBox="0 0 32 32" fill="none" xmlns="http://www.w3.org/2000/svg">
<rect width="32" height="32" rx="16" fill="#333333"/>
<path d="M9.33325 24.3335H22.6666" stroke="white" stroke-width="1.5" stroke-linecap="round"/>
<path d="M17.5733 9.05228L18.1912 8.43436C19.215 7.41055 20.8749 7.41055 21.8987 8.43436C22.9225 9.45816 22.9225 11.1181 21.8987 12.1419L21.2808 12.7598M17.5733 9.05228C17.5733 9.05228 17.6505 10.3654 18.8091 11.524C19.9677 12.6826 21.2808 12.7598 21.2808 12.7598M17.5733 9.05228L11.8925 14.7331C11.5077 15.1179 11.3153 15.3103 11.1499 15.5224C10.9547 15.7726 10.7873 16.0434 10.6508 16.3299C10.5351 16.5727 10.449 16.8308 10.277 17.3471L9.54779 19.5346M21.2808 12.7598L15.6 18.4406C15.2152 18.8254 15.0228 19.0178 14.8107 19.1832C14.5605 19.3784 14.2897 19.5457 14.0032 19.6823C13.7604 19.798 13.5023 19.8841 12.986 20.0561L10.7985 20.7853M10.7985 20.7853L10.2638 20.9635C10.0098 21.0482 9.72969 20.9821 9.54034 20.7927C9.35099 20.6034 9.28487 20.3233 9.36955 20.0693L9.54779 19.5346M10.7985 20.7853L9.54779 19.5346" stroke="white" stroke-width="1.5"/>
</svg>
