<svg width="24" height="24" viewBox="0 0 24 24" fill="none" xmlns="http://www.w3.org/2000/svg">
<g clip-path="url(#clip0_1993_32601)">
<path d="M11.0321 5.08901C11.428 4.30366 12.572 4.30366 12.9679 5.08901L14.6039 8.33398C14.7611 8.64584 15.065 8.862 15.4166 8.91201L19.0747 9.43237C19.96 9.5583 20.3135 10.6234 19.6729 11.2347L17.0258 13.7605C16.7715 14.0033 16.6554 14.353 16.7154 14.6958L17.3403 18.2624C17.4915 19.1256 16.566 19.7838 15.7742 19.3763L12.5023 17.6924C12.1878 17.5305 11.8122 17.5305 11.4977 17.6924L8.22583 19.3763C7.43397 19.7838 6.50847 19.1256 6.6597 18.2624L7.28458 14.6958C7.34463 14.353 7.22855 14.0033 6.97415 13.7605L4.32714 11.2347C3.68651 10.6234 4.04002 9.5583 4.92535 9.43237L8.58343 8.91201C8.93499 8.862 9.23891 8.64584 9.39614 8.33398L11.0321 5.08901Z" fill="#F79C22"/>
<path d="M11.0321 5.08901C11.428 4.30366 12.572 4.30366 12.9679 5.08901L14.6039 8.33398C14.7611 8.64584 15.065 8.862 15.4166 8.91201L19.0747 9.43237C19.96 9.5583 20.3135 10.6234 19.6729 11.2347L17.0258 13.7605C16.7715 14.0033 16.6554 14.353 16.7154 14.6958L17.3403 18.2624C17.4915 19.1256 16.566 19.7838 15.7742 19.3763L12.5023 17.6924C12.1878 17.5305 11.8122 17.5305 11.4977 17.6924L8.22583 19.3763C7.43397 19.7838 6.50847 19.1256 6.6597 18.2624L7.28458 14.6958C7.34463 14.353 7.22855 14.0033 6.97415 13.7605L4.32714 11.2347C3.68651 10.6234 4.04002 9.5583 4.92535 9.43237L8.58343 8.91201C8.93499 8.862 9.23891 8.64584 9.39614 8.33398L11.0321 5.08901Z" fill="#F79C22"/>
</g>
<defs>
<clipPath id="clip0_1993_32601">
<rect width="24" height="24" fill="white"/>
</clipPath>
</defs>
</svg>
