<svg width="24" height="24" viewBox="0 0 24 24" fill="none" xmlns="http://www.w3.org/2000/svg">
<g clip-path="url(#clip0_2063_12438)">
<g clip-path="url(#clip1_2063_12438)">
<path fill-rule="evenodd" clip-rule="evenodd" d="M11.9795 4C16.3865 4.00001 19.959 7.57245 19.959 11.9795C19.959 16.3865 16.3865 19.959 11.9795 19.959C7.57245 19.959 4.00001 16.3865 4 11.9795C4 7.57244 7.57244 4 11.9795 4ZM11.9912 14.2871C11.4946 14.2874 11.0919 14.6892 11.0918 15.1846C11.0919 15.6799 11.4946 16.0818 11.9912 16.082C12.4878 16.0818 12.8915 15.6799 12.8916 15.1846C12.8915 14.6892 12.4878 14.2874 11.9912 14.2871ZM11.9805 7.87695C10.5684 7.87695 9.41602 8.93413 9.41602 10.2295C9.41625 10.6469 9.78515 10.9852 10.2402 10.9854C10.6952 10.9851 11.0652 10.6469 11.0654 10.2295C11.0654 9.7696 11.4791 9.38965 11.9805 9.38965C12.4815 9.39004 12.8955 9.76984 12.8955 10.2295C12.8953 10.4651 12.7323 10.7067 12.2842 11.0469C11.8618 11.3676 11.5397 11.6558 11.3535 11.9814C11.1541 12.3305 11.1547 12.6529 11.1553 12.8574V13.0693C11.1553 13.487 11.5252 13.8262 11.9805 13.8262C12.4354 13.8258 12.8046 13.4868 12.8047 13.0693V12.8887C12.8047 12.7685 12.8062 12.7272 12.8105 12.6973C12.8117 12.6894 12.8135 12.6855 12.8135 12.6855L12.8145 12.6836C12.8361 12.646 12.9297 12.5213 13.3359 12.2129C13.8358 11.8333 14.5437 11.1972 14.5439 10.2295C14.5439 8.93437 13.3922 7.87734 11.9805 7.87695Z" fill="#666666"/>
</g>
</g>
<defs>
<clipPath id="clip0_2063_12438">
<rect width="24" height="24" fill="white"/>
</clipPath>
<clipPath id="clip1_2063_12438">
<rect width="24" height="24" fill="white"/>
</clipPath>
</defs>
</svg>
