<svg width="20" height="20" viewBox="0 0 20 20" fill="none" xmlns="http://www.w3.org/2000/svg">
<path d="M4.60756 4.46311C4.87655 4.55889 5.16284 4.59466 5.44679 4.56798C5.73073 4.54129 6.00561 4.45277 6.25255 4.30849C6.49949 4.16422 6.71265 3.96761 6.87739 3.73215C7.04214 3.4967 7.15457 3.22797 7.20698 2.94442L7.52326 1.22476C8.82377 0.925079 10.1743 0.925079 11.4748 1.22476L11.793 2.94442C11.8454 3.22797 11.9579 3.4967 12.1226 3.73215C12.2874 3.96761 12.5005 4.16422 12.7475 4.30849C12.9944 4.45277 13.2693 4.54129 13.5532 4.56798C13.8372 4.59466 14.1235 4.55889 14.3924 4.46311L16.0223 3.88323C16.9295 4.8718 17.6054 6.05406 18 7.34253L16.6855 8.4823C16.469 8.67002 16.2952 8.90291 16.176 9.16496C16.0569 9.42702 15.9952 9.71205 15.9952 10.0005C15.9952 10.2889 16.0569 10.574 16.176 10.836C16.2952 11.0981 16.469 11.331 16.6855 11.5187L18 12.6575C17.6054 13.9459 16.9295 15.1282 16.0223 16.1168L14.3915 15.5369C14.1225 15.4411 13.8362 15.4053 13.5522 15.432C13.2683 15.4587 12.9934 15.5472 12.7465 15.6915C12.4995 15.8358 12.2864 16.0324 12.1216 16.2678C11.9569 16.5033 11.8444 16.772 11.792 17.0556L11.4767 18.7752C10.1762 19.0749 8.82574 19.0749 7.52523 18.7752L7.20698 17.0556C7.15457 16.772 7.04214 16.5033 6.87739 16.2678C6.71265 16.0324 6.49949 15.8358 6.25255 15.6915C6.00561 15.5472 5.73073 15.4587 5.44679 15.432C5.16284 15.4053 4.87655 15.4411 4.60756 15.5369L2.97773 16.1168C2.0705 15.1282 1.39459 13.9459 1 12.6575L2.31453 11.5177C2.53087 11.33 2.70451 11.0972 2.82356 10.8352C2.9426 10.5732 3.00424 10.2883 3.00424 10C3.00424 9.71168 2.9426 9.42678 2.82356 9.16481C2.70451 8.90285 2.53087 8.67002 2.31453 8.4823L1 7.34253C1.3943 6.05415 2.06987 4.8719 2.97674 3.88323L4.60756 4.46311ZM9.5 7.0006C10.2864 7.0006 11.0406 7.31661 11.5967 7.8791C12.1527 8.4416 12.4651 9.20451 12.4651 10C12.4651 10.7955 12.1527 11.5584 11.5967 12.1209C11.0406 12.6834 10.2864 12.9994 9.5 12.9994C8.7136 12.9994 7.95941 12.6834 7.40335 12.1209C6.84728 11.5584 6.53488 10.7955 6.53488 10C6.53488 9.20451 6.84728 8.4416 7.40335 7.8791C7.95941 7.31661 8.7136 7.0006 9.5 7.0006Z" stroke="#666666" stroke-width="2" stroke-linecap="round" stroke-linejoin="round"/>
</svg>
