<svg width="32" height="32" viewBox="0 0 32 32" fill="none" xmlns="http://www.w3.org/2000/svg">
<rect width="32" height="32" rx="16" fill="#169E4A"/>
<path d="M17.6717 10.0994L20.7325 12.7722C21.9412 13.8276 22.5455 14.3554 22.5455 15.0352C22.5455 15.7151 21.9412 16.2428 20.7325 17.2983L17.6717 19.9711C17.12 20.4528 16.8442 20.6937 16.6168 20.5934C16.3893 20.4931 16.3893 20.1305 16.3893 19.4053V17.6305C13.6154 17.6305 10.6104 18.9282 9.45459 21.091C9.45459 14.1701 13.5641 12.4399 16.3893 12.4399V10.6651C16.3893 9.93997 16.3893 9.57738 16.6168 9.47705C16.8442 9.37671 17.12 9.6176 17.6717 10.0994Z" fill="white"/>
</svg>
