<svg width="13" height="10" viewBox="0 0 13 10" fill="none" xmlns="http://www.w3.org/2000/svg">
<path d="M5.6875 10C5.6875 10 4.875 10 4.875 9.16667C4.875 8.33333 5.6875 5.83333 8.9375 5.83333C12.1875 5.83333 13 8.33333 13 9.16667C13 10 12.1875 10 12.1875 10H5.6875ZM8.9375 5C9.58397 5 10.204 4.73661 10.6611 4.26777C11.1182 3.79893 11.375 3.16304 11.375 2.5C11.375 1.83696 11.1182 1.20107 10.6611 0.732233C10.204 0.263392 9.58397 0 8.9375 0C8.29103 0 7.67105 0.263392 7.21393 0.732233C6.75681 1.20107 6.5 1.83696 6.5 2.5C6.5 3.16304 6.75681 3.79893 7.21393 4.26777C7.67105 4.73661 8.29103 5 8.9375 5ZM4.238 10C4.11761 9.73983 4.05754 9.45461 4.0625 9.16667C4.0625 8.0375 4.615 6.875 5.6355 6.06667C5.12621 5.90536 4.59548 5.82664 4.0625 5.83333C0.8125 5.83333 0 8.33333 0 9.16667C0 10 0.8125 10 0.8125 10H4.238ZM3.65625 5C4.19497 5 4.71163 4.78051 5.09256 4.38981C5.47349 3.9991 5.6875 3.4692 5.6875 2.91667C5.6875 2.36413 5.47349 1.83423 5.09256 1.44353C4.71163 1.05283 4.19497 0.833333 3.65625 0.833333C3.11753 0.833333 2.60087 1.05283 2.21994 1.44353C1.83901 1.83423 1.625 2.36413 1.625 2.91667C1.625 3.4692 1.83901 3.9991 2.21994 4.38981C2.60087 4.78051 3.11753 5 3.65625 5Z" fill="#333333"/>
</svg>
