<svg width="32" height="32" viewBox="0 0 32 32" fill="none" xmlns="http://www.w3.org/2000/svg">
<g clip-path="url(#clip0_1957_4462)">
<path fill-rule="evenodd" clip-rule="evenodd" d="M22.151 16.9635C23.3486 16.9636 24.4981 17.4392 25.345 18.2865C26.1917 19.1336 26.6665 20.2837 26.6666 21.4818C26.6665 22.6798 26.1916 23.8299 25.345 24.6771C24.4981 25.5243 23.3485 26 22.151 26C20.9536 25.9999 19.805 25.524 18.9583 24.6771C18.1115 23.8299 17.6354 22.6798 17.6353 21.4818C17.6355 20.2837 18.1115 19.1336 18.9583 18.2865C19.805 17.4395 20.9536 16.9636 22.151 16.9635ZM22.1549 19.0729C21.8974 19.0729 21.6827 19.256 21.6327 19.4987L21.621 19.6068V20.9466H20.2799C19.9855 20.9469 19.7461 21.1861 19.746 21.4805C19.7463 21.7747 19.9856 22.0142 20.2799 22.0143H21.6197V23.3542C21.6201 23.6482 21.8594 23.8879 22.1536 23.888C22.4478 23.8879 22.6869 23.6482 22.6874 23.3542V22.0143H24.0273L24.1353 22.0026C24.3777 21.9527 24.5607 21.7376 24.5611 21.4805C24.5611 21.223 24.3779 21.0084 24.1353 20.9583L24.0273 20.9466H22.6887V19.6068L22.677 19.4987C22.6271 19.2562 22.4121 19.0732 22.1549 19.0729Z" fill="white"/>
<path d="M14.7017 17.2956C15.9418 17.2956 17.0323 17.4279 17.9882 17.6536C17.527 18.1293 17.157 18.6779 16.8905 19.2721C16.2392 19.1643 15.5121 19.1016 14.7017 19.1016C8.3686 19.1018 7.13937 22.8209 7.13924 23.6198L7.14445 23.7031C7.15518 23.7735 7.17926 23.8064 7.19393 23.8242C7.22641 23.8634 7.29323 23.9148 7.41268 23.9635C7.6497 24.0602 7.90922 24.0707 7.93221 24.0716H16.9726C17.2434 24.6247 17.6046 25.1356 18.0481 25.5794C18.1526 25.684 18.262 25.7835 18.3736 25.8789H7.9257C7.87327 25.8787 7.31108 25.8748 6.73039 25.638C6.43131 25.5159 6.07827 25.3132 5.7981 24.9727C5.54201 24.6612 5.37838 24.2719 5.34106 23.819L5.33325 23.6198C5.33335 21.7076 7.49037 17.2958 14.7017 17.2956Z" fill="white"/>
<path fill-rule="evenodd" clip-rule="evenodd" d="M14.9804 6.00651C16.2846 6.0694 17.5273 6.60103 18.4622 7.51042L18.6444 7.69531C19.5287 8.64563 20.0246 9.88939 20.0247 11.1862L20.0181 11.444C19.9569 12.6468 19.4698 13.79 18.6444 14.6771L18.4622 14.8633C17.5275 15.7722 16.2843 16.303 14.9804 16.3659L14.7187 16.3724C13.4076 16.3722 12.141 15.8984 11.1666 15.0404L10.9765 14.8633C10.0409 13.953 9.48615 12.7326 9.42049 11.444L9.41398 11.1862C9.41409 9.80314 9.97877 8.48127 10.9765 7.51042L11.1666 7.33203C12.141 6.47378 13.4075 6.00015 14.7187 6L14.9804 6.00651ZM14.7187 7.80729C13.8994 7.80742 13.1128 8.08375 12.4908 8.57943L12.2356 8.80469C11.5826 9.44008 11.2201 10.2979 11.22 11.1862L11.2369 11.5169C11.3151 12.2849 11.6641 13.0117 12.2356 13.5677L12.4908 13.793C13.1129 14.2886 13.8995 14.5663 14.7187 14.5664L15.0676 14.5495C15.8749 14.4715 16.6306 14.1242 17.203 13.5677L17.4348 13.3203C17.9416 12.7184 18.2185 11.9634 18.2187 11.1862L18.2017 10.8555C18.1347 10.1972 17.8693 9.56942 17.4348 9.05339L17.203 8.80469C16.6307 8.24815 15.8749 7.90088 15.0676 7.82292L14.7187 7.80729Z" fill="white"/>
</g>
<defs>
<clipPath id="clip0_1957_4462">
<rect width="32" height="32" fill="white"/>
</clipPath>
</defs>
</svg>
