<svg width="24" height="24" viewBox="0 0 24 24" fill="none" xmlns="http://www.w3.org/2000/svg">
<circle cx="8.5" cy="6.5" r="3.5" stroke="#666666" stroke-width="1.5"/>
<path d="M2.75 16C2.75 14.2051 4.20507 12.75 6 12.75H11C12.7949 12.75 14.25 14.2051 14.25 16V19C14.25 19.6904 13.6904 20.25 13 20.25H4C3.30964 20.25 2.75 19.6904 2.75 19V16Z" stroke="#666666" stroke-width="1.5" stroke-linejoin="round"/>
<path d="M10.5 16.5C10.5 13.1863 13.1863 10.5 16.5 10.5C19.8137 10.5 22.5 13.1863 22.5 16.5C22.5 19.8137 19.8137 22.5 16.5 22.5C13.1863 22.5 10.5 19.8137 10.5 16.5Z" fill="#169E4A" stroke="white"/>
<path d="M13 16.5H16.5M16.5 16.5H20M16.5 16.5V20M16.5 16.5V13" stroke="white" stroke-width="1.5" stroke-linecap="round"/>
</svg>
