<svg width="134" height="36" viewBox="0 0 134 36" fill="none" xmlns="http://www.w3.org/2000/svg">
<path fill-rule="evenodd" clip-rule="evenodd" d="M113.887 34.4681C115.886 35.2959 118.147 35.7098 120.671 35.7098C123.26 35.7098 125.505 35.2297 127.406 34.2695C129.306 33.3093 130.748 32.0179 131.732 30.3955C132.748 28.7731 133.256 26.9686 133.256 24.9819C133.256 22.896 132.748 21.1908 131.732 19.8664C130.716 18.5419 129.503 17.5321 128.094 16.8367C126.717 16.1414 124.915 15.413 122.686 14.6514C120.458 13.923 118.819 13.2442 117.77 12.6151C116.722 11.986 116.197 11.1086 116.197 9.98284C116.197 8.95641 116.509 8.17832 117.131 7.64855C117.754 7.08567 118.573 6.80422 119.589 6.80422C120.769 6.80422 121.736 7.13533 122.49 7.79754C123.244 8.42665 123.653 9.30408 123.719 10.4298H132.813C132.649 7.15189 131.404 4.60237 129.077 2.78129C126.75 0.927098 123.686 0 119.884 0C116.148 0 113.117 0.927098 110.79 2.78129C108.463 4.60237 107.299 7.13533 107.299 10.3802C107.299 12.5655 107.807 14.3369 108.823 15.6944C109.839 17.052 111.052 18.0784 112.461 18.7737C113.87 19.469 115.689 20.1643 117.918 20.8597C119.458 21.3232 120.638 21.7371 121.457 22.1013C122.309 22.4655 123.014 22.9291 123.571 23.492C124.161 24.0548 124.456 24.7667 124.456 25.6276C124.456 26.654 124.096 27.4652 123.375 28.0612C122.654 28.6241 121.67 28.9055 120.425 28.9055C119.212 28.9055 118.229 28.5744 117.475 27.9122C116.722 27.2169 116.279 26.2236 116.148 24.9323H107.201C107.267 27.2169 107.889 29.1704 109.069 30.7928C110.282 32.4153 111.888 33.6404 113.887 34.4681ZM102.139 35.3621V0.496662H92.2583L82.6722 24.6343L72.9878 0.496662H63.0576V35.3621H71.4639V14.4031L79.231 35.3621H86.015L93.733 14.4528V35.3621H102.139ZM44.8682 7.30089V14.3534H56.1256V20.9093H44.8682V28.5579H57.6004V35.3621H36.4619V0.496662H57.6004V7.30089H44.8682ZM23.2104 2.68196C20.4903 1.22509 17.3113 0.496662 13.6735 0.496662H0.744629V35.3621H13.6735C17.2785 35.3621 20.4411 34.6337 23.1613 33.1768C25.9142 31.7199 28.0281 29.6671 29.5028 27.0182C31.0104 24.3694 31.7642 21.3398 31.7642 17.9294C31.7642 14.4859 31.0104 11.4563 29.5028 8.84053C28.0281 6.19168 25.9306 4.13882 23.2104 2.68196ZM20.5558 25.3793C18.7861 27.1341 16.3117 28.0116 13.1328 28.0116H9.15087V7.74788H13.1328C16.3117 7.74788 18.7861 8.64186 20.5558 10.4298C22.3256 12.2178 23.2104 14.7177 23.2104 17.9294C23.2104 21.1411 22.3256 23.6244 20.5558 25.3793Z" fill="#111111"/>
</svg>
