<svg width="36" height="37" viewBox="0 0 36 37" fill="none" xmlns="http://www.w3.org/2000/svg">
<g clip-path="url(#clip0_3387_25848)">
<path d="M18.001 3.89917C19.8179 3.89929 21.6062 4.58755 22.9502 5.79956L23.2139 6.04956L23.2168 6.05249C24.2865 7.13265 24.8897 8.43269 25.1592 10.0632L25.208 10.3943L25.21 10.406C25.3075 11.2225 25.3467 12.2671 25.3467 13.95V15.1716H26.3516C26.8983 15.1716 27.3569 15.1704 27.7305 15.2009C28.1132 15.2322 28.477 15.3005 28.8223 15.4763C29.3489 15.7446 29.7774 16.1734 30.0459 16.7C30.2219 17.0453 30.29 17.4099 30.3213 17.7927C30.3518 18.1663 30.3516 18.625 30.3516 19.1716V29.0974C30.3516 29.644 30.3518 30.1028 30.3213 30.4763C30.29 30.859 30.2217 31.2229 30.0459 31.5681C29.7775 32.0949 29.349 32.5233 28.8223 32.7917C28.477 32.9677 28.1132 33.0358 27.7305 33.0671C27.3569 33.0977 26.8983 33.0974 26.3516 33.0974H9.64942C9.1026 33.0974 8.64414 33.0977 8.27051 33.0671C7.88754 33.0358 7.52323 32.9678 7.17774 32.7917C6.65112 32.5233 6.22247 32.0948 5.95411 31.5681C5.77838 31.2229 5.71 30.8589 5.67872 30.4763C5.64823 30.1028 5.64942 29.644 5.64942 29.0974V19.1716C5.64942 18.625 5.6482 18.1663 5.67872 17.7927C5.71002 17.4099 5.77814 17.0453 5.95411 16.7C6.22255 16.1734 6.65111 15.7447 7.17774 15.4763C7.52316 15.3004 7.88762 15.2322 8.27051 15.2009C8.64412 15.1704 9.10266 15.1716 9.64942 15.1716H10.6553V13.95C10.6553 12.3448 10.6944 11.2856 10.8057 10.4011V10.3962C11.0462 8.56842 11.6434 7.20521 12.7852 6.05249L12.7881 6.04956C14.1434 4.69623 16.0753 3.89917 18.001 3.89917ZM9.64942 16.7712C9.07624 16.7712 8.69375 16.7717 8.4004 16.7957C8.11688 16.8188 7.98662 16.8602 7.9043 16.9021C7.67868 17.0171 7.49494 17.2009 7.37989 17.4265C7.33797 17.5088 7.29666 17.6391 7.27344 17.9226C7.24948 18.2159 7.24903 18.5986 7.24903 19.1716V29.0974C7.24903 29.6701 7.24954 30.0522 7.27344 30.3455C7.29662 30.6291 7.33799 30.7602 7.37989 30.8425C7.49493 31.0682 7.67866 31.2519 7.9043 31.3669C7.98661 31.4089 8.11672 31.4492 8.4004 31.4724C8.69376 31.4964 9.0762 31.4968 9.64942 31.4968H26.3516C26.9245 31.4968 27.3063 31.4964 27.5996 31.4724C27.8829 31.4493 28.0134 31.4088 28.0957 31.3669C28.3212 31.252 28.5051 31.068 28.6201 30.8425C28.662 30.7602 28.7034 30.6291 28.7266 30.3455C28.7505 30.0522 28.751 29.6701 28.751 29.0974V19.1716C28.751 18.5986 28.7505 18.2159 28.7266 17.9226C28.7034 17.6391 28.662 17.5088 28.6201 17.4265C28.5051 17.201 28.3213 17.017 28.0957 16.9021C28.0133 16.8602 27.883 16.8188 27.5996 16.7957C27.3063 16.7717 26.9245 16.7712 26.3516 16.7712H9.64942ZM18 19.5496C19.4912 19.5496 20.7002 20.7586 20.7002 22.2498C20.7001 23.4623 19.9003 24.4869 18.7998 24.8279V28.5496H17.2002V24.8279C16.0998 24.4869 15.2999 23.4622 15.2998 22.2498C15.2998 20.7586 16.5088 19.5496 18 19.5496ZM18.001 5.49878C16.4968 5.49878 14.9725 6.1295 13.919 7.1814C13.0728 8.03683 12.597 9.0517 12.3926 10.6052L12.3916 10.6042C12.2938 11.3841 12.2549 12.3601 12.2549 13.95V15.1716H23.7461V13.95C23.7461 12.2857 23.7068 11.3224 23.6221 10.6072C23.418 9.09268 22.9292 8.03721 22.083 7.1814L21.8779 6.98706C20.8293 6.04183 19.4237 5.4989 18.001 5.49878Z" fill="#111111"/>
<path d="M18 3.49805C19.9159 3.4981 21.8012 4.22421 23.2192 5.50342L23.4961 5.76709L23.5005 5.77148C24.7146 6.99748 25.3541 8.48616 25.604 10.3403L25.6069 10.3579L24.416 10.5015L25.6069 10.3594C25.7074 11.2008 25.7461 12.2663 25.7461 13.9512V14.7759C26.1451 14.7803 26.5031 14.7896 26.8198 14.8154C27.3941 14.8624 27.9409 14.9645 28.459 15.2285C29.249 15.6311 29.8918 16.274 30.2944 17.064C30.5584 17.582 30.6606 18.1288 30.7075 18.7031C30.7533 19.2634 30.7515 19.9515 30.7515 20.7715V27.4966C30.7515 28.3164 30.7532 29.0046 30.7075 29.5649C30.6606 30.1392 30.5582 30.6861 30.2944 31.2041C29.8919 31.9941 29.2489 32.6369 28.459 33.0396C27.9409 33.3035 27.3941 33.4057 26.8198 33.4526C26.2595 33.4984 25.5714 33.4966 24.7515 33.4966H11.25C10.43 33.4966 9.742 33.4984 9.18165 33.4526C8.60727 33.4057 8.06065 33.3035 7.54249 33.0396C6.75234 32.6369 6.10967 31.9943 5.70704 31.2041C5.44307 30.6859 5.34088 30.1393 5.29396 29.5649C5.24823 29.0046 5.25001 28.3165 5.25001 27.4966V20.7715C5.25001 19.9515 5.24818 19.2634 5.29396 18.7031C5.34091 18.1289 5.44308 17.582 5.70704 17.064C6.10971 16.2741 6.75258 15.631 7.54249 15.2285C8.06052 14.9647 8.60743 14.8623 9.18165 14.8154C9.49855 14.7896 9.85618 14.7802 10.2554 14.7759V13.9512C10.2554 12.3432 10.2948 11.2625 10.4092 10.3521V10.3447C10.6586 8.44879 11.2859 6.99837 12.501 5.77148L12.5054 5.76709C13.9359 4.33859 15.9692 3.49824 18 3.49805ZM11.25 17.1709C10.3905 17.1709 9.81645 17.1716 9.37647 17.2075C8.95156 17.2423 8.75583 17.3044 8.63233 17.3672C8.29393 17.5396 8.0183 17.8155 7.84571 18.1538C7.78284 18.2772 7.72087 18.4727 7.68605 18.8979C7.6501 19.3379 7.64942 19.9119 7.64942 20.7715V27.4966C7.64942 28.3561 7.65013 28.9301 7.68605 29.3701C7.72083 29.7956 7.78285 29.9908 7.84571 30.1143C8.01826 30.4529 8.29371 30.7283 8.63233 30.9009C8.7558 30.9637 8.95106 31.0258 9.37647 31.0605C9.81646 31.0965 10.3905 31.0972 11.25 31.0972H24.7515C25.611 31.0972 26.185 31.0965 26.625 31.0605C27.0503 31.0257 27.2457 30.9638 27.3691 30.9009C27.7075 30.7283 27.9833 30.4527 28.1558 30.1143C28.2186 29.9907 28.2807 29.7951 28.3154 29.3701C28.3513 28.9301 28.3521 28.3561 28.3521 27.4966V20.7715C28.3521 19.9119 28.3514 19.3379 28.3154 18.8979C28.2806 18.4726 28.2186 18.2772 28.1558 18.1538C27.9832 17.8153 27.7076 17.5397 27.3691 17.3672C27.2457 17.3043 27.0504 17.2423 26.625 17.2075C26.185 17.1716 25.611 17.1709 24.7515 17.1709H11.25ZM18 19.5498C19.4912 19.5498 20.6997 20.7583 20.6997 22.2495C20.6997 23.3091 20.0881 24.223 19.1997 24.665V28.5498H16.8003V24.665C15.912 24.223 15.3003 23.3091 15.3003 22.2495C15.3003 20.7584 16.5088 19.5498 18 19.5498ZM18 5.89893C16.6014 5.89912 15.1796 6.48842 14.2017 7.46484C13.4301 8.24573 12.9848 9.17404 12.7896 10.6582L12.7881 10.6567C12.6938 11.4102 12.6548 12.3663 12.6548 13.9512V14.7715H23.3467V13.9512C23.3467 12.2807 23.3062 11.3349 23.2236 10.6436V10.6421C23.0274 9.20656 22.5686 8.2431 21.7998 7.46484L21.6094 7.28467C20.6345 6.40609 19.3243 5.89898 18 5.89893Z" fill="#111111"/>
</g>
<defs>
<clipPath id="clip0_3387_25848">
<rect width="36" height="36" fill="white" transform="translate(0 0.5)"/>
</clipPath>
</defs>
</svg>
