<svg width="25" height="24" viewBox="0 0 25 24" fill="none" xmlns="http://www.w3.org/2000/svg">
<path fill-rule="evenodd" clip-rule="evenodd" d="M5.41536 8.24047C5 9.09415 5 10.1239 5 12.1835V13.5525C5 17.0633 5 18.8187 5.93726 19.9093C6.87452 21 8.38301 21 11.4 21H14.6C17.617 21 19.1255 21 20.0627 19.9093C21 18.8187 21 17.0633 21 13.5525V12.1835C21 10.1239 21 9.09415 20.5846 8.24047C20.1693 7.38679 19.4104 6.85696 17.8928 5.79731L16.2928 4.68018C14.6885 3.56006 13.8863 3 13 3C12.1137 3 11.3115 3.56006 9.70723 4.68018L8.10723 5.79731C6.58956 6.85696 5.83072 7.38679 5.41536 8.24047ZM10.6 16.725C10.2686 16.725 10 17.0272 10 17.4C10 17.7728 10.2686 18.075 10.6 18.075H15.4C15.7314 18.075 16 17.7728 16 17.4C16 17.0272 15.7314 16.725 15.4 16.725H10.6Z" fill="#B3B3B3"/>
</svg>
