<svg width="27" height="24" viewBox="0 0 27 24" fill="none" xmlns="http://www.w3.org/2000/svg">
<path d="M21.4811 0.353163C21.6668 -0.117721 22.3332 -0.117721 22.5189 0.353163L23.1733 2.01242C23.23 2.15618 23.3438 2.26998 23.4876 2.32668L25.1468 2.98108C25.6177 3.16679 25.6177 3.83321 25.1468 4.01892L23.4876 4.67332C23.3438 4.73002 23.23 4.84382 23.1733 4.98758L22.5189 6.64684C22.3332 7.11772 21.6668 7.11772 21.4811 6.64684L20.8267 4.98758C20.77 4.84382 20.6562 4.73002 20.5124 4.67332L18.8532 4.01892C18.3823 3.83321 18.3823 3.16679 18.8532 2.98108L20.5124 2.32668C20.6562 2.26998 20.77 2.15618 20.8267 2.01242L21.4811 0.353163Z" fill="#169E4A"/>
<path fill-rule="evenodd" clip-rule="evenodd" d="M20.5 12.5C20.5 16.6421 17.1421 20 13 20C8.85786 20 5.5 16.6421 5.5 12.5C5.5 8.35786 8.85786 5 13 5C17.1421 5 20.5 8.35786 20.5 12.5ZM15.5 14.75C15.9142 14.75 16.25 14.4142 16.25 14C16.25 13.5858 15.9142 13.25 15.5 13.25H13.5C13.0858 13.25 12.75 13.5858 12.75 14C12.75 14.4142 13.0858 14.75 13.5 14.75H15.5ZM17.5 10.5C17.5 11.3284 17.0523 12 16.5 12C15.9477 12 15.5 11.3284 15.5 10.5C15.5 9.67157 15.9477 9 16.5 9C17.0523 9 17.5 9.67157 17.5 10.5ZM12.5 12C13.0523 12 13.5 11.3284 13.5 10.5C13.5 9.67157 13.0523 9 12.5 9C11.9477 9 11.5 9.67157 11.5 10.5C11.5 11.3284 11.9477 12 12.5 12Z" fill="#169E4A"/>
<path d="M20.2669 6.29386L19.5175 7.04328C19.1957 6.6594 18.8407 6.30436 18.4568 5.98261L19.2063 5.23315L19.9669 5.53312L20.2669 6.29386Z" fill="#169E4A"/>
</svg>
