<svg width="35" height="24" viewBox="0 0 35 24" fill="none" xmlns="http://www.w3.org/2000/svg">
<path d="M26.1747 5.29331C25.9446 5.08129 25.6745 4.91719 25.3803 4.81058C25.0861 4.70397 24.7736 4.65698 24.4611 4.67235H23.1777C23.0427 4.26933 22.8044 3.90875 22.4865 3.62662C22.2528 3.41447 21.9796 3.25044 21.6825 3.1439C21.3854 3.03735 21.0702 2.99038 20.7549 3.00566H15.2811C14.9556 2.9834 14.6289 3.02691 14.3206 3.13359C14.0123 3.24028 13.7286 3.40795 13.4865 3.62662C13.172 3.90784 12.9394 4.26886 12.8133 4.67145H11.5479C11.231 4.65345 10.9137 4.69913 10.6147 4.80578C10.3158 4.91243 10.0412 5.0779 9.8073 5.29241C9.56509 5.51134 9.36895 5.77635 9.23034 6.07194C9.09172 6.36753 9.01342 6.68779 9 7.01399C9.01236 8.17714 9.3212 9.31791 9.8973 10.3285C10.4771 11.3614 11.2916 12.2437 12.2751 12.9041L13.0383 13.4171L13.6125 13.768C14.0868 14.5078 16.1137 15.1251 16.8718 15.5697V17.1536H16.5226C15.88 17.1536 13.878 17.411 13.4244 17.8664C12.9694 18.3226 12.7143 18.9409 12.7152 19.5852V19.8831C12.7143 20.0299 12.7424 20.1754 12.7979 20.3113C12.8533 20.4472 12.935 20.5708 13.0383 20.6751C13.248 20.8838 13.5324 21.0008 13.8276 20.9999H22.1724C22.3935 21.0023 22.6102 20.9378 22.7941 20.815C22.9779 20.6922 23.1204 20.5167 23.2029 20.3115C23.2587 20.1765 23.2866 20.0298 23.2848 19.8831V19.5861C23.2848 18.9409 23.0301 18.3226 22.5756 17.8673C22.1214 17.4125 20.121 17.1563 19.4783 17.1545H19.1273V15.5607C19.889 15.1174 21.9194 14.5 22.3965 13.759L22.9887 13.3991L23.7159 12.9041C24.7015 12.2397 25.5187 11.3547 26.1027 10.3195C26.6812 9.2965 26.9899 8.14323 27 6.96809C26.9532 6.32375 26.6572 5.723 26.1747 5.29331ZM11.0727 9.67781C10.6283 8.87843 10.3907 7.98071 10.3815 7.06619C10.3949 6.84881 10.4727 6.64033 10.6049 6.46726C10.7371 6.2942 10.9178 6.16435 11.124 6.09425C11.2599 6.04926 11.4048 6.02946 11.5479 6.04026H12.7233V10.8486C12.7311 11.1054 12.7521 11.3604 12.7863 11.6136C12.0839 11.098 11.4996 10.4374 11.0727 9.67781ZM24.9453 9.67871C24.511 10.4336 23.9281 11.0924 23.2317 11.6154C23.2659 11.3544 23.2869 11.0931 23.2947 10.8315V6.04026H24.4962C24.6386 6.03037 24.7815 6.05006 24.916 6.09807C25.0504 6.14608 25.1735 6.22138 25.2774 6.31924C25.4817 6.49923 25.6104 6.75121 25.6365 7.02209C25.6309 7.95137 25.3934 8.86454 24.9453 9.67871Z" fill="#B9B9B9"/>
</svg>
