<svg width="25" height="24" viewBox="0 0 25 24" fill="none" xmlns="http://www.w3.org/2000/svg">
<path d="M9.53429 5.96305L6.99114 8.49856C6.52369 8.9646 6.09488 9.3921 5.75624 9.77856C5.53877 10.0267 5.32145 10.2984 5.13737 10.5985L5.11259 10.5738C5.06555 10.5269 5.04201 10.5034 5.01839 10.4805C4.57636 10.0516 4.05641 9.71062 3.48636 9.47575C3.4559 9.4632 3.42498 9.45095 3.36314 9.42645L2.98449 9.27641C2.47153 9.07315 2.33482 8.41279 2.72514 8.02365C3.84535 6.90684 5.19032 5.56594 5.83941 5.29662C6.41185 5.05911 7.03023 4.98008 7.62664 5.06822C8.17311 5.14898 8.69006 5.42968 9.53429 5.96305Z" fill="#169E4A"/>
<path d="M13.8767 19.3132C14.0816 19.5212 14.2177 19.6681 14.3408 19.8251C14.5031 20.0322 14.6483 20.2523 14.7748 20.4829C14.9172 20.7426 15.0278 21.02 15.249 21.5748C15.429 22.0265 16.0272 22.1459 16.3746 21.7995L16.4586 21.7157C17.5788 20.5988 18.9237 19.2579 19.1938 18.6108C19.4321 18.04 19.5113 17.4235 19.4229 16.8289C19.3419 16.2841 19.0605 15.7688 18.5256 14.9273L15.974 17.4713C15.4959 17.9479 15.0576 18.385 14.6612 18.7273C14.4236 18.9325 14.1637 19.1376 13.8767 19.3132Z" fill="#169E4A"/>
<path fill-rule="evenodd" clip-rule="evenodd" d="M14.9467 16.3769L20.7935 10.5476C21.6356 9.70811 22.0566 9.28836 22.2783 8.75458C22.5001 8.22081 22.5001 7.62719 22.5001 6.43996V5.87277C22.5001 4.04713 22.5001 3.13431 21.9312 2.56715C21.3624 2 20.4468 2 18.6157 2H18.0468C16.856 2 16.2606 2 15.7252 2.2211C15.1898 2.4422 14.7688 2.86195 13.9268 3.70146L8.07991 9.53078C7.09599 10.5117 6.48591 11.12 6.24966 11.7075C6.17502 11.8931 6.1377 12.0767 6.1377 12.2692C6.1377 13.0713 6.7851 13.7168 8.07991 15.0077L8.25393 15.1812L10.2924 13.1123C10.5832 12.8172 11.058 12.8137 11.3531 13.1044C11.6481 13.3951 11.6516 13.87 11.3609 14.1651L9.3162 16.2403L9.45326 16.3769C10.7481 17.6679 11.3955 18.3133 12.2 18.3133C12.3777 18.3133 12.5478 18.2818 12.7189 18.2188C13.3222 17.9966 13.938 17.3826 14.9467 16.3769ZM17.6935 9.5312C16.935 10.2874 15.7053 10.2874 14.9468 9.5312C14.1883 8.775 14.1883 7.54895 14.9468 6.79274C15.7053 6.03653 16.935 6.03653 17.6935 6.79274C18.452 7.54895 18.452 8.775 17.6935 9.5312Z" fill="#169E4A"/>
</svg>
