<svg width="25" height="24" viewBox="0 0 25 24" fill="none" xmlns="http://www.w3.org/2000/svg">
<path d="M17.5 20.3335H22.5V18.3335C22.5 17.71 22.3057 17.1021 21.9441 16.5941C21.5826 16.0862 21.0718 15.7035 20.4828 15.4992C19.8937 15.295 19.2556 15.2794 18.6573 15.4545C18.0589 15.6297 17.53 15.9869 17.144 16.4765M17.5 20.3335H7.5H17.5ZM17.5 20.3335V18.3335C17.5 17.6775 17.374 17.0505 17.144 16.4765M7.5 20.3335H2.5V18.3335C2.50005 17.71 2.69434 17.1021 3.05586 16.5941C3.41739 16.0862 3.92819 15.7035 4.51725 15.4992C5.10632 15.295 5.74438 15.2794 6.34274 15.4545C6.9411 15.6297 7.47003 15.9869 7.856 16.4765M7.5 20.3335V18.3335C7.5 17.6775 7.626 17.0505 7.856 16.4765M7.856 16.4765C8.22736 15.5485 8.86825 14.753 9.696 14.1926C10.5238 13.6323 11.5004 13.3328 12.5 13.3328C13.4996 13.3328 14.4762 13.6323 15.304 14.1926C16.1318 14.753 16.7726 15.5485 17.144 16.4765M15.5 7.3335C15.5 8.12915 15.1839 8.89221 14.6213 9.45482C14.0587 10.0174 13.2957 10.3335 12.5 10.3335C11.7044 10.3335 10.9413 10.0174 10.3787 9.45482C9.81607 8.89221 9.5 8.12915 9.5 7.3335C9.5 6.53785 9.81607 5.77479 10.3787 5.21218C10.9413 4.64957 11.7044 4.3335 12.5 4.3335C13.2957 4.3335 14.0587 4.64957 14.6213 5.21218C15.1839 5.77479 15.5 6.53785 15.5 7.3335ZM21.5 10.3335C21.5 10.8639 21.2893 11.3726 20.9142 11.7477C20.5391 12.1228 20.0304 12.3335 19.5 12.3335C18.9696 12.3335 18.4609 12.1228 18.0858 11.7477C17.7107 11.3726 17.5 10.8639 17.5 10.3335C17.5 9.80306 17.7107 9.29436 18.0858 8.91928C18.4609 8.54421 18.9696 8.3335 19.5 8.3335C20.0304 8.3335 20.5391 8.54421 20.9142 8.91928C21.2893 9.29436 21.5 9.80306 21.5 10.3335ZM7.5 10.3335C7.5 10.8639 7.28929 11.3726 6.91421 11.7477C6.53914 12.1228 6.03043 12.3335 5.5 12.3335C4.96957 12.3335 4.46086 12.1228 4.08579 11.7477C3.71071 11.3726 3.5 10.8639 3.5 10.3335C3.5 9.80306 3.71071 9.29436 4.08579 8.91928C4.46086 8.54421 4.96957 8.3335 5.5 8.3335C6.03043 8.3335 6.53914 8.54421 6.91421 8.91928C7.28929 9.29436 7.5 9.80306 7.5 10.3335Z" fill="#169E4A"/>
<path d="M17.5 20.3335H22.5V18.3335C22.5 17.71 22.3057 17.1021 21.9441 16.5941C21.5826 16.0862 21.0718 15.7035 20.4828 15.4992C19.8937 15.295 19.2556 15.2794 18.6573 15.4545C18.0589 15.6297 17.53 15.9869 17.144 16.4765M17.5 20.3335H7.5M17.5 20.3335V18.3335C17.5 17.6775 17.374 17.0505 17.144 16.4765M17.144 16.4765C16.7726 15.5485 16.1318 14.753 15.304 14.1926C14.4762 13.6323 13.4996 13.3328 12.5 13.3328C11.5004 13.3328 10.5238 13.6323 9.696 14.1926C8.86825 14.753 8.22736 15.5485 7.856 16.4765M7.5 20.3335H2.5V18.3335C2.50005 17.71 2.69434 17.1021 3.05586 16.5941C3.41739 16.0862 3.92819 15.7035 4.51725 15.4992C5.10632 15.295 5.74438 15.2794 6.34274 15.4545C6.9411 15.6297 7.47003 15.9869 7.856 16.4765M7.5 20.3335V18.3335C7.5 17.6775 7.626 17.0505 7.856 16.4765M15.5 7.3335C15.5 8.12915 15.1839 8.89221 14.6213 9.45482C14.0587 10.0174 13.2957 10.3335 12.5 10.3335C11.7044 10.3335 10.9413 10.0174 10.3787 9.45482C9.81607 8.89221 9.5 8.12915 9.5 7.3335C9.5 6.53785 9.81607 5.77479 10.3787 5.21218C10.9413 4.64957 11.7044 4.3335 12.5 4.3335C13.2957 4.3335 14.0587 4.64957 14.6213 5.21218C15.1839 5.77479 15.5 6.53785 15.5 7.3335ZM21.5 10.3335C21.5 10.8639 21.2893 11.3726 20.9142 11.7477C20.5391 12.1228 20.0304 12.3335 19.5 12.3335C18.9696 12.3335 18.4609 12.1228 18.0858 11.7477C17.7107 11.3726 17.5 10.8639 17.5 10.3335C17.5 9.80306 17.7107 9.29436 18.0858 8.91928C18.4609 8.54421 18.9696 8.3335 19.5 8.3335C20.0304 8.3335 20.5391 8.54421 20.9142 8.91928C21.2893 9.29436 21.5 9.80306 21.5 10.3335ZM7.5 10.3335C7.5 10.8639 7.28929 11.3726 6.91421 11.7477C6.53914 12.1228 6.03043 12.3335 5.5 12.3335C4.96957 12.3335 4.46086 12.1228 4.08579 11.7477C3.71071 11.3726 3.5 10.8639 3.5 10.3335C3.5 9.80306 3.71071 9.29436 4.08579 8.91928C4.46086 8.54421 4.96957 8.3335 5.5 8.3335C6.03043 8.3335 6.53914 8.54421 6.91421 8.91928C7.28929 9.29436 7.5 9.80306 7.5 10.3335Z" stroke="#169E4A" stroke-linecap="round" stroke-linejoin="round"/>
<rect x="7" y="16" width="11" height="4" fill="#169E4A"/>
</svg>
