<svg width="25" height="24" viewBox="0 0 25 24" fill="none" xmlns="http://www.w3.org/2000/svg">
<path fill-rule="evenodd" clip-rule="evenodd" d="M4.91536 8.24047C4.5 9.09415 4.5 10.1239 4.5 12.1835V13.5525C4.5 17.0633 4.5 18.8187 5.43726 19.9093C6.37452 21 7.88301 21 10.9 21H14.1C17.117 21 18.6255 21 19.5627 19.9093C20.5 18.8187 20.5 17.0633 20.5 13.5525V12.1835C20.5 10.1239 20.5 9.09415 20.0846 8.24047C19.6693 7.38679 18.9104 6.85696 17.3928 5.79731L15.7928 4.68018C14.1885 3.56006 13.3863 3 12.5 3C11.6137 3 10.8115 3.56006 9.20723 4.68018L7.60723 5.79731C6.08956 6.85696 5.33072 7.38679 4.91536 8.24047ZM10.1 16.725C9.76863 16.725 9.5 17.0272 9.5 17.4C9.5 17.7728 9.76863 18.075 10.1 18.075H14.9C15.2314 18.075 15.5 17.7728 15.5 17.4C15.5 17.0272 15.2314 16.725 14.9 16.725H10.1Z" fill="#169E4A"/>
</svg>
