<svg width="10" height="104" viewBox="0 0 10 104" fill="none" xmlns="http://www.w3.org/2000/svg">
<path d="M2.98023e-07 98.5C-0.0437662 99.8261 0.444672 101.098 1.38309 102.036C2.32004 102.973 3.63015 103.5 5 103.5C6.36985 103.5 7.67996 102.973 8.61691 102.036C9.55533 101.098 10.0438 99.8261 10 98.5C9.94792 96.9 9.89583 95.3 9.84375 93.7C8.90625 64.9 7.96875 36.1 7.03125 7.3C6.97917 5.69999 6.92708 4.1 6.875 2.5C6.85911 2.01864 6.64765 1.557 6.29628 1.21663C5.94439 0.876259 5.48139 0.68504 5 0.68504C4.51861 0.68504 4.05561 0.876259 3.70372 1.21663C3.35235 1.557 3.14089 2.01864 3.125 2.5C3.07292 4.1 3.02083 5.69999 2.96875 7.3C2.03125 36.1 1.09375 64.9 0.15625 93.7C0.104167 95.3 0.0520838 96.9 2.98023e-07 98.5Z" fill="#111111"/>
</svg>
