<svg width="6" height="100" viewBox="0 0 6 100" fill="none" xmlns="http://www.w3.org/2000/svg">
<path d="M0.680298 97.2834C0.669371 97.9465 0.92319 98.5824 1.39221 99.0512C1.86087 99.5201 2.50633 99.7834 3.1803 99.7834C3.85427 99.7834 4.49972 99.5201 4.96838 99.0512C5.43741 98.5824 5.69122 97.9465 5.6803 97.2834C5.65426 95.6813 5.62821 94.0791 5.60217 92.4769C5.13342 63.6379 4.66467 34.7989 4.19592 5.95983C4.16988 4.35768 4.14384 2.75551 4.11779 1.15333C4.11376 0.908701 4.01146 0.674089 3.83571 0.501108C3.65983 0.328127 3.4249 0.230947 3.18029 0.230947C2.93568 0.230947 2.70076 0.328127 2.52488 0.501108C2.34913 0.674089 2.24683 0.908702 2.24279 1.15333C2.21675 2.75551 2.19071 4.35768 2.16467 5.95983C1.69592 34.7989 1.22717 63.6379 0.758423 92.4769C0.732381 94.0791 0.70634 95.6813 0.680298 97.2834Z" fill="#111111"/>
</svg>
