<svg width="141" height="135" viewBox="0 0 141 135" fill="none" xmlns="http://www.w3.org/2000/svg">
<path d="M29.605 35.8014C33.6939 30.5868 38.7063 26.2596 44.5021 22.9444C50.2979 19.6291 56.5846 17.4915 63.189 16.591C70.0233 15.6602 76.9014 16.1011 83.6341 17.9051C90.3667 19.7091 96.5423 22.7639 101.997 26.9896C107.265 31.0711 111.642 36.0662 115.004 41.8352C118.365 47.6042 120.543 53.8559 121.476 60.4183C121.555 60.9692 121.62 61.5228 121.682 62.0753L124.693 62.8823C122.755 40.8019 107.189 21.2184 84.3817 15.1073C61.5747 8.99618 38.3043 18.1735 25.5871 36.3269L28.5988 37.1338C28.9265 36.6856 29.2594 36.2408 29.605 35.8014Z" fill="white"/>
<path d="M111.157 98.9151C107.068 104.13 102.056 108.457 96.2602 111.772C90.4644 115.087 84.1777 117.225 77.5733 118.125C70.7389 119.056 63.8608 118.615 57.1282 116.811C50.3956 115.007 44.2199 111.953 38.7652 107.727C33.4978 103.645 29.1203 98.6503 25.7586 92.8813C22.3969 87.1123 20.2191 80.8606 19.2859 74.2982C19.1752 73.5225 19.0852 72.7444 19.0109 71.9685L16.0161 71.166C17.6925 93.5181 33.3398 113.437 56.3763 119.61C79.4128 125.783 102.923 116.358 115.551 97.8364L112.557 97.0339C112.104 97.6706 111.637 98.2977 111.153 98.9141L111.157 98.9151Z" fill="white"/>
<path d="M77.9733 36.1574C77.7808 36.4918 77.8302 36.887 78.1917 37.1479C78.3384 37.2552 78.3213 37.3267 78.2638 37.4433C78.138 37.7096 78.0085 37.9749 77.884 38.2435C77.6216 38.8092 77.2515 39.5281 76.8445 40.0011C76.5841 40.3033 76.249 40.7715 75.8445 40.8892C75.5557 40.9738 75.4553 41.0249 75.2124 40.8178C75.0184 40.6538 74.9027 40.4308 74.8747 40.1893C74.8192 39.7344 74.8472 39.0879 74.8125 38.6306C74.8045 38.5324 74.8643 38.4824 74.9536 38.4424C75.2669 38.3043 75.3912 38.0736 75.3364 37.7589C75.2951 37.5218 75.0947 37.3141 74.8362 37.2629C74.5872 37.2141 74.3726 37.2926 74.2152 37.4885C74.0584 37.6825 74.0306 37.967 74.1787 38.1667C74.2777 38.3013 74.4283 38.4016 74.555 38.5156C74.5871 38.5162 74.5885 38.5485 74.5786 38.5779C74.4017 39.1705 74.1893 39.9556 73.8837 40.5018C73.5286 41.1347 73.055 41.2618 72.5111 40.974C72.2216 40.8205 71.9706 40.5832 71.7295 40.3546C71.5414 40.1762 71.396 39.9512 71.2296 39.7446C71.2897 39.7007 71.3212 39.6812 71.3499 39.6568C71.599 39.4496 71.7065 39.1764 71.6298 38.8678C71.5537 38.5574 71.3398 38.3701 71.0109 38.296C70.6438 38.2136 70.1902 38.4921 70.119 38.923C70.0557 39.3101 70.371 39.7586 70.7608 39.801C70.8843 39.8141 70.9186 39.8593 70.9434 39.9699C71.1824 41.042 71.229 42.1246 71.1547 43.2147C71.1481 43.3069 71.1736 43.3398 71.2592 43.3587C72.2083 43.579 72.9738 43.7621 73.9248 43.975C76.6341 44.5789 78.7393 45.255 81.3947 46.0525C81.4934 46.0829 81.6103 46.1583 81.6844 46.1301C81.7613 46.0987 81.7987 45.9668 81.8511 45.8768C82.0716 45.4978 82.2668 45.1001 82.5182 44.7415C82.8646 44.2463 83.2516 43.78 83.6265 43.3064C83.6506 43.2768 83.7367 43.2639 83.7756 43.2843C84.2916 43.5406 84.9401 43.0843 84.8756 42.535C84.8144 42.0186 84.2872 41.6833 83.8068 41.8886C83.4243 42.0521 83.2081 42.5202 83.4548 43.0143C83.0074 43.2165 82.566 43.4042 82.0794 43.4519C81.678 43.4903 81.4915 43.4563 81.1916 43.176C80.827 42.8363 80.8369 42.3929 80.901 41.9581C80.9658 41.5054 81.1217 40.8711 81.2058 40.4217C81.2248 40.3207 81.2422 40.2634 81.378 40.2758C81.6547 40.3039 81.9429 40.0711 81.9955 39.8072C82.0577 39.4999 81.891 39.1812 81.6135 39.0808C81.3144 38.9707 81.0016 39.0769 80.819 39.352C80.6838 39.5557 80.7268 39.8993 80.9364 40.0954C81.0202 40.1739 81.0212 40.2302 80.9723 40.3151C80.7284 40.7437 80.4298 41.3538 80.0724 41.702C79.5295 42.2306 79.1097 42.1421 78.7421 41.5276C78.3482 40.868 78.3682 39.9433 78.3622 39.2057C78.3596 38.869 78.4298 38.3438 78.4532 38.008C78.4671 37.8057 78.5032 37.6034 78.5411 37.4016C78.5479 37.3614 78.611 37.3063 78.6498 37.3047C79.0329 37.2893 79.3078 37.061 79.4033 36.6745C79.4617 36.4342 79.3102 36.0136 78.9928 35.8665C78.6176 35.694 78.1931 35.7883 77.9784 36.1607L77.9733 36.1574Z" fill="white"/>
<path d="M81.3654 46.6807C80.2293 46.3383 79.2808 46.0181 78.1356 45.7093C76.0956 45.1587 74.4091 44.7408 72.3626 44.2144C71.904 44.0975 71.6194 44.0533 71.1578 43.9476C71.0665 43.9271 70.9976 43.9286 70.9691 44.035C70.8726 44.3952 70.776 44.7553 70.6795 45.1155C70.656 45.2032 70.6885 45.2399 70.778 45.2599C71.7383 45.4832 72.5132 45.6688 73.4751 45.8865C76.2331 46.5116 78.395 47.1868 81.0947 48.0222C81.1858 48.0506 81.2254 48.0233 81.2479 47.9393C81.2954 47.762 81.3429 47.5847 81.3904 47.4074C81.4099 47.3347 81.4294 47.2619 81.4489 47.1891C81.4699 47.1107 81.4909 47.0323 81.5119 46.954C81.5674 46.7468 81.5652 46.7402 81.3635 46.6802L81.3654 46.6807Z" fill="white"/>
<path d="M109.003 97.2477C105.131 102.188 100.384 106.285 94.8952 109.424C89.4066 112.564 83.4507 114.588 77.1978 115.441C70.7231 116.324 64.2082 115.904 57.833 114.196C51.4578 112.488 45.6065 109.592 40.4403 105.591C35.4495 101.726 31.3056 96.9956 28.1221 91.5324C24.9386 86.0692 22.8763 80.1464 21.9926 73.9333C21.9353 73.53 21.8837 73.1281 21.8369 72.7235L21.0317 72.5078C23.1953 92.1763 37.2334 109.478 57.6344 114.945C78.0354 120.411 98.8418 112.446 110.552 96.4946L109.747 96.2789C109.504 96.604 109.258 96.928 109.007 97.2487L109.003 97.2477Z" fill="white"/>
<path d="M31.7611 37.4692C35.6334 32.5285 40.3803 28.4322 45.8689 25.2927C51.3575 22.1532 57.3134 20.1289 63.5663 19.2763C70.0411 18.3931 76.5559 18.8127 82.9311 20.5209C89.3063 22.2291 95.1577 25.125 100.324 29.1254C105.315 32.9908 109.459 37.7213 112.642 43.1845C115.826 48.6477 117.888 54.5706 118.772 60.7836C118.797 60.9604 118.818 61.138 118.841 61.3142L119.654 61.532C117.247 42.1463 103.298 25.176 83.1316 19.7726C62.9658 14.3692 42.4019 22.0916 30.6229 37.6762L31.4355 37.894C31.5439 37.753 31.6508 37.6097 31.7611 37.4692Z" fill="white"/>
<path d="M87.9864 97.5708C84.0432 99.8264 79.7663 101.281 75.2753 101.893C70.6254 102.527 65.946 102.226 61.3673 100.999C56.7886 99.7718 52.5857 97.6917 48.8753 94.8194C45.2905 92.0428 42.3137 88.645 40.0284 84.7205C38.541 82.1679 37.3969 79.4772 36.6039 76.6806L35.7329 76.4473C38.9571 88.3576 48.3172 98.302 61.1673 101.745C74.0174 105.188 87.0956 101.256 95.843 92.5537L94.9721 92.3203C92.8851 94.3453 90.549 96.1034 87.9864 97.5708Z" fill="white"/>
<path d="M52.7759 37.1458C56.7191 34.8903 60.996 33.4361 65.487 32.8234C70.1369 32.1893 74.8163 32.4911 79.395 33.7179C83.9737 34.9448 88.1766 37.025 91.887 39.8973C95.4718 42.6739 98.4486 46.0716 100.734 49.9961C102.094 52.3307 103.167 54.7823 103.948 57.3236L104.828 57.5595C101.429 45.9642 92.1898 36.3443 79.5936 32.9691C66.9975 29.594 54.186 33.3055 45.4444 41.6476L46.3248 41.8835C48.2735 40.0736 50.4267 38.4864 52.7722 37.1448L52.7759 37.1458Z" fill="white"/>
<path d="M98.8154 100.776L99.6624 101.663L103.599 97.9658L102.754 97.0793L101.288 98.4548L97.8528 94.8501L96.8476 95.7948L100.281 99.4008L98.8154 100.776Z" fill="white"/>
<path d="M97.2543 99.702C96.179 98.1619 94.2216 97.8374 92.6363 98.9227C91.0511 100.008 90.6681 101.941 91.7434 103.482C92.8187 105.022 94.7762 105.346 96.3614 104.261C97.9452 103.173 98.3296 101.242 97.2543 99.702ZM95.6458 103.237C94.7193 103.873 93.5525 103.66 92.8826 102.699C92.217 101.744 92.4223 100.579 93.3506 99.9441C94.277 99.3083 95.448 99.528 96.1137 100.482C96.784 101.442 96.5741 102.602 95.6458 103.237Z" fill="white"/>
<path d="M87.3121 102.156C85.4483 103.017 84.8346 104.69 85.6149 106.346C86.3952 108.001 88.0897 108.615 89.9539 107.752L92.1352 106.745L89.4939 101.147L87.3126 102.154L87.3121 102.156ZM89.4107 106.657C88.3338 107.154 87.3791 106.842 86.8715 105.764C86.3621 104.686 86.737 103.768 87.8139 103.271L88.7595 102.834L90.3564 106.22L89.4107 106.657Z" fill="white"/>
<path d="M83.1293 103.884L83.0551 105.154L80.7461 105.825L79.9871 104.798L78.5028 105.228L82.5795 110.481L83.9614 110.079L84.5046 103.484L83.1293 103.884ZM81.499 106.853L82.9899 106.421L82.8605 108.702L81.4985 106.855L81.499 106.853Z" fill="white"/>
<path d="M77.4359 105.312L76.0666 105.531L76.3846 107.444L74.7832 111.992L76.2348 111.758L77.2242 108.645L79.1773 111.289L80.742 111.04L77.7539 107.225L77.4359 105.312Z" fill="white"/>
<path d="M68.3462 105.691C66.6242 105.593 65.3146 106.688 65.0578 107.918L66.4599 107.997C66.5961 107.444 67.3583 106.902 68.2499 106.953C69.376 107.017 70.1708 107.896 70.1107 109.038C70.0506 110.188 69.1688 110.965 68.0408 110.901C67.1492 110.85 66.5419 110.347 66.4281 109.749L65.026 109.669C65.208 110.984 66.2962 112.07 68.0026 112.165C69.9133 112.273 71.3962 110.982 71.4954 109.115C71.5946 107.247 70.2568 105.799 68.3457 105.693L68.3462 105.691Z" fill="white"/>
<path d="M63.3337 105.248L62.7854 107.693L60.1063 107.089L60.6541 104.646L59.3003 104.341L57.9479 110.359L59.3036 110.664L59.8378 108.279L62.5193 108.882L61.9827 111.268L63.3365 111.573L64.6894 105.553L63.3337 105.248Z" fill="white"/>
<path d="M56.7869 104.691L54.5451 103.803L54.5834 102.531L53.1438 101.959L53.0998 108.579L54.4413 109.111L58.9671 104.267L57.6331 103.738L56.7855 104.689L56.7869 104.691ZM54.4278 107.355L54.4997 105.07L55.9468 105.644L54.4278 107.355Z" fill="white"/>
<path d="M48.3395 100.566L51.0344 102.104L48.5637 106.396L49.7688 107.083L52.8492 101.734L48.9474 99.5089L48.3395 100.566Z" fill="white"/>
<path d="M44.2467 97.5034L46.7246 99.3694L43.7228 103.311L44.8298 104.146L48.5719 99.2323L44.9864 96.5335L44.2467 97.5034Z" fill="white"/>
<path d="M41.3105 92.9381L40.4639 93.7873L42.8143 96.0991L41.8772 97.0381L39.7665 94.9605L38.92 95.8097L41.0307 97.8873L40.1411 98.777L37.8405 96.5125L36.994 97.3617L40.282 100.599L44.6478 96.2244L41.3105 92.9381Z" fill="white"/>
<path d="M40.029 91.3546L36.9721 93.6056L38.1124 88.921L37.4208 87.9956L32.4375 91.6646L33.2657 92.7725L36.3245 90.522L35.1823 95.2062L35.8758 96.132L40.859 92.4631L40.029 91.3546Z" fill="white"/>
<path d="M35.7998 84.5193C34.9446 82.8501 33.0738 82.2169 31.3945 83.0589L31.0682 83.2235L32.6024 86.2187L33.6485 85.693L32.7869 84.01C33.3963 83.8653 34.2313 84.1951 34.6709 85.0529C35.1829 86.0541 34.8096 87.1761 33.7706 87.6978C32.7383 88.2172 31.6163 87.8446 31.1038 86.8452C30.7611 86.1753 30.8076 85.4978 31.0974 85.0634L30.405 83.7118C29.5284 84.553 29.2466 86.0035 29.9839 87.4432C30.8538 89.1403 32.7245 89.7736 34.4024 88.9291C36.0799 88.0865 36.6692 86.2183 35.7998 84.5193Z" fill="white"/>
<path d="M32.5796 76.7104L31.4348 77.0777L32.4595 80.1984L31.1914 80.6046L30.2691 77.8014L29.1242 78.1686L30.0466 80.9719L28.8419 81.3591L27.8384 78.3021L26.6936 78.6694L28.128 83.0379L34.0352 81.1426L32.5796 76.7104Z" fill="white"/>
<path d="M51.5956 33.3116C53.2423 32.4108 53.8076 30.5342 52.8939 28.8953L52.715 28.5773L49.7615 30.194L50.3303 31.2165L51.9913 30.3075C52.1613 30.9071 51.8617 31.7468 51.0157 32.2102C50.0284 32.7497 48.8841 32.4151 48.3176 31.3992C47.7552 30.3905 48.085 29.2648 49.0723 28.7253C49.7317 28.364 50.4164 28.3894 50.8651 28.6637L52.1995 27.9352C51.3206 27.0917 49.8496 26.8555 48.4295 27.633C46.7566 28.5489 46.1913 30.4255 47.105 32.0644C48.0188 33.7032 49.9217 34.2311 51.5965 33.3158L51.5956 33.3116Z" fill="white"/>
<path d="M57.8293 30.5819C59.4451 30.0368 60.147 28.5988 59.5749 26.9415L58.4492 23.6857L57.1371 24.1282L58.2627 27.3839C58.5855 28.3164 58.2808 29.1148 57.4228 29.405C56.5648 29.6951 55.8302 29.2462 55.5075 28.3137L54.3818 25.058L53.0696 25.5004L54.1953 28.7562C54.7674 30.4135 56.2139 31.1251 57.8293 30.5819Z" fill="white"/>
<path d="M62.2772 24.155L63.1284 29.0372L64.4945 28.8073L63.6433 23.925L65.6361 23.5909L65.426 22.3886L60.0762 23.2872L60.2844 24.489L62.2772 24.155Z" fill="white"/>
<path d="M70.9389 28.3461L71.1466 24.9676L72.4395 27.4261L73.2777 27.4807L74.8622 25.2092L74.6527 28.5871L76.0381 28.6764L76.4199 22.5184L75.3161 22.4467L72.964 25.7546L71.0377 22.1683L69.9339 22.0965L69.5535 28.2569L70.9389 28.3461Z" fill="white"/>
<path d="M80.0294 29.7778C81.8986 30.2587 83.6223 29.2885 84.0875 27.477C84.5546 25.6661 83.5136 23.9831 81.6444 23.5023C79.7751 23.0214 78.0514 23.9916 77.5862 25.803C77.1191 27.614 78.1602 29.297 80.0294 29.7778ZM81.336 24.7057C82.4301 24.9869 83.0349 26.0029 82.7446 27.1312C82.4564 28.252 81.4337 28.856 80.3396 28.5749C79.2455 28.2937 78.6427 27.2702 78.931 26.1494C79.2212 25.0211 80.2419 24.4245 81.336 24.7057Z" fill="white"/>
<path d="M86.1382 29.5986L87.149 30.0474L87.4575 32.3122L88.928 32.9642L88.5165 30.3539C89.3246 30.3404 89.9599 29.9106 90.3068 29.1355C90.8294 27.9675 90.3251 26.8323 88.8818 26.1916L86.5951 25.1768L84.078 30.8086L85.3463 31.3725L86.1405 29.5972L86.1382 29.5986ZM87.3633 26.8547L88.3253 27.2825C88.9937 27.5796 89.273 28.0424 89.0337 28.5744C88.7963 29.1068 88.2645 29.2103 87.5961 28.9132L86.634 28.4854L87.3633 26.8547Z" fill="white"/>
<path d="M92.7425 30.8804L93.2904 35.6754L94.2593 36.311L97.6668 31.1638L96.5057 30.4027L94.4155 33.5607L93.8695 28.7662L92.8988 28.1301L89.4913 33.2773L90.6523 34.0385L92.7425 30.8804Z" fill="white"/>
<path d="M99.101 32.4868L95.0878 37.186L96.1477 38.0799L100.161 33.3807L99.101 32.4868Z" fill="white"/>
<path d="M98.0303 39.8073L100.825 37.2419L100.199 42.0225L100.986 42.8694L105.54 38.6893L104.596 37.6744L101.802 40.2398L102.429 35.4598L101.64 34.6123L97.086 38.7942L98.0303 39.8073Z" fill="white"/>
<path d="M103.13 46.3963C104.149 47.9734 106.072 48.4187 107.656 47.413L107.965 47.2177L106.138 44.3881L105.149 45.0153L106.177 46.6066C105.586 46.8103 104.722 46.5667 104.199 45.7547C103.59 44.8093 103.847 43.6542 104.83 43.0335C105.804 42.4145 106.958 42.6738 107.568 43.6192C107.977 44.2509 107.999 44.9307 107.754 45.3913L108.58 46.6684C109.367 45.7454 109.502 44.2734 108.624 42.9141C107.59 41.3109 105.665 40.8651 104.081 41.8708C102.497 42.8764 102.098 44.7936 103.132 46.3968L103.13 46.3963Z" fill="white"/>
<path d="M20.031 56.0466C20.6027 56.3058 21.2146 56.5278 21.8711 56.7037C21.873 56.7042 21.8767 56.7052 21.8786 56.7057C22.1326 56.7738 22.3853 56.8315 22.6362 56.8807C26.3165 57.6229 29.4957 56.4806 31.2629 53.828C31.7455 53.1033 32.1248 52.2669 32.3773 51.3245C32.6298 50.3821 32.7165 49.4793 32.6605 48.6123C32.4888 45.9722 30.9523 43.7304 28.3914 42.3622C28.1656 42.2417 27.9322 42.1271 27.6906 42.0204C27.1536 41.7825 26.5786 41.5804 25.9673 41.4166C25.9146 41.4025 25.8614 41.3902 25.8083 41.378C24.7075 41.0991 23.6473 40.985 22.6476 41.0291C19.147 41.1812 16.4101 43.2539 15.4616 46.7939C14.6695 49.7499 15.4555 52.4225 17.4372 54.3196C18.1526 55.0053 19.0226 55.5885 20.031 56.0466ZM23.6407 45.4794C24.0266 45.4688 24.4273 45.5161 24.8392 45.6265C25.1101 45.6991 25.3646 45.7953 25.6004 45.9085C25.8419 46.0232 26.065 46.161 26.2653 46.3166C27.2838 47.1056 27.7463 48.3816 27.3203 49.9715C26.8078 51.8842 25.4097 52.7677 23.7734 52.6292C23.5211 52.6076 23.2625 52.5644 23.001 52.4943C22.2994 52.3063 21.7065 51.9754 21.2613 51.5301C20.4663 50.7351 20.1404 49.5657 20.52 48.1493C20.9875 46.4045 22.1929 45.5175 23.6426 45.4799L23.6407 45.4794Z" fill="white"/>
<path d="M35.4226 64.1431L37.4129 64.6763L42.3401 46.2878L42.4691 45.8063L41.8558 45.642L37.3824 44.4434L32.3262 63.3134L34.6626 63.9394L35.4226 64.1431Z" fill="white"/>
<path d="M34.5222 66.1418L28.4028 64.5021L21.7229 62.7122L20.9648 62.5091L19.3357 62.0726L20.5118 57.6835L19.7292 57.4739L16.9037 56.7168L15.3348 56.2964L12.9427 65.2238L15.8849 66.0122L18.7875 66.7899L20.7382 67.3126L21.5151 67.5208L27.1868 69.0405L34.7151 71.0577L35.5221 71.2739L35.9981 71.4015L37.2141 66.8631L35.2953 66.349L34.5222 66.1418Z" fill="white"/>
<path d="M68.1344 64.3962L42.1294 57.4282L41.0894 61.3097L67.0943 68.2777L68.1344 64.3962Z" fill="white"/>
<path d="M66.4482 62.9839L68.5397 59.5122L59.5167 55.1424C59.663 54.9576 59.8013 54.8027 59.9175 54.6098L68.5557 56.9244L69.5877 53.0728L46.5324 46.8951L45.5004 50.7467L54.2289 53.0855C52.2817 53.9718 48.2211 53.7158 44.6234 52.8158L43.5753 56.7272C47.8653 57.8127 52.1145 58.0872 55.3517 57.3226L66.4482 62.9839Z" fill="white"/>
<path d="M53.8199 65.8089C46.8973 63.9539 41.7295 63.9773 40.7455 67.6498C39.7614 71.3223 44.2252 73.9264 51.1478 75.7813C58.0704 77.6362 63.2382 77.6129 64.2222 73.9404C65.2062 70.2679 60.7425 67.6638 53.8199 65.8089ZM52.1558 72.0192C48.4236 71.0192 45.9152 70.0271 46.1632 69.1015C46.4112 68.1759 49.0797 68.5709 52.8119 69.5709C56.544 70.571 59.0445 71.593 58.8045 72.4887C58.5645 73.3844 55.888 73.0193 52.1558 72.0192Z" fill="white"/>
<path d="M100.318 61.3073L95.2314 59.9443L90.0472 79.2921L95.1339 80.655L97.4939 71.847L100.444 72.6374L101.716 67.89L98.766 67.0997L100.318 61.3073Z" fill="white"/>
<path d="M89.5085 75.4033L90.5965 71.3427C88.8173 71.602 86.1047 71.1311 83.7269 70.494L84.2069 68.7025C87.776 68.9869 90.3888 67.5429 91.1569 64.6765C92.0849 61.213 89.5547 58.135 84.7089 56.8365C79.863 55.5381 76.1328 56.9387 75.2047 60.4022C74.4367 63.2685 75.9855 65.7956 79.1805 67.3557L78.7005 69.1472L72.7109 67.5423L71.6229 71.6029L82.5184 74.5224C85.0768 75.2079 87.7293 75.6626 89.5085 75.4033ZM80.1409 61.7248C80.4609 60.5305 81.8206 60.0308 83.7168 60.5389C85.613 61.047 86.5407 62.1596 86.2207 63.3539C85.9007 64.5482 84.541 65.0479 82.6448 64.5398C80.7486 64.0317 79.8209 62.9191 80.1409 61.7248Z" fill="white"/>
<path d="M77.9607 74.6774L72.8138 73.2983L70.8218 80.7329L93.847 86.9025L94.991 82.6328L77.1126 77.8423L77.9607 74.6774Z" fill="white"/>
<path d="M120.732 88.2821L118.658 87.7262L119.474 84.6807L123.898 85.8662L125.074 81.4771L106.654 76.5415L107.118 74.8097L125.237 79.6648L127.997 69.3639L104.791 63.1459L103.615 67.535L121.74 72.3915C121.729 72.5085 121.718 72.6255 121.705 72.742L121.331 74.1379L103.212 69.2828L100.451 79.5837L104.545 80.6805L103.729 83.726L98.1906 82.2421L96.9746 86.7804L122.98 93.7485L124.196 89.2101L120.732 88.2821ZM113.573 86.3637L108.817 85.0895L109.633 82.044L114.389 83.3182L113.573 86.3637Z" fill="white"/>
</svg>
