<svg width="392" height="21" viewBox="0 0 392 21" fill="none" xmlns="http://www.w3.org/2000/svg">
<path fill-rule="evenodd" clip-rule="evenodd" d="M20.9168 2.95177C21.1484 3.18591 21.4315 3.30298 21.7661 3.30298C22.0878 3.30298 22.358 3.18591 22.5767 2.95177C22.8084 2.71763 22.9242 2.43146 22.9242 2.09326C22.9242 1.75506 22.8084 1.46889 22.5767 1.23475C22.358 1.00061 22.0878 0.883545 21.7661 0.883545C21.4315 0.883545 21.1484 1.00061 20.9168 1.23475C20.6851 1.46889 20.5693 1.75506 20.5693 2.09326C20.5693 2.43146 20.6851 2.71763 20.9168 2.95177ZM22.6153 15.7319V5.03952H20.8589V15.7319H22.6153ZM36.4954 2.95177C36.727 3.18591 37.0101 3.30298 37.3447 3.30298C37.6664 3.30298 37.9366 3.18591 38.1554 2.95177C38.387 2.71763 38.5028 2.43146 38.5028 2.09326C38.5028 1.75506 38.387 1.46889 38.1554 1.23475C37.9366 1.00061 37.6664 0.883545 37.3447 0.883545C37.0101 0.883545 36.727 1.00061 36.4954 1.23475C36.2638 1.46889 36.1479 1.75506 36.1479 2.09326C36.1479 2.43146 36.2638 2.71763 36.4954 2.95177ZM38.194 15.7319V5.03952H36.4375V15.7319H38.194ZM123.176 2.95177C123.407 3.18591 123.69 3.30298 124.025 3.30298C124.347 3.30298 124.617 3.18591 124.836 2.95177C125.067 2.71763 125.183 2.43146 125.183 2.09326C125.183 1.75506 125.067 1.46889 124.836 1.23475C124.617 1.00061 124.347 0.883545 124.025 0.883545C123.69 0.883545 123.407 1.00061 123.176 1.23475C122.944 1.46889 122.828 1.75506 122.828 2.09326C122.828 2.43146 122.944 2.71763 123.176 2.95177ZM124.874 15.7319V5.03952H123.118V15.7319H124.874ZM365.469 2.95177C365.701 3.18591 365.984 3.30298 366.318 3.30298C366.64 3.30298 366.91 3.18591 367.129 2.95177C367.361 2.71763 367.476 2.43146 367.476 2.09326C367.476 1.75506 367.361 1.46889 367.129 1.23475C366.91 1.00061 366.64 0.883545 366.318 0.883545C365.984 0.883545 365.701 1.00061 365.469 1.23475C365.237 1.46889 365.122 1.75506 365.122 2.09326C365.122 2.43146 365.237 2.71763 365.469 2.95177ZM367.168 15.7319V5.03952H365.411V15.7319H367.168ZM387.674 4.8444C388.962 4.8444 390.004 5.24114 390.803 6.03461C391.601 6.81507 392 7.94674 392 9.42963V15.7319H390.262V9.68328C390.262 8.61664 389.998 7.80366 389.47 7.24433C388.942 6.67199 388.221 6.38582 387.307 6.38582C386.38 6.38582 385.64 6.67849 385.086 7.26384C384.545 7.84919 384.275 8.70119 384.275 9.81986V15.7319H382.518V5.03952H384.275V6.56142C384.623 6.0151 385.093 5.59235 385.685 5.29317C386.29 4.99399 386.953 4.8444 387.674 4.8444ZM374.78 15.9075C373.789 15.9075 372.888 15.6798 372.076 15.2246C371.278 14.7693 370.647 14.1254 370.184 13.2929C369.733 12.4474 369.508 11.4718 369.508 10.3662C369.508 9.27353 369.74 8.31095 370.203 7.47846C370.679 6.63296 371.323 5.98907 372.134 5.54681C372.945 5.09154 373.853 4.8639 374.857 4.8639C375.862 4.8639 376.769 5.09154 377.58 5.54681C378.392 5.98907 379.029 6.62645 379.492 7.45895C379.969 8.29144 380.207 9.26052 380.207 10.3662C380.207 11.4718 379.962 12.4474 379.473 13.2929C378.997 14.1254 378.347 14.7693 377.523 15.2246C376.699 15.6798 375.784 15.9075 374.78 15.9075ZM374.78 14.3465C375.411 14.3465 376.003 14.197 376.557 13.8978C377.111 13.5986 377.555 13.1498 377.889 12.5515C378.237 11.9531 378.411 11.2247 378.411 10.3662C378.411 9.50766 378.243 8.77923 377.909 8.18088C377.574 7.58252 377.136 7.14026 376.596 6.85409C376.055 6.55491 375.469 6.40532 374.838 6.40532C374.194 6.40532 373.602 6.55491 373.061 6.85409C372.533 7.14026 372.109 7.58252 371.787 8.18088C371.465 8.77923 371.304 9.50766 371.304 10.3662C371.304 11.2377 371.458 11.9726 371.767 12.571C372.089 13.1693 372.514 13.6181 373.042 13.9173C373.57 14.2035 374.149 14.3465 374.78 14.3465ZM360.52 6.50288V12.8051C360.52 13.3254 360.63 13.6962 360.849 13.9173C361.067 14.1254 361.447 14.2295 361.988 14.2295H363.282V15.7319H361.698C360.72 15.7319 359.986 15.5042 359.497 15.049C359.007 14.5937 358.763 13.8457 358.763 12.8051V6.50288H357.392V5.03951H358.763V2.34691H360.52V5.03951H363.282V6.50288H360.52ZM355.409 15.7319V5.03951H353.652V10.9125C353.652 12.0312 353.381 12.8832 352.841 13.4685C352.3 14.0539 351.56 14.3465 350.62 14.3465C349.706 14.3465 348.985 14.0669 348.457 13.5075C347.929 12.9352 347.665 12.1222 347.665 11.0686V5.03951H345.927V11.3027C345.927 12.2913 346.113 13.1303 346.487 13.8197C346.873 14.5091 347.395 15.0294 348.051 15.3807C348.708 15.7189 349.448 15.888 350.272 15.888C350.993 15.888 351.65 15.7384 352.242 15.4392C352.847 15.127 353.317 14.6978 353.652 14.1514V15.7319H355.409ZM343.027 1.29329V15.7319H341.271V1.29329H343.027ZM330.829 15.2246C331.64 15.6798 332.542 15.9075 333.533 15.9075C334.537 15.9075 335.451 15.6798 336.275 15.2246C337.099 14.7693 337.75 14.1254 338.226 13.2929C338.715 12.4474 338.96 11.4718 338.96 10.3662C338.96 9.26052 338.722 8.29144 338.245 7.45895C337.782 6.62645 337.145 5.98907 336.333 5.54681C335.522 5.09154 334.615 4.8639 333.61 4.8639C332.606 4.8639 331.698 5.09154 330.887 5.54681C330.076 5.98907 329.432 6.63296 328.956 7.47846C328.492 8.31095 328.261 9.27353 328.261 10.3662C328.261 11.4718 328.486 12.4474 328.937 13.2929C329.4 14.1254 330.031 14.7693 330.829 15.2246ZM335.31 13.8978C334.756 14.197 334.164 14.3465 333.533 14.3465C332.902 14.3465 332.323 14.2035 331.795 13.9173C331.267 13.6181 330.842 13.1693 330.52 12.571C330.211 11.9726 330.057 11.2377 330.057 10.3662C330.057 9.50766 330.218 8.77923 330.54 8.18088C330.861 7.58252 331.286 7.14026 331.814 6.85409C332.355 6.55491 332.947 6.40532 333.591 6.40532C334.222 6.40532 334.808 6.55491 335.348 6.85409C335.889 7.14026 336.327 7.58252 336.662 8.18088C336.996 8.77923 337.164 9.50766 337.164 10.3662C337.164 11.2247 336.99 11.9531 336.642 12.5515C336.308 13.1498 335.863 13.5986 335.31 13.8978ZM321.851 15.8685C320.963 15.8685 320.164 15.7124 319.456 15.4002C318.761 15.075 318.214 14.6327 317.815 14.0734C317.416 13.501 317.21 12.8442 317.197 12.1027H319.07C319.134 12.7401 319.392 13.2799 319.843 13.7222C320.306 14.1514 320.976 14.3661 321.851 14.3661C322.688 14.3661 323.345 14.1579 323.821 13.7417C324.31 13.3124 324.555 12.7661 324.555 12.1027C324.555 11.5824 324.413 11.1597 324.13 10.8345C323.847 10.5093 323.493 10.2621 323.068 10.093C322.643 9.92392 322.07 9.74181 321.349 9.54669C320.461 9.31255 319.746 9.07842 319.205 8.84428C318.677 8.61014 318.22 8.24592 317.834 7.75163C317.461 7.24433 317.274 6.56792 317.274 5.72242C317.274 4.98098 317.461 4.32409 317.834 3.75175C318.207 3.17941 318.729 2.73715 319.398 2.42496C320.081 2.11278 320.86 1.95668 321.735 1.95668C322.997 1.95668 324.027 2.27537 324.825 2.91275C325.636 3.55013 326.093 4.39563 326.196 5.44926H324.265C324.201 4.92895 323.93 4.47368 323.454 4.08345C322.978 3.68021 322.347 3.47859 321.561 3.47859C320.828 3.47859 320.229 3.6737 319.765 4.06393C319.302 4.44116 319.07 4.97448 319.07 5.66389C319.07 6.15818 319.205 6.56142 319.476 6.87361C319.759 7.18579 320.1 7.42643 320.499 7.59553C320.911 7.75163 321.484 7.93374 322.218 8.14186C323.106 8.38901 323.821 8.63615 324.362 8.8833C324.903 9.11744 325.366 9.48816 325.752 9.99546C326.139 10.4898 326.332 11.1662 326.332 12.0247C326.332 12.6881 326.158 13.3124 325.81 13.8978C325.463 14.4831 324.948 14.9579 324.265 15.3221C323.583 15.6863 322.778 15.8685 321.851 15.8685ZM307.543 12.8051V6.50288H310.305V5.03951H307.543V2.34691H305.786V5.03951H304.415V6.50288H305.786V12.8051C305.786 13.8457 306.03 14.5937 306.52 15.049C307.009 15.5042 307.743 15.7319 308.721 15.7319H310.305V14.2295H309.011C308.47 14.2295 308.09 14.1254 307.872 13.9173C307.653 13.6962 307.543 13.3254 307.543 12.8051ZM298.202 4.8444C299.49 4.8444 300.533 5.24114 301.331 6.03461C302.129 6.81507 302.528 7.94674 302.528 9.42963V15.7319H300.79V9.68328C300.79 8.61664 300.526 7.80366 299.998 7.24433C299.471 6.67199 298.75 6.38582 297.835 6.38582C296.908 6.38582 296.168 6.67849 295.614 7.26384C295.074 7.84919 294.803 8.70119 294.803 9.81986V15.7319H293.046V5.03952H294.803V6.56142C295.151 6.0151 295.621 5.59235 296.213 5.29317C296.818 4.99399 297.481 4.8444 298.202 4.8444ZM290.668 11.0491C290.707 10.6719 290.726 10.3141 290.726 9.97594C290.726 9.00036 290.514 8.12884 290.089 7.36139C289.677 6.58092 289.084 5.96956 288.312 5.5273C287.539 5.08504 286.651 4.8639 285.647 4.8639C284.617 4.8639 283.703 5.09154 282.904 5.54681C282.119 5.98907 281.507 6.62645 281.07 7.45895C280.632 8.29144 280.413 9.26052 280.413 10.3662C280.413 11.4718 280.638 12.4474 281.089 13.2929C281.54 14.1254 282.158 14.7693 282.943 15.2246C283.741 15.6798 284.643 15.9075 285.647 15.9075C286.909 15.9075 287.964 15.5888 288.814 14.9514C289.664 14.301 290.23 13.462 290.514 12.4344H288.621C288.415 13.0328 288.054 13.514 287.539 13.8783C287.037 14.2295 286.406 14.4051 285.647 14.4051C284.72 14.4051 283.928 14.1124 283.271 13.5271C282.628 12.9287 282.274 12.1027 282.209 11.0491H290.668ZM288.466 7.86869C288.763 8.34998 288.911 8.92882 288.911 9.60522H282.228C282.319 8.59062 282.673 7.79715 283.291 7.22481C283.922 6.65247 284.681 6.3663 285.57 6.3663C286.188 6.3663 286.748 6.49638 287.25 6.75653C287.765 7.00368 288.17 7.3744 288.466 7.86869ZM273.9 4.8444C274.724 4.8444 275.458 5.02001 276.102 5.37121C276.745 5.70942 277.254 6.22322 277.627 6.91263C278.001 7.60204 278.187 8.44104 278.187 9.42963V15.7319H276.449V9.68328C276.449 8.61664 276.185 7.80366 275.657 7.24433C275.142 6.67199 274.441 6.38582 273.552 6.38582C272.638 6.38582 271.911 6.68499 271.37 7.28335C270.829 7.8687 270.559 8.7207 270.559 9.83937V15.7319H268.821V9.68328C268.821 8.61664 268.557 7.80366 268.029 7.24433C267.514 6.67199 266.812 6.38582 265.924 6.38582C265.01 6.38582 264.282 6.68499 263.741 7.28335C263.201 7.8687 262.93 8.7207 262.93 9.83937V15.7319H261.173V5.03952H262.93V6.58093C263.278 6.0216 263.741 5.59235 264.321 5.29317C264.913 4.99399 265.563 4.8444 266.271 4.8444C267.16 4.8444 267.945 5.04602 268.628 5.44926C269.31 5.8525 269.818 6.44435 270.153 7.22482C270.449 6.47037 270.939 5.88502 271.621 5.46877C272.303 5.05252 273.063 4.8444 273.9 4.8444ZM258.794 11.0491C258.833 10.6719 258.852 10.3141 258.852 9.97594C258.852 9.00036 258.64 8.12884 258.215 7.36139C257.803 6.58092 257.211 5.96956 256.438 5.5273C255.666 5.08504 254.777 4.8639 253.773 4.8639C252.743 4.8639 251.829 5.09154 251.031 5.54681C250.245 5.98907 249.634 6.62645 249.196 7.45895C248.758 8.29144 248.54 9.26052 248.54 10.3662C248.54 11.4718 248.765 12.4474 249.215 13.2929C249.666 14.1254 250.284 14.7693 251.069 15.2246C251.868 15.6798 252.769 15.9075 253.773 15.9075C255.035 15.9075 256.091 15.5888 256.94 14.9514C257.79 14.301 258.357 13.462 258.64 12.4344H256.747C256.541 13.0328 256.181 13.514 255.666 13.8783C255.164 14.2295 254.533 14.4051 253.773 14.4051C252.846 14.4051 252.054 14.1124 251.398 13.5271C250.754 12.9287 250.4 12.1027 250.336 11.0491H258.794ZM256.593 7.86869C256.889 8.34998 257.037 8.92882 257.037 9.60522H250.355C250.445 8.59062 250.799 7.79715 251.417 7.22481C252.048 6.65247 252.808 6.3663 253.696 6.3663C254.314 6.3663 254.874 6.49638 255.376 6.75653C255.891 7.00368 256.297 7.3744 256.593 7.86869ZM240.51 4.8639C241.424 4.8639 242.222 5.06552 242.905 5.46876C243.6 5.872 244.115 6.37931 244.45 6.99067V5.03951H246.227V15.966C246.227 16.9416 246.021 17.8066 245.609 18.561C245.197 19.3285 244.604 19.9269 243.832 20.3561C243.072 20.7854 242.184 21 241.167 21C239.776 21 238.617 20.6683 237.69 20.0049C236.763 19.3415 236.216 18.4375 236.049 17.2928H237.787C237.98 17.9432 238.379 18.4635 238.984 18.8537C239.589 19.257 240.317 19.4586 241.167 19.4586C242.132 19.4586 242.918 19.1529 243.523 18.5415C244.141 17.9302 244.45 17.0717 244.45 15.966V13.7222C244.102 14.3465 243.587 14.8668 242.905 15.2831C242.222 15.6993 241.424 15.9075 240.51 15.9075C239.57 15.9075 238.714 15.6733 237.941 15.2051C237.182 14.7368 236.583 14.0799 236.145 13.2344C235.708 12.3889 235.489 11.4263 235.489 10.3467C235.489 9.25401 235.708 8.29795 236.145 7.47846C236.583 6.64596 237.182 6.00208 237.941 5.54681C238.714 5.09154 239.57 4.8639 240.51 4.8639ZM244.45 10.3662C244.45 9.5597 244.289 8.85728 243.967 8.25892C243.645 7.66057 243.207 7.2053 242.654 6.89311C242.113 6.56792 241.514 6.40532 240.858 6.40532C240.201 6.40532 239.602 6.56141 239.062 6.8736C238.521 7.18578 238.09 7.64106 237.768 8.23941C237.446 8.83777 237.285 9.54018 237.285 10.3467C237.285 11.1662 237.446 11.8816 237.768 12.4929C238.09 13.0913 238.521 13.5531 239.062 13.8783C239.602 14.1904 240.201 14.3465 240.858 14.3465C241.514 14.3465 242.113 14.1904 242.654 13.8783C243.207 13.5531 243.645 13.0913 243.967 12.4929C244.289 11.8816 244.45 11.1727 244.45 10.3662ZM223.094 7.47846C222.656 8.29795 222.438 9.25401 222.438 10.3467C222.438 11.4263 222.656 12.3889 223.094 13.2344C223.532 14.0799 224.131 14.7368 224.89 15.2051C225.65 15.6733 226.5 15.9075 227.439 15.9075C228.354 15.9075 229.152 15.7058 229.834 15.3026C230.529 14.8864 231.051 14.3661 231.399 13.7417V15.7319H233.175V5.03951H231.399V6.99067C231.064 6.37931 230.555 5.872 229.873 5.46876C229.19 5.06552 228.386 4.8639 227.459 4.8639C226.519 4.8639 225.663 5.09154 224.89 5.54681C224.131 6.00208 223.532 6.64596 223.094 7.47846ZM230.916 8.25892C231.238 8.85728 231.399 9.5597 231.399 10.3662C231.399 11.1727 231.238 11.8816 230.916 12.4929C230.594 13.0913 230.156 13.5531 229.602 13.8783C229.062 14.1904 228.463 14.3465 227.806 14.3465C227.15 14.3465 226.551 14.1904 226.01 13.8783C225.47 13.5531 225.038 13.0913 224.716 12.4929C224.395 11.8816 224.234 11.1662 224.234 10.3467C224.234 9.54018 224.395 8.83777 224.716 8.23941C225.038 7.64106 225.47 7.18578 226.01 6.8736C226.551 6.56141 227.15 6.40532 227.806 6.40532C228.463 6.40532 229.062 6.56792 229.602 6.89311C230.156 7.2053 230.594 7.66057 230.916 8.25892ZM215.898 4.8444C217.185 4.8444 218.228 5.24114 219.026 6.03461C219.825 6.81507 220.224 7.94674 220.224 9.42963V15.7319H218.486V9.68328C218.486 8.61664 218.222 7.80366 217.694 7.24433C217.166 6.67199 216.445 6.38582 215.531 6.38582C214.604 6.38582 213.863 6.67849 213.31 7.26384C212.769 7.84919 212.499 8.70119 212.499 9.81986V15.7319H210.741V5.03952H212.499V6.56142C212.846 6.0151 213.316 5.59235 213.908 5.29317C214.514 4.99399 215.177 4.8444 215.898 4.8444ZM197.69 7.47846C197.252 8.29795 197.033 9.25401 197.033 10.3467C197.033 11.4263 197.252 12.3889 197.69 13.2344C198.128 14.0799 198.726 14.7368 199.486 15.2051C200.246 15.6733 201.095 15.9075 202.035 15.9075C202.949 15.9075 203.748 15.7058 204.43 15.3026C205.125 14.8864 205.647 14.3661 205.994 13.7417V15.7319H207.771V5.03951H205.994V6.99067C205.66 6.37931 205.151 5.872 204.469 5.46876C203.786 5.06552 202.981 4.8639 202.054 4.8639C201.115 4.8639 200.258 5.09154 199.486 5.54681C198.726 6.00208 198.128 6.64596 197.69 7.47846ZM205.511 8.25892C205.833 8.85728 205.994 9.5597 205.994 10.3662C205.994 11.1727 205.833 11.8816 205.511 12.4929C205.19 13.0913 204.752 13.5531 204.198 13.8783C203.657 14.1904 203.059 14.3465 202.402 14.3465C201.745 14.3465 201.147 14.1904 200.606 13.8783C200.065 13.5531 199.634 13.0913 199.312 12.4929C198.99 11.8816 198.829 11.1662 198.829 10.3467C198.829 9.54018 198.99 8.83777 199.312 8.23941C199.634 7.64106 200.065 7.18578 200.606 6.8736C201.147 6.56141 201.745 6.40532 202.402 6.40532C203.059 6.40532 203.657 6.56792 204.198 6.89311C204.752 7.2053 205.19 7.66057 205.511 8.25892ZM194.709 2.22984V15.7319H192.952V5.66388L188.51 15.7319H187.274L182.813 5.64437V15.7319H181.055V2.22984H182.948L187.892 13.3905L192.836 2.22984H194.709ZM173.529 11.0491C173.568 10.6719 173.587 10.3141 173.587 9.97594C173.587 9.00036 173.374 8.12884 172.95 7.36139C172.538 6.58092 171.945 5.96956 171.173 5.5273C170.4 5.08504 169.512 4.8639 168.508 4.8639C167.478 4.8639 166.564 5.09154 165.765 5.54681C164.98 5.98907 164.368 6.62645 163.931 7.45895C163.493 8.29144 163.274 9.26052 163.274 10.3662C163.274 11.4718 163.499 12.4474 163.95 13.2929C164.4 14.1254 165.018 14.7693 165.804 15.2246C166.602 15.6798 167.503 15.9075 168.508 15.9075C169.769 15.9075 170.825 15.5888 171.675 14.9514C172.525 14.301 173.091 13.462 173.374 12.4344H171.482C171.276 13.0328 170.915 13.514 170.4 13.8783C169.898 14.2295 169.267 14.4051 168.508 14.4051C167.581 14.4051 166.789 14.1124 166.132 13.5271C165.488 12.9287 165.134 12.1027 165.07 11.0491H173.529ZM171.327 7.86869C171.623 8.34998 171.771 8.92882 171.771 9.60522H165.089C165.179 8.59062 165.533 7.79715 166.152 7.22481C166.782 6.65247 167.542 6.3663 168.43 6.3663C169.048 6.3663 169.608 6.49638 170.111 6.75653C170.626 7.00368 171.031 7.3744 171.327 7.86869ZM151.543 10.3662C151.543 9.26052 151.762 8.29795 152.2 7.47846C152.637 6.64596 153.242 6.00208 154.015 5.54681C154.8 5.09154 155.695 4.8639 156.699 4.8639C158 4.8639 159.068 5.18259 159.905 5.81997C160.755 6.45735 161.315 7.34188 161.586 8.47355H159.693C159.513 7.82316 159.159 7.30936 158.631 6.93213C158.116 6.55491 157.472 6.3663 156.699 6.3663C155.695 6.3663 154.884 6.71751 154.266 7.41992C153.648 8.10933 153.339 9.09142 153.339 10.3662C153.339 11.6539 153.648 12.649 154.266 13.3514C154.884 14.0539 155.695 14.4051 156.699 14.4051C157.472 14.4051 158.116 14.223 158.631 13.8588C159.146 13.4945 159.5 12.9742 159.693 12.2978H161.586C161.302 13.3905 160.736 14.2685 159.886 14.9319C159.036 15.5823 157.974 15.9075 156.699 15.9075C155.695 15.9075 154.8 15.6798 154.015 15.2246C153.242 14.7693 152.637 14.1254 152.2 13.2929C151.762 12.4604 151.543 11.4848 151.543 10.3662ZM148.132 6.03461C147.334 5.24114 146.291 4.8444 145.003 4.8444C144.282 4.8444 143.619 4.99399 143.014 5.29317C142.422 5.59235 141.952 6.0151 141.604 6.56142V5.03952H139.847V15.7319H141.604V9.81986C141.604 8.70119 141.874 7.84919 142.415 7.26384C142.969 6.67849 143.709 6.38582 144.636 6.38582C145.55 6.38582 146.271 6.67199 146.799 7.24433C147.327 7.80366 147.591 8.61664 147.591 9.68328V15.7319H149.329V9.42963C149.329 7.94674 148.93 6.81507 148.132 6.03461ZM137.527 9.97594C137.527 10.3141 137.507 10.6719 137.469 11.0491H129.01C129.074 12.1027 129.428 12.9287 130.072 13.5271C130.729 14.1124 131.521 14.4051 132.448 14.4051C133.207 14.4051 133.838 14.2295 134.34 13.8783C134.855 13.514 135.216 13.0328 135.422 12.4344H137.314C137.031 13.462 136.465 14.301 135.615 14.9514C134.765 15.5888 133.709 15.9075 132.448 15.9075C131.443 15.9075 130.542 15.6798 129.744 15.2246C128.958 14.7693 128.34 14.1254 127.89 13.2929C127.439 12.4474 127.214 11.4718 127.214 10.3662C127.214 9.26052 127.433 8.29144 127.87 7.45895C128.308 6.62645 128.92 5.98907 129.705 5.54681C130.503 5.09154 131.418 4.8639 132.448 4.8639C133.452 4.8639 134.34 5.08504 135.113 5.5273C135.885 5.96956 136.477 6.58092 136.889 7.36139C137.314 8.12884 137.527 9.00036 137.527 9.97594ZM135.711 9.60522C135.711 8.92882 135.563 8.34998 135.267 7.86869C134.971 7.3744 134.566 7.00368 134.051 6.75653C133.548 6.49638 132.988 6.3663 132.37 6.3663C131.482 6.3663 130.722 6.65247 130.091 7.22481C129.473 7.79715 129.119 8.59062 129.029 9.60522H135.711ZM117.671 6.77605C117.98 6.16469 118.418 5.6899 118.984 5.3517C119.564 5.0135 120.265 4.8444 121.089 4.8444V6.67849H120.626C118.656 6.67849 117.671 7.75813 117.671 9.91742V15.7319H115.914V5.03952H117.671V6.77605ZM113.536 11.0491C113.574 10.6719 113.594 10.3141 113.594 9.97594C113.594 9.00036 113.381 8.12884 112.956 7.36139C112.544 6.58092 111.952 5.96956 111.18 5.5273C110.407 5.08504 109.519 4.8639 108.514 4.8639C107.484 4.8639 106.57 5.09154 105.772 5.54681C104.987 5.98907 104.375 6.62645 103.937 7.45895C103.5 8.29144 103.281 9.26052 103.281 10.3662C103.281 11.4718 103.506 12.4474 103.957 13.2929C104.407 14.1254 105.025 14.7693 105.811 15.2246C106.609 15.6798 107.51 15.9075 108.514 15.9075C109.776 15.9075 110.832 15.5888 111.682 14.9514C112.532 14.301 113.098 13.462 113.381 12.4344H111.489C111.283 13.0328 110.922 13.514 110.407 13.8783C109.905 14.2295 109.274 14.4051 108.514 14.4051C107.587 14.4051 106.796 14.1124 106.139 13.5271C105.495 12.9287 105.141 12.1027 105.077 11.0491H113.536ZM111.334 7.86869C111.63 8.34998 111.778 8.92882 111.778 9.60522H105.096C105.186 8.59062 105.54 7.79715 106.158 7.22481C106.789 6.65247 107.549 6.3663 108.437 6.3663C109.055 6.3663 109.615 6.49638 110.117 6.75653C110.632 7.00368 111.038 7.3744 111.334 7.86869ZM92.6437 7.01018C92.9913 6.39882 93.5063 5.89151 94.1887 5.48828C94.8839 5.07203 95.6886 4.8639 96.6028 4.8639C97.5426 4.8639 98.3924 5.09154 99.152 5.54681C99.9245 6.00208 100.53 6.64596 100.967 7.47846C101.405 8.29795 101.624 9.25401 101.624 10.3467C101.624 11.4263 101.405 12.3889 100.967 13.2344C100.53 14.0799 99.9245 14.7368 99.152 15.2051C98.3924 15.6733 97.5426 15.9075 96.6028 15.9075C95.7015 15.9075 94.9032 15.7058 94.208 15.3026C93.5256 14.8864 93.0042 14.3726 92.6437 13.7612V20.8049H90.8862V5.03951H92.6437V7.01018ZM99.828 10.3467C99.828 9.54018 99.667 8.83777 99.3451 8.23941C99.0233 7.64106 98.5855 7.18578 98.0319 6.8736C97.4911 6.56141 96.8924 6.40532 96.2358 6.40532C95.5921 6.40532 94.9934 6.56792 94.4397 6.89311C93.899 7.2053 93.4612 7.66707 93.1265 8.27843C92.8046 8.87679 92.6437 9.5727 92.6437 10.3662C92.6437 11.1727 92.8046 11.8816 93.1265 12.4929C93.4612 13.0913 93.899 13.5531 94.4397 13.8783C94.9934 14.1904 95.5921 14.3465 96.2358 14.3465C96.8924 14.3465 97.4911 14.1904 98.0319 13.8783C98.5855 13.5531 99.0233 13.0913 99.3451 12.4929C99.667 11.8816 99.828 11.1662 99.828 10.3467ZM84.6575 11.7515L87.1681 15.7319H89.1573L85.739 10.3272L89.138 5.03951H87.3033L84.9085 9.00037L82.3979 5.03951H80.4087L83.827 10.4247L80.4087 15.7319H82.2434L84.6575 11.7515ZM73.5006 3.57614V8.12234H78.406V9.58571H73.5006V14.2685H78.9854V15.7319H71.7432V2.11277H78.9854V3.57614H73.5006ZM60.3027 5.46876C59.6204 5.06552 58.8221 4.8639 57.908 4.8639C56.9681 4.8639 56.1119 5.09154 55.3394 5.54681C54.5798 6.00208 53.9811 6.64596 53.5433 7.47846C53.1056 8.29795 52.8867 9.25401 52.8867 10.3467C52.8867 11.4263 53.1056 12.3889 53.5433 13.2344C53.9811 14.0799 54.5798 14.7368 55.3394 15.2051C56.1119 15.6733 56.9681 15.9075 57.908 15.9075C58.8221 15.9075 59.6204 15.6993 60.3027 15.2831C60.9851 14.8668 61.5001 14.3465 61.8478 13.7222V15.966C61.8478 17.0717 61.5388 17.9302 60.9208 18.5415C60.3156 19.1529 59.5303 19.4586 58.5646 19.4586C57.7149 19.4586 56.9874 19.257 56.3823 18.8537C55.7772 18.4635 55.378 17.9432 55.1849 17.2928H53.4468C53.6142 18.4375 54.1614 19.3415 55.0884 20.0049C56.0154 20.6683 57.1741 21 58.5646 21C59.5818 21 60.4701 20.7854 61.2298 20.3561C62.0023 19.9269 62.5945 19.3285 63.0065 18.561C63.4185 17.8066 63.6245 16.9416 63.6245 15.966V5.03951H61.8478V6.99067C61.513 6.37931 60.998 5.872 60.3027 5.46876ZM61.3649 8.25892C61.6868 8.85728 61.8478 9.5597 61.8478 10.3662C61.8478 11.1727 61.6868 11.8816 61.3649 12.4929C61.0431 13.0913 60.6053 13.5531 60.0517 13.8783C59.5109 14.1904 58.9122 14.3465 58.2556 14.3465C57.599 14.3465 57.0003 14.1904 56.4595 13.8783C55.9188 13.5531 55.4875 13.0913 55.1656 12.4929C54.8437 11.8816 54.6828 11.1662 54.6828 10.3467C54.6828 9.54018 54.8437 8.83777 55.1656 8.23941C55.4875 7.64106 55.9188 7.18578 56.4595 6.8736C57.0003 6.56141 57.599 6.40532 58.2556 6.40532C58.9122 6.40532 59.5109 6.56792 60.0517 6.89311C60.6053 7.2053 61.0431 7.66057 61.3649 8.25892ZM46.3464 4.8444C47.6339 4.8444 48.6768 5.24114 49.475 6.03461C50.2733 6.81507 50.6724 7.94674 50.6724 9.42963V15.7319H48.9343V9.68328C48.9343 8.61664 48.6703 7.80366 48.1425 7.24433C47.6146 6.67199 46.8936 6.38582 45.9795 6.38582C45.0525 6.38582 44.3121 6.67849 43.7585 7.26384C43.2178 7.84919 42.9474 8.70119 42.9474 9.81986V15.7319H41.1899V5.03952H42.9474V6.56142C43.295 6.0151 43.765 5.59235 44.3572 5.29317C44.9623 4.99399 45.6254 4.8444 46.3464 4.8444ZM29.551 14.0929L32.8342 5.03951H34.7075L30.5553 15.7319H28.5082L24.356 5.03951H26.2486L29.551 14.0929ZM15.4117 6.77605C15.7207 6.16469 16.1585 5.6899 16.725 5.3517C17.3044 5.0135 18.0061 4.8444 18.8301 4.8444V6.67849H18.3666C16.3967 6.67849 15.4117 7.75813 15.4117 9.91742V15.7319H13.6543V5.03952H15.4117V6.77605ZM7.99541 2.97129C6.92678 2.41196 5.65859 2.13229 4.19083 2.13229H0V15.7319H4.19083C5.65859 15.7319 6.92678 15.4652 7.99541 14.9319C9.07692 14.3856 9.90092 13.6051 10.4674 12.5905C11.0468 11.5629 11.3365 10.3532 11.3365 8.96135C11.3365 7.56952 11.0468 6.3598 10.4674 5.33219C9.90092 4.30458 9.07692 3.51761 7.99541 2.97129ZM8.16923 12.8832C7.2551 13.8067 5.92897 14.2685 4.19083 14.2685H1.75745V3.57615H4.19083C5.91609 3.57615 7.23578 4.05093 8.14991 5.0005C9.07692 5.95006 9.54042 7.27034 9.54042 8.96135C9.54042 10.6393 9.08335 11.9466 8.16923 12.8832Z" fill="#999999"/>
</svg>
