<svg width="12" height="10" viewBox="0 0 12 10" fill="none" xmlns="http://www.w3.org/2000/svg">
<path d="M6.4375 1.48661C6.675 1.34598 6.83333 1.09085 6.83333 0.803571C6.83333 0.359598 6.46042 0 6 0C5.53958 0 5.16667 0.359598 5.16667 0.803571C5.16667 1.09286 5.325 1.34598 5.5625 1.48661L4.36875 4.78884C4.17917 5.15446 3.6875 5.25893 3.35625 5.00379L1.5 3.57143C1.60417 3.43683 1.66667 3.27009 1.66667 3.08929C1.66667 2.64531 1.29375 2.28571 0.833333 2.28571C0.372917 2.28571 0 2.64531 0 3.08929C0 3.53326 0.372917 3.89286 0.833333 3.89286H0.847917L1.8 8.9433C1.91458 9.55402 2.46667 10 3.1125 10H8.8875C9.53125 10 10.0833 9.55603 10.2 8.9433L11.1521 3.89286H11.1667C11.6271 3.89286 12 3.53326 12 3.08929C12 2.64531 11.6271 2.28571 11.1667 2.28571C10.7063 2.28571 10.3333 2.64531 10.3333 3.08929C10.3333 3.27009 10.3958 3.43683 10.5 3.57143L8.64375 5.00379C8.3125 5.25893 7.82083 5.15446 7.63125 4.78884L6.4375 1.48661Z" fill="#333333"/>
</svg>
