<svg width="16" height="16" viewBox="0 0 16 16" fill="none" xmlns="http://www.w3.org/2000/svg">
<g clip-path="url(#clip0_3237_25633)">
<path d="M2.9004 2.90035C3.19334 2.60749 3.65716 2.58996 3.97137 2.84631L4.03191 2.90035L8.00066 6.86845L11.9694 2.90035L12.03 2.84631C12.3441 2.58996 12.808 2.60757 13.1009 2.90035C13.3939 3.19328 13.4114 3.6571 13.155 3.97131L13.1009 4.03186L9.13217 7.99996L13.1003 11.9681C13.4126 12.2804 13.4126 12.7872 13.1003 13.0996C12.7879 13.4119 12.2812 13.4118 11.9688 13.0996L8.00066 9.13147L4.03321 13.0996C3.72084 13.4119 3.21414 13.4118 2.9017 13.0996C2.58928 12.7872 2.58928 12.2805 2.9017 11.9681L6.86915 7.99996L2.9004 4.03186L2.84637 3.97131C2.58996 3.6571 2.60746 3.19328 2.9004 2.90035Z" fill="#666666"/>
</g>
<defs>
<clipPath id="clip0_3237_25633">
<rect width="16" height="16" fill="white"/>
</clipPath>
</defs>
</svg>
