<svg width="20" height="20" viewBox="0 0 20 20" fill="none" xmlns="http://www.w3.org/2000/svg">
<path d="M17.5 4.99992H14.8583L13.3333 3.33325H8.33333V4.99992H12.6L14.125 6.66658H17.5V16.6666H4.16667V9.16658H2.5V16.6666C2.5 17.5833 3.25 18.3333 4.16667 18.3333H17.5C18.4167 18.3333 19.1667 17.5833 19.1667 16.6666V6.66658C19.1667 5.74992 18.4167 4.99992 17.5 4.99992ZM6.66667 11.6666C6.66667 13.9666 8.53333 15.8333 10.8333 15.8333C13.1333 15.8333 15 13.9666 15 11.6666C15 9.36658 13.1333 7.49992 10.8333 7.49992C8.53333 7.49992 6.66667 9.36658 6.66667 11.6666ZM10.8333 9.16658C12.2083 9.16658 13.3333 10.2916 13.3333 11.6666C13.3333 13.0416 12.2083 14.1666 10.8333 14.1666C9.45833 14.1666 8.33333 13.0416 8.33333 11.6666C8.33333 10.2916 9.45833 9.16658 10.8333 9.16658ZM4.16667 4.99992H6.66667V3.33325H4.16667V0.833252H2.5V3.33325H0V4.99992H2.5V7.49992H4.16667V4.99992Z" fill="#169E4A"/>
</svg>
