<svg width="36" height="36" viewBox="0 0 36 36" fill="none" xmlns="http://www.w3.org/2000/svg">
<path d="M15.5988 9.27491C16.0667 8.88645 16.7626 8.90854 17.2057 9.34376C17.678 9.80825 17.6846 10.5674 17.2204 11.04L11.5588 16.7998H27.3058L27.4274 16.8057C28.0326 16.867 28.5055 17.3781 28.5055 17.9995C28.5055 18.6209 28.0326 19.132 27.4274 19.1934L27.3058 19.1992H11.5617L17.2204 24.9575L17.3024 25.0498C17.6826 25.5245 17.6488 26.2198 17.2057 26.6553C16.7627 27.0907 16.0668 27.1124 15.5988 26.7241L15.508 26.6406L7.84392 18.8403C7.38543 18.3735 7.38529 17.6255 7.84392 17.1587L15.508 9.3584L15.5988 9.27491Z" fill="#111111"/>
</svg>
