<svg width="36" height="36" viewBox="0 0 36 36" fill="none" xmlns="http://www.w3.org/2000/svg">
<g clip-path="url(#clip0_3_986)">
<g clip-path="url(#clip1_3_986)">
<path d="M20.8125 27.1754C21.4752 27.1754 22.0122 27.7124 22.0122 28.3751C22.0121 29.418 21.3934 30.2282 20.666 30.7262C19.9329 31.228 18.9869 31.5011 18 31.5011C17.0131 31.5011 16.0671 31.228 15.334 30.7262C14.6066 30.2282 13.9879 29.418 13.9878 28.3751C13.9878 27.7124 14.5248 27.1754 15.1875 27.1754C15.8502 27.1754 16.3872 27.7124 16.3872 28.3751C16.3873 28.3963 16.3993 28.5489 16.689 28.7472C16.9738 28.9421 17.4339 29.1002 18 29.1002C18.5661 29.1002 19.0262 28.9421 19.311 28.7472C19.6007 28.5489 19.6127 28.3963 19.6128 28.3751C19.6128 27.7124 20.1498 27.1754 20.8125 27.1754Z" fill="#666666"/>
<path fill-rule="evenodd" clip-rule="evenodd" d="M18 4.49817C18.8286 4.49852 19.5 5.17244 19.5 6.0011V6.0509C23.7595 6.76499 27.0058 10.4685 27.0059 14.9308V20.3536C28.3366 21.0331 29.2497 22.4132 29.25 24.0099C29.25 25.1442 28.3306 26.0636 27.1963 26.0636H8.80371C7.66946 26.0635 6.75 25.1442 6.75 24.0099C6.75028 22.4126 7.66395 21.0314 8.99561 20.3522V14.9308C8.99569 10.4416 12.2816 6.71983 16.5791 6.03772L16.4985 6.0011C16.4985 5.17231 17.1712 4.49831 18 4.49817ZM18.0015 8.32434C14.3538 8.32434 11.3951 11.2831 11.395 14.9308V21.8229L10.0854 22.4908C9.62444 22.7263 9.29446 23.1559 9.18896 23.6642H26.811C26.7055 23.1564 26.376 22.7265 25.9146 22.4908L24.6064 21.8229V14.9308C24.6063 11.397 21.8305 8.51038 18.3413 8.33313L18.0015 8.32434Z" fill="#666666"/>
</g>
</g>
<path d="M33.1694 0.5C33.6281 0.5 34 0.871881 34 1.33062V6.56842C34 7.08292 33.5829 7.5 33.0684 7.5V7.5C32.7643 7.5 32.4792 7.3515 32.3049 7.10222L29.7197 3.4046C29.7137 3.396 29.7038 3.39088 29.6934 3.39088V3.39088C29.6756 3.39088 29.6612 3.40527 29.6612 3.42301V6.66938C29.6612 7.12812 29.2894 7.5 28.8306 7.5V7.5C28.3719 7.5 28 7.12812 28 6.66938V1.44253C28 0.921985 28.422 0.5 28.9425 0.5V0.5C29.2519 0.5 29.5415 0.6518 29.7176 0.906176L32.2687 4.59254C32.2758 4.60292 32.2877 4.60912 32.3003 4.60912V4.60912C32.3215 4.60912 32.3388 4.59189 32.3388 4.57065V1.33062C32.3388 0.871881 32.7106 0.5 33.1694 0.5V0.5Z" fill="#E42864"/>
<defs>
<clipPath id="clip0_3_986">
<rect width="36" height="36" fill="white"/>
</clipPath>
<clipPath id="clip1_3_986">
<rect width="36" height="36" fill="white"/>
</clipPath>
</defs>
</svg>
