<svg width="36" height="36" viewBox="0 0 36 36" fill="none" xmlns="http://www.w3.org/2000/svg">
<g clip-path="url(#clip0_1400_22840)">
<g clip-path="url(#clip1_1400_22840)">
<path d="M18.018 21.4616C18.7631 21.4619 19.3672 22.0646 19.3672 22.8078C19.367 23.5508 18.763 24.1538 18.018 24.154C17.2729 24.154 16.6691 23.551 16.6688 22.8078C16.6688 22.0644 17.2727 21.4616 18.018 21.4616Z" fill="#666666"/>
<path d="M18 11.846C20.1178 11.846 21.8459 13.431 21.8463 15.3737C21.8461 16.8257 20.7827 17.7807 20.0328 18.3501C19.423 18.8131 19.2837 19.0002 19.2515 19.0562L19.25 19.0577C19.25 19.0577 19.2473 19.0635 19.2455 19.0757C19.239 19.1206 19.2365 19.1824 19.2365 19.3627V19.6347C19.2363 20.2611 18.6829 20.769 18 20.769C17.3171 20.769 16.7637 20.2611 16.7635 19.6347V19.3161C16.7626 19.0092 16.7616 18.5252 17.061 18.0015C17.3403 17.5133 17.8234 17.0821 18.4567 16.6012C19.1291 16.0908 19.3731 15.7273 19.3732 15.3737C19.3728 14.6842 18.7518 14.1147 18 14.1147C17.2482 14.1147 16.6272 14.6842 16.6268 15.3737C16.6265 16.0001 16.0732 16.5096 15.3903 16.5096C14.7075 16.5095 14.154 16.0001 14.1537 15.3737C14.1541 13.431 15.8822 11.846 18 11.846Z" fill="#666666"/>
<path fill-rule="evenodd" clip-rule="evenodd" d="M18 6C24.6276 6 30 11.3724 30 18V26.8118C29.9996 28.5725 28.5725 29.9998 26.8118 30H18C11.3725 30 6.0002 24.6274 6 18C6 11.3724 11.3724 6 18 6ZM18 8.461C12.7319 8.461 8.461 12.7319 8.461 18C8.4612 23.2679 12.732 27.539 18 27.539H26.8118C27.213 27.5388 27.5386 27.213 27.539 26.8118V18C27.539 12.7319 23.2681 8.461 18 8.461Z" fill="#666666"/>
</g>
</g>
<defs>
<clipPath id="clip0_1400_22840">
<rect width="36" height="36" fill="white"/>
</clipPath>
<clipPath id="clip1_1400_22840">
<rect width="36" height="36" fill="white"/>
</clipPath>
</defs>
</svg>
