<svg width="36" height="36" viewBox="0 0 36 36" fill="none" xmlns="http://www.w3.org/2000/svg">
<g clip-path="url(#clip0_1400_22831)">
<g clip-path="url(#clip1_1400_22831)">
<path d="M18.3891 21.4616C19.1323 21.462 19.7353 22.0646 19.7353 22.8078C19.7348 23.5506 19.132 24.1536 18.3891 24.154C17.646 24.154 17.0434 23.5509 17.0429 22.8078C17.0429 22.0643 17.6457 21.4616 18.3891 21.4616Z" fill="#666666"/>
<path d="M18.3891 12.4605C19.1319 12.4609 19.7353 13.0638 19.7353 13.8067V19.4228C19.7351 20.1655 19.1318 20.7686 18.3891 20.769C17.6461 20.769 17.0431 20.1658 17.0429 19.4228V13.8067C17.0429 13.0636 17.646 12.4605 18.3891 12.4605Z" fill="#666666"/>
<path fill-rule="evenodd" clip-rule="evenodd" d="M18 6C24.6276 6 30 11.3724 30 18V26.8118C29.9996 28.5725 28.5725 29.9998 26.8118 30H18C11.3725 30 6.0002 24.6274 6 18C6 11.3724 11.3724 6 18 6ZM18 8.461C12.7319 8.461 8.461 12.7319 8.461 18C8.4612 23.2679 12.732 27.539 18 27.539H26.8118C27.213 27.5388 27.5386 27.213 27.539 26.8118V18C27.539 12.7319 23.2681 8.461 18 8.461Z" fill="#666666"/>
</g>
</g>
<defs>
<clipPath id="clip0_1400_22831">
<rect width="36" height="36" fill="white"/>
</clipPath>
<clipPath id="clip1_1400_22831">
<rect width="36" height="36" fill="white"/>
</clipPath>
</defs>
</svg>
