<svg width="52" height="44" viewBox="0 0 52 44" fill="none" xmlns="http://www.w3.org/2000/svg">
<path d="M49.0485 23.5304H43.0286C42.667 23.5304 42.3348 23.6656 42.0807 23.9166C41.8168 24.1773 41.68 24.5153 41.68 24.8822V24.9015C41.68 33.8714 34.2919 41.171 25.2132 41.171C16.1345 41.171 8.74645 33.8714 8.74645 24.9015V24.8822C8.74645 24.5153 8.59986 24.1677 8.34577 23.9166C8.09168 23.6656 7.74964 23.5304 7.39783 23.5304H1.35839C0.615672 23.5304 0.00977256 24.129 0 24.8725V24.9498C0 25.6836 0.605899 26.2822 1.35839 26.2822H5.94172L5.99058 26.7457C6.44989 31.4382 8.64872 35.7929 12.1962 38.9985C15.7631 42.2234 20.3856 44 25.2132 44C30.0409 44 34.6633 42.2234 38.2303 38.9985C41.7777 35.7929 43.9765 31.4479 44.4359 26.7457L44.4847 26.2822H49.0583C49.801 26.2822 50.4069 25.6836 50.4167 24.9401V24.8629C50.4167 24.129 49.8108 23.5208 49.0583 23.5208L49.0485 23.5304Z" fill="#FCAF17"/>
<path d="M25.2129 8.632C25.594 8.632 25.9361 8.48716 26.1999 8.23612C26.454 7.98508 26.5908 7.64714 26.5908 7.29954V1.34211C26.5908 0.608295 25.9849 0.00965548 25.2325 0H25.1543C24.4116 0 23.7959 0.59864 23.7959 1.34211V7.29954C23.7959 7.65679 23.9327 7.98508 24.1868 8.23612C24.4506 8.49682 24.7927 8.632 25.164 8.632H25.1836H25.1934H25.2129Z" fill="#FCAF17"/>
<path d="M36.8233 11.4803C36.5693 11.7314 36.4324 12.0693 36.4324 12.4169C36.4324 12.7838 36.579 13.1217 36.8429 13.3824L36.8722 13.4114C37.1361 13.6721 37.4781 13.8169 37.8495 13.8169C38.211 13.8169 38.5433 13.6818 38.7974 13.4307L43.068 9.21127C43.5957 8.68988 43.5957 7.84985 43.0778 7.32845L42.9996 7.25121C42.7357 7.00017 42.3937 6.86499 42.0517 6.86499C41.7096 6.86499 41.3578 7.00017 41.0939 7.26086L36.8233 11.4803Z" fill="#FCAF17"/>
<path d="M7.35892 9.21141L11.6198 13.4212C11.8738 13.6722 12.2159 13.8074 12.5677 13.8074C12.9391 13.8074 13.2811 13.6626 13.545 13.4019L13.5743 13.3729C13.8381 13.1122 13.9847 12.7743 13.9847 12.4074C13.9847 12.0501 13.8479 11.7218 13.5938 11.4708L9.3232 7.25134C9.05934 6.99065 8.70753 6.85547 8.36549 6.85547C8.02345 6.85547 7.68141 6.98099 7.41755 7.24169L7.33937 7.31893C6.82143 7.84033 6.82143 8.68035 7.33937 9.20175L7.35892 9.21141Z" fill="#FCAF17"/>
<path d="M19.1156 29.1595H19.096C18.702 29.1595 18.3826 29.4751 18.3826 29.8644V33.8618C18.3826 34.251 18.702 34.5666 19.096 34.5666H19.1156C19.5096 34.5666 19.829 34.251 19.829 33.8618V29.8644C19.829 29.4751 19.5096 29.1595 19.1156 29.1595Z" fill="#111111"/>
<path d="M19.0861 28.8409H19.1154C19.5649 28.8409 19.9363 28.4836 19.9363 28.0298C19.9363 27.5857 19.5747 27.2188 19.1154 27.2188H19.0861C18.6365 27.2188 18.2652 27.576 18.2652 28.0298C18.2652 28.474 18.6268 28.8409 19.0861 28.8409Z" fill="#111111"/>
<path d="M23.5325 29.1595C22.7897 29.1595 22.135 29.4299 21.6073 29.9513C21.0795 30.4727 20.8059 31.1775 20.8059 31.9114V33.8714C20.8059 34.2576 21.1186 34.5763 21.5193 34.5763H21.5486C21.9395 34.5763 22.262 34.2673 22.262 33.8714V31.8727C22.262 31.5155 22.3891 31.2162 22.6431 30.9651C22.8972 30.7141 23.1904 30.5886 23.552 30.5886C23.9136 30.5886 24.2654 30.743 24.5097 31.0037C24.7345 31.2451 24.8517 31.5348 24.8517 31.8631V33.8618C24.8517 34.248 25.1645 34.5666 25.5651 34.5666H25.5945C25.9854 34.5666 26.3079 34.2576 26.3079 33.8618V31.8631C26.3079 31.1196 26.0342 30.4727 25.5065 29.9513C24.969 29.4202 24.324 29.1595 23.5715 29.1595H23.5325Z" fill="#111111"/>
<path d="M31.6834 29.9609C31.1557 29.4299 30.5009 29.1692 29.7484 29.1692C28.9959 29.1692 28.3509 29.4395 27.8232 29.9609C27.2857 30.4823 27.0219 31.1293 27.0219 31.8727C27.0219 32.6162 27.2955 33.2535 27.8232 33.7845C28.3509 34.3156 29.0057 34.5763 29.7582 34.5763C30.2175 34.5763 30.6573 34.47 31.0579 34.248V34.3156C31.0579 34.6728 30.9309 34.9625 30.6866 35.2135C30.5498 35.3487 30.4032 35.4453 30.237 35.5032C29.9536 35.6094 29.768 35.8701 29.768 36.1598V36.1887C29.768 36.6812 30.2664 37.0191 30.7257 36.8453C31.0873 36.7101 31.4097 36.5074 31.7029 36.2177C32.2404 35.6963 32.5043 35.0494 32.5043 34.3059V31.8631C32.5043 31.1196 32.2306 30.4727 31.7029 29.9513L31.6834 29.9609ZM30.6573 32.7707C30.4032 33.0217 30.1002 33.1472 29.7386 33.1472C29.3771 33.1472 29.0839 33.0217 28.8298 32.7707C28.5757 32.5196 28.4487 32.2203 28.4487 31.8727C28.4487 31.5251 28.5757 31.2162 28.8298 30.9651C29.0839 30.7141 29.3868 30.5885 29.7386 30.5885C30.0905 30.5885 30.4032 30.7141 30.6573 30.9555C30.9113 31.2162 31.0384 31.5058 31.0384 31.8631C31.0384 32.2203 30.9113 32.51 30.6573 32.761V32.7707Z" fill="#111111"/>
<path d="M19.0468 23.3474C19.2032 23.5019 19.2813 23.6757 19.2813 23.8977V26.3985C19.2813 26.7847 19.5941 27.1034 19.9947 27.1034H20.0241C20.415 27.1034 20.7375 26.7944 20.7375 26.3985V23.8977C20.7375 23.2991 20.5127 22.768 20.0827 22.3432C19.6429 21.9087 19.1152 21.6963 18.5093 21.6963C17.9034 21.6963 17.405 21.8894 16.9946 22.2756C16.5841 21.8894 16.0759 21.6963 15.4896 21.6963C14.9032 21.6963 14.3462 21.9184 13.9064 22.3432C13.4764 22.7777 13.2614 23.2991 13.2614 23.8977V26.3985C13.2614 26.7847 13.5742 27.1034 13.9748 27.1034H14.0042C14.3951 27.1034 14.7176 26.7944 14.7176 26.3985V23.8977C14.7176 23.7046 14.786 23.5212 14.913 23.386C15.0791 23.2122 15.2648 23.1253 15.4994 23.1253C15.7144 23.1253 15.9 23.2025 16.0564 23.357C16.2128 23.5115 16.2909 23.6853 16.2909 23.9074V26.4082C16.2909 26.7944 16.6037 27.113 17.0043 27.113H17.0337C17.4246 27.113 17.7471 26.804 17.7471 26.4082V23.9074C17.7471 23.695 17.8252 23.5115 17.9718 23.357C18.1282 23.2025 18.3139 23.1253 18.5386 23.1253C18.7634 23.1253 18.9393 23.2025 19.0957 23.357L19.0468 23.3474Z" fill="#111111"/>
<path d="M26.2592 22.4877C25.7315 21.9663 25.0767 21.6959 24.3243 21.6959C23.5718 21.6959 22.9268 21.9663 22.3893 22.4877C21.8518 23.0091 21.5879 23.656 21.5879 24.3995C21.5879 25.1429 21.8616 25.7802 22.3893 26.3112C22.917 26.8326 23.5718 27.103 24.3243 27.103C25.0767 27.103 25.7315 26.8326 26.2592 26.3112C26.7967 25.7802 27.0606 25.1429 27.0606 24.3995C27.0606 23.656 26.7869 23.0091 26.2592 22.4877ZM25.6142 24.3995C25.6142 24.7567 25.4872 25.0464 25.2331 25.2974C24.979 25.5485 24.6858 25.674 24.3243 25.674C23.9627 25.674 23.6695 25.5485 23.4154 25.2974C23.1613 25.0464 23.0343 24.7567 23.0343 24.3995C23.0343 24.0422 23.1613 23.7429 23.4154 23.4918C23.6695 23.2408 23.9627 23.1153 24.3243 23.1153C24.6858 23.1153 24.979 23.2408 25.2331 23.4918C25.4872 23.7429 25.6142 24.0422 25.6142 24.3995Z" fill="#111111"/>
<path d="M28.6729 22.4876C28.1354 23.009 27.8715 23.656 27.8715 24.3994V26.3885C27.8715 26.7843 28.194 27.103 28.5947 27.103C28.9954 27.103 29.3179 26.7843 29.3179 26.3885V24.3994C29.3179 24.0422 29.4449 23.7429 29.6892 23.4918C29.826 23.3566 29.9726 23.2601 30.1388 23.2022C30.4124 23.0959 30.6079 22.8352 30.6079 22.5456V22.5166C30.6079 22.0242 30.1095 21.6862 29.6501 21.86C29.2983 21.9952 28.9758 22.198 28.6827 22.4876H28.6729Z" fill="#111111"/>
<path d="M36.4323 22.5649C35.9339 22.0339 35.2303 21.7152 34.4876 21.6959C33.7058 21.6766 33.0314 21.947 32.4842 22.4877C31.9565 23.0091 31.6828 23.656 31.6828 24.3994V26.3981C31.6828 26.7843 31.9956 27.103 32.3962 27.103H32.4255C32.8165 27.103 33.1389 26.794 33.1389 26.3981V24.3994C33.1389 24.0422 33.266 23.7429 33.5201 23.4918C33.7742 23.2408 34.0673 23.1153 34.4289 23.1153C34.7905 23.1153 35.0837 23.2408 35.3378 23.4918C35.5919 23.7429 35.7189 24.0422 35.7189 24.3994V26.3981C35.7189 26.7843 36.0316 27.103 36.4323 27.103H36.4616C36.8525 27.103 37.175 26.794 37.175 26.3981V24.3994C37.175 23.6946 36.9307 23.0766 36.4421 22.5553L36.4323 22.5649Z" fill="#111111"/>
<path d="M21.7732 14.995C21.2553 14.5025 20.5614 14.2322 19.848 14.2322C19.1248 14.2322 18.4896 14.4929 17.9717 14.995C17.4537 15.4874 17.1508 16.1633 17.141 16.8778C17.1215 17.6502 17.3951 18.3068 17.9424 18.8475C18.4798 19.3785 19.1248 19.6392 19.8773 19.6392C20.3366 19.6392 20.7764 19.533 21.1673 19.311V19.3785C21.1673 19.7358 21.0403 20.0255 20.7959 20.2765C20.6591 20.4117 20.5125 20.5082 20.3464 20.5662C20.063 20.6724 19.8773 20.9331 19.8773 21.2227V21.2517C19.8773 21.7441 20.3757 22.0821 20.835 21.9083C21.1966 21.7731 21.5191 21.5703 21.8123 21.2807C22.3498 20.7593 22.6136 20.1124 22.6136 19.3689V16.9261C22.6136 16.1633 22.3302 15.5067 21.7732 14.9756V14.995ZM20.7862 17.8433C20.5321 18.0944 20.2291 18.2199 19.8676 18.2199C19.506 18.2199 19.2128 18.0944 18.9587 17.8433C18.7046 17.5923 18.5776 17.3026 18.5776 16.9454C18.5776 16.5881 18.7046 16.2888 18.9587 16.0378C19.2128 15.7867 19.5157 15.6612 19.8676 15.6612C20.2194 15.6612 20.5321 15.7867 20.7862 16.0281C21.0403 16.2888 21.1673 16.5785 21.1673 16.9357C21.1673 17.293 21.0403 17.5826 20.7862 17.8337V17.8433Z" fill="#111111"/>
<path d="M26.1609 19.6393C26.9427 19.6586 27.617 19.3882 28.1643 18.8475C28.7017 18.3165 28.9656 17.6792 28.9656 16.9357V14.9274C28.9656 14.5412 28.6529 14.2225 28.2522 14.2225H28.2229C27.832 14.2225 27.5095 14.5315 27.5095 14.9274V16.9357C27.5095 17.293 27.3825 17.5826 27.1284 17.8337C26.8743 18.0847 26.5811 18.2102 26.2195 18.2102C25.8579 18.2102 25.555 18.0847 25.3009 17.8337C25.0468 17.5826 24.9198 17.293 24.9198 16.9357V14.9274C24.9198 14.5412 24.607 14.2225 24.2064 14.2225H24.1771C23.7861 14.2225 23.4637 14.5315 23.4637 14.9274V16.9357C23.4637 17.6406 23.708 18.2585 24.1966 18.7703C24.695 19.3013 25.3986 19.6199 26.1413 19.6393H26.1609Z" fill="#111111"/>
<path d="M30.4218 19.1372C30.7639 19.4655 31.1743 19.6296 31.6434 19.6296H32.5913C32.9822 19.6296 33.3047 19.3206 33.3047 18.9248V18.8958C33.3047 18.5096 32.992 18.1909 32.5913 18.1909H31.6434C31.5555 18.1909 31.4968 18.162 31.4382 18.104C31.3795 18.0461 31.3502 17.9882 31.3502 17.9109V15.6419H32.2786C32.6695 15.6419 32.992 15.3329 32.992 14.9371V14.9081C32.992 14.5219 32.6793 14.2032 32.2786 14.2032H31.3502V13.2377C31.3502 12.8515 31.0375 12.5328 30.6368 12.5328H30.6075C30.2166 12.5328 29.8941 12.8515 29.8941 13.2377V17.9013C29.8941 18.3744 30.07 18.7799 30.4023 19.1179L30.4218 19.1372Z" fill="#111111"/>
</svg>
