<svg width="24" height="24" viewBox="0 0 24 24" fill="none" xmlns="http://www.w3.org/2000/svg">
<path d="M6.10254 16.5078C6.60658 16.5592 7 16.9853 7 17.5029C6.99994 18.0205 6.60655 18.4466 6.10254 18.498L6 18.5029C5.44776 18.5029 5.00007 18.0552 5 17.5029C5 16.9506 5.44772 16.5029 6 16.5029L6.10254 16.5078Z" fill="#1E1E1E"/>
<path d="M18.1973 16.7031C18.6389 16.7034 18.9971 17.0613 18.9971 17.5029C18.997 17.9445 18.6388 18.3025 18.1973 18.3027H9.64062L9.55859 18.2988C9.15525 18.2578 8.84088 17.9171 8.84082 17.5029C8.84082 17.0887 9.15521 16.748 9.55859 16.707L9.64062 16.7031H18.1973Z" fill="#1E1E1E"/>
<path d="M6.10254 11.0059C6.60652 11.0573 6.99988 11.4835 7 12.001C7 12.5186 6.60657 12.9447 6.10254 12.9961L6 13.001C5.44772 13.001 5 12.5533 5 12.001C5.00013 11.4488 5.4478 11.001 6 11.001L6.10254 11.0059Z" fill="#1E1E1E"/>
<path d="M18.1973 11.2012C18.6388 11.2014 18.9969 11.5594 18.9971 12.001C18.9971 12.4427 18.6389 12.8005 18.1973 12.8008H9.64062L9.55859 12.7969C9.15521 12.7559 8.84082 12.4152 8.84082 12.001C8.84094 11.5869 9.15529 11.2461 9.55859 11.2051L9.64062 11.2012H18.1973Z" fill="#1E1E1E"/>
<path d="M6.10254 5.50488C6.60657 5.55631 7 5.9824 7 6.5C6.99981 7.01746 6.60648 7.44373 6.10254 7.49512L6 7.5C5.44784 7.5 5.0002 7.05212 5 6.5C5 5.94772 5.44772 5.5 6 5.5L6.10254 5.50488Z" fill="#1E1E1E"/>
<path d="M18.1973 5.7002C18.6389 5.70044 18.9971 6.05833 18.9971 6.5C18.9969 6.94151 18.6388 7.29956 18.1973 7.2998H9.64062L9.55859 7.2959C9.15533 7.25492 8.84101 6.91403 8.84082 6.5C8.84082 6.0858 9.15521 5.74509 9.55859 5.7041L9.64062 5.7002H18.1973Z" fill="#1E1E1E"/>
</svg>
