<svg width="24" height="24" viewBox="0 0 24 24" fill="none" xmlns="http://www.w3.org/2000/svg">
<path fill-rule="evenodd" clip-rule="evenodd" d="M14.7718 9.84183L17.2362 12.3063C18.5538 13.6239 18.5538 15.9192 17.2362 17.236C15.9186 18.5536 13.6241 18.5536 12.3065 17.236L9.84207 14.7715L8.60986 16.0038L11.0743 18.4682C12.0616 19.4564 13.374 20.0002 14.7709 20.0002C16.1678 20.0002 17.4802 19.4564 18.4684 18.469V18.4682H18.4693C19.4566 17.4808 20.0004 16.1676 20.0004 14.7707C20.0004 13.3746 19.4566 12.0614 18.4684 11.074L16.004 8.60962L14.7718 9.84183Z" fill="#169E4A"/>
<path fill-rule="evenodd" clip-rule="evenodd" d="M14.7719 13.5395L13.5397 14.7718L9.22607 10.459L10.4583 9.22681L14.7719 13.5395Z" fill="#169E4A"/>
<path fill-rule="evenodd" clip-rule="evenodd" d="M14.7718 7.37744L13.5396 8.61052L11.6904 6.76134C10.331 5.4019 8.12015 5.4019 6.76158 6.76134C5.40127 8.12165 5.40127 10.3325 6.76158 11.691L8.6099 13.5394L7.37769 14.7716L5.52937 12.9233C3.49021 10.8841 3.49021 7.56829 5.52937 5.52913C7.56679 3.48997 10.8843 3.48997 12.9226 5.52913L14.7718 7.37744Z" fill="#169E4A"/>
</svg>
