<svg width="32" height="32" viewBox="0 0 32 32" fill="none" xmlns="http://www.w3.org/2000/svg">
<g clip-path="url(#clip0_1416_2854)">
<path fill-rule="evenodd" clip-rule="evenodd" d="M22.1511 16.9635C23.3487 16.9636 24.4982 17.4392 25.3451 18.2865C26.1919 19.1336 26.6666 20.2837 26.6667 21.4818C26.6666 22.6798 26.1917 23.8299 25.3451 24.6771C24.4983 25.5243 23.3486 26 22.1511 26C20.9538 25.9999 19.8051 25.524 18.9584 24.6771C18.1117 23.8299 17.6355 22.6798 17.6355 21.4818C17.6356 20.2837 18.1116 19.1336 18.9584 18.2865C19.8051 17.4395 20.9538 16.9636 22.1511 16.9635ZM22.155 19.0729C21.8975 19.0729 21.6829 19.256 21.6329 19.4987L21.6211 19.6068V20.9466H20.28C19.9857 20.9469 19.7462 21.1861 19.7461 21.4805C19.7464 21.7747 19.9858 22.0142 20.28 22.0143H21.6198V23.3542C21.6203 23.6482 21.8595 23.8879 22.1537 23.888C22.4479 23.8879 22.687 23.6482 22.6875 23.3542V22.0143H24.0274L24.1355 22.0026C24.3779 21.9527 24.5608 21.7376 24.5612 21.4805C24.5613 21.223 24.3781 21.0084 24.1355 20.9583L24.0274 20.9466H22.6888V19.6068L22.6771 19.4987C22.6272 19.2562 22.4122 19.0732 22.155 19.0729Z" fill="#666666"/>
<path d="M14.7019 17.2956C15.9419 17.2956 17.0324 17.4279 17.9883 17.6536C17.5271 18.1293 17.1571 18.6779 16.8907 19.2721C16.2393 19.1643 15.5122 19.1016 14.7019 19.1016C8.36872 19.1018 7.13949 22.8209 7.13936 23.6198L7.14457 23.7031C7.1553 23.7735 7.17938 23.8064 7.19405 23.8242C7.22653 23.8634 7.29335 23.9148 7.4128 23.9635C7.64983 24.0602 7.90934 24.0707 7.93233 24.0716H16.9727C17.2435 24.6247 17.6047 25.1356 18.0482 25.5794C18.1527 25.684 18.2622 25.7835 18.3737 25.8789H7.92582C7.8734 25.8787 7.31121 25.8748 6.73051 25.638C6.43143 25.5159 6.07839 25.3132 5.79822 24.9727C5.54214 24.6612 5.3785 24.2719 5.34119 23.819L5.33337 23.6198C5.33347 21.7076 7.49049 17.2958 14.7019 17.2956Z" fill="#666666"/>
<path fill-rule="evenodd" clip-rule="evenodd" d="M14.9805 6.00651C16.2847 6.0694 17.5275 6.60103 18.4623 7.51042L18.6446 7.69531C19.5288 8.64563 20.0247 9.88939 20.0248 11.1862L20.0183 11.444C19.957 12.6468 19.4699 13.79 18.6446 14.6771L18.4623 14.8633C17.5276 15.7722 16.2845 16.303 14.9805 16.3659L14.7188 16.3724C13.4077 16.3722 12.1411 15.8984 11.1667 15.0404L10.9766 14.8633C10.041 13.953 9.48627 12.7326 9.42061 11.444L9.4141 11.1862C9.41421 9.80314 9.9789 8.48127 10.9766 7.51042L11.1667 7.33203C12.1412 6.47378 13.4076 6.00015 14.7188 6L14.9805 6.00651ZM14.7188 7.80729C13.8995 7.80742 13.113 8.08375 12.4909 8.57943L12.2357 8.80469C11.5827 9.44008 11.2202 10.2979 11.2201 11.1862L11.237 11.5169C11.3152 12.2849 11.6642 13.0117 12.2357 13.5677L12.4909 13.793C13.113 14.2886 13.8996 14.5663 14.7188 14.5664L15.0677 14.5495C15.875 14.4715 16.6308 14.1242 17.2032 13.5677L17.4349 13.3203C17.9417 12.7184 18.2187 11.9634 18.2188 11.1862L18.2019 10.8555C18.1349 10.1972 17.8694 9.56942 17.4349 9.05339L17.2032 8.80469C16.6308 8.24815 15.875 7.90088 15.0677 7.82292L14.7188 7.80729Z" fill="#666666"/>
</g>
<defs>
<clipPath id="clip0_1416_2854">
<rect width="32" height="32" fill="white"/>
</clipPath>
</defs>
</svg>
