<svg width="40" height="40" viewBox="0 0 40 40" fill="none" xmlns="http://www.w3.org/2000/svg">
<rect width="40" height="40" rx="20" fill="#169E4A"/>
<g clip-path="url(#clip0_732_9302)">
<path d="M28.3333 20.0001C28.3333 23.9285 28.3333 25.8926 27.1129 27.113C25.8925 28.3334 23.9283 28.3334 20 28.3334C16.0716 28.3334 14.1074 28.3334 12.887 27.113C11.6666 25.8926 11.6666 23.9285 11.6666 20.0001C11.6666 16.0717 11.6666 14.1075 12.887 12.8871C14.1074 11.6667 16.0716 11.6667 20 11.6667" stroke="white" stroke-width="1.5" stroke-linecap="round"/>
<path d="M11.6666 20.4167L13.1263 19.1395C13.8857 18.475 15.0302 18.5132 15.7437 19.2267L19.3185 22.8014C19.8912 23.3741 20.7927 23.4522 21.4553 22.9865L21.7038 22.8119C22.6573 22.1418 23.9474 22.2194 24.8137 22.999L27.5 25.4167" stroke="white" stroke-width="1.5" stroke-linecap="round"/>
<path d="M25.4684 12.4462L25.816 12.0987C26.3919 11.5228 27.3256 11.5228 27.9015 12.0987C28.4773 12.6746 28.4773 13.6083 27.9015 14.1841L27.5539 14.5317M25.4684 12.4462C25.4684 12.4462 25.5118 13.1849 26.1636 13.8366C26.8153 14.4883 27.5539 14.5317 27.5539 14.5317M25.4684 12.4462L22.2729 15.6417C22.0565 15.8581 21.9483 15.9664 21.8552 16.0857C21.7454 16.2264 21.6513 16.3787 21.5745 16.5399C21.5094 16.6765 21.461 16.8217 21.3642 17.1121L21.0543 18.0417M27.5539 14.5317L24.3584 17.7272C24.142 17.9436 24.0338 18.0518 23.9144 18.1449C23.7737 18.2547 23.6214 18.3488 23.4602 18.4256C23.3236 18.4907 23.1784 18.5391 22.8881 18.6359L21.9584 18.9458M21.9584 18.9458L21.3568 19.1463C21.2139 19.194 21.0564 19.1568 20.9499 19.0503C20.8434 18.9438 20.8062 18.7862 20.8538 18.6433L21.0543 18.0417M21.9584 18.9458L21.0543 18.0417" stroke="white" stroke-width="1.5"/>
</g>
<defs>
<clipPath id="clip0_732_9302">
<rect width="20" height="20" fill="white" transform="translate(10 10)"/>
</clipPath>
</defs>
</svg>
