<svg width="20" height="16" viewBox="0 0 20 16" fill="none" xmlns="http://www.w3.org/2000/svg">
<path d="M10 11.8777C9.10998 11.8777 8.23996 11.6227 7.49993 11.1449C6.75991 10.6671 6.18314 9.98797 5.84254 9.19344C5.50195 8.3989 5.41283 7.52462 5.58647 6.68114C5.7601 5.83767 6.18868 5.06289 6.81802 4.45477C7.44736 3.84666 8.24918 3.43253 9.12209 3.26476C9.99501 3.09698 10.8998 3.18309 11.7221 3.51219C12.5443 3.8413 13.2471 4.39863 13.7416 5.11369C14.2361 5.82875 14.5 6.66944 14.5 7.52944C14.5 8.68266 14.0259 9.78865 13.182 10.6041C12.3381 11.4196 11.1935 11.8777 10 11.8777ZM10 0.941162C2.27273 0.941162 0 7.52944 0 7.52944C0 7.52944 2.27273 14.1176 10 14.1176C17.7273 14.1176 20 7.52944 20 7.52944C20 7.52944 17.7273 0.941162 10 0.941162Z" fill="#CACACA"/>
<path d="M10 10.1647C11.5062 10.1647 12.7273 8.98483 12.7273 7.5294C12.7273 6.07396 11.5062 4.8941 10 4.8941C8.49377 4.8941 7.27273 6.07396 7.27273 7.5294C7.27273 8.98483 8.49377 10.1647 10 10.1647Z" fill="#CACACA"/>
</svg>
