<svg width="32" height="32" viewBox="0 0 32 32" fill="none" xmlns="http://www.w3.org/2000/svg">
<path fill-rule="evenodd" clip-rule="evenodd" d="M16.2175 11.8387C17.2969 11.8903 18.3195 12.3251 19.0834 13.0587C19.8976 13.8411 20.353 14.8998 20.353 16.0001C20.3529 17.1005 19.8977 18.1592 19.0834 18.9415C18.2685 19.7242 17.1588 20.1667 16.0001 20.1668C14.8415 20.1667 13.733 19.724 12.9181 18.9415C12.1036 18.1592 11.6486 17.1007 11.6485 16.0001C11.6485 14.8995 12.1036 13.8411 12.9181 13.0587C13.733 12.2762 14.8414 11.8336 16.0001 11.8335L16.2175 11.8387ZM16.0001 13.6681C15.3652 13.6682 14.7531 13.9111 14.2996 14.3465C13.8455 14.7827 13.5886 15.3774 13.5886 16.0001C13.5887 16.6228 13.8455 17.2176 14.2996 17.6538C14.7531 18.0891 15.3653 18.3321 16.0001 18.3322C16.6351 18.332 17.2484 18.0894 17.7019 17.6538C18.1559 17.2176 18.4128 16.6227 18.4129 16.0001C18.4129 15.3776 18.1558 14.7827 17.7019 14.3465C17.3051 13.9653 16.7858 13.7322 16.2371 13.6798L16.0001 13.6681Z" fill="white"/>
<path fill-rule="evenodd" clip-rule="evenodd" d="M14.1394 5.48321C15.3702 5.28296 16.6288 5.28292 17.8595 5.48321L18.4715 5.6004L18.6082 5.64076C18.9163 5.75559 19.1458 6.01389 19.2071 6.32826L19.5704 8.19155L19.603 8.32306C19.6437 8.45277 19.7066 8.5761 19.7879 8.68634C19.8961 8.83299 20.0357 8.95445 20.1954 9.04311C20.3552 9.13168 20.5328 9.18565 20.7149 9.20196C20.8972 9.21816 21.0833 9.19675 21.2566 9.13816L23.1147 8.51056L23.254 8.4728C23.5824 8.41191 23.9259 8.51691 24.1563 8.75535C25.289 9.92745 26.1332 11.329 26.6251 12.8543C26.7362 13.2002 26.6215 13.5765 26.3334 13.8139L24.8347 15.0483C24.6935 15.1646 24.5776 15.3109 24.4988 15.4754C24.4205 15.6395 24.3804 15.8186 24.3803 16.0001C24.3803 16.1819 24.4203 16.3619 24.4988 16.5262C24.5774 16.6902 24.6927 16.8359 24.8334 16.952L26.3321 18.1863C26.6206 18.4238 26.7364 18.7999 26.6251 19.146C26.1946 20.4808 25.4949 21.7214 24.5678 22.7957L24.1563 23.2449C23.8932 23.5172 23.4833 23.6132 23.116 23.4897L21.2553 22.8621C21.082 22.8035 20.8959 22.7821 20.7136 22.7983C20.5315 22.8147 20.3539 22.8686 20.1941 22.9572C20.0344 23.0459 19.8948 23.1673 19.7866 23.3139C19.6783 23.4609 19.604 23.63 19.5691 23.8087L19.2097 25.6707C19.1402 26.0305 18.8505 26.3172 18.4741 26.3999C16.847 26.7559 15.1558 26.7558 13.5287 26.3999C13.1528 26.3175 12.8645 26.0311 12.7944 25.672L12.4311 23.8087C12.3963 23.6301 12.3205 23.4609 12.2123 23.3139C12.1043 23.1676 11.9655 23.0458 11.8061 22.9572C11.6465 22.8686 11.4685 22.8148 11.2866 22.7983C11.15 22.7861 11.011 22.7944 10.8777 22.8244L10.7449 22.8621L8.88682 23.4897C8.51941 23.6138 8.10862 23.5171 7.84515 23.2449C6.85416 22.2196 6.0834 21.0194 5.57692 19.7137L5.3764 19.146C5.26504 18.7999 5.37845 18.4239 5.66677 18.1863L7.16677 16.952L7.26703 16.8595C7.36213 16.7621 7.44116 16.6492 7.5001 16.5262C7.55915 16.4027 7.59818 16.2706 7.61338 16.1356L7.61989 16.0001C7.61989 15.8182 7.57869 15.6385 7.5001 15.4741C7.44119 15.3511 7.36207 15.2381 7.26703 15.1408L7.16677 15.0483L5.66677 13.8139C5.37844 13.5764 5.26507 13.2004 5.3764 12.8543C5.86799 11.3291 6.71032 9.92756 7.84255 8.75535L7.94802 8.6616C8.20798 8.46214 8.56254 8.40209 8.88421 8.51056L10.7449 9.13816L10.8777 9.17592C11.011 9.20587 11.15 9.21415 11.2866 9.20196C11.4685 9.18552 11.6465 9.13166 11.8061 9.04311C11.9655 8.95449 12.1043 8.83274 12.2123 8.68634C12.3206 8.53942 12.3962 8.37021 12.4311 8.19155L12.7918 6.32957L12.8282 6.19806C12.9353 5.90128 13.1969 5.67271 13.5261 5.6004L14.1394 5.48321ZM17.4194 7.27748C16.4784 7.13567 15.5205 7.13574 14.5795 7.27748L14.3386 8.52227C14.2539 8.95758 14.0709 9.37287 13.8035 9.73582C13.5362 10.0984 13.1893 10.4029 12.7866 10.6264C12.3838 10.8498 11.9335 10.9871 11.4688 11.0288C11.0036 11.0703 10.5327 11.016 10.0925 10.8673L8.86468 10.4507C8.26133 11.1681 7.77839 11.9727 7.43369 12.8348L8.4402 13.6642L8.56911 13.7762C8.8616 14.0449 9.09962 14.3638 9.26833 14.7163C9.4611 15.1192 9.56 15.5577 9.56 16.0001L9.55479 16.1655C9.53306 16.5511 9.43704 16.9314 9.26833 17.284C9.09959 17.6365 8.86167 17.9554 8.56911 18.2241L8.4402 18.3361L7.43369 19.1642C7.77847 20.0262 8.26128 20.831 8.86468 21.5483L10.0925 21.133L10.2592 21.0822C10.65 20.9725 11.0619 20.9352 11.4688 20.9715C11.9335 21.0132 12.3838 21.1505 12.7866 21.3738C13.1892 21.5974 13.5362 21.9019 13.8035 22.2645C14.0708 22.6274 14.2539 23.0415 14.3386 23.4767L14.5795 24.7215C15.5204 24.8634 16.4785 24.8631 17.4194 24.7215L17.6616 23.478L17.698 23.3139C17.7933 22.9384 17.9628 22.5819 18.1967 22.2645C18.4641 21.9018 18.8107 21.5974 19.2136 21.3738C19.6166 21.1504 20.0665 21.0131 20.5313 20.9715C20.9963 20.9301 21.4665 20.9843 21.9063 21.133L23.1342 21.5483C23.738 20.8308 24.2216 20.0266 24.5665 19.1642L23.5613 18.3374C23.2091 18.0473 22.9261 17.6879 22.7332 17.2853C22.5402 16.8822 22.4402 16.4428 22.4402 16.0001C22.4403 15.5576 22.5402 15.1193 22.7332 14.7163C22.9261 14.3136 23.2078 13.9544 23.56 13.6642L24.5665 12.8348C24.2216 11.9728 23.739 11.1679 23.1355 10.4507L21.9077 10.8673C21.4677 11.016 20.9977 11.0702 20.5327 11.0288C20.0677 10.9872 19.6167 10.85 19.2136 10.6264C18.8109 10.4029 18.464 10.0984 18.1967 9.73582C17.9629 9.41847 17.7946 9.06173 17.6993 8.68634L17.6629 8.52358L17.4194 7.27748Z" fill="white"/>
</svg>
