<svg width="28" height="28" viewBox="0 0 28 28" fill="none" xmlns="http://www.w3.org/2000/svg">
<g clip-path="url(#clip0_2107_5373)">
<path d="M19.152 11.2723C19.635 11.2726 20.0328 11.6404 20.0806 12.1108L20.0851 12.2054V18.327L21.1481 17.2196L21.2176 17.1546C21.5777 16.8484 22.1187 16.8584 22.4674 17.1922C22.8161 17.5267 22.8485 18.0671 22.5575 18.4398L22.4948 18.5116L19.8242 21.2961C19.6482 21.4794 19.405 21.5831 19.1509 21.5832C18.8969 21.583 18.6534 21.4794 18.4775 21.2961L15.807 18.5116L15.7443 18.4398C15.4536 18.0671 15.4859 17.5266 15.8343 17.1922C16.1829 16.8581 16.724 16.8487 17.0841 17.1546L17.1536 17.2196L18.2189 18.3304V12.2054L18.2235 12.1108C18.2713 11.6404 18.669 11.2726 19.152 11.2723Z" fill="white"/>
<path d="M13.7152 18.1493C14.1856 18.1972 14.5526 18.5947 14.5526 19.0778C14.5525 19.5609 14.1856 19.9584 13.7152 20.0063L13.6195 20.0109H6.18311C5.66769 20.0109 5.25008 19.5932 5.25 19.0778C5.25 18.5623 5.66764 18.1447 6.18311 18.1447H13.6195L13.7152 18.1493Z" fill="white"/>
<path d="M13.7152 12.2852C14.1856 12.3331 14.5526 12.7306 14.5526 13.2137C14.5525 13.6968 14.1856 14.0943 13.7152 14.1423L13.6195 14.1468H6.18311C5.66766 14.1468 5.25004 13.7291 5.25 13.2137C5.25 12.6982 5.66764 12.2806 6.18311 12.2806H13.6195L13.7152 12.2852Z" fill="white"/>
<path d="M19.3252 6.42106C19.7956 6.46911 20.1626 6.86655 20.1626 7.34961C20.1626 7.83267 19.7956 8.23011 19.3252 8.27816L19.2295 8.28271H6.18311C5.66764 8.28271 5.25 7.86508 5.25 7.34961C5.25 6.83415 5.66764 6.4165 6.18311 6.4165H19.2295L19.3252 6.42106Z" fill="white"/>
</g>
<defs>
<clipPath id="clip0_2107_5373">
<rect width="28" height="28" rx="12" fill="white"/>
</clipPath>
</defs>
</svg>
