<svg width="25" height="24" viewBox="0 0 25 24" fill="none" xmlns="http://www.w3.org/2000/svg">
<g clip-path="url(#clip0_730_6922)">
<path d="M9.65385 20C9.65385 20 8.34615 20 8.34615 18.6667C8.34615 17.3333 9.65385 13.3333 14.8846 13.3333C20.1154 13.3333 21.4231 17.3333 21.4231 18.6667C21.4231 20 20.1154 20 20.1154 20H9.65385ZM14.8846 12C15.9251 12 16.9229 11.5786 17.6586 10.8284C18.3944 10.0783 18.8077 9.06087 18.8077 8C18.8077 6.93913 18.3944 5.92172 17.6586 5.17157C16.9229 4.42143 15.9251 4 14.8846 4C13.8442 4 12.8463 4.42143 12.1106 5.17157C11.3749 5.92172 10.9615 6.93913 10.9615 8C10.9615 9.06087 11.3749 10.0783 12.1106 10.8284C12.8463 11.5786 13.8442 12 14.8846 12ZM7.32092 20C7.12715 19.5837 7.03048 19.1274 7.03846 18.6667C7.03846 16.86 7.92769 15 9.57015 13.7067C8.75047 13.4486 7.89628 13.3226 7.03846 13.3333C1.80769 13.3333 0.5 17.3333 0.5 18.6667C0.5 20 1.80769 20 1.80769 20H7.32092ZM6.38462 12C7.25167 12 8.08321 11.6488 8.69631 11.0237C9.30941 10.3986 9.65385 9.55072 9.65385 8.66667C9.65385 7.78261 9.30941 6.93477 8.69631 6.30964C8.08321 5.68452 7.25167 5.33333 6.38462 5.33333C5.51756 5.33333 4.68602 5.68452 4.07292 6.30964C3.45982 6.93477 3.11538 7.78261 3.11538 8.66667C3.11538 9.55072 3.45982 10.3986 4.07292 11.0237C4.68602 11.6488 5.51756 12 6.38462 12Z" fill="#3F3F3F"/>
</g>
<defs>
<clipPath id="clip0_730_6922">
<rect width="24" height="24" fill="white" transform="translate(0.5)"/>
</clipPath>
</defs>
</svg>
