<svg width="32" height="32" viewBox="0 0 32 32" fill="none" xmlns="http://www.w3.org/2000/svg">
<path d="M14.8613 9.36335C15.3679 8.45445 15.6213 8 16 8C16.3787 8 16.6321 8.45445 17.1387 9.36335L17.2698 9.59849C17.4138 9.85677 17.4858 9.98591 17.598 10.0711C17.7103 10.1563 17.8501 10.188 18.1296 10.2512L18.3842 10.3088C19.3681 10.5314 19.86 10.6427 19.977 11.0191C20.0941 11.3955 19.7587 11.7876 19.088 12.572L18.9144 12.7749C18.7238 12.9978 18.6285 13.1092 18.5857 13.2471C18.5428 13.385 18.5572 13.5336 18.586 13.831L18.6122 14.1018C18.7136 15.1482 18.7644 15.6715 18.4579 15.9041C18.1515 16.1367 17.6909 15.9246 16.7697 15.5005L16.5314 15.3907C16.2696 15.2702 16.1387 15.2099 16 15.2099C15.8613 15.2099 15.7304 15.2702 15.4686 15.3907L15.2303 15.5005C14.3091 15.9246 13.8485 16.1367 13.5421 15.9041C13.2356 15.6715 13.2864 15.1482 13.3878 14.1018L13.414 13.831C13.4428 13.5336 13.4572 13.385 13.4143 13.2471C13.3715 13.1092 13.2762 12.9978 13.0856 12.7749L12.912 12.572C12.2413 11.7876 11.9059 11.3955 12.023 11.0191C12.14 10.6427 12.6319 10.5314 13.6158 10.3088L13.8704 10.2512C14.1499 10.188 14.2897 10.1563 14.402 10.0711C14.5142 9.98591 14.5862 9.85677 14.7302 9.59849L14.8613 9.36335Z" stroke="#333333" stroke-width="2"/>
<path d="M25.3334 11.9998C25.3334 17.1545 21.1547 21.3332 16.0001 21.3332C10.8454 21.3332 6.66675 17.1545 6.66675 11.9998C6.66675 6.84518 10.8454 2.6665 16.0001 2.6665C21.1547 2.6665 25.3334 6.84518 25.3334 11.9998Z" stroke="#333333" stroke-width="2"/>
<path d="M9.80148 20L8.95232 23.0973C8.11453 26.1531 7.69564 27.681 8.25463 28.5174C8.45053 28.8106 8.71334 29.0458 9.01829 29.2011C9.88846 29.6442 11.232 28.9441 13.9191 27.544C14.8132 27.0781 15.2602 26.8451 15.7352 26.7945C15.9113 26.7758 16.0887 26.7758 16.2648 26.7945C16.7398 26.8451 17.1868 27.0781 18.0809 27.544C20.768 28.9441 22.1115 29.6442 22.9817 29.2011C23.2867 29.0458 23.5495 28.8106 23.7454 28.5174C24.3044 27.681 23.8855 26.1531 23.0477 23.0973L22.1985 20" stroke="#333333" stroke-width="2" stroke-linecap="round"/>
</svg>
