<svg width="32" height="32" viewBox="0 0 32 32" fill="none" xmlns="http://www.w3.org/2000/svg">
<path d="M13.8657 8.24431C14.2815 7.89901 14.9001 7.91865 15.2941 8.30551C15.7139 8.71839 15.7197 9.39323 15.3071 9.81332L10.2745 14.9331H24.2719L24.38 14.9383C24.9179 14.9929 25.3383 15.4472 25.3383 15.9995C25.3383 16.5519 24.9179 17.0062 24.38 17.0607L24.2719 17.0659H10.2771L15.3071 22.1844L15.38 22.2664C15.7179 22.6883 15.6879 23.3065 15.2941 23.6935C14.9002 24.0806 14.2816 24.0999 13.8657 23.7547L13.785 23.6805L6.97245 16.7469C6.56491 16.3319 6.56478 15.667 6.97245 15.2521L13.785 8.31853L13.8657 8.24431Z" fill="white"/>
</svg>
