<svg width="32" height="32" viewBox="0 0 32 32" fill="none" xmlns="http://www.w3.org/2000/svg">
<g clip-path="url(#clip0_1416_2847)">
<path fill-rule="evenodd" clip-rule="evenodd" d="M16.2174 11.8382C17.2968 11.8898 18.3194 12.3246 19.0833 13.0582C19.8975 13.8406 20.3528 14.8993 20.3528 15.9997C20.3528 17.1001 19.8976 18.1587 19.0833 18.9411C18.2684 19.7237 17.1587 20.1662 16 20.1663C14.8414 20.1662 13.7328 19.7236 12.9179 18.9411C12.1035 18.1587 11.6485 17.1002 11.6484 15.9997C11.6484 14.899 12.1034 13.8406 12.9179 13.0582C13.7329 12.2757 14.8413 11.8331 16 11.833L16.2174 11.8382ZM16 13.6676C15.3651 13.6677 14.753 13.9106 14.2995 14.346C13.8454 14.7822 13.5885 15.3769 13.5885 15.9997C13.5886 16.6223 13.8454 17.2171 14.2995 17.6533C14.7529 18.0886 15.3652 18.3316 16 18.3317C16.635 18.3315 17.2483 18.0889 17.7018 17.6533C18.1557 17.2171 18.4127 16.6222 18.4127 15.9997C18.4127 15.3771 18.1557 14.7822 17.7018 14.346C17.305 13.9648 16.7857 13.7318 16.237 13.6793L16 13.6676Z" fill="#666666"/>
<path fill-rule="evenodd" clip-rule="evenodd" d="M14.1393 5.48272C15.37 5.28247 16.6286 5.28243 17.8594 5.48272L18.4713 5.59991L18.6081 5.64028C18.9162 5.7551 19.1457 6.0134 19.207 6.32778L19.5703 8.19106L19.6028 8.32257C19.6436 8.45228 19.7065 8.57562 19.7877 8.68585C19.896 8.8325 20.0355 8.95396 20.1953 9.04262C20.3551 9.13119 20.5327 9.18516 20.7148 9.20147C20.8971 9.21767 21.0832 9.19627 21.2565 9.13767L23.1146 8.51007L23.2539 8.47231C23.5823 8.41142 23.9258 8.51642 24.1562 8.75486C25.2889 9.92696 26.133 11.3285 26.625 12.8538C26.7361 13.1997 26.6214 13.576 26.3333 13.8135L24.8346 15.0478C24.6934 15.1641 24.5775 15.3104 24.4987 15.4749C24.4203 15.639 24.3803 15.8181 24.3802 15.9997C24.3802 16.1814 24.4202 16.3614 24.4987 16.5257C24.5773 16.6897 24.6926 16.8354 24.8333 16.9515L26.332 18.1859C26.6204 18.4233 26.7363 18.7994 26.625 19.1455C26.1945 20.4803 25.4947 21.721 24.5677 22.7952L24.1562 23.2444C23.8931 23.5167 23.4832 23.6127 23.1159 23.4892L21.2552 22.8616C21.0819 22.803 20.8958 22.7816 20.7135 22.7978C20.5314 22.8142 20.3538 22.8681 20.194 22.9567C20.0342 23.0454 19.8946 23.1668 19.7864 23.3135C19.6782 23.4604 19.6038 23.6296 19.569 23.8082L19.2096 25.6702C19.1401 26.03 18.8504 26.3167 18.4739 26.3994C16.8469 26.7554 15.1557 26.7553 13.5286 26.3994C13.1527 26.317 12.8644 26.0306 12.7942 25.6715L12.431 23.8082C12.3961 23.6296 12.3204 23.4604 12.2122 23.3135C12.1042 23.1671 11.9653 23.0453 11.806 22.9567C11.6464 22.8681 11.4683 22.8143 11.2864 22.7978C11.1499 22.7856 11.0109 22.7939 10.8776 22.8239L10.7448 22.8616L8.8867 23.4892C8.51929 23.6134 8.1085 23.5166 7.84503 23.2444C6.85404 22.2191 6.08328 21.0189 5.5768 19.7132L5.37628 19.1455C5.26491 18.7994 5.37832 18.4234 5.66664 18.1859L7.16664 16.9515L7.2669 16.859C7.36201 16.7616 7.44104 16.6488 7.49998 16.5257C7.55903 16.4023 7.59806 16.2701 7.61326 16.1351L7.61977 15.9997C7.61977 15.8177 7.57857 15.638 7.49998 15.4736C7.44107 15.3506 7.36195 15.2376 7.2669 15.1403L7.16664 15.0478L5.66664 13.8135C5.37832 13.5759 5.26495 13.1999 5.37628 12.8538C5.86787 11.3286 6.7102 9.92707 7.84243 8.75486L7.94789 8.66111C8.20785 8.46165 8.56242 8.4016 8.88409 8.51007L10.7448 9.13767L10.8776 9.17543C11.0108 9.20538 11.1499 9.21366 11.2864 9.20147C11.4684 9.18503 11.6464 9.13117 11.806 9.04262C11.9654 8.95401 12.1042 8.83225 12.2122 8.68585C12.3204 8.53893 12.3961 8.36972 12.431 8.19106L12.7916 6.32908L12.8281 6.19757C12.9352 5.90079 13.1968 5.67222 13.526 5.59991L14.1393 5.48272ZM17.4192 7.277C16.4783 7.13518 15.5204 7.13525 14.5794 7.277L14.3385 8.52179C14.2538 8.95709 14.0708 9.37238 13.8034 9.73533C13.5361 10.0979 13.1891 10.4024 12.7864 10.626C12.3837 10.8493 11.9334 10.9866 11.4687 11.0283C11.0035 11.0698 10.5325 11.0156 10.0924 10.8668L8.86456 10.4502C8.2612 11.1676 7.77827 11.9722 7.43357 12.8343L8.44008 13.6637L8.56899 13.7757C8.86148 14.0444 9.0995 14.3633 9.26821 14.7158C9.46098 15.1187 9.55987 15.5573 9.55987 15.9997L9.55467 16.165C9.53294 16.5507 9.43692 16.931 9.26821 17.2835C9.09946 17.636 8.86155 17.9549 8.56899 18.2236L8.44008 18.3356L7.43357 19.1637C7.77835 20.0257 8.26116 20.8305 8.86456 21.5478L10.0924 21.1325L10.2591 21.0817C10.6499 20.972 11.0618 20.9347 11.4687 20.971C11.9334 21.0127 12.3837 21.15 12.7864 21.3734C13.1891 21.5969 13.5361 21.9014 13.8034 22.264C14.0707 22.6269 14.2538 23.041 14.3385 23.4762L14.5794 24.721C15.5203 24.8629 16.4783 24.8626 17.4192 24.721L17.6614 23.4775L17.6979 23.3135C17.7932 22.9379 17.9627 22.5815 18.1966 22.264C18.464 21.9013 18.8106 21.5969 19.2135 21.3734C19.6165 21.1499 20.0664 21.0126 20.5312 20.971C20.9962 20.9296 21.4663 20.9838 21.9062 21.1325L23.1341 21.5478C23.7379 20.8303 24.2215 20.0261 24.5664 19.1637L23.5612 18.3369C23.209 18.0468 22.926 17.6874 22.733 17.2848C22.54 16.8817 22.4401 16.4423 22.4401 15.9997C22.4402 15.5571 22.5401 15.1188 22.733 14.7158C22.926 14.3131 23.2077 13.9539 23.5599 13.6637L24.5664 12.8343C24.2215 11.9723 23.7389 11.1674 23.1354 10.4502L21.9075 10.8668C21.4676 11.0155 20.9975 11.0697 20.5325 11.0283C20.0675 10.9867 19.6166 10.8495 19.2135 10.626C18.8108 10.4024 18.4639 10.0979 18.1966 9.73533C17.9628 9.41798 17.7945 9.06125 17.6992 8.68585L17.6627 8.52309L17.4192 7.277Z" fill="#666666"/>
</g>
<defs>
<clipPath id="clip0_1416_2847">
<rect width="32" height="32" fill="white"/>
</clipPath>
</defs>
</svg>
