<svg width="17" height="16" viewBox="0 0 17 16" fill="none" xmlns="http://www.w3.org/2000/svg">
<path d="M3.16669 14.667H13.8334" stroke="#111111" stroke-width="1.5" stroke-linecap="round"/>
<path d="M9.75872 2.44163L10.2531 1.94729C11.0721 1.12825 12.4 1.12825 13.2191 1.94729C14.0381 2.76633 14.0381 4.09426 13.2191 4.9133L12.7247 5.40764M9.75872 2.44163C9.75872 2.44163 9.82051 3.49209 10.7474 4.41897C11.6743 5.34585 12.7247 5.40764 12.7247 5.40764M9.75872 2.44163L5.21406 6.98629C4.90624 7.29411 4.75233 7.44802 4.61997 7.61772C4.46383 7.81791 4.32996 8.03451 4.22074 8.26369C4.12814 8.45797 4.05931 8.66446 3.92165 9.07745L3.33832 10.8275M12.7247 5.40764L8.18007 9.9523C7.87225 10.2601 7.71834 10.414 7.54864 10.5464C7.34846 10.7025 7.13186 10.8364 6.90267 10.9456C6.70839 11.0382 6.5019 11.107 6.08892 11.2447L4.33891 11.828M4.33891 11.828L3.91114 11.9706C3.7079 12.0384 3.48384 11.9855 3.33236 11.834C3.18088 11.6825 3.12798 11.4585 3.19573 11.2552L3.33832 10.8275M4.33891 11.828L3.33832 10.8275" stroke="#111111" stroke-width="1.5"/>
</svg>
