<svg width="228" height="48" viewBox="0 0 228 48" fill="none" xmlns="http://www.w3.org/2000/svg">
<path d="M53.5075 25.6695H46.9403C46.5458 25.6695 46.1834 25.817 45.9062 26.0909C45.6183 26.3753 45.4691 26.7439 45.4691 27.1442V27.1653C45.4691 36.9506 37.4094 44.9138 27.5053 44.9138C17.6013 44.9138 9.54158 36.9506 9.54158 27.1653V27.1442C9.54158 26.7439 9.38166 26.3647 9.10448 26.0909C8.82729 25.817 8.45416 25.6695 8.07036 25.6695H1.48188C0.671642 25.6695 0.010661 26.3226 0 27.1337V27.2179C0 28.0184 0.660981 28.6715 1.48188 28.6715H6.48188L6.53518 29.1771C7.03625 34.2963 9.43497 39.0468 13.3049 42.5438C17.1962 46.0619 22.2388 48 27.5053 48C32.7719 48 37.8145 46.0619 41.7058 42.5438C45.5757 39.0468 47.9744 34.3068 48.4755 29.1771L48.5288 28.6715H53.5181C54.3284 28.6715 54.9893 28.0184 55 27.2074V27.1231C55 26.3226 54.339 25.659 53.5181 25.659L53.5075 25.6695Z" fill="#F79C22"/>
<path d="M27.5048 9.41672C27.9206 9.41672 28.2937 9.25873 28.5816 8.98486C28.8588 8.711 29.008 8.34233 29.008 7.96314V1.46412C29.008 0.663595 28.347 0.0105332 27.5261 0H27.4409C26.6306 0 25.959 0.653061 25.959 1.46412V7.96314C25.959 8.35287 26.1082 8.711 26.3854 8.98486C26.6733 9.26926 27.0464 9.41672 27.4515 9.41672H27.4728H27.4835H27.5048Z" fill="#F79C22"/>
<path d="M40.1711 12.524C39.8939 12.7979 39.7446 13.1666 39.7446 13.5458C39.7446 13.946 39.9045 14.3147 40.1924 14.5991L40.2244 14.6307C40.5122 14.9151 40.8854 15.0731 41.2905 15.0731C41.6849 15.0731 42.0474 14.9256 42.3246 14.6517L46.9834 10.0487C47.5591 9.47992 47.5591 8.56353 46.9941 7.99473L46.9088 7.91047C46.621 7.6366 46.2478 7.48914 45.8747 7.48914C45.5016 7.48914 45.1178 7.6366 44.8299 7.921L40.1711 12.524Z" fill="#F79C22"/>
<path d="M8.0281 10.0488L12.6763 14.6412C12.9535 14.9151 13.3266 15.0626 13.7104 15.0626C14.1155 15.0626 14.4887 14.9046 14.7765 14.6202L14.8085 14.5886C15.0963 14.3042 15.2563 13.9355 15.2563 13.5353C15.2563 13.1455 15.107 12.7874 14.8298 12.5135L10.171 7.9105C9.88311 7.6261 9.49932 7.47864 9.12619 7.47864C8.75305 7.47864 8.37992 7.61557 8.09207 7.89997L8.00678 7.98423C7.44175 8.55303 7.44175 9.46942 8.00678 10.0382L8.0281 10.0488Z" fill="#F79C22"/>
<path d="M20.8533 31.8104H20.832C20.4021 31.8104 20.0537 32.1547 20.0537 32.5794V36.9401C20.0537 37.3648 20.4021 37.709 20.832 37.709H20.8533C21.2831 37.709 21.6315 37.3648 21.6315 36.9401V32.5794C21.6315 32.1547 21.2831 31.8104 20.8533 31.8104Z" fill="#222220"/>
<path d="M20.8213 31.4628H20.8533C21.3437 31.4628 21.7488 31.073 21.7488 30.578C21.7488 30.0934 21.3544 29.6932 20.8533 29.6932H20.8213C20.3309 29.6932 19.9258 30.0829 19.9258 30.578C19.9258 31.0625 20.3202 31.4628 20.8213 31.4628Z" fill="#222220"/>
<path d="M25.6717 31.8104C24.8614 31.8104 24.1472 32.1054 23.5715 32.6742C22.9958 33.2429 22.6973 34.0119 22.6973 34.8124V36.9507C22.6973 37.372 23.0384 37.7196 23.4755 37.7196H23.5075C23.9339 37.7196 24.2858 37.3825 24.2858 36.9507V34.7703C24.2858 34.3805 24.4243 34.054 24.7015 33.7801C24.9787 33.5063 25.2985 33.3693 25.693 33.3693C26.0875 33.3693 26.4713 33.5379 26.7378 33.8223C26.983 34.0856 27.1109 34.4016 27.1109 34.7597V36.9401C27.1109 37.3614 27.4521 37.709 27.8892 37.709H27.9211C28.3476 37.709 28.6994 37.372 28.6994 36.9401V34.7597C28.6994 33.9487 28.4009 33.2429 27.8252 32.6742C27.2388 32.0948 26.5352 31.8104 25.7143 31.8104H25.6717Z" fill="#222220"/>
<path d="M34.5638 32.6847C33.9881 32.1053 33.2738 31.8209 32.4529 31.8209C31.632 31.8209 30.9284 32.1159 30.3527 32.6847C29.7664 33.2534 29.4785 33.9592 29.4785 34.7702C29.4785 35.5813 29.777 36.2765 30.3527 36.8558C30.9284 37.4351 31.6427 37.7195 32.4636 37.7195C32.9647 37.7195 33.4444 37.6037 33.8815 37.3614V37.4351C33.8815 37.8249 33.7429 38.1409 33.4764 38.4147C33.3271 38.5622 33.1672 38.6675 32.986 38.7307C32.6768 38.8466 32.4743 39.131 32.4743 39.447V39.4786C32.4743 40.0158 33.018 40.3845 33.519 40.1949C33.9135 40.0474 34.2653 39.8262 34.5851 39.5102C35.1715 38.9414 35.4593 38.2357 35.4593 37.4246V34.7597C35.4593 33.9486 35.1608 33.2429 34.5851 32.6741L34.5638 32.6847ZM33.4444 35.7498C33.1672 36.0237 32.8367 36.1606 32.4423 36.1606C32.0478 36.1606 31.728 36.0237 31.4508 35.7498C31.1736 35.476 31.035 35.1494 31.035 34.7702C31.035 34.391 31.1736 34.054 31.4508 33.7801C31.728 33.5062 32.0585 33.3693 32.4423 33.3693C32.8261 33.3693 33.1672 33.5062 33.4444 33.7696C33.7216 34.054 33.8602 34.37 33.8602 34.7597C33.8602 35.1494 33.7216 35.4654 33.4444 35.7393V35.7498Z" fill="#222220"/>
<path d="M20.7786 25.4696C20.9492 25.6381 21.0344 25.8277 21.0344 26.07V28.7981C21.0344 29.2194 21.3756 29.567 21.8127 29.567H21.8447C22.2711 29.567 22.6229 29.23 22.6229 28.7981V26.07C22.6229 25.4169 22.3777 24.8376 21.9086 24.3741C21.4289 23.9001 20.8532 23.6684 20.1922 23.6684C19.5313 23.6684 18.9875 23.8791 18.5398 24.3004C18.092 23.8791 17.5376 23.6684 16.898 23.6684C16.2583 23.6684 15.6507 23.9107 15.1709 24.3741C14.7018 24.8481 14.4673 25.4169 14.4673 26.07V28.7981C14.4673 29.2194 14.8084 29.567 15.2455 29.567H15.2775C15.704 29.567 16.0558 29.23 16.0558 28.7981V26.07C16.0558 25.8593 16.1304 25.6592 16.269 25.5117C16.4502 25.3221 16.6528 25.2273 16.9086 25.2273C17.1432 25.2273 17.3458 25.3116 17.5163 25.4801C17.6869 25.6486 17.7722 25.8382 17.7722 26.0805V28.8086C17.7722 29.23 18.1133 29.5775 18.5504 29.5775H18.5824C19.0089 29.5775 19.3607 29.2405 19.3607 28.8086V26.0805C19.3607 25.8488 19.446 25.6486 19.6059 25.4801C19.7765 25.3116 19.979 25.2273 20.2242 25.2273C20.4694 25.2273 20.6613 25.3116 20.8319 25.4801L20.7786 25.4696Z" fill="#222220"/>
<path d="M28.6467 24.5319C28.071 23.9631 27.3568 23.6682 26.5359 23.6682C25.715 23.6682 25.0113 23.9631 24.425 24.5319C23.8386 25.1007 23.5508 25.8064 23.5508 26.6175C23.5508 27.4285 23.8493 28.1237 24.425 28.703C25.0007 29.2718 25.715 29.5668 26.5359 29.5668C27.3568 29.5668 28.071 29.2718 28.6467 28.703C29.2331 28.1237 29.5209 27.4285 29.5209 26.6175C29.5209 25.8064 29.2224 25.1007 28.6467 24.5319ZM27.9431 26.6175C27.9431 27.0072 27.8045 27.3232 27.5273 27.5971C27.2501 27.8709 26.9303 28.0079 26.5359 28.0079C26.1414 28.0079 25.8216 27.8709 25.5444 27.5971C25.2672 27.3232 25.1286 27.0072 25.1286 26.6175C25.1286 26.2277 25.2672 25.9012 25.5444 25.6273C25.8216 25.3535 26.1414 25.2165 26.5359 25.2165C26.9303 25.2165 27.2501 25.3535 27.5273 25.6273C27.8045 25.9012 27.9431 26.2277 27.9431 26.6175Z" fill="#222220"/>
<path d="M31.2795 24.5319C30.6931 25.1007 30.4053 25.8064 30.4053 26.6175V28.7873C30.4053 29.2192 30.7571 29.5668 31.1942 29.5668C31.6313 29.5668 31.9831 29.2192 31.9831 28.7873V26.6175C31.9831 26.2277 32.1217 25.9012 32.3882 25.6273C32.5375 25.4799 32.6974 25.3745 32.8786 25.3113C33.1771 25.1955 33.3903 24.9111 33.3903 24.5951V24.5635C33.3903 24.0263 32.8466 23.6576 32.3456 23.8472C31.9618 23.9947 31.61 24.2159 31.2901 24.5319H31.2795Z" fill="#222220"/>
<path d="M39.7442 24.6162C39.2005 24.0368 38.4329 23.6892 37.6227 23.6682C36.7698 23.6471 36.0342 23.942 35.4372 24.5319C34.8615 25.1007 34.563 25.8064 34.563 26.6175V28.7979C34.563 29.2192 34.9041 29.5668 35.3412 29.5668H35.3732C35.7997 29.5668 36.1515 29.2297 36.1515 28.7979V26.6175C36.1515 26.2277 36.2901 25.9012 36.5673 25.6274C36.8444 25.3535 37.1643 25.2166 37.5587 25.2166C37.9532 25.2166 38.273 25.3535 38.5502 25.6274C38.8274 25.9012 38.966 26.2277 38.966 26.6175V28.7979C38.966 29.2192 39.3071 29.5668 39.7442 29.5668H39.7762C40.2027 29.5668 40.5545 29.2297 40.5545 28.7979V26.6175C40.5545 25.8486 40.2879 25.1744 39.7549 24.6056L39.7442 24.6162Z" fill="#222220"/>
<path d="M23.7526 16.3581C23.1876 15.8209 22.4307 15.526 21.6524 15.526C20.8635 15.526 20.1705 15.8104 19.6055 16.3581C19.0405 16.8953 18.71 17.6327 18.6993 18.4121C18.678 19.2548 18.9765 19.971 19.5735 20.5609C20.1599 21.1402 20.8635 21.4246 21.6844 21.4246C22.1854 21.4246 22.6652 21.3088 23.0916 21.0665V21.1402C23.0916 21.53 22.953 21.846 22.6865 22.1198C22.5373 22.2673 22.3773 22.3726 22.1961 22.4358C21.8869 22.5517 21.6844 22.8361 21.6844 23.1521V23.1837C21.6844 23.7209 22.2281 24.0895 22.7292 23.8999C23.1236 23.7525 23.4754 23.5313 23.7953 23.2153C24.3816 22.6465 24.6695 21.9407 24.6695 21.1297V18.4648C24.6695 17.6327 24.3603 16.9164 23.7526 16.3371V16.3581ZM22.6759 19.4654C22.3987 19.7393 22.0682 19.8762 21.6737 19.8762C21.2793 19.8762 20.9594 19.7393 20.6822 19.4654C20.4051 19.1916 20.2665 18.8756 20.2665 18.4858C20.2665 18.0961 20.4051 17.7696 20.6822 17.4957C20.9594 17.2219 21.2899 17.0849 21.6737 17.0849C22.0575 17.0849 22.3987 17.2219 22.6759 17.4852C22.953 17.7696 23.0916 18.0856 23.0916 18.4753C23.0916 18.865 22.953 19.181 22.6759 19.4549V19.4654Z" fill="#222220"/>
<path d="M28.5391 21.4247C29.392 21.4457 30.1276 21.1508 30.7246 20.5609C31.311 19.9816 31.5988 19.2864 31.5988 18.4753V16.2844C31.5988 15.8631 31.2577 15.5155 30.8206 15.5155H30.7886C30.3621 15.5155 30.0103 15.8526 30.0103 16.2844V18.4753C30.0103 18.8651 29.8717 19.1811 29.5945 19.4549C29.3174 19.7288 28.9975 19.8657 28.6031 19.8657C28.2086 19.8657 27.8781 19.7288 27.6009 19.4549C27.3238 19.1811 27.1852 18.8651 27.1852 18.4753V16.2844C27.1852 15.8631 26.844 15.5155 26.4069 15.5155H26.3749C25.9485 15.5155 25.5967 15.8526 25.5967 16.2844V18.4753C25.5967 19.2443 25.8632 19.9184 26.3963 20.4767C26.94 21.056 27.7076 21.4036 28.5178 21.4247H28.5391Z" fill="#222220"/>
<path d="M33.1875 20.8769C33.5606 21.235 34.0084 21.4141 34.5201 21.4141H35.5542C35.9807 21.4141 36.3325 21.077 36.3325 20.6451V20.6135C36.3325 20.1922 35.9913 19.8446 35.5542 19.8446H34.5201C34.4242 19.8446 34.3602 19.813 34.2962 19.7498C34.2323 19.6866 34.2003 19.6234 34.2003 19.5391V17.0638H35.2131C35.6395 17.0638 35.9913 16.7268 35.9913 16.2949V16.2633C35.9913 15.842 35.6502 15.4944 35.2131 15.4944H34.2003V14.441C34.2003 14.0197 33.8592 13.6721 33.4221 13.6721H33.3901C32.9636 13.6721 32.6118 14.0197 32.6118 14.441V19.5286C32.6118 20.0447 32.8037 20.4871 33.1662 20.8558L33.1875 20.8769Z" fill="#222220"/>
<path d="M189.92 18.5966H189.841C188.725 18.5966 187.821 19.5043 187.821 20.6239V32.2229C187.821 33.3425 188.725 34.2502 189.841 34.2502H189.92C191.036 34.2502 191.94 33.3425 191.94 32.2229V20.6239C191.94 19.5043 191.036 18.5966 189.92 18.5966Z" fill="#222220"/>
<path d="M189.833 17.6795H189.926C191.211 17.6795 192.257 16.6292 192.257 15.3397C192.257 14.0502 191.211 13 189.926 13H189.833C188.548 13 187.502 14.0502 187.502 15.3397C187.502 16.6292 188.548 17.6795 189.833 17.6795Z" fill="#222220"/>
<path d="M202.49 18.5966C200.364 18.5966 198.516 19.3677 197 20.8832C195.503 22.3787 194.702 24.4393 194.702 26.5597V32.2229C194.702 33.3395 195.609 34.2502 196.722 34.2502H196.801C197.914 34.2502 198.821 33.3395 198.821 32.2229V26.4334C198.821 25.4031 199.172 24.5456 199.894 23.8078C200.616 23.0833 201.463 22.731 202.49 22.731C203.523 22.731 204.51 23.183 205.212 23.9408C205.861 24.652 206.179 25.4696 206.179 26.4334V32.2229C206.179 33.3395 207.086 34.2502 208.199 34.2502H208.278C209.391 34.2502 210.298 33.3395 210.298 32.2229V26.4334C210.298 24.2798 209.53 22.4186 208.013 20.8898C206.497 19.3677 204.636 18.5966 202.49 18.5966Z" fill="#222220"/>
<path d="M225.715 20.9098C224.199 19.3876 222.344 18.6166 220.192 18.6166C218.04 18.6166 216.205 19.3876 214.695 20.9098C213.179 22.4319 212.404 24.2997 212.404 26.4533C212.404 28.6069 213.172 30.4548 214.695 31.9769C216.212 33.4991 218.066 34.2768 220.192 34.2768C221.517 34.2768 222.748 33.9577 223.881 33.3263V33.5257C223.881 34.5493 223.53 35.4068 222.808 36.1246C222.417 36.5102 221.987 36.796 221.517 36.9754C220.722 37.2812 220.185 38.0257 220.185 38.8765V38.9695C220.185 40.392 221.596 41.3624 222.927 40.8706C223.947 40.4917 224.881 39.8802 225.709 39.0559C227.232 37.5471 228 35.6859 228 33.5323V26.4666C228 24.313 227.232 22.4452 225.709 20.9297L225.715 20.9098ZM222.808 29.0589C222.086 29.7834 221.225 30.1357 220.192 30.1357C219.159 30.1357 218.318 29.7834 217.596 29.0589C216.874 28.3344 216.523 27.477 216.523 26.4533C216.523 25.4297 216.874 24.5656 217.596 23.8278C218.325 23.1033 219.172 22.751 220.192 22.751C221.212 22.751 222.08 23.1033 222.801 23.8278C223.53 24.5656 223.881 25.4297 223.881 26.4533C223.881 27.477 223.53 28.3344 222.808 29.0589Z" fill="#222220"/>
<path d="M133.018 23.4092C133.461 23.8546 133.673 24.373 133.673 24.9978V32.243C133.673 33.3597 134.581 34.2703 135.693 34.2703H135.773C136.885 34.2703 137.793 33.3597 137.793 32.243V24.9978C137.793 23.2563 137.164 21.7408 135.918 20.4979C134.68 19.2549 133.17 18.6234 131.435 18.6234C129.7 18.6234 128.296 19.1884 127.117 20.2984C125.951 19.1884 124.508 18.6234 122.819 18.6234C121.13 18.6234 119.554 19.2549 118.309 20.5045C117.083 21.7475 116.461 23.263 116.461 25.0045V32.2497C116.461 33.3663 117.368 34.277 118.481 34.277H118.56C119.673 34.277 120.58 33.3663 120.58 32.2497V25.0045C120.58 24.4528 120.772 23.921 121.143 23.5156C121.607 23.0104 122.15 22.7645 122.819 22.7645C123.441 22.7645 123.958 22.9772 124.395 23.4225C124.839 23.8679 125.051 24.3863 125.051 25.0111V32.2563C125.051 33.373 125.958 34.2836 127.071 34.2836H127.15C128.263 34.2836 129.17 33.373 129.17 32.2563V25.0111C129.17 24.3863 129.382 23.8679 129.819 23.4292C130.276 22.9838 130.799 22.7645 131.428 22.7645C132.057 22.7645 132.567 22.9772 133.004 23.4225L133.018 23.4092Z" fill="#222220"/>
<path d="M153.587 20.9098C152.07 19.3876 150.209 18.6166 148.064 18.6166C145.918 18.6166 144.077 19.3876 142.56 20.9098C141.044 22.4319 140.275 24.2997 140.275 26.4533C140.275 28.6069 141.044 30.4548 142.56 31.9769C144.077 33.4991 145.931 34.2701 148.064 34.2701C150.196 34.2701 152.07 33.4991 153.587 31.9769C155.104 30.4548 155.878 28.5936 155.878 26.4533C155.878 24.313 155.11 22.4386 153.587 20.9098ZM151.753 26.4533C151.753 27.477 151.395 28.3278 150.66 29.0589C149.938 29.7834 149.09 30.1357 148.064 30.1357C147.037 30.1357 146.189 29.7834 145.468 29.0589C144.746 28.3344 144.395 27.4836 144.395 26.4533C144.395 25.4231 144.746 24.5656 145.468 23.8278C146.189 23.1033 147.037 22.751 148.064 22.751C149.09 22.751 149.938 23.1033 150.66 23.8278C151.395 24.5656 151.753 25.4231 151.753 26.4533Z" fill="#222220"/>
<path d="M160.469 20.9098C158.952 22.432 158.177 24.2997 158.177 26.4534V32.203C158.177 33.3462 159.098 34.2702 160.237 34.2702C161.376 34.2702 162.297 33.3462 162.297 32.203V26.4534C162.297 25.4231 162.648 24.5656 163.369 23.8278C163.754 23.4423 164.177 23.1631 164.634 22.9837C165.429 22.6779 165.959 21.9334 165.959 21.0826V20.9962C165.959 19.5738 164.542 18.6033 163.217 19.1018C162.204 19.4807 161.283 20.0856 160.462 20.9165L160.469 20.9098Z" fill="#222220"/>
<path d="M182.575 21.1224C181.145 19.587 179.145 18.6631 177.045 18.6165C174.826 18.57 172.913 19.3411 171.343 20.9097C169.826 22.4319 169.058 24.2997 169.058 26.4533V32.2428C169.058 33.3595 169.965 34.2701 171.078 34.2701H171.158C172.27 34.2701 173.177 33.3595 173.177 32.2428V26.4533C173.177 25.423 173.528 24.5656 174.25 23.8278C174.972 23.1032 175.82 22.751 176.846 22.751C177.873 22.751 178.721 23.1032 179.443 23.8278C180.178 24.5656 180.535 25.423 180.535 26.4533V32.2428C180.535 33.3595 181.443 34.2701 182.555 34.2701H182.635C183.747 34.2701 184.655 33.3595 184.655 32.2428V26.4533C184.655 24.3994 183.953 22.6114 182.575 21.1291V21.1224Z" fill="#222220"/>
<path d="M73.2143 20.8169C71.7507 19.3944 69.7639 18.6034 67.7241 18.6167C65.6644 18.63 63.863 19.3745 62.3795 20.8235C60.9159 22.2526 60.0483 24.2135 60.002 26.2607C59.9556 28.4808 60.7239 30.4084 62.2868 31.9705C63.8034 33.4926 65.6578 34.2703 67.7903 34.2703C69.1082 34.2703 70.3467 33.9513 71.4791 33.3198V33.5192C71.4791 34.5428 71.1281 35.4003 70.4063 36.1182C70.0155 36.5037 69.585 36.7895 69.1215 36.969C68.3267 37.2747 67.7903 38.0192 67.7903 38.87V38.9631C67.7903 40.3855 69.2009 41.356 70.5321 40.8641C71.552 40.4852 72.4858 39.8737 73.307 39.0495C74.8302 37.5406 75.5985 35.6795 75.5985 33.5258V26.4601C75.5985 24.26 74.7971 22.3656 73.2077 20.8235L73.2143 20.8169ZM70.4063 29.0591C69.6844 29.7836 68.8301 30.1359 67.7903 30.1359C66.7505 30.1359 65.9161 29.7836 65.1942 29.0591C64.4723 28.3346 64.1213 27.4838 64.1213 26.4535C64.1213 25.4232 64.4723 24.5658 65.1942 23.8279C65.9161 23.1034 66.7704 22.7511 67.7903 22.7511C68.8102 22.7511 69.6778 23.1034 70.3996 23.8279C71.1281 24.5658 71.4791 25.4299 71.4791 26.4535C71.4791 27.4771 71.1281 28.3346 70.4063 29.0591Z" fill="#222220"/>
<path d="M85.7178 34.2502C87.9364 34.2967 89.857 33.5257 91.42 31.957C92.9366 30.4282 93.7114 28.5737 93.7114 26.4334V20.6239C93.7114 19.5073 92.8041 18.5966 91.6915 18.5966H91.612C90.4994 18.5966 89.5921 19.5073 89.5921 20.6239V26.4334C89.5921 27.4636 89.2411 28.3145 88.5192 29.039C87.7974 29.7635 86.9497 30.1158 85.9298 30.1158C84.9099 30.1158 84.0489 29.7635 83.3138 29.039C82.5919 28.3145 82.2409 27.4636 82.2409 26.4334V20.6239C82.2409 19.5073 81.3336 18.5966 80.221 18.5966H80.1415C79.0289 18.5966 78.1216 19.5073 78.1216 20.6239V26.4334C78.1216 28.474 78.8236 30.262 80.2011 31.7443C81.6316 33.2797 83.6317 34.2037 85.7311 34.2502H85.7178Z" fill="#222220"/>
<path d="M97.8576 32.8146C98.8179 33.7651 99.9901 34.2504 101.348 34.2504H104.05C105.162 34.2504 106.07 33.3397 106.07 32.223V32.1433C106.07 31.0266 105.162 30.116 104.05 30.116H101.348C101.109 30.116 100.924 30.0428 100.765 29.8767C100.599 29.7105 100.527 29.5377 100.527 29.305V22.7312H103.162C104.275 22.7312 105.182 21.8206 105.182 20.7039V20.6241C105.182 19.5074 104.275 18.5968 103.162 18.5968H100.527V15.7918C100.527 14.6751 99.6192 13.7645 98.5066 13.7645H98.4272C97.3079 13.7645 96.4072 14.6751 96.4072 15.7918L96.4271 29.305C96.4271 30.661 96.9106 31.8442 97.8642 32.8146H97.8576Z" fill="#222220"/>
</svg>
