<svg width="67" height="107" viewBox="0 0 67 107" fill="none" xmlns="http://www.w3.org/2000/svg">
<path d="M66 1L58 8.99997M66 8.99997L58 1" stroke="#888888" stroke-width="1.5" stroke-linejoin="round"/>
<rect y="17" width="66" height="66" rx="33" fill="black"/>
<g clip-path="url(#clip0_4_1989)">
<path d="M34 27.0009C37.1143 27.0101 38.7653 27.1085 39.8284 28.1716C41 29.3432 41 31.2288 41 35V39C41 42.7713 41 44.6569 39.8284 45.8284C38.6569 47 36.7712 47 33 47C29.2288 47 27.3431 47 26.1716 45.8284C25 44.6569 25 42.7713 25 39V36.0009" stroke="white" stroke-width="1.5" stroke-linecap="round"/>
<path d="M36 44H30" stroke="white" stroke-width="1.5" stroke-linecap="round"/>
<path d="M31 29.5H24" stroke="white" stroke-width="1.5" stroke-linecap="round"/>
<path d="M27.5 26L27.5 33" stroke="white" stroke-width="1.5" stroke-linecap="round"/>
</g>
<path d="M22.6229 59.02H14.5629V58.13H18.0829V57.56C17.7429 57.5333 17.4229 57.4833 17.1229 57.41C16.8229 57.33 16.5596 57.2266 16.3329 57.1C16.1129 56.9733 15.9396 56.8233 15.8129 56.65C15.6862 56.47 15.6229 56.2666 15.6229 56.04C15.6229 55.8666 15.7162 55.6833 15.9029 55.49C16.0896 55.29 16.3562 55.1333 16.7029 55.02H15.2529V54.16H18.0929V53.4H19.2029V54.16H22.0129V55.02H20.5229C20.8829 55.1333 21.1496 55.29 21.3229 55.49C21.5029 55.6833 21.5929 55.8666 21.5929 56.04C21.5929 56.26 21.5296 56.4566 21.4029 56.63C21.2829 56.8033 21.1162 56.9533 20.9029 57.08C20.6896 57.2066 20.4362 57.3133 20.1429 57.4C19.8562 57.48 19.5429 57.5333 19.2029 57.56V58.13H22.6229V59.02ZM21.6629 62.4H15.5629V59.63H21.6629V62.4ZM19.9429 56.64C20.1162 56.56 20.2529 56.4633 20.3529 56.35C20.4596 56.23 20.5129 56.0933 20.5129 55.94C20.5129 55.8 20.4596 55.6733 20.3529 55.56C20.2529 55.4466 20.1162 55.3533 19.9429 55.28C19.7696 55.2 19.5662 55.14 19.3329 55.1C19.1062 55.06 18.8662 55.04 18.6129 55.04C18.3662 55.04 18.1296 55.06 17.9029 55.1C17.6829 55.14 17.4862 55.2 17.3129 55.28C17.1462 55.3533 17.0096 55.4466 16.9029 55.56C16.8029 55.6733 16.7529 55.8 16.7529 55.94C16.7529 56.1 16.7996 56.24 16.8929 56.36C16.9929 56.4733 17.1262 56.57 17.2929 56.65C17.4662 56.7233 17.6662 56.7766 17.8929 56.81C18.1196 56.8433 18.3596 56.86 18.6129 56.86C18.8662 56.86 19.1062 56.8433 19.3329 56.81C19.5662 56.77 19.7696 56.7133 19.9429 56.64ZM20.5829 61.57V60.46H16.6629V61.57H20.5829ZM32.7754 62.43H31.6954V60.48C31.4154 60.5666 31.1121 60.63 30.7854 60.67C30.4654 60.71 30.1521 60.73 29.8454 60.73H25.7154V59.86H27.8454V58.94C27.5921 58.8866 27.3554 58.7966 27.1354 58.67C26.9154 58.5366 26.7254 58.38 26.5654 58.2C26.4054 58.0133 26.2787 57.81 26.1854 57.59C26.0987 57.3633 26.0554 57.13 26.0554 56.89C26.0554 56.7633 26.0721 56.6233 26.1054 56.47C26.1387 56.3166 26.1887 56.1666 26.2554 56.02C26.3287 55.8733 26.4154 55.7366 26.5154 55.61C26.6221 55.4766 26.7454 55.3666 26.8854 55.28H25.7754V54.43H27.8254V53.43H28.9254V54.43H30.8954V55.28H29.8454C29.9921 55.3733 30.1187 55.4866 30.2254 55.62C30.3387 55.7533 30.4321 55.8933 30.5054 56.04C30.5787 56.18 30.6321 56.3266 30.6654 56.48C30.7054 56.6266 30.7254 56.7633 30.7254 56.89C30.7254 57.13 30.6787 57.3633 30.5854 57.59C30.4921 57.81 30.3654 58.01 30.2054 58.19C30.0454 58.37 29.8554 58.5266 29.6354 58.66C29.4154 58.7866 29.1787 58.88 28.9254 58.94V59.86H29.9254C30.2521 59.86 30.5521 59.85 30.8254 59.83C31.0987 59.8033 31.3887 59.7466 31.6954 59.66V53.71H32.7754V56.74H34.0154V57.7H32.7754V62.43ZM28.9154 58.09C29.0821 58.01 29.2221 57.9033 29.3354 57.77C29.4554 57.6366 29.5454 57.4866 29.6054 57.32C29.6654 57.1466 29.6954 56.9633 29.6954 56.77C29.6954 56.5766 29.6621 56.3933 29.5954 56.22C29.5354 56.04 29.4454 55.8833 29.3254 55.75C29.2121 55.61 29.0754 55.5 28.9154 55.42C28.7554 55.34 28.5754 55.3 28.3754 55.3C28.1887 55.3 28.0154 55.34 27.8554 55.42C27.6954 55.5 27.5554 55.61 27.4354 55.75C27.3221 55.8833 27.2321 56.04 27.1654 56.22C27.0987 56.3933 27.0654 56.5766 27.0654 56.77C27.0654 56.9633 27.0954 57.1466 27.1554 57.32C27.2221 57.4866 27.3121 57.6366 27.4254 57.77C27.5454 57.9033 27.6854 58.01 27.8454 58.09C28.0054 58.1633 28.1821 58.2 28.3754 58.2C28.5754 58.2 28.7554 58.1633 28.9154 58.09ZM41.9993 60.15H40.8893V57.73H39.1893V58.74H34.9293V53.84H39.1893V54.76H40.8893V53.72H41.9993V60.15ZM42.1493 62.43H36.2493V59.48H37.3493V61.54H42.1493V62.43ZM38.0893 57.85V54.73H36.0293V57.85H38.0893ZM40.8893 56.86V55.62H39.1893V56.86H40.8893ZM49.1632 62.22H48.0932V57.52H47.2932C47.2465 58.4733 47.0599 59.2133 46.7332 59.74C46.4065 60.26 45.9599 60.52 45.3932 60.52C45.0932 60.52 44.8232 60.4433 44.5832 60.29C44.3499 60.13 44.1499 59.9033 43.9832 59.61C43.8232 59.3166 43.6999 58.96 43.6132 58.54C43.5265 58.1133 43.4832 57.6333 43.4832 57.1C43.4832 56.5666 43.5265 56.09 43.6132 55.67C43.6999 55.2433 43.8232 54.8833 43.9832 54.59C44.1499 54.2966 44.3499 54.0733 44.5832 53.92C44.8232 53.76 45.0932 53.68 45.3932 53.68C45.9465 53.68 46.3865 53.9366 46.7132 54.45C47.0465 54.9633 47.2399 55.68 47.2932 56.6H48.0932V53.71H49.1632V62.22ZM50.9332 62.43H49.8532V53.71H50.9332V62.43ZM45.3932 59.59C45.6865 59.59 45.8999 59.37 46.0332 58.93C46.1732 58.49 46.2432 57.88 46.2432 57.1C46.2432 56.32 46.1732 55.71 46.0332 55.27C45.8999 54.83 45.6865 54.61 45.3932 54.61C45.0999 54.61 44.8832 54.83 44.7432 55.27C44.6099 55.71 44.5432 56.32 44.5432 57.1C44.5432 57.88 44.6099 58.49 44.7432 58.93C44.8832 59.37 45.0999 59.59 45.3932 59.59ZM31.8061 70.13C31.4861 70.0633 31.1628 69.96 30.8361 69.82C30.5094 69.6733 30.2028 69.5066 29.9161 69.32C29.6294 69.1333 29.3694 68.94 29.1361 68.74C28.9028 68.5333 28.7161 68.3333 28.5761 68.14C28.4361 68.3266 28.2461 68.5266 28.0061 68.74C27.7728 68.9466 27.5094 69.1433 27.2161 69.33C26.9294 69.5166 26.6228 69.6833 26.2961 69.83C25.9761 69.97 25.6594 70.07 25.3461 70.13L24.7061 69.46C25.0861 69.3933 25.4528 69.2833 25.8061 69.13C26.1661 68.9766 26.4894 68.7966 26.7761 68.59C27.0628 68.3833 27.3028 68.1633 27.4961 67.93C27.6961 67.69 27.8261 67.4533 27.8861 67.22H25.3461V66.36H28.0061V65.41H29.1261V66.36H31.8261V67.22H29.2361C29.2828 67.4466 29.4028 67.6766 29.5961 67.91C29.7961 68.1433 30.0428 68.3633 30.3361 68.57C30.6294 68.7766 30.9561 68.96 31.3161 69.12C31.6828 69.2733 32.0561 69.3833 32.4361 69.45L31.8061 70.13ZM32.5461 71.53H29.1661V74.42H28.0561V71.53H24.5761V70.65H32.5461V71.53ZM33.14 71.72C33.7333 71.5066 34.2533 71.2366 34.7 70.91C35.1467 70.5833 35.5167 70.21 35.81 69.79C36.11 69.37 36.3267 68.9066 36.46 68.4C36.5933 67.8933 36.6467 67.3533 36.62 66.78H33.6V65.9H37.85C37.95 67.58 37.64 68.9666 36.92 70.06C36.2 71.1466 35.1367 71.9366 33.73 72.43L33.14 71.72ZM40.4 74.43H39.31V65.71H40.4V68.49H41.65V69.42H40.4V74.43Z" fill="white"/>
<path d="M15.555 103.529H14.664V100.845C14.488 100.882 14.29 100.915 14.07 100.944C13.8574 100.973 13.6337 100.999 13.399 101.021C13.1717 101.043 12.9407 101.061 12.706 101.076C12.4714 101.091 12.244 101.098 12.024 101.098H8.25103V94.212H12.794V94.938H9.14203V100.394H12.189C12.3577 100.394 12.5484 100.39 12.761 100.383C12.981 100.376 13.201 100.365 13.421 100.35C13.6484 100.328 13.8684 100.306 14.081 100.284C14.2937 100.255 14.488 100.222 14.664 100.185V94.014H15.555V97.039H16.974V97.809H15.555V103.529ZM23.1823 101.076C22.9183 100.937 22.6507 100.768 22.3793 100.57C22.1153 100.365 21.866 100.145 21.6313 99.91C21.404 99.668 21.1987 99.4223 21.0153 99.173C20.832 98.9236 20.689 98.678 20.5863 98.436C20.4763 98.7146 20.3223 98.9896 20.1243 99.261C19.9263 99.5323 19.7063 99.789 19.4643 100.031C19.2223 100.273 18.9657 100.493 18.6943 100.691C18.4303 100.882 18.17 101.036 17.9133 101.153L17.3083 100.559C17.6823 100.405 18.0343 100.2 18.3643 99.943C18.7017 99.679 18.995 99.3783 19.2443 99.041C19.4937 98.6963 19.6917 98.315 19.8383 97.897C19.985 97.4716 20.0583 97.0206 20.0583 96.544V94.157H21.0483V96.533C21.0483 97.017 21.1253 97.4716 21.2793 97.897C21.4407 98.315 21.646 98.6926 21.8953 99.03C22.152 99.36 22.4417 99.6496 22.7643 99.899C23.087 100.148 23.4133 100.346 23.7433 100.493L23.1823 101.076ZM25.6793 103.529H24.7883V94.014H25.6793V103.529ZM34.1081 98.568C33.8734 98.81 33.6021 99.0006 33.2941 99.14C32.9934 99.272 32.6781 99.338 32.3481 99.338C32.0181 99.338 31.6954 99.272 31.3801 99.14C31.0647 99.0006 30.7861 98.81 30.5441 98.568C30.3021 98.326 30.1077 98.0436 29.9611 97.721C29.8144 97.391 29.7411 97.0353 29.7411 96.654C29.7411 96.28 29.8144 95.9316 29.9611 95.609C30.1151 95.279 30.3131 94.9966 30.5551 94.762C30.7971 94.5273 31.0721 94.344 31.3801 94.212C31.6954 94.0726 32.0181 94.003 32.3481 94.003C32.6707 94.003 32.9824 94.0726 33.2831 94.212C33.5911 94.344 33.8624 94.5273 34.0971 94.762C34.3391 94.9966 34.5297 95.279 34.6691 95.609C34.8157 95.9316 34.8891 96.28 34.8891 96.654C34.8891 97.0353 34.8157 97.391 34.6691 97.721C34.5297 98.0436 34.3427 98.326 34.1081 98.568ZM32.9971 98.502C33.2024 98.392 33.3747 98.249 33.5141 98.073C33.6534 97.8896 33.7597 97.677 33.8331 97.435C33.9064 97.193 33.9431 96.9363 33.9431 96.665C33.9431 96.401 33.9064 96.1516 33.8331 95.917C33.7671 95.6823 33.6644 95.477 33.5251 95.301C33.3857 95.125 33.2171 94.9856 33.0191 94.883C32.8211 94.7803 32.5974 94.729 32.3481 94.729C32.0987 94.729 31.8714 94.7803 31.6661 94.883C31.4681 94.9856 31.2957 95.125 31.1491 95.301C31.0097 95.477 30.8997 95.6823 30.8191 95.917C30.7457 96.1516 30.7091 96.401 30.7091 96.665C30.7091 96.9436 30.7457 97.204 30.8191 97.446C30.8924 97.6806 30.9987 97.8896 31.1381 98.073C31.2774 98.2563 31.4461 98.3993 31.6441 98.502C31.8494 98.6046 32.0767 98.656 32.3261 98.656C32.5754 98.656 32.7991 98.6046 32.9971 98.502ZM37.5291 100.977H36.6381V94.025H37.5291V96.203H38.9371V97.006H37.5291V100.977ZM37.7711 103.529H31.4021V100.317H32.3261V102.792H37.7711V103.529ZM48.1924 102.539H39.7004V101.824H43.5504V99.8H40.6794V94.179H41.5704V96.214H46.3334V94.179H47.2244V99.8H44.4634V101.813H48.1924V102.539ZM46.3334 99.063V96.94H41.5704V99.063H46.3334ZM49.2967 100.68C49.92 100.453 50.481 100.159 50.9797 99.8C51.4857 99.4406 51.9147 99.0226 52.2667 98.546C52.6187 98.062 52.8863 97.5193 53.0697 96.918C53.253 96.3166 53.3373 95.6566 53.3227 94.938H49.7477V94.223H54.3017C54.353 95.1176 54.287 95.9353 54.1037 96.676C53.9277 97.4093 53.6453 98.0693 53.2567 98.656C52.868 99.2353 52.3803 99.745 51.7937 100.185C51.2143 100.625 50.547 100.992 49.7917 101.285L49.2967 100.68ZM57.3267 103.529H56.4357V94.014H57.3267V103.529Z" fill="#888888"/>
<defs>
<clipPath id="clip0_4_1989">
<rect width="24" height="24" fill="white" transform="translate(21 24)"/>
</clipPath>
</defs>
</svg>
