<svg width="37" height="13" viewBox="0 0 37 13" fill="none" xmlns="http://www.w3.org/2000/svg">
<path fill-rule="evenodd" clip-rule="evenodd" d="M18.2687 8.161C18.6479 8.161 18.9891 8.02999 19.2546 7.79418C19.5105 7.55837 19.6527 7.25268 19.6527 6.9208V1.36612C19.6527 0.676149 19.046 0.117188 18.2971 0.117188H18.2213C17.4724 0.117188 16.8656 0.676149 16.8656 1.36612V6.9208C16.8656 7.25268 17.0078 7.5671 17.2638 7.79418C17.5198 8.02999 17.8705 8.161 18.2402 8.161H18.2687ZM29.8725 10.8247C29.6166 11.0605 29.4744 11.3662 29.4744 11.6981C29.4744 12.0387 29.6166 12.3531 29.882 12.5977L29.9105 12.6239C30.1759 12.8684 30.5172 12.9994 30.8869 12.9994C31.2471 12.9994 31.5789 12.8684 31.8349 12.6326L36.1008 8.7024C36.6317 8.2133 36.6317 7.42726 36.1103 6.94691L36.0345 6.87703C35.7785 6.64122 35.4373 6.51895 35.0865 6.51895C34.7357 6.51895 34.3945 6.64122 34.129 6.88577L29.8631 10.816L29.8725 10.8247ZM4.67479 12.6327L0.40883 8.70247L0.39935 8.7112C-0.131526 8.22211 -0.131526 7.43607 0.38987 6.95571L0.465709 6.88584C0.731147 6.65003 1.07242 6.52776 1.4137 6.52776C1.75498 6.52776 2.10574 6.65003 2.37117 6.89458L6.63714 10.8248C6.8931 11.0519 7.0353 11.3663 7.0353 11.6982C7.0353 12.0388 6.8931 12.3532 6.62766 12.5977L6.59922 12.6239C6.33378 12.8685 5.9925 12.9995 5.62279 12.9995C5.26255 12.9995 4.93075 12.8685 4.67479 12.6327Z" fill="#F79C22"/>
</svg>
