<svg width="25" height="24" viewBox="0 0 25 24" fill="none" xmlns="http://www.w3.org/2000/svg">
<path d="M11.1027 3.81818C11.7237 2.72727 13.2763 2.72727 13.8973 3.81818L22.2814 18.5455C22.9025 19.6364 22.1262 21 20.8841 21H4.11592C2.87384 21 2.09753 19.6364 2.71858 18.5455L11.1027 3.81818Z" fill="#F79C22"/>
<path d="M12.5054 15.0039C12.0085 15.0037 11.606 14.6005 11.606 14.1035V9.9043C11.606 9.40735 12.0085 9.00409 12.5054 9.00391C13.0024 9.00391 13.4058 9.40724 13.4058 9.9043L13.4058 14.1035C13.4058 14.6006 13.0024 15.0039 12.5054 15.0039ZM12.5024 17.7998C12.0068 17.7998 11.605 17.398 11.605 16.9023C11.6051 16.4068 12.0069 16.0049 12.5024 16.0049C12.998 16.0049 13.3998 16.4068 13.3999 16.9023C13.3999 17.398 12.9981 17.7998 12.5024 17.7998Z" fill="#FFEEDB"/>
</svg>
