<svg width="24" height="24" viewBox="0 0 24 24" fill="none" xmlns="http://www.w3.org/2000/svg">
<path d="M18.6667 7C19.1088 7 19.5327 7.17559 19.8453 7.48816C20.1578 7.80072 20.3334 8.22464 20.3334 8.66667V18.1108C20.3334 18.5529 20.1578 18.9768 19.8453 19.2893C19.5327 19.6019 19.1088 19.7775 18.6667 19.7775H7.83341C7.39139 19.7775 6.96746 19.6019 6.6549 19.2893C6.34234 18.9768 6.16675 18.5529 6.16675 18.1108V8.66667C6.16675 8.22464 6.34234 7.80072 6.6549 7.48816C6.96746 7.17559 7.39139 7 7.83341 7H18.6667ZM11.7767 13.62L7.94675 17.45L7.89175 17.5L7.83341 17.545V18.1117H18.6667V17.545L18.6084 17.5008L18.5534 17.4508L16.6867 15.5842L16.3926 15.8792L16.4384 15.925C16.5879 16.075 16.6746 16.2762 16.6811 16.4878C16.6876 16.6994 16.6132 16.9056 16.4732 17.0644C16.3332 17.2232 16.138 17.3228 15.9272 17.3428C15.7164 17.3629 15.5059 17.302 15.3384 17.1725L15.2601 17.1033L11.7767 13.62ZM16.1667 4.5C16.5872 4.49987 16.9922 4.65867 17.3005 4.94458C17.6089 5.23049 17.7977 5.62237 17.8292 6.04167L17.8334 6.16667H6.16675C5.96264 6.16669 5.76563 6.24163 5.6131 6.37726C5.46058 6.5129 5.36313 6.69979 5.33925 6.9025L5.33341 7V17C4.91293 17.0001 4.50794 16.8413 4.19962 16.5554C3.89131 16.2695 3.70245 15.8776 3.67091 15.4583L3.66675 15.3333V7C3.66671 6.36232 3.91035 5.74874 4.34782 5.28478C4.78528 4.82083 5.3835 4.54158 6.02008 4.50417L6.16675 4.5H16.1667ZM18.6667 8.66667H7.83341V15.2067L11.0401 12C11.1368 11.9032 11.2517 11.8265 11.3781 11.7741C11.5045 11.7218 11.6399 11.6948 11.7767 11.6948C11.9136 11.6948 12.049 11.7218 12.1754 11.7741C12.3018 11.8265 12.4167 11.9032 12.5134 12L15.2142 14.7L15.9509 13.9642C16.0476 13.8674 16.1625 13.7907 16.2889 13.7383C16.4153 13.6859 16.5508 13.659 16.6876 13.659C16.8244 13.659 16.9599 13.6859 17.0863 13.7383C17.2127 13.7907 17.3275 13.8674 17.4242 13.9642L18.6667 15.2067V8.66667ZM15.7501 9.91667C15.9142 9.91667 16.0768 9.949 16.2284 10.0118C16.3801 10.0746 16.5179 10.1667 16.634 10.2828C16.75 10.3989 16.8421 10.5367 16.9049 10.6883C16.9677 10.84 17.0001 11.0025 17.0001 11.1667C17.0001 11.3308 16.9677 11.4934 16.9049 11.645C16.8421 11.7967 16.75 11.9345 16.634 12.0505C16.5179 12.1666 16.3801 12.2587 16.2284 12.3215C16.0768 12.3843 15.9142 12.4167 15.7501 12.4167C15.4186 12.4167 15.1006 12.285 14.8662 12.0505C14.6318 11.8161 14.5001 11.4982 14.5001 11.1667C14.5001 10.8351 14.6318 10.5172 14.8662 10.2828C15.1006 10.0484 15.4186 9.91667 15.7501 9.91667Z" fill="#169E4A"/>
</svg>
