<svg width="28" height="28" viewBox="0 0 28 28" fill="none" xmlns="http://www.w3.org/2000/svg">
<path d="M7.18575 10.3674C7.66782 10.3351 8.08983 10.6746 8.16899 11.141L8.17924 11.2355L8.63383 18.0054L8.69763 18.9248C8.75921 19.7712 8.82036 20.4068 8.92208 20.9141C9.05234 21.5634 9.22687 21.8742 9.45528 22.0864L9.54643 22.1628C9.77136 22.336 10.0935 22.4633 10.6744 22.5387C11.3643 22.6283 12.2791 22.6299 13.6184 22.6299H14.3817C15.7213 22.6299 16.6369 22.6284 17.3269 22.5387C17.9899 22.4525 18.3157 22.2991 18.5448 22.0864C18.7731 21.8742 18.9489 21.5632 19.0791 20.9141C19.2147 20.2378 19.2771 19.3331 19.3663 18.0054C19.4009 17.4912 19.8456 17.1028 20.3597 17.1372C20.8738 17.1719 21.2634 17.6166 21.229 18.1307C21.1434 19.4072 21.0742 20.4563 20.9089 21.2809C20.7381 22.1325 20.4412 22.8718 19.8151 23.4536C19.1899 24.0343 18.431 24.2779 17.5673 24.3901C16.7292 24.499 15.6708 24.4972 14.3817 24.4972H13.6184C12.3293 24.4972 11.2709 24.499 10.4328 24.3901C9.67699 24.2919 9.00125 24.0935 8.42533 23.6564L8.18494 23.4536C7.55867 22.8717 7.26204 22.1327 7.09119 21.2809C6.9672 20.6625 6.89801 19.9177 6.83484 19.0456L6.77218 18.1307L6.31759 11.3608L6.31531 11.2651C6.33159 10.7925 6.70375 10.3998 7.18575 10.3674Z" fill="#666666"/>
<path d="M16.5624 12.8237C17.0749 12.8755 17.4489 13.333 17.3975 13.8457L16.9053 18.7516C16.8538 19.2643 16.396 19.6379 15.8833 19.5868C15.3706 19.5351 14.9967 19.0776 15.0482 18.5648L15.5404 13.6589C15.592 13.1462 16.0496 12.7723 16.5624 12.8237Z" fill="#666666"/>
<path d="M11.4366 12.8237C11.9171 12.7758 12.3503 13.1011 12.4449 13.5643L12.4585 13.6589L12.9507 18.5648L12.9564 18.6605C12.956 19.1335 12.5962 19.5382 12.1156 19.5868C11.6348 19.635 11.203 19.3096 11.1084 18.8462L11.0936 18.7516L10.6014 13.8457L10.5969 13.75C10.5975 13.2771 10.9559 12.8721 11.4366 12.8237Z" fill="#666666"/>
<path d="M21.4854 14.3048C21.4507 14.8188 21.0059 15.2073 20.4919 15.173C19.9776 15.1385 19.5882 14.6938 19.6226 14.1795L21.4854 14.3048Z" fill="#666666"/>
<path d="M20.8143 10.3674C21.3284 10.402 21.718 10.8467 21.6836 11.3608L21.4854 14.3048L19.6226 14.1795L19.8208 11.2355C19.8556 10.7214 20.3002 10.3328 20.8143 10.3674Z" fill="#666666"/>
<path d="M22.4937 7.91667C22.9638 7.96481 23.3308 8.36247 23.3311 8.84521C23.3311 9.32816 22.9639 9.72555 22.4937 9.77376L22.398 9.77832H5.60095C5.08549 9.77832 4.66785 9.36068 4.66785 8.84521C4.66813 8.32999 5.08566 7.91211 5.60095 7.91211H22.398L22.4937 7.91667Z" fill="#666666"/>
<path d="M14 3.49951C15.5882 3.49978 16.9571 4.44492 17.5638 5.80436L17.6744 6.08236L17.7017 6.1735C17.8144 6.63279 17.5632 7.11197 17.1081 7.27409C16.6531 7.43602 16.1559 7.22353 15.9528 6.79671L15.9164 6.70784L15.8583 6.56429C15.5438 5.86018 14.8311 5.36599 14 5.36572C13.1133 5.36572 12.3613 5.92808 12.0837 6.70784L12.0472 6.79671C11.8444 7.22378 11.3459 7.43586 10.8908 7.27409C10.4056 7.10114 10.1521 6.56773 10.3246 6.08236L10.4362 5.80436C11.0431 4.44488 12.4117 3.49951 14 3.49951Z" fill="#666666"/>
</svg>
